G75*
%MOIN*%
%OFA0B0*%
%FSLAX25Y25*%
%IPPOS*%
%LPD*%
%AMOC8*
5,1,8,0,0,1.08239X$1,22.5*
%
%ADD10OC8,0.05200*%
%ADD11C,0.06000*%
%ADD12R,0.04800X0.08800*%
%ADD13R,0.14173X0.08661*%
%ADD14R,0.07874X0.04724*%
%ADD15R,0.04724X0.07874*%
%ADD16C,0.05937*%
%ADD17OC8,0.10000*%
%ADD18C,0.01000*%
%ADD19C,0.04000*%
%ADD20C,0.01600*%
D10*
X0027902Y0078701D03*
X0027902Y0088701D03*
X0016800Y0083582D03*
X0016800Y0113582D03*
X0016800Y0123582D03*
X0026800Y0123582D03*
X0026800Y0153582D03*
X0016800Y0153582D03*
X0111800Y0078582D03*
X0111800Y0068582D03*
X0111800Y0058582D03*
X0111800Y0048582D03*
X0121800Y0033582D03*
X0121800Y0023582D03*
X0146800Y0023582D03*
X0146800Y0033582D03*
X0141800Y0048582D03*
X0141800Y0058582D03*
X0141800Y0068582D03*
X0141800Y0078582D03*
X0126800Y0088582D03*
X0126800Y0118582D03*
X0171800Y0033582D03*
X0171800Y0023582D03*
X0196800Y0023582D03*
X0196800Y0033582D03*
D11*
X0199800Y0053582D02*
X0193800Y0053582D01*
X0182600Y0059682D02*
X0176600Y0059682D01*
X0193800Y0063582D02*
X0199800Y0063582D01*
X0199800Y0073582D02*
X0193800Y0073582D01*
X0193800Y0083582D02*
X0199800Y0083582D01*
X0199800Y0093582D02*
X0193800Y0093582D01*
X0193800Y0103582D02*
X0199800Y0103582D01*
X0199800Y0113582D02*
X0193800Y0113582D01*
X0182600Y0112482D02*
X0176600Y0112482D01*
X0193800Y0123582D02*
X0199800Y0123582D01*
X0183769Y0143456D02*
X0183769Y0149456D01*
X0173769Y0149456D02*
X0173769Y0143456D01*
X0163769Y0143456D02*
X0163769Y0149456D01*
X0153769Y0149456D02*
X0153769Y0143456D01*
X0143769Y0143456D02*
X0143769Y0149456D01*
X0133769Y0149456D02*
X0133769Y0143456D01*
X0151000Y0112482D02*
X0157000Y0112482D01*
X0157000Y0094682D02*
X0151000Y0094682D01*
X0151000Y0077482D02*
X0157000Y0077482D01*
X0176600Y0077482D02*
X0182600Y0077482D01*
X0182600Y0094682D02*
X0176600Y0094682D01*
X0157000Y0059682D02*
X0151000Y0059682D01*
D12*
X0030900Y0041382D03*
X0021800Y0041382D03*
X0012700Y0041382D03*
D13*
X0021800Y0065783D03*
D14*
X0041800Y0086456D03*
X0041800Y0094330D03*
X0041800Y0102204D03*
X0041800Y0110078D03*
X0041800Y0117952D03*
X0041800Y0125826D03*
X0041800Y0133701D03*
X0041800Y0141575D03*
X0105580Y0141575D03*
X0105580Y0133701D03*
X0105580Y0125826D03*
X0105580Y0117952D03*
X0105580Y0110078D03*
X0105580Y0102204D03*
X0105580Y0094330D03*
X0105580Y0086456D03*
D15*
X0092981Y0078582D03*
X0085107Y0078582D03*
X0077233Y0078582D03*
X0069359Y0078582D03*
X0061485Y0078582D03*
X0053611Y0078582D03*
D16*
X0024769Y0028582D02*
X0018831Y0028582D01*
X0018831Y0018582D02*
X0024769Y0018582D01*
D17*
X0076800Y0023582D03*
X0076800Y0053582D03*
D18*
X0069300Y0061082D01*
X0056800Y0061082D01*
X0045550Y0072332D01*
X0045550Y0079832D01*
X0051800Y0086082D01*
X0051800Y0114832D01*
X0049300Y0117332D01*
X0041800Y0117332D01*
X0041800Y0117952D01*
X0041800Y0110078D02*
X0041800Y0109832D01*
X0029300Y0109832D01*
X0024300Y0107332D02*
X0024300Y0096082D01*
X0026800Y0093582D01*
X0026800Y0092332D01*
X0030550Y0088582D01*
X0028050Y0088582D01*
X0027902Y0088701D01*
X0030550Y0088582D02*
X0033050Y0086082D01*
X0041800Y0086082D01*
X0041800Y0086456D01*
X0041800Y0086082D02*
X0041800Y0077332D01*
X0029300Y0064832D01*
X0021800Y0064832D01*
X0021800Y0065783D01*
X0021800Y0064832D02*
X0021800Y0041382D01*
X0030550Y0041082D02*
X0030900Y0041382D01*
X0030550Y0041082D02*
X0030550Y0032332D01*
X0026800Y0028582D01*
X0021800Y0028582D01*
X0069300Y0071082D02*
X0075550Y0064832D01*
X0105550Y0064832D01*
X0109300Y0068582D01*
X0111800Y0068582D01*
X0111800Y0078582D02*
X0109300Y0078582D01*
X0099300Y0068582D01*
X0079300Y0068582D01*
X0076800Y0071082D01*
X0076800Y0078582D01*
X0077233Y0078582D01*
X0069359Y0078582D02*
X0069300Y0078582D01*
X0069300Y0071082D01*
X0041800Y0094330D02*
X0041800Y0094832D01*
X0034300Y0094832D01*
X0034300Y0102332D02*
X0041800Y0102332D01*
X0041800Y0102204D01*
X0024300Y0107332D02*
X0018050Y0113582D01*
X0016800Y0113582D01*
X0015550Y0113582D01*
X0010550Y0118582D01*
X0015550Y0123582D01*
X0016800Y0123582D01*
X0026800Y0123582D02*
X0026800Y0122332D01*
X0018050Y0113582D01*
X0035550Y0126082D02*
X0020550Y0141082D01*
X0020550Y0147332D01*
X0016800Y0151082D01*
X0016800Y0153582D01*
X0034300Y0139832D02*
X0035550Y0141082D01*
X0041800Y0141082D01*
X0041800Y0141575D01*
X0041800Y0126082D02*
X0035550Y0126082D01*
X0041800Y0126082D02*
X0041800Y0125826D01*
X0098050Y0111082D02*
X0099300Y0109832D01*
X0105550Y0109832D01*
X0105580Y0110078D01*
X0106800Y0109832D01*
X0113050Y0109832D01*
X0118050Y0114832D01*
X0118050Y0121082D01*
X0124300Y0127332D01*
X0144300Y0127332D01*
X0155550Y0116082D01*
X0155550Y0114832D01*
X0154300Y0113582D01*
X0154000Y0112482D01*
X0149300Y0102332D02*
X0160550Y0102332D01*
X0168050Y0094832D01*
X0168050Y0082332D01*
X0170550Y0079832D01*
X0170550Y0071082D01*
X0173050Y0068582D01*
X0186800Y0068582D01*
X0191800Y0073582D01*
X0196800Y0073582D01*
X0178050Y0051082D02*
X0174300Y0051082D01*
X0168050Y0057332D01*
X0168050Y0078582D01*
X0160550Y0086082D01*
X0148050Y0086082D01*
X0141800Y0079832D01*
X0141800Y0078582D01*
X0141800Y0068582D02*
X0144300Y0068582D01*
X0145550Y0067332D01*
X0160550Y0067332D01*
X0165550Y0062332D01*
X0165550Y0038582D01*
X0170550Y0033582D01*
X0171800Y0033582D01*
X0178050Y0051082D02*
X0195550Y0033582D01*
X0196800Y0033582D01*
X0141800Y0048582D02*
X0139300Y0048582D01*
X0135550Y0044832D01*
X0131800Y0044832D01*
X0121800Y0034832D01*
X0121800Y0033582D01*
X0113050Y0094832D02*
X0106800Y0094832D01*
X0105580Y0094330D01*
X0113050Y0094832D02*
X0123050Y0104832D01*
X0123050Y0112332D01*
X0126800Y0116082D01*
X0126800Y0118582D01*
X0124300Y0123582D02*
X0130550Y0123582D01*
X0131800Y0124832D01*
X0141800Y0114832D01*
X0141800Y0109832D01*
X0149300Y0102332D01*
X0124300Y0123582D02*
X0120550Y0119832D01*
X0120550Y0109832D01*
X0113050Y0102332D01*
X0106800Y0102332D01*
X0105580Y0102204D01*
X0105580Y0117952D02*
X0106800Y0118582D01*
X0113050Y0118582D01*
X0106800Y0126082D02*
X0105580Y0125826D01*
X0106800Y0126082D02*
X0119300Y0126082D01*
X0123050Y0129832D01*
X0175550Y0129832D01*
X0191800Y0113582D01*
X0196800Y0113582D01*
X0196800Y0123582D02*
X0195550Y0124832D01*
X0195550Y0129832D01*
X0193050Y0132332D01*
X0161800Y0132332D01*
X0154300Y0139832D01*
X0154300Y0146082D01*
X0153769Y0146456D01*
X0163050Y0147332D02*
X0163769Y0146456D01*
X0163050Y0147332D02*
X0163050Y0152332D01*
X0156800Y0158582D01*
X0131800Y0158582D01*
X0125550Y0152332D01*
X0125550Y0146082D01*
X0113050Y0133582D01*
X0106800Y0133582D01*
X0105580Y0133701D01*
X0106800Y0141082D02*
X0105580Y0141575D01*
X0106800Y0141082D02*
X0113050Y0141082D01*
X0123050Y0151082D01*
X0123050Y0153582D01*
X0130550Y0161082D01*
X0164300Y0161082D01*
X0173050Y0152332D01*
X0173050Y0147332D01*
X0173769Y0146456D01*
D19*
X0113050Y0118582D03*
X0098050Y0111082D03*
X0034300Y0102332D03*
X0029300Y0109832D03*
X0034300Y0094832D03*
X0034300Y0139832D03*
D20*
X0006600Y0172483D02*
X0006600Y0013382D01*
X0206921Y0013382D01*
X0206921Y0172483D01*
X0107600Y0172483D01*
X0107600Y0146237D01*
X0110469Y0146237D01*
X0111817Y0144889D01*
X0111817Y0143882D01*
X0111890Y0143882D01*
X0120250Y0152242D01*
X0120250Y0154139D01*
X0120676Y0155168D01*
X0128176Y0162668D01*
X0128964Y0163456D01*
X0129993Y0163882D01*
X0164857Y0163882D01*
X0165886Y0163456D01*
X0174586Y0154756D01*
X0174823Y0154756D01*
X0176771Y0153950D01*
X0178262Y0152459D01*
X0178769Y0151235D01*
X0179275Y0152459D01*
X0180766Y0153950D01*
X0182714Y0154756D01*
X0184823Y0154756D01*
X0186771Y0153950D01*
X0188262Y0152459D01*
X0189068Y0150511D01*
X0189068Y0142402D01*
X0188262Y0140454D01*
X0186771Y0138963D01*
X0184823Y0138156D01*
X0182714Y0138156D01*
X0180766Y0138963D01*
X0179275Y0140454D01*
X0178769Y0141678D01*
X0178262Y0140454D01*
X0176771Y0138963D01*
X0174823Y0138156D01*
X0172714Y0138156D01*
X0170766Y0138963D01*
X0169275Y0140454D01*
X0168769Y0141678D01*
X0168262Y0140454D01*
X0166771Y0138963D01*
X0164823Y0138156D01*
X0162714Y0138156D01*
X0160766Y0138963D01*
X0159275Y0140454D01*
X0158769Y0141678D01*
X0158262Y0140454D01*
X0157950Y0140142D01*
X0162960Y0135132D01*
X0193607Y0135132D01*
X0194636Y0134706D01*
X0197136Y0132206D01*
X0197924Y0131418D01*
X0198350Y0130389D01*
X0198350Y0128882D01*
X0200854Y0128882D01*
X0202802Y0128076D01*
X0204293Y0126585D01*
X0205100Y0124637D01*
X0205100Y0122528D01*
X0204293Y0120580D01*
X0202802Y0119089D01*
X0201578Y0118582D01*
X0202802Y0118076D01*
X0204293Y0116585D01*
X0205100Y0114637D01*
X0205100Y0112528D01*
X0204293Y0110580D01*
X0202802Y0109089D01*
X0200854Y0108282D01*
X0200809Y0108282D01*
X0200924Y0108264D01*
X0201643Y0108031D01*
X0202316Y0107688D01*
X0202927Y0107244D01*
X0203461Y0106709D01*
X0203905Y0106098D01*
X0204248Y0105425D01*
X0204482Y0104706D01*
X0204600Y0103960D01*
X0204600Y0103782D01*
X0197000Y0103782D01*
X0197000Y0103382D01*
X0204600Y0103382D01*
X0204600Y0103205D01*
X0204482Y0102458D01*
X0204248Y0101740D01*
X0203905Y0101067D01*
X0203461Y0100455D01*
X0202927Y0099921D01*
X0202316Y0099477D01*
X0201643Y0099134D01*
X0200924Y0098901D01*
X0200809Y0098882D01*
X0200854Y0098882D01*
X0202802Y0098076D01*
X0204293Y0096585D01*
X0205100Y0094637D01*
X0205100Y0092528D01*
X0204293Y0090580D01*
X0202802Y0089089D01*
X0201578Y0088582D01*
X0202802Y0088076D01*
X0204293Y0086585D01*
X0205100Y0084637D01*
X0205100Y0082528D01*
X0204293Y0080580D01*
X0202802Y0079089D01*
X0201578Y0078582D01*
X0202802Y0078076D01*
X0204293Y0076585D01*
X0205100Y0074637D01*
X0205100Y0072528D01*
X0204293Y0070580D01*
X0202802Y0069089D01*
X0201578Y0068582D01*
X0202802Y0068076D01*
X0204293Y0066585D01*
X0205100Y0064637D01*
X0205100Y0062528D01*
X0204293Y0060580D01*
X0202802Y0059089D01*
X0201578Y0058582D01*
X0202802Y0058076D01*
X0204293Y0056585D01*
X0205100Y0054637D01*
X0205100Y0052528D01*
X0204293Y0050580D01*
X0202802Y0049089D01*
X0200854Y0048282D01*
X0192746Y0048282D01*
X0190798Y0049089D01*
X0189307Y0050580D01*
X0188500Y0052528D01*
X0188500Y0054637D01*
X0189307Y0056585D01*
X0190798Y0058076D01*
X0192022Y0058582D01*
X0190798Y0059089D01*
X0189307Y0060580D01*
X0188500Y0062528D01*
X0188500Y0064637D01*
X0189307Y0066585D01*
X0190798Y0068076D01*
X0192022Y0068582D01*
X0191129Y0068952D01*
X0188386Y0066209D01*
X0187357Y0065782D01*
X0172493Y0065782D01*
X0171464Y0066209D01*
X0170850Y0066823D01*
X0170850Y0058492D01*
X0175460Y0053882D01*
X0178607Y0053882D01*
X0179636Y0053456D01*
X0180424Y0052668D01*
X0194690Y0038402D01*
X0194770Y0038482D01*
X0198830Y0038482D01*
X0201700Y0035612D01*
X0201700Y0031553D01*
X0198830Y0028682D01*
X0194770Y0028682D01*
X0191900Y0031553D01*
X0191900Y0033273D01*
X0176890Y0048282D01*
X0173743Y0048282D01*
X0172714Y0048709D01*
X0168350Y0053073D01*
X0168350Y0039742D01*
X0169690Y0038402D01*
X0169770Y0038482D01*
X0173830Y0038482D01*
X0176700Y0035612D01*
X0176700Y0031553D01*
X0173830Y0028682D01*
X0169770Y0028682D01*
X0166900Y0031553D01*
X0166900Y0033273D01*
X0163964Y0036209D01*
X0163176Y0036996D01*
X0162750Y0038025D01*
X0162750Y0061173D01*
X0159390Y0064532D01*
X0144993Y0064532D01*
X0144771Y0064624D01*
X0143830Y0063682D01*
X0139770Y0063682D01*
X0136900Y0066553D01*
X0136900Y0070612D01*
X0139770Y0073482D01*
X0143830Y0073482D01*
X0146700Y0070612D01*
X0146700Y0070142D01*
X0146710Y0070132D01*
X0161107Y0070132D01*
X0162136Y0069706D01*
X0162924Y0068918D01*
X0165250Y0066592D01*
X0165250Y0077423D01*
X0159390Y0083282D01*
X0149210Y0083282D01*
X0146620Y0080692D01*
X0146667Y0080645D01*
X0147998Y0081976D01*
X0149946Y0082782D01*
X0158054Y0082782D01*
X0160002Y0081976D01*
X0161493Y0080485D01*
X0162300Y0078537D01*
X0162300Y0076428D01*
X0161493Y0074480D01*
X0160002Y0072989D01*
X0158054Y0072182D01*
X0149946Y0072182D01*
X0147998Y0072989D01*
X0146507Y0074480D01*
X0145956Y0075809D01*
X0143830Y0073682D01*
X0139770Y0073682D01*
X0136900Y0076553D01*
X0136900Y0080612D01*
X0139770Y0083482D01*
X0141490Y0083482D01*
X0146464Y0088456D01*
X0147493Y0088882D01*
X0161107Y0088882D01*
X0162136Y0088456D01*
X0162924Y0087668D01*
X0165250Y0085342D01*
X0165250Y0093673D01*
X0159390Y0099532D01*
X0148743Y0099532D01*
X0147714Y0099959D01*
X0146926Y0100746D01*
X0139426Y0108246D01*
X0139000Y0109275D01*
X0139000Y0113673D01*
X0131661Y0121012D01*
X0131406Y0120906D01*
X0131700Y0120612D01*
X0131700Y0116553D01*
X0128830Y0113682D01*
X0128360Y0113682D01*
X0125850Y0111173D01*
X0125850Y0104275D01*
X0125424Y0103246D01*
X0124636Y0102459D01*
X0114636Y0092459D01*
X0113607Y0092032D01*
X0111817Y0092032D01*
X0111817Y0091016D01*
X0110841Y0090040D01*
X0110957Y0089924D01*
X0111194Y0089513D01*
X0111317Y0089056D01*
X0111317Y0086838D01*
X0105961Y0086838D01*
X0105961Y0086075D01*
X0111317Y0086075D01*
X0111317Y0083857D01*
X0111216Y0083482D01*
X0113830Y0083482D01*
X0116700Y0080612D01*
X0116700Y0076553D01*
X0113830Y0073682D01*
X0109770Y0073682D01*
X0109065Y0074388D01*
X0102310Y0067632D01*
X0104390Y0067632D01*
X0106900Y0070142D01*
X0106900Y0070612D01*
X0109770Y0073482D01*
X0113830Y0073482D01*
X0116700Y0070612D01*
X0116700Y0066553D01*
X0113830Y0063682D01*
X0109770Y0063682D01*
X0109065Y0064388D01*
X0107136Y0062459D01*
X0106107Y0062032D01*
X0074993Y0062032D01*
X0073964Y0062459D01*
X0073176Y0063246D01*
X0066926Y0069496D01*
X0066500Y0070525D01*
X0066500Y0072345D01*
X0066044Y0072345D01*
X0065422Y0072968D01*
X0064800Y0072345D01*
X0058170Y0072345D01*
X0057548Y0072968D01*
X0056926Y0072345D01*
X0050296Y0072345D01*
X0048949Y0073693D01*
X0048949Y0079271D01*
X0048350Y0078673D01*
X0048350Y0073492D01*
X0057960Y0063882D01*
X0069857Y0063882D01*
X0070886Y0063456D01*
X0073618Y0060724D01*
X0073776Y0060882D01*
X0079824Y0060882D01*
X0084100Y0056606D01*
X0084100Y0050559D01*
X0079824Y0046282D01*
X0073776Y0046282D01*
X0069500Y0050559D01*
X0069500Y0056606D01*
X0069658Y0056764D01*
X0068140Y0058282D01*
X0056243Y0058282D01*
X0055214Y0058709D01*
X0054426Y0059496D01*
X0043176Y0070746D01*
X0042750Y0071775D01*
X0042750Y0074323D01*
X0031674Y0063246D01*
X0031187Y0062759D01*
X0031187Y0060500D01*
X0029839Y0059152D01*
X0024600Y0059152D01*
X0024600Y0048082D01*
X0025153Y0048082D01*
X0026350Y0046885D01*
X0027547Y0048082D01*
X0034253Y0048082D01*
X0035600Y0046735D01*
X0035600Y0036030D01*
X0034253Y0034682D01*
X0033350Y0034682D01*
X0033350Y0031775D01*
X0032924Y0030746D01*
X0030037Y0027860D01*
X0030037Y0027534D01*
X0029235Y0025598D01*
X0027753Y0024116D01*
X0025816Y0023314D01*
X0025377Y0023314D01*
X0025885Y0023233D01*
X0026599Y0023002D01*
X0027268Y0022661D01*
X0027875Y0022220D01*
X0028406Y0021689D01*
X0028847Y0021082D01*
X0029188Y0020413D01*
X0029420Y0019699D01*
X0029537Y0018958D01*
X0029537Y0018767D01*
X0021984Y0018767D01*
X0021984Y0018398D01*
X0021984Y0013814D01*
X0025144Y0013814D01*
X0025885Y0013931D01*
X0026599Y0014163D01*
X0027268Y0014504D01*
X0027875Y0014945D01*
X0028406Y0015476D01*
X0028847Y0016083D01*
X0029188Y0016752D01*
X0029420Y0017466D01*
X0029537Y0018207D01*
X0029537Y0018398D01*
X0021984Y0018398D01*
X0021616Y0018398D01*
X0021616Y0013814D01*
X0018456Y0013814D01*
X0017715Y0013931D01*
X0017001Y0014163D01*
X0016332Y0014504D01*
X0015725Y0014945D01*
X0015194Y0015476D01*
X0014753Y0016083D01*
X0014412Y0016752D01*
X0014180Y0017466D01*
X0014063Y0018207D01*
X0014063Y0018398D01*
X0021616Y0018398D01*
X0021616Y0018767D01*
X0014063Y0018767D01*
X0014063Y0018958D01*
X0014180Y0019699D01*
X0014412Y0020413D01*
X0014753Y0021082D01*
X0015194Y0021689D01*
X0015725Y0022220D01*
X0016332Y0022661D01*
X0017001Y0023002D01*
X0017715Y0023233D01*
X0018223Y0023314D01*
X0017784Y0023314D01*
X0015847Y0024116D01*
X0014365Y0025598D01*
X0013563Y0027534D01*
X0013563Y0029630D01*
X0014365Y0031567D01*
X0015847Y0033049D01*
X0017784Y0033851D01*
X0025816Y0033851D01*
X0027437Y0033180D01*
X0027750Y0033492D01*
X0027750Y0034682D01*
X0027547Y0034682D01*
X0026350Y0035880D01*
X0025153Y0034682D01*
X0018447Y0034682D01*
X0017100Y0036030D01*
X0017100Y0046735D01*
X0018447Y0048082D01*
X0019000Y0048082D01*
X0019000Y0059152D01*
X0013761Y0059152D01*
X0012413Y0060500D01*
X0012413Y0071067D01*
X0013761Y0072414D01*
X0029839Y0072414D01*
X0031187Y0071067D01*
X0031187Y0070679D01*
X0039000Y0078492D01*
X0039000Y0081794D01*
X0036910Y0081794D01*
X0035563Y0083142D01*
X0035563Y0083282D01*
X0032493Y0083282D01*
X0031464Y0083709D01*
X0030652Y0084521D01*
X0029932Y0083801D01*
X0025873Y0083801D01*
X0023002Y0086671D01*
X0023002Y0090730D01*
X0024014Y0091742D01*
X0024000Y0091775D01*
X0024000Y0092423D01*
X0021926Y0094496D01*
X0021500Y0095525D01*
X0021500Y0106173D01*
X0018910Y0108763D01*
X0018830Y0108682D01*
X0014770Y0108682D01*
X0011900Y0111553D01*
X0011900Y0113273D01*
X0008176Y0116996D01*
X0007750Y0118025D01*
X0007750Y0119139D01*
X0008176Y0120168D01*
X0008964Y0120956D01*
X0011900Y0123892D01*
X0011900Y0125612D01*
X0014770Y0128482D01*
X0018830Y0128482D01*
X0021700Y0125612D01*
X0021700Y0121553D01*
X0018830Y0118682D01*
X0014770Y0118682D01*
X0014690Y0118763D01*
X0014510Y0118582D01*
X0014690Y0118402D01*
X0014770Y0118482D01*
X0018830Y0118482D01*
X0018910Y0118402D01*
X0021980Y0121472D01*
X0021900Y0121553D01*
X0021900Y0125612D01*
X0024770Y0128482D01*
X0028830Y0128482D01*
X0031700Y0125612D01*
X0031700Y0121553D01*
X0028830Y0118682D01*
X0027110Y0118682D01*
X0022010Y0113582D01*
X0025000Y0110592D01*
X0025000Y0110688D01*
X0025655Y0112268D01*
X0026864Y0113478D01*
X0028445Y0114132D01*
X0030155Y0114132D01*
X0031736Y0113478D01*
X0032581Y0112632D01*
X0035563Y0112632D01*
X0035563Y0113393D01*
X0036185Y0114015D01*
X0035563Y0114638D01*
X0035563Y0121267D01*
X0036185Y0121889D01*
X0035563Y0122512D01*
X0035563Y0123282D01*
X0034993Y0123282D01*
X0033964Y0123709D01*
X0018964Y0138709D01*
X0018176Y0139496D01*
X0017750Y0140525D01*
X0017750Y0146173D01*
X0015240Y0148682D01*
X0014770Y0148682D01*
X0011900Y0151553D01*
X0011900Y0155612D01*
X0014770Y0158482D01*
X0018830Y0158482D01*
X0021700Y0155612D01*
X0021700Y0151553D01*
X0020995Y0150847D01*
X0022924Y0148918D01*
X0023350Y0147889D01*
X0023350Y0142242D01*
X0036007Y0129585D01*
X0036185Y0129763D01*
X0035563Y0130386D01*
X0035563Y0135701D01*
X0035155Y0135532D01*
X0033445Y0135532D01*
X0031864Y0136187D01*
X0030655Y0137397D01*
X0030000Y0138977D01*
X0030000Y0140688D01*
X0030655Y0142268D01*
X0031864Y0143478D01*
X0033445Y0144132D01*
X0035155Y0144132D01*
X0035563Y0143964D01*
X0035563Y0144889D01*
X0036910Y0146237D01*
X0041000Y0146237D01*
X0041000Y0172483D01*
X0006600Y0172483D01*
X0006600Y0171631D02*
X0041000Y0171631D01*
X0041000Y0170032D02*
X0006600Y0170032D01*
X0006600Y0168434D02*
X0041000Y0168434D01*
X0041000Y0166835D02*
X0006600Y0166835D01*
X0006600Y0165237D02*
X0041000Y0165237D01*
X0041000Y0163638D02*
X0006600Y0163638D01*
X0006600Y0162039D02*
X0041000Y0162039D01*
X0041000Y0160441D02*
X0006600Y0160441D01*
X0006600Y0158842D02*
X0041000Y0158842D01*
X0041000Y0157244D02*
X0030068Y0157244D01*
X0028830Y0158482D02*
X0024770Y0158482D01*
X0021900Y0155612D01*
X0021900Y0151553D01*
X0024770Y0148682D01*
X0028830Y0148682D01*
X0031700Y0151553D01*
X0031700Y0155612D01*
X0028830Y0158482D01*
X0031667Y0155645D02*
X0041000Y0155645D01*
X0041000Y0154047D02*
X0031700Y0154047D01*
X0031700Y0152448D02*
X0041000Y0152448D01*
X0041000Y0150850D02*
X0030997Y0150850D01*
X0029399Y0149251D02*
X0041000Y0149251D01*
X0041000Y0147653D02*
X0023350Y0147653D01*
X0023350Y0146054D02*
X0036728Y0146054D01*
X0035563Y0144456D02*
X0023350Y0144456D01*
X0023350Y0142857D02*
X0031244Y0142857D01*
X0030237Y0141259D02*
X0024333Y0141259D01*
X0025932Y0139660D02*
X0030000Y0139660D01*
X0030379Y0138062D02*
X0027530Y0138062D01*
X0029129Y0136463D02*
X0031588Y0136463D01*
X0030727Y0134865D02*
X0035563Y0134865D01*
X0035563Y0133266D02*
X0032326Y0133266D01*
X0033924Y0131668D02*
X0035563Y0131668D01*
X0035523Y0130069D02*
X0035879Y0130069D01*
X0030800Y0126872D02*
X0030440Y0126872D01*
X0029202Y0128471D02*
X0028841Y0128471D01*
X0027603Y0130069D02*
X0006600Y0130069D01*
X0006600Y0128471D02*
X0014759Y0128471D01*
X0013160Y0126872D02*
X0006600Y0126872D01*
X0006600Y0125274D02*
X0011900Y0125274D01*
X0011683Y0123675D02*
X0006600Y0123675D01*
X0006600Y0122077D02*
X0010085Y0122077D01*
X0008486Y0120478D02*
X0006600Y0120478D01*
X0006600Y0118880D02*
X0007750Y0118880D01*
X0008058Y0117281D02*
X0006600Y0117281D01*
X0006600Y0115683D02*
X0009490Y0115683D01*
X0011088Y0114084D02*
X0006600Y0114084D01*
X0006600Y0112486D02*
X0011900Y0112486D01*
X0012566Y0110887D02*
X0006600Y0110887D01*
X0006600Y0109289D02*
X0014164Y0109289D01*
X0019982Y0107690D02*
X0006600Y0107690D01*
X0006600Y0106092D02*
X0021500Y0106092D01*
X0021500Y0104493D02*
X0006600Y0104493D01*
X0006600Y0102895D02*
X0021500Y0102895D01*
X0021500Y0101296D02*
X0006600Y0101296D01*
X0006600Y0099698D02*
X0021500Y0099698D01*
X0021500Y0098099D02*
X0006600Y0098099D01*
X0006600Y0096501D02*
X0021500Y0096501D01*
X0021758Y0094902D02*
X0006600Y0094902D01*
X0006600Y0093303D02*
X0023119Y0093303D01*
X0023977Y0091705D02*
X0006600Y0091705D01*
X0006600Y0090106D02*
X0023002Y0090106D01*
X0023002Y0088508D02*
X0006600Y0088508D01*
X0006600Y0086909D02*
X0013197Y0086909D01*
X0011900Y0085612D02*
X0011900Y0081553D01*
X0014770Y0078682D01*
X0018830Y0078682D01*
X0021700Y0081553D01*
X0021700Y0085612D01*
X0018830Y0088482D01*
X0014770Y0088482D01*
X0011900Y0085612D01*
X0011900Y0085311D02*
X0006600Y0085311D01*
X0006600Y0083712D02*
X0011900Y0083712D01*
X0011900Y0082114D02*
X0006600Y0082114D01*
X0006600Y0080515D02*
X0012937Y0080515D01*
X0014536Y0078917D02*
X0006600Y0078917D01*
X0006600Y0077318D02*
X0023502Y0077318D01*
X0023502Y0076878D02*
X0023502Y0078700D01*
X0027902Y0078700D01*
X0027902Y0078700D01*
X0027902Y0074300D01*
X0026080Y0074301D01*
X0023502Y0076878D01*
X0024660Y0075720D02*
X0006600Y0075720D01*
X0006600Y0074121D02*
X0034629Y0074121D01*
X0033031Y0072523D02*
X0006600Y0072523D01*
X0006600Y0070924D02*
X0012413Y0070924D01*
X0012413Y0069326D02*
X0006600Y0069326D01*
X0006600Y0067727D02*
X0012413Y0067727D01*
X0012413Y0066129D02*
X0006600Y0066129D01*
X0006600Y0064530D02*
X0012413Y0064530D01*
X0012413Y0062932D02*
X0006600Y0062932D01*
X0006600Y0061333D02*
X0012413Y0061333D01*
X0013178Y0059735D02*
X0006600Y0059735D01*
X0006600Y0058136D02*
X0019000Y0058136D01*
X0019000Y0056538D02*
X0006600Y0056538D01*
X0006600Y0054939D02*
X0019000Y0054939D01*
X0019000Y0053341D02*
X0006600Y0053341D01*
X0006600Y0051742D02*
X0019000Y0051742D01*
X0019000Y0050144D02*
X0006600Y0050144D01*
X0006600Y0048545D02*
X0019000Y0048545D01*
X0017312Y0046947D02*
X0016481Y0046947D01*
X0016540Y0046888D02*
X0016205Y0047223D01*
X0015795Y0047460D01*
X0015337Y0047582D01*
X0013100Y0047582D01*
X0013100Y0041782D01*
X0016900Y0041782D01*
X0016900Y0046019D01*
X0016777Y0046477D01*
X0016540Y0046888D01*
X0016900Y0045348D02*
X0017100Y0045348D01*
X0017100Y0043750D02*
X0016900Y0043750D01*
X0016900Y0042151D02*
X0017100Y0042151D01*
X0016900Y0040982D02*
X0013100Y0040982D01*
X0013100Y0035182D01*
X0015337Y0035182D01*
X0015795Y0035305D01*
X0016205Y0035542D01*
X0016540Y0035877D01*
X0016777Y0036288D01*
X0016900Y0036745D01*
X0016900Y0040982D01*
X0016900Y0040553D02*
X0017100Y0040553D01*
X0017100Y0038954D02*
X0016900Y0038954D01*
X0016900Y0037356D02*
X0017100Y0037356D01*
X0017373Y0035757D02*
X0016420Y0035757D01*
X0013100Y0035757D02*
X0012300Y0035757D01*
X0012300Y0035182D02*
X0012300Y0040982D01*
X0013100Y0040982D01*
X0013100Y0041782D01*
X0012300Y0041782D01*
X0012300Y0040982D01*
X0008500Y0040982D01*
X0008500Y0036745D01*
X0008623Y0036288D01*
X0008860Y0035877D01*
X0009195Y0035542D01*
X0009605Y0035305D01*
X0010063Y0035182D01*
X0012300Y0035182D01*
X0012300Y0037356D02*
X0013100Y0037356D01*
X0013100Y0038954D02*
X0012300Y0038954D01*
X0012300Y0040553D02*
X0013100Y0040553D01*
X0012300Y0041782D02*
X0008500Y0041782D01*
X0008500Y0046019D01*
X0008623Y0046477D01*
X0008860Y0046888D01*
X0009195Y0047223D01*
X0009605Y0047460D01*
X0010063Y0047582D01*
X0012300Y0047582D01*
X0012300Y0041782D01*
X0012300Y0042151D02*
X0013100Y0042151D01*
X0013100Y0043750D02*
X0012300Y0043750D01*
X0012300Y0045348D02*
X0013100Y0045348D01*
X0013100Y0046947D02*
X0012300Y0046947D01*
X0008919Y0046947D02*
X0006600Y0046947D01*
X0006600Y0045348D02*
X0008500Y0045348D01*
X0008500Y0043750D02*
X0006600Y0043750D01*
X0006600Y0042151D02*
X0008500Y0042151D01*
X0008500Y0040553D02*
X0006600Y0040553D01*
X0006600Y0038954D02*
X0008500Y0038954D01*
X0008500Y0037356D02*
X0006600Y0037356D01*
X0006600Y0035757D02*
X0008980Y0035757D01*
X0006600Y0034159D02*
X0027750Y0034159D01*
X0026473Y0035757D02*
X0026227Y0035757D01*
X0033350Y0034159D02*
X0116900Y0034159D01*
X0116900Y0035612D02*
X0116900Y0031553D01*
X0119770Y0028682D01*
X0123830Y0028682D01*
X0126700Y0031553D01*
X0126700Y0035612D01*
X0126620Y0035692D01*
X0132960Y0042032D01*
X0136107Y0042032D01*
X0137136Y0042459D01*
X0137924Y0043246D01*
X0137924Y0043246D01*
X0139065Y0044388D01*
X0139770Y0043682D01*
X0143830Y0043682D01*
X0146700Y0046553D01*
X0146700Y0050612D01*
X0143830Y0053482D01*
X0139770Y0053482D01*
X0136900Y0050612D01*
X0136900Y0050142D01*
X0134390Y0047632D01*
X0131243Y0047632D01*
X0130214Y0047206D01*
X0129426Y0046418D01*
X0121490Y0038482D01*
X0119770Y0038482D01*
X0116900Y0035612D01*
X0117045Y0035757D02*
X0035327Y0035757D01*
X0035600Y0037356D02*
X0118644Y0037356D01*
X0121962Y0038954D02*
X0035600Y0038954D01*
X0035600Y0040553D02*
X0123560Y0040553D01*
X0125159Y0042151D02*
X0035600Y0042151D01*
X0035600Y0043750D02*
X0109703Y0043750D01*
X0109770Y0043682D02*
X0113830Y0043682D01*
X0116700Y0046553D01*
X0116700Y0050612D01*
X0113830Y0053482D01*
X0109770Y0053482D01*
X0106900Y0050612D01*
X0106900Y0046553D01*
X0109770Y0043682D01*
X0108105Y0045348D02*
X0035600Y0045348D01*
X0035388Y0046947D02*
X0073112Y0046947D01*
X0071513Y0048545D02*
X0024600Y0048545D01*
X0024600Y0050144D02*
X0069915Y0050144D01*
X0069500Y0051742D02*
X0024600Y0051742D01*
X0024600Y0053341D02*
X0069500Y0053341D01*
X0069500Y0054939D02*
X0024600Y0054939D01*
X0024600Y0056538D02*
X0069500Y0056538D01*
X0068286Y0058136D02*
X0024600Y0058136D01*
X0030422Y0059735D02*
X0054188Y0059735D01*
X0052589Y0061333D02*
X0031187Y0061333D01*
X0031359Y0062932D02*
X0050991Y0062932D01*
X0049392Y0064530D02*
X0032958Y0064530D01*
X0034556Y0066129D02*
X0047794Y0066129D01*
X0046195Y0067727D02*
X0036155Y0067727D01*
X0037753Y0069326D02*
X0044597Y0069326D01*
X0043103Y0070924D02*
X0039352Y0070924D01*
X0040950Y0072523D02*
X0042750Y0072523D01*
X0042750Y0074121D02*
X0042549Y0074121D01*
X0037826Y0077318D02*
X0032302Y0077318D01*
X0032302Y0076878D02*
X0032302Y0078700D01*
X0027902Y0078700D01*
X0027902Y0078701D01*
X0027902Y0083100D01*
X0026080Y0083100D01*
X0023502Y0080523D01*
X0023502Y0078701D01*
X0027902Y0078701D01*
X0027902Y0078701D01*
X0027902Y0083100D01*
X0029725Y0083100D01*
X0032302Y0080523D01*
X0032302Y0078701D01*
X0027902Y0078701D01*
X0027902Y0078700D01*
X0027902Y0074301D01*
X0029725Y0074301D01*
X0032302Y0076878D01*
X0031144Y0075720D02*
X0036228Y0075720D01*
X0039000Y0078917D02*
X0032302Y0078917D01*
X0032302Y0080515D02*
X0039000Y0080515D01*
X0036591Y0082114D02*
X0030711Y0082114D01*
X0031460Y0083712D02*
X0021700Y0083712D01*
X0021700Y0082114D02*
X0025093Y0082114D01*
X0023502Y0080515D02*
X0020663Y0080515D01*
X0019064Y0078917D02*
X0023502Y0078917D01*
X0027902Y0078917D02*
X0027902Y0078917D01*
X0027902Y0080515D02*
X0027902Y0080515D01*
X0027902Y0082114D02*
X0027902Y0082114D01*
X0024362Y0085311D02*
X0021700Y0085311D01*
X0020403Y0086909D02*
X0023002Y0086909D01*
X0027902Y0077318D02*
X0027902Y0077318D01*
X0027902Y0075720D02*
X0027902Y0075720D01*
X0031187Y0070924D02*
X0031432Y0070924D01*
X0048350Y0074121D02*
X0048949Y0074121D01*
X0048949Y0075720D02*
X0048350Y0075720D01*
X0048350Y0077318D02*
X0048949Y0077318D01*
X0048949Y0078917D02*
X0048594Y0078917D01*
X0054308Y0084819D02*
X0054600Y0085525D01*
X0054600Y0115389D01*
X0054174Y0116418D01*
X0053386Y0117206D01*
X0050886Y0119706D01*
X0049857Y0120132D01*
X0048037Y0120132D01*
X0048037Y0121267D01*
X0047415Y0121889D01*
X0048037Y0122512D01*
X0048037Y0129141D01*
X0047415Y0129763D01*
X0048037Y0130386D01*
X0048037Y0137015D01*
X0047415Y0137638D01*
X0048037Y0138260D01*
X0048037Y0144889D01*
X0047644Y0145282D01*
X0099736Y0145282D01*
X0099343Y0144889D01*
X0099343Y0138260D01*
X0099965Y0137638D01*
X0099343Y0137015D01*
X0099343Y0130386D01*
X0099965Y0129763D01*
X0099343Y0129141D01*
X0099343Y0122512D01*
X0099965Y0121889D01*
X0099343Y0121267D01*
X0099343Y0115201D01*
X0098905Y0115382D01*
X0097195Y0115382D01*
X0095614Y0114728D01*
X0094405Y0113518D01*
X0093750Y0111938D01*
X0093750Y0110227D01*
X0094405Y0108647D01*
X0095614Y0107437D01*
X0097195Y0106782D01*
X0098905Y0106782D01*
X0099343Y0106963D01*
X0099343Y0106764D01*
X0099965Y0106141D01*
X0099343Y0105519D01*
X0099343Y0098890D01*
X0099965Y0098267D01*
X0099343Y0097645D01*
X0099343Y0091016D01*
X0100318Y0090040D01*
X0100202Y0089924D01*
X0099965Y0089513D01*
X0099843Y0089056D01*
X0099843Y0086838D01*
X0105198Y0086838D01*
X0105198Y0086075D01*
X0099843Y0086075D01*
X0099843Y0083857D01*
X0099965Y0083399D01*
X0100202Y0082989D01*
X0100537Y0082654D01*
X0100948Y0082417D01*
X0101406Y0082294D01*
X0105198Y0082294D01*
X0105198Y0086075D01*
X0105961Y0086075D01*
X0105961Y0082294D01*
X0108582Y0082294D01*
X0106900Y0080612D01*
X0106900Y0080142D01*
X0098140Y0071382D01*
X0080460Y0071382D01*
X0079600Y0072242D01*
X0079600Y0072345D01*
X0080548Y0072345D01*
X0081170Y0072968D01*
X0081792Y0072345D01*
X0088422Y0072345D01*
X0089044Y0072968D01*
X0089666Y0072345D01*
X0096296Y0072345D01*
X0097643Y0073693D01*
X0097643Y0083472D01*
X0096296Y0084819D01*
X0089666Y0084819D01*
X0089044Y0084197D01*
X0088422Y0084819D01*
X0081792Y0084819D01*
X0081170Y0084197D01*
X0080548Y0084819D01*
X0073918Y0084819D01*
X0073296Y0084197D01*
X0072674Y0084819D01*
X0066044Y0084819D01*
X0065422Y0084197D01*
X0064800Y0084819D01*
X0058170Y0084819D01*
X0057548Y0084197D01*
X0056926Y0084819D01*
X0054308Y0084819D01*
X0054511Y0085311D02*
X0099843Y0085311D01*
X0099843Y0086909D02*
X0054600Y0086909D01*
X0054600Y0088508D02*
X0099843Y0088508D01*
X0100252Y0090106D02*
X0054600Y0090106D01*
X0054600Y0091705D02*
X0099343Y0091705D01*
X0099343Y0093303D02*
X0054600Y0093303D01*
X0054600Y0094902D02*
X0099343Y0094902D01*
X0099343Y0096501D02*
X0054600Y0096501D01*
X0054600Y0098099D02*
X0099796Y0098099D01*
X0099343Y0099698D02*
X0054600Y0099698D01*
X0054600Y0101296D02*
X0099343Y0101296D01*
X0099343Y0102895D02*
X0054600Y0102895D01*
X0054600Y0104493D02*
X0099343Y0104493D01*
X0099915Y0106092D02*
X0054600Y0106092D01*
X0054600Y0107690D02*
X0095361Y0107690D01*
X0094139Y0109289D02*
X0054600Y0109289D01*
X0054600Y0110887D02*
X0093750Y0110887D01*
X0093977Y0112486D02*
X0054600Y0112486D01*
X0054600Y0114084D02*
X0094971Y0114084D01*
X0099343Y0115683D02*
X0054479Y0115683D01*
X0053311Y0117281D02*
X0099343Y0117281D01*
X0099343Y0118880D02*
X0051712Y0118880D01*
X0048037Y0120478D02*
X0099343Y0120478D01*
X0099777Y0122077D02*
X0047602Y0122077D01*
X0048037Y0123675D02*
X0099343Y0123675D01*
X0099343Y0125274D02*
X0048037Y0125274D01*
X0048037Y0126872D02*
X0099343Y0126872D01*
X0099343Y0128471D02*
X0048037Y0128471D01*
X0047721Y0130069D02*
X0099659Y0130069D01*
X0099343Y0131668D02*
X0048037Y0131668D01*
X0048037Y0133266D02*
X0099343Y0133266D01*
X0099343Y0134865D02*
X0048037Y0134865D01*
X0048037Y0136463D02*
X0099343Y0136463D01*
X0099540Y0138062D02*
X0047839Y0138062D01*
X0048037Y0139660D02*
X0099343Y0139660D01*
X0099343Y0141259D02*
X0048037Y0141259D01*
X0048037Y0142857D02*
X0099343Y0142857D01*
X0099343Y0144456D02*
X0048037Y0144456D01*
X0026005Y0131668D02*
X0006600Y0131668D01*
X0006600Y0133266D02*
X0024406Y0133266D01*
X0022808Y0134865D02*
X0006600Y0134865D01*
X0006600Y0136463D02*
X0021209Y0136463D01*
X0019611Y0138062D02*
X0006600Y0138062D01*
X0006600Y0139660D02*
X0018108Y0139660D01*
X0017750Y0141259D02*
X0006600Y0141259D01*
X0006600Y0142857D02*
X0017750Y0142857D01*
X0017750Y0144456D02*
X0006600Y0144456D01*
X0006600Y0146054D02*
X0017750Y0146054D01*
X0016270Y0147653D02*
X0006600Y0147653D01*
X0006600Y0149251D02*
X0014201Y0149251D01*
X0012603Y0150850D02*
X0006600Y0150850D01*
X0006600Y0152448D02*
X0011900Y0152448D01*
X0011900Y0154047D02*
X0006600Y0154047D01*
X0006600Y0155645D02*
X0011933Y0155645D01*
X0013532Y0157244D02*
X0006600Y0157244D01*
X0020068Y0157244D02*
X0023532Y0157244D01*
X0021933Y0155645D02*
X0021667Y0155645D01*
X0021700Y0154047D02*
X0021900Y0154047D01*
X0021900Y0152448D02*
X0021700Y0152448D01*
X0020997Y0150850D02*
X0022603Y0150850D01*
X0022591Y0149251D02*
X0024201Y0149251D01*
X0024759Y0128471D02*
X0018841Y0128471D01*
X0020440Y0126872D02*
X0023160Y0126872D01*
X0021900Y0125274D02*
X0021700Y0125274D01*
X0021700Y0123675D02*
X0021900Y0123675D01*
X0021900Y0122077D02*
X0021700Y0122077D01*
X0020986Y0120478D02*
X0020625Y0120478D01*
X0019388Y0118880D02*
X0019027Y0118880D01*
X0022512Y0114084D02*
X0028328Y0114084D01*
X0030272Y0114084D02*
X0036116Y0114084D01*
X0035563Y0115683D02*
X0024110Y0115683D01*
X0025709Y0117281D02*
X0035563Y0117281D01*
X0035563Y0118880D02*
X0029027Y0118880D01*
X0030625Y0120478D02*
X0035563Y0120478D01*
X0035998Y0122077D02*
X0031700Y0122077D01*
X0031700Y0123675D02*
X0034045Y0123675D01*
X0032399Y0125274D02*
X0031700Y0125274D01*
X0025872Y0112486D02*
X0023107Y0112486D01*
X0024705Y0110887D02*
X0025083Y0110887D01*
X0049319Y0072523D02*
X0050119Y0072523D01*
X0050918Y0070924D02*
X0066500Y0070924D01*
X0067097Y0069326D02*
X0052516Y0069326D01*
X0054115Y0067727D02*
X0068695Y0067727D01*
X0070294Y0066129D02*
X0055713Y0066129D01*
X0057312Y0064530D02*
X0071892Y0064530D01*
X0071410Y0062932D02*
X0073491Y0062932D01*
X0073009Y0061333D02*
X0107621Y0061333D01*
X0106900Y0060612D02*
X0106900Y0056553D01*
X0109770Y0053682D01*
X0113830Y0053682D01*
X0116700Y0056553D01*
X0116700Y0060612D01*
X0113830Y0063482D01*
X0109770Y0063482D01*
X0106900Y0060612D01*
X0106900Y0059735D02*
X0080971Y0059735D01*
X0082570Y0058136D02*
X0106900Y0058136D01*
X0106915Y0056538D02*
X0084100Y0056538D01*
X0084100Y0054939D02*
X0108514Y0054939D01*
X0109629Y0053341D02*
X0084100Y0053341D01*
X0084100Y0051742D02*
X0108030Y0051742D01*
X0106900Y0050144D02*
X0083685Y0050144D01*
X0082087Y0048545D02*
X0106900Y0048545D01*
X0106900Y0046947D02*
X0080488Y0046947D01*
X0079617Y0030382D02*
X0077000Y0030382D01*
X0077000Y0023782D01*
X0083600Y0023782D01*
X0083600Y0026399D01*
X0079617Y0030382D01*
X0080636Y0029363D02*
X0119090Y0029363D01*
X0119977Y0027982D02*
X0117400Y0025405D01*
X0117400Y0023582D01*
X0117400Y0021760D01*
X0119977Y0019182D01*
X0121800Y0019182D01*
X0121800Y0023582D01*
X0121800Y0019182D01*
X0123623Y0019182D01*
X0126200Y0021760D01*
X0126200Y0023582D01*
X0121800Y0023582D01*
X0121800Y0023582D01*
X0121800Y0023582D01*
X0117400Y0023582D01*
X0121800Y0023582D01*
X0121800Y0023582D01*
X0126200Y0023582D01*
X0126200Y0025405D01*
X0123623Y0027982D01*
X0121800Y0027982D01*
X0119977Y0027982D01*
X0119760Y0027765D02*
X0082234Y0027765D01*
X0083600Y0026166D02*
X0118161Y0026166D01*
X0117400Y0024568D02*
X0083600Y0024568D01*
X0083600Y0023382D02*
X0077000Y0023382D01*
X0077000Y0016782D01*
X0079617Y0016782D01*
X0083600Y0020766D01*
X0083600Y0023382D01*
X0083600Y0022969D02*
X0117400Y0022969D01*
X0117789Y0021370D02*
X0083600Y0021370D01*
X0082606Y0019772D02*
X0119388Y0019772D01*
X0121800Y0019772D02*
X0121800Y0019772D01*
X0121800Y0021370D02*
X0121800Y0021370D01*
X0121800Y0022969D02*
X0121800Y0022969D01*
X0121800Y0023583D02*
X0121800Y0027982D01*
X0121800Y0023583D01*
X0121800Y0023583D01*
X0121800Y0024568D02*
X0121800Y0024568D01*
X0121800Y0026166D02*
X0121800Y0026166D01*
X0121800Y0027765D02*
X0121800Y0027765D01*
X0123840Y0027765D02*
X0144760Y0027765D01*
X0144977Y0027982D02*
X0142400Y0025405D01*
X0142400Y0023582D01*
X0142400Y0021760D01*
X0144977Y0019182D01*
X0146800Y0019182D01*
X0146800Y0023582D01*
X0146800Y0019182D01*
X0148623Y0019182D01*
X0151200Y0021760D01*
X0151200Y0023582D01*
X0146800Y0023582D01*
X0146800Y0023582D01*
X0146800Y0023582D01*
X0142400Y0023582D01*
X0146800Y0023582D01*
X0146800Y0023582D01*
X0151200Y0023582D01*
X0151200Y0025405D01*
X0148623Y0027982D01*
X0146800Y0027982D01*
X0144977Y0027982D01*
X0144770Y0028682D02*
X0148830Y0028682D01*
X0151700Y0031553D01*
X0151700Y0035612D01*
X0148830Y0038482D01*
X0144770Y0038482D01*
X0141900Y0035612D01*
X0141900Y0031553D01*
X0144770Y0028682D01*
X0144090Y0029363D02*
X0124510Y0029363D01*
X0126109Y0030962D02*
X0142491Y0030962D01*
X0141900Y0032560D02*
X0126700Y0032560D01*
X0126700Y0034159D02*
X0141900Y0034159D01*
X0142045Y0035757D02*
X0126684Y0035757D01*
X0128283Y0037356D02*
X0143644Y0037356D01*
X0149956Y0037356D02*
X0163027Y0037356D01*
X0162750Y0038954D02*
X0129881Y0038954D01*
X0131480Y0040553D02*
X0162750Y0040553D01*
X0162750Y0042151D02*
X0136394Y0042151D01*
X0138427Y0043750D02*
X0139703Y0043750D01*
X0143897Y0043750D02*
X0162750Y0043750D01*
X0162750Y0045348D02*
X0145495Y0045348D01*
X0146700Y0046947D02*
X0162750Y0046947D01*
X0162750Y0048545D02*
X0146700Y0048545D01*
X0146700Y0050144D02*
X0162750Y0050144D01*
X0162750Y0051742D02*
X0145570Y0051742D01*
X0143971Y0053341D02*
X0162750Y0053341D01*
X0162750Y0054939D02*
X0157737Y0054939D01*
X0157378Y0054882D02*
X0158124Y0055001D01*
X0158843Y0055234D01*
X0159516Y0055577D01*
X0160127Y0056021D01*
X0160661Y0056555D01*
X0161105Y0057167D01*
X0161448Y0057840D01*
X0161682Y0058558D01*
X0161800Y0059305D01*
X0161800Y0059482D01*
X0154200Y0059482D01*
X0154200Y0054882D01*
X0157378Y0054882D01*
X0154200Y0054939D02*
X0153800Y0054939D01*
X0153800Y0054882D02*
X0153800Y0059482D01*
X0154200Y0059482D01*
X0154200Y0059882D01*
X0161800Y0059882D01*
X0161800Y0060060D01*
X0161682Y0060806D01*
X0161448Y0061525D01*
X0161105Y0062198D01*
X0160661Y0062809D01*
X0160127Y0063344D01*
X0159516Y0063788D01*
X0158843Y0064131D01*
X0158124Y0064364D01*
X0157378Y0064482D01*
X0154200Y0064482D01*
X0154200Y0059882D01*
X0153800Y0059882D01*
X0153800Y0064482D01*
X0150622Y0064482D01*
X0149876Y0064364D01*
X0149157Y0064131D01*
X0148484Y0063788D01*
X0147873Y0063344D01*
X0147339Y0062809D01*
X0146895Y0062198D01*
X0146552Y0061525D01*
X0146364Y0060948D01*
X0143830Y0063482D01*
X0139770Y0063482D01*
X0136900Y0060612D01*
X0136900Y0056553D01*
X0139770Y0053682D01*
X0143830Y0053682D01*
X0146700Y0056553D01*
X0146700Y0057549D01*
X0146895Y0057167D01*
X0147339Y0056555D01*
X0147873Y0056021D01*
X0148484Y0055577D01*
X0149157Y0055234D01*
X0149876Y0055001D01*
X0150622Y0054882D01*
X0153800Y0054882D01*
X0153800Y0056538D02*
X0154200Y0056538D01*
X0154200Y0058136D02*
X0153800Y0058136D01*
X0154200Y0059735D02*
X0162750Y0059735D01*
X0162750Y0058136D02*
X0161545Y0058136D01*
X0160644Y0056538D02*
X0162750Y0056538D01*
X0162589Y0061333D02*
X0161511Y0061333D01*
X0160991Y0062932D02*
X0160539Y0062932D01*
X0159392Y0064530D02*
X0144678Y0064530D01*
X0144380Y0062932D02*
X0147461Y0062932D01*
X0146489Y0061333D02*
X0145979Y0061333D01*
X0146685Y0056538D02*
X0147356Y0056538D01*
X0145086Y0054939D02*
X0150263Y0054939D01*
X0153800Y0061333D02*
X0154200Y0061333D01*
X0154200Y0062932D02*
X0153800Y0062932D01*
X0146388Y0070924D02*
X0165250Y0070924D01*
X0165250Y0069326D02*
X0162516Y0069326D01*
X0164115Y0067727D02*
X0165250Y0067727D01*
X0170850Y0066129D02*
X0171657Y0066129D01*
X0170850Y0064530D02*
X0188500Y0064530D01*
X0188500Y0062932D02*
X0186139Y0062932D01*
X0186261Y0062809D02*
X0185727Y0063344D01*
X0185116Y0063788D01*
X0184443Y0064131D01*
X0183724Y0064364D01*
X0182978Y0064482D01*
X0179800Y0064482D01*
X0179800Y0059882D01*
X0187400Y0059882D01*
X0187400Y0060060D01*
X0187282Y0060806D01*
X0187048Y0061525D01*
X0186705Y0062198D01*
X0186261Y0062809D01*
X0187111Y0061333D02*
X0188995Y0061333D01*
X0190152Y0059735D02*
X0179800Y0059735D01*
X0179800Y0059882D02*
X0179800Y0059482D01*
X0179800Y0054882D01*
X0182978Y0054882D01*
X0183724Y0055001D01*
X0184443Y0055234D01*
X0185116Y0055577D01*
X0185727Y0056021D01*
X0186261Y0056555D01*
X0186705Y0057167D01*
X0187048Y0057840D01*
X0187282Y0058558D01*
X0187400Y0059305D01*
X0187400Y0059482D01*
X0179800Y0059482D01*
X0179400Y0059482D01*
X0179400Y0054882D01*
X0176222Y0054882D01*
X0175476Y0055001D01*
X0174757Y0055234D01*
X0174084Y0055577D01*
X0173473Y0056021D01*
X0172939Y0056555D01*
X0172495Y0057167D01*
X0172152Y0057840D01*
X0171918Y0058558D01*
X0171800Y0059305D01*
X0171800Y0059482D01*
X0179400Y0059482D01*
X0179400Y0059882D01*
X0171800Y0059882D01*
X0171800Y0060060D01*
X0171918Y0060806D01*
X0172152Y0061525D01*
X0172495Y0062198D01*
X0172939Y0062809D01*
X0173473Y0063344D01*
X0174084Y0063788D01*
X0174757Y0064131D01*
X0175476Y0064364D01*
X0176222Y0064482D01*
X0179400Y0064482D01*
X0179400Y0059882D01*
X0179800Y0059882D01*
X0179400Y0059735D02*
X0170850Y0059735D01*
X0170850Y0061333D02*
X0172089Y0061333D01*
X0173061Y0062932D02*
X0170850Y0062932D01*
X0171206Y0058136D02*
X0172055Y0058136D01*
X0172804Y0056538D02*
X0172956Y0056538D01*
X0174403Y0054939D02*
X0175863Y0054939D01*
X0179400Y0054939D02*
X0179800Y0054939D01*
X0179800Y0056538D02*
X0179400Y0056538D01*
X0179400Y0058136D02*
X0179800Y0058136D01*
X0179800Y0061333D02*
X0179400Y0061333D01*
X0179400Y0062932D02*
X0179800Y0062932D01*
X0187145Y0058136D02*
X0190944Y0058136D01*
X0189287Y0056538D02*
X0186244Y0056538D01*
X0188625Y0054939D02*
X0183337Y0054939D01*
X0179751Y0053341D02*
X0188500Y0053341D01*
X0188826Y0051742D02*
X0181350Y0051742D01*
X0182948Y0050144D02*
X0189743Y0050144D01*
X0192111Y0048545D02*
X0184547Y0048545D01*
X0186146Y0046947D02*
X0206921Y0046947D01*
X0206921Y0048545D02*
X0201489Y0048545D01*
X0203857Y0050144D02*
X0206921Y0050144D01*
X0206921Y0051742D02*
X0204774Y0051742D01*
X0205100Y0053341D02*
X0206921Y0053341D01*
X0206921Y0054939D02*
X0204975Y0054939D01*
X0204313Y0056538D02*
X0206921Y0056538D01*
X0206921Y0058136D02*
X0202656Y0058136D01*
X0203448Y0059735D02*
X0206921Y0059735D01*
X0206921Y0061333D02*
X0204605Y0061333D01*
X0205100Y0062932D02*
X0206921Y0062932D01*
X0206921Y0064530D02*
X0205100Y0064530D01*
X0204482Y0066129D02*
X0206921Y0066129D01*
X0206921Y0067727D02*
X0203150Y0067727D01*
X0203039Y0069326D02*
X0206921Y0069326D01*
X0206921Y0070924D02*
X0204436Y0070924D01*
X0205098Y0072523D02*
X0206921Y0072523D01*
X0206921Y0074121D02*
X0205100Y0074121D01*
X0204651Y0075720D02*
X0206921Y0075720D01*
X0206921Y0077318D02*
X0203559Y0077318D01*
X0202386Y0078917D02*
X0206921Y0078917D01*
X0206921Y0080515D02*
X0204228Y0080515D01*
X0204928Y0082114D02*
X0206921Y0082114D01*
X0206921Y0083712D02*
X0205100Y0083712D01*
X0204821Y0085311D02*
X0206921Y0085311D01*
X0206921Y0086909D02*
X0203968Y0086909D01*
X0201758Y0088508D02*
X0206921Y0088508D01*
X0206921Y0090106D02*
X0203819Y0090106D01*
X0204759Y0091705D02*
X0206921Y0091705D01*
X0206921Y0093303D02*
X0205100Y0093303D01*
X0204990Y0094902D02*
X0206921Y0094902D01*
X0206921Y0096501D02*
X0204328Y0096501D01*
X0202745Y0098099D02*
X0206921Y0098099D01*
X0206921Y0099698D02*
X0202619Y0099698D01*
X0204022Y0101296D02*
X0206921Y0101296D01*
X0206921Y0102895D02*
X0204551Y0102895D01*
X0204516Y0104493D02*
X0206921Y0104493D01*
X0206921Y0106092D02*
X0203909Y0106092D01*
X0202311Y0107690D02*
X0206921Y0107690D01*
X0206921Y0109289D02*
X0203002Y0109289D01*
X0204420Y0110887D02*
X0206921Y0110887D01*
X0206921Y0112486D02*
X0205082Y0112486D01*
X0205100Y0114084D02*
X0206921Y0114084D01*
X0206921Y0115683D02*
X0204667Y0115683D01*
X0203597Y0117281D02*
X0206921Y0117281D01*
X0206921Y0118880D02*
X0202296Y0118880D01*
X0204191Y0120478D02*
X0206921Y0120478D01*
X0206921Y0122077D02*
X0204913Y0122077D01*
X0205100Y0123675D02*
X0206921Y0123675D01*
X0206921Y0125274D02*
X0204836Y0125274D01*
X0204005Y0126872D02*
X0206921Y0126872D01*
X0206921Y0128471D02*
X0201848Y0128471D01*
X0198350Y0130069D02*
X0206921Y0130069D01*
X0206921Y0131668D02*
X0197674Y0131668D01*
X0196076Y0133266D02*
X0206921Y0133266D01*
X0206921Y0134865D02*
X0194253Y0134865D01*
X0187468Y0139660D02*
X0206921Y0139660D01*
X0206921Y0138062D02*
X0160030Y0138062D01*
X0160069Y0139660D02*
X0158432Y0139660D01*
X0158595Y0141259D02*
X0158942Y0141259D01*
X0161629Y0136463D02*
X0206921Y0136463D01*
X0206921Y0141259D02*
X0188595Y0141259D01*
X0189068Y0142857D02*
X0206921Y0142857D01*
X0206921Y0144456D02*
X0189068Y0144456D01*
X0189068Y0146054D02*
X0206921Y0146054D01*
X0206921Y0147653D02*
X0189068Y0147653D01*
X0189068Y0149251D02*
X0206921Y0149251D01*
X0206921Y0150850D02*
X0188928Y0150850D01*
X0188266Y0152448D02*
X0206921Y0152448D01*
X0206921Y0154047D02*
X0186536Y0154047D01*
X0181001Y0154047D02*
X0176536Y0154047D01*
X0178266Y0152448D02*
X0179271Y0152448D01*
X0173697Y0155645D02*
X0206921Y0155645D01*
X0206921Y0157244D02*
X0172098Y0157244D01*
X0170500Y0158842D02*
X0206921Y0158842D01*
X0206921Y0160441D02*
X0168901Y0160441D01*
X0167303Y0162039D02*
X0206921Y0162039D01*
X0206921Y0163638D02*
X0165447Y0163638D01*
X0157376Y0154047D02*
X0156536Y0154047D01*
X0156771Y0153950D02*
X0154823Y0154756D01*
X0152714Y0154756D01*
X0150766Y0153950D01*
X0149275Y0152459D01*
X0148769Y0151235D01*
X0148262Y0152459D01*
X0146771Y0153950D01*
X0144823Y0154756D01*
X0142714Y0154756D01*
X0140766Y0153950D01*
X0139275Y0152459D01*
X0138469Y0150511D01*
X0138469Y0150465D01*
X0138450Y0150580D01*
X0138217Y0151299D01*
X0137874Y0151972D01*
X0137430Y0152583D01*
X0136895Y0153118D01*
X0136284Y0153562D01*
X0135611Y0153905D01*
X0134893Y0154138D01*
X0134146Y0154256D01*
X0133969Y0154256D01*
X0133969Y0146656D01*
X0133568Y0146656D01*
X0133568Y0146256D01*
X0133969Y0146256D01*
X0133969Y0138656D01*
X0134146Y0138656D01*
X0134893Y0138775D01*
X0135611Y0139008D01*
X0136284Y0139351D01*
X0136895Y0139795D01*
X0137430Y0140329D01*
X0137874Y0140941D01*
X0138217Y0141614D01*
X0138450Y0142332D01*
X0138469Y0142447D01*
X0138469Y0142402D01*
X0139275Y0140454D01*
X0140766Y0138963D01*
X0142714Y0138156D01*
X0144823Y0138156D01*
X0146771Y0138963D01*
X0148262Y0140454D01*
X0148769Y0141678D01*
X0149275Y0140454D01*
X0150766Y0138963D01*
X0151808Y0138532D01*
X0151926Y0138246D01*
X0157540Y0132632D01*
X0122493Y0132632D01*
X0121464Y0132206D01*
X0120676Y0131418D01*
X0118140Y0128882D01*
X0111817Y0128882D01*
X0111817Y0129141D01*
X0111194Y0129763D01*
X0111817Y0130386D01*
X0111817Y0130782D01*
X0113607Y0130782D01*
X0114636Y0131209D01*
X0127136Y0143709D01*
X0127924Y0144496D01*
X0128350Y0145525D01*
X0128350Y0151173D01*
X0132960Y0155782D01*
X0155640Y0155782D01*
X0159184Y0152238D01*
X0158769Y0151235D01*
X0158262Y0152459D01*
X0156771Y0153950D01*
X0155777Y0155645D02*
X0132823Y0155645D01*
X0133391Y0154256D02*
X0132644Y0154138D01*
X0131926Y0153905D01*
X0131253Y0153562D01*
X0130642Y0153118D01*
X0130107Y0152583D01*
X0129663Y0151972D01*
X0129320Y0151299D01*
X0129087Y0150580D01*
X0128969Y0149834D01*
X0128968Y0146656D01*
X0133568Y0146656D01*
X0133568Y0154256D01*
X0133391Y0154256D01*
X0133568Y0154047D02*
X0133969Y0154047D01*
X0135173Y0154047D02*
X0141001Y0154047D01*
X0139271Y0152448D02*
X0137528Y0152448D01*
X0138363Y0150850D02*
X0138609Y0150850D01*
X0133969Y0150850D02*
X0133568Y0150850D01*
X0133568Y0152448D02*
X0133969Y0152448D01*
X0132364Y0154047D02*
X0131224Y0154047D01*
X0130009Y0152448D02*
X0129626Y0152448D01*
X0129174Y0150850D02*
X0128350Y0150850D01*
X0128350Y0149251D02*
X0128969Y0149251D01*
X0128969Y0147653D02*
X0128350Y0147653D01*
X0128969Y0146256D02*
X0128969Y0143079D01*
X0129087Y0142332D01*
X0129320Y0141614D01*
X0129663Y0140941D01*
X0130107Y0140329D01*
X0130642Y0139795D01*
X0131253Y0139351D01*
X0131926Y0139008D01*
X0132644Y0138775D01*
X0133391Y0138656D01*
X0133568Y0138656D01*
X0133568Y0146256D01*
X0128969Y0146256D01*
X0128969Y0146054D02*
X0128350Y0146054D01*
X0127883Y0144456D02*
X0128969Y0144456D01*
X0129004Y0142857D02*
X0126285Y0142857D01*
X0124686Y0141259D02*
X0129501Y0141259D01*
X0130827Y0139660D02*
X0123088Y0139660D01*
X0121489Y0138062D02*
X0152111Y0138062D01*
X0153709Y0136463D02*
X0119891Y0136463D01*
X0118292Y0134865D02*
X0155308Y0134865D01*
X0156906Y0133266D02*
X0116694Y0133266D01*
X0115095Y0131668D02*
X0120926Y0131668D01*
X0120676Y0131418D02*
X0120676Y0131418D01*
X0119327Y0130069D02*
X0111500Y0130069D01*
X0111817Y0144456D02*
X0112464Y0144456D01*
X0114062Y0146054D02*
X0110652Y0146054D01*
X0107600Y0147653D02*
X0115661Y0147653D01*
X0117259Y0149251D02*
X0107600Y0149251D01*
X0107600Y0150850D02*
X0118858Y0150850D01*
X0120250Y0152448D02*
X0107600Y0152448D01*
X0107600Y0154047D02*
X0120250Y0154047D01*
X0121153Y0155645D02*
X0107600Y0155645D01*
X0107600Y0157244D02*
X0122752Y0157244D01*
X0124350Y0158842D02*
X0107600Y0158842D01*
X0107600Y0160441D02*
X0125949Y0160441D01*
X0127547Y0162039D02*
X0107600Y0162039D01*
X0107600Y0163638D02*
X0129403Y0163638D01*
X0133568Y0149251D02*
X0133969Y0149251D01*
X0133969Y0147653D02*
X0133568Y0147653D01*
X0133568Y0146054D02*
X0133969Y0146054D01*
X0133969Y0144456D02*
X0133568Y0144456D01*
X0133568Y0142857D02*
X0133969Y0142857D01*
X0133969Y0141259D02*
X0133568Y0141259D01*
X0133568Y0139660D02*
X0133969Y0139660D01*
X0136710Y0139660D02*
X0140069Y0139660D01*
X0138942Y0141259D02*
X0138036Y0141259D01*
X0147468Y0139660D02*
X0150069Y0139660D01*
X0148942Y0141259D02*
X0148595Y0141259D01*
X0148266Y0152448D02*
X0149271Y0152448D01*
X0151001Y0154047D02*
X0146536Y0154047D01*
X0158266Y0152448D02*
X0158974Y0152448D01*
X0168595Y0141259D02*
X0168942Y0141259D01*
X0170069Y0139660D02*
X0167468Y0139660D01*
X0177468Y0139660D02*
X0180069Y0139660D01*
X0178942Y0141259D02*
X0178595Y0141259D01*
X0174390Y0127032D02*
X0183640Y0117782D01*
X0175546Y0117782D01*
X0173598Y0116976D01*
X0172107Y0115485D01*
X0171300Y0113537D01*
X0171300Y0111428D01*
X0172107Y0109480D01*
X0173598Y0107989D01*
X0175546Y0107182D01*
X0183654Y0107182D01*
X0185602Y0107989D01*
X0187093Y0109480D01*
X0187900Y0111428D01*
X0187900Y0113523D01*
X0188500Y0112923D01*
X0188500Y0112528D01*
X0189307Y0110580D01*
X0190798Y0109089D01*
X0192746Y0108282D01*
X0192791Y0108282D01*
X0192676Y0108264D01*
X0191957Y0108031D01*
X0191284Y0107688D01*
X0190673Y0107244D01*
X0190139Y0106709D01*
X0189695Y0106098D01*
X0189352Y0105425D01*
X0189118Y0104706D01*
X0189000Y0103960D01*
X0189000Y0103782D01*
X0196600Y0103782D01*
X0196600Y0103382D01*
X0189000Y0103382D01*
X0189000Y0103205D01*
X0189118Y0102458D01*
X0189352Y0101740D01*
X0189695Y0101067D01*
X0190139Y0100455D01*
X0190673Y0099921D01*
X0191284Y0099477D01*
X0191957Y0099134D01*
X0192676Y0098901D01*
X0192791Y0098882D01*
X0192746Y0098882D01*
X0190798Y0098076D01*
X0189307Y0096585D01*
X0188500Y0094637D01*
X0188500Y0092528D01*
X0189307Y0090580D01*
X0190798Y0089089D01*
X0192022Y0088582D01*
X0190798Y0088076D01*
X0189307Y0086585D01*
X0188500Y0084637D01*
X0188500Y0082528D01*
X0189307Y0080580D01*
X0190798Y0079089D01*
X0192022Y0078582D01*
X0190798Y0078076D01*
X0189307Y0076585D01*
X0188500Y0074637D01*
X0188500Y0074242D01*
X0185640Y0071382D01*
X0174210Y0071382D01*
X0173350Y0072242D01*
X0173350Y0073237D01*
X0173598Y0072989D01*
X0175546Y0072182D01*
X0183654Y0072182D01*
X0185602Y0072989D01*
X0187093Y0074480D01*
X0187900Y0076428D01*
X0187900Y0078537D01*
X0187093Y0080485D01*
X0185602Y0081976D01*
X0183654Y0082782D01*
X0175546Y0082782D01*
X0173598Y0081976D01*
X0172958Y0081336D01*
X0172924Y0081418D01*
X0172136Y0082206D01*
X0170850Y0083492D01*
X0170850Y0095389D01*
X0170424Y0096418D01*
X0169636Y0097206D01*
X0162136Y0104706D01*
X0161107Y0105132D01*
X0150460Y0105132D01*
X0144600Y0110992D01*
X0144600Y0115389D01*
X0144174Y0116418D01*
X0143386Y0117206D01*
X0136060Y0124532D01*
X0143140Y0124532D01*
X0149906Y0117766D01*
X0147998Y0116976D01*
X0146507Y0115485D01*
X0145700Y0113537D01*
X0145700Y0111428D01*
X0146507Y0109480D01*
X0147998Y0107989D01*
X0149946Y0107182D01*
X0158054Y0107182D01*
X0160002Y0107989D01*
X0161493Y0109480D01*
X0162300Y0111428D01*
X0162300Y0113537D01*
X0161493Y0115485D01*
X0160002Y0116976D01*
X0158054Y0117782D01*
X0157810Y0117782D01*
X0157136Y0118456D01*
X0148560Y0127032D01*
X0174390Y0127032D01*
X0174550Y0126872D02*
X0148720Y0126872D01*
X0150318Y0125274D02*
X0176149Y0125274D01*
X0177747Y0123675D02*
X0151917Y0123675D01*
X0153515Y0122077D02*
X0179346Y0122077D01*
X0180944Y0120478D02*
X0155114Y0120478D01*
X0156713Y0118880D02*
X0182543Y0118880D01*
X0187900Y0112486D02*
X0188518Y0112486D01*
X0189180Y0110887D02*
X0187676Y0110887D01*
X0186902Y0109289D02*
X0190598Y0109289D01*
X0191289Y0107690D02*
X0184880Y0107690D01*
X0189691Y0106092D02*
X0149501Y0106092D01*
X0148720Y0107690D02*
X0147902Y0107690D01*
X0146698Y0109289D02*
X0146304Y0109289D01*
X0145924Y0110887D02*
X0144705Y0110887D01*
X0144600Y0112486D02*
X0145700Y0112486D01*
X0145927Y0114084D02*
X0144600Y0114084D01*
X0144479Y0115683D02*
X0146705Y0115683D01*
X0148736Y0117281D02*
X0143311Y0117281D01*
X0141713Y0118880D02*
X0148793Y0118880D01*
X0147194Y0120478D02*
X0140114Y0120478D01*
X0138515Y0122077D02*
X0145596Y0122077D01*
X0143997Y0123675D02*
X0136917Y0123675D01*
X0132194Y0120478D02*
X0131700Y0120478D01*
X0131700Y0118880D02*
X0133793Y0118880D01*
X0135391Y0117281D02*
X0131700Y0117281D01*
X0130830Y0115683D02*
X0136990Y0115683D01*
X0138588Y0114084D02*
X0129231Y0114084D01*
X0127163Y0112486D02*
X0139000Y0112486D01*
X0139000Y0110887D02*
X0125850Y0110887D01*
X0125850Y0109289D02*
X0139000Y0109289D01*
X0139982Y0107690D02*
X0125850Y0107690D01*
X0125850Y0106092D02*
X0141581Y0106092D01*
X0143180Y0104493D02*
X0125850Y0104493D01*
X0125072Y0102895D02*
X0144778Y0102895D01*
X0146377Y0101296D02*
X0123473Y0101296D01*
X0121875Y0099698D02*
X0148344Y0099698D01*
X0148484Y0098788D02*
X0147873Y0098344D01*
X0147339Y0097809D01*
X0146895Y0097198D01*
X0146552Y0096525D01*
X0146318Y0095806D01*
X0146200Y0095060D01*
X0146200Y0094882D01*
X0153800Y0094882D01*
X0153800Y0094482D01*
X0154200Y0094482D01*
X0154200Y0089882D01*
X0157378Y0089882D01*
X0158124Y0090001D01*
X0158843Y0090234D01*
X0159516Y0090577D01*
X0160127Y0091021D01*
X0160661Y0091555D01*
X0161105Y0092167D01*
X0161448Y0092840D01*
X0161682Y0093558D01*
X0161800Y0094305D01*
X0161800Y0094482D01*
X0154200Y0094482D01*
X0154200Y0094882D01*
X0161800Y0094882D01*
X0161800Y0095060D01*
X0161682Y0095806D01*
X0161448Y0096525D01*
X0161105Y0097198D01*
X0160661Y0097809D01*
X0160127Y0098344D01*
X0159516Y0098788D01*
X0158843Y0099131D01*
X0158124Y0099364D01*
X0157378Y0099482D01*
X0154200Y0099482D01*
X0154200Y0094882D01*
X0153800Y0094882D01*
X0153800Y0099482D01*
X0150622Y0099482D01*
X0149876Y0099364D01*
X0149157Y0099131D01*
X0148484Y0098788D01*
X0147628Y0098099D02*
X0120276Y0098099D01*
X0118678Y0096501D02*
X0146544Y0096501D01*
X0146200Y0094902D02*
X0117079Y0094902D01*
X0115481Y0093303D02*
X0146401Y0093303D01*
X0146318Y0093558D02*
X0146552Y0092840D01*
X0146895Y0092167D01*
X0147339Y0091555D01*
X0147873Y0091021D01*
X0148484Y0090577D01*
X0149157Y0090234D01*
X0149876Y0090001D01*
X0150622Y0089882D01*
X0153800Y0089882D01*
X0153800Y0094482D01*
X0146200Y0094482D01*
X0146200Y0094305D01*
X0146318Y0093558D01*
X0147230Y0091705D02*
X0129900Y0091705D01*
X0128623Y0092982D02*
X0126800Y0092982D01*
X0124977Y0092982D01*
X0122400Y0090405D01*
X0122400Y0088582D01*
X0122400Y0086760D01*
X0124977Y0084182D01*
X0126800Y0084182D01*
X0126800Y0088582D01*
X0126800Y0084182D01*
X0128623Y0084182D01*
X0131200Y0086760D01*
X0131200Y0088582D01*
X0126800Y0088582D01*
X0126800Y0088582D01*
X0126800Y0088582D01*
X0122400Y0088582D01*
X0126800Y0088582D01*
X0126800Y0088582D01*
X0131200Y0088582D01*
X0131200Y0090405D01*
X0128623Y0092982D01*
X0126800Y0092982D02*
X0126800Y0088583D01*
X0126800Y0092982D01*
X0126800Y0091705D02*
X0126800Y0091705D01*
X0126800Y0090106D02*
X0126800Y0090106D01*
X0126800Y0088583D02*
X0126800Y0088583D01*
X0126800Y0088508D02*
X0126800Y0088508D01*
X0126800Y0086909D02*
X0126800Y0086909D01*
X0126800Y0085311D02*
X0126800Y0085311D01*
X0129751Y0085311D02*
X0143319Y0085311D01*
X0144917Y0086909D02*
X0131200Y0086909D01*
X0131200Y0088508D02*
X0146589Y0088508D01*
X0149550Y0090106D02*
X0131200Y0090106D01*
X0123700Y0091705D02*
X0111817Y0091705D01*
X0110907Y0090106D02*
X0122400Y0090106D01*
X0122400Y0088508D02*
X0111317Y0088508D01*
X0111317Y0086909D02*
X0122400Y0086909D01*
X0123849Y0085311D02*
X0111317Y0085311D01*
X0111278Y0083712D02*
X0141720Y0083712D01*
X0138402Y0082114D02*
X0115198Y0082114D01*
X0116700Y0080515D02*
X0136900Y0080515D01*
X0136900Y0078917D02*
X0116700Y0078917D01*
X0116700Y0077318D02*
X0136900Y0077318D01*
X0137733Y0075720D02*
X0115867Y0075720D01*
X0114269Y0074121D02*
X0139331Y0074121D01*
X0138811Y0072523D02*
X0114789Y0072523D01*
X0116388Y0070924D02*
X0137212Y0070924D01*
X0136900Y0069326D02*
X0116700Y0069326D01*
X0116700Y0067727D02*
X0136900Y0067727D01*
X0137324Y0066129D02*
X0116276Y0066129D01*
X0114678Y0064530D02*
X0138922Y0064530D01*
X0139220Y0062932D02*
X0114380Y0062932D01*
X0115979Y0061333D02*
X0137621Y0061333D01*
X0136900Y0059735D02*
X0116700Y0059735D01*
X0116700Y0058136D02*
X0136900Y0058136D01*
X0136915Y0056538D02*
X0116685Y0056538D01*
X0115086Y0054939D02*
X0138514Y0054939D01*
X0139629Y0053341D02*
X0113971Y0053341D01*
X0115570Y0051742D02*
X0138030Y0051742D01*
X0136900Y0050144D02*
X0116700Y0050144D01*
X0116700Y0048545D02*
X0135303Y0048545D01*
X0129954Y0046947D02*
X0116700Y0046947D01*
X0115495Y0045348D02*
X0128356Y0045348D01*
X0126757Y0043750D02*
X0113897Y0043750D01*
X0116900Y0032560D02*
X0033350Y0032560D01*
X0033013Y0030962D02*
X0117491Y0030962D01*
X0125439Y0026166D02*
X0143161Y0026166D01*
X0142400Y0024568D02*
X0126200Y0024568D01*
X0126200Y0022969D02*
X0142400Y0022969D01*
X0142789Y0021370D02*
X0125811Y0021370D01*
X0124212Y0019772D02*
X0144388Y0019772D01*
X0146800Y0019772D02*
X0146800Y0019772D01*
X0146800Y0021370D02*
X0146800Y0021370D01*
X0146800Y0022969D02*
X0146800Y0022969D01*
X0146800Y0023583D02*
X0146800Y0027982D01*
X0146800Y0023583D01*
X0146800Y0023583D01*
X0146800Y0024568D02*
X0146800Y0024568D01*
X0146800Y0026166D02*
X0146800Y0026166D01*
X0146800Y0027765D02*
X0146800Y0027765D01*
X0148840Y0027765D02*
X0169760Y0027765D01*
X0169977Y0027982D02*
X0167400Y0025405D01*
X0167400Y0023582D01*
X0167400Y0021760D01*
X0169977Y0019182D01*
X0171800Y0019182D01*
X0171800Y0023582D01*
X0171800Y0019182D01*
X0173623Y0019182D01*
X0176200Y0021760D01*
X0176200Y0023582D01*
X0171800Y0023582D01*
X0171800Y0023582D01*
X0171800Y0023582D01*
X0167400Y0023582D01*
X0171800Y0023582D01*
X0171800Y0023582D01*
X0176200Y0023582D01*
X0176200Y0025405D01*
X0173623Y0027982D01*
X0171800Y0027982D01*
X0169977Y0027982D01*
X0169090Y0029363D02*
X0149510Y0029363D01*
X0151109Y0030962D02*
X0167491Y0030962D01*
X0166900Y0032560D02*
X0151700Y0032560D01*
X0151700Y0034159D02*
X0166014Y0034159D01*
X0164416Y0035757D02*
X0151555Y0035757D01*
X0150439Y0026166D02*
X0168161Y0026166D01*
X0167400Y0024568D02*
X0151200Y0024568D01*
X0151200Y0022969D02*
X0167400Y0022969D01*
X0167789Y0021370D02*
X0150811Y0021370D01*
X0149212Y0019772D02*
X0169388Y0019772D01*
X0171800Y0019772D02*
X0171800Y0019772D01*
X0171800Y0021370D02*
X0171800Y0021370D01*
X0171800Y0022969D02*
X0171800Y0022969D01*
X0171800Y0023583D02*
X0171800Y0027982D01*
X0171800Y0023583D01*
X0171800Y0023583D01*
X0171800Y0024568D02*
X0171800Y0024568D01*
X0171800Y0026166D02*
X0171800Y0026166D01*
X0171800Y0027765D02*
X0171800Y0027765D01*
X0173840Y0027765D02*
X0194760Y0027765D01*
X0194977Y0027982D02*
X0192400Y0025405D01*
X0192400Y0023582D01*
X0192400Y0021760D01*
X0194977Y0019182D01*
X0196800Y0019182D01*
X0196800Y0023582D01*
X0196800Y0019182D01*
X0198623Y0019182D01*
X0201200Y0021760D01*
X0201200Y0023582D01*
X0196800Y0023582D01*
X0196800Y0023582D01*
X0196800Y0023582D01*
X0192400Y0023582D01*
X0196800Y0023582D01*
X0196800Y0023582D01*
X0201200Y0023582D01*
X0201200Y0025405D01*
X0198623Y0027982D01*
X0196800Y0027982D01*
X0194977Y0027982D01*
X0194090Y0029363D02*
X0174510Y0029363D01*
X0176109Y0030962D02*
X0192491Y0030962D01*
X0191900Y0032560D02*
X0176700Y0032560D01*
X0176700Y0034159D02*
X0191014Y0034159D01*
X0189416Y0035757D02*
X0176555Y0035757D01*
X0174956Y0037356D02*
X0187817Y0037356D01*
X0186218Y0038954D02*
X0169138Y0038954D01*
X0168350Y0040553D02*
X0184620Y0040553D01*
X0183021Y0042151D02*
X0168350Y0042151D01*
X0168350Y0043750D02*
X0181423Y0043750D01*
X0179824Y0045348D02*
X0168350Y0045348D01*
X0168350Y0046947D02*
X0178226Y0046947D01*
X0173109Y0048545D02*
X0168350Y0048545D01*
X0168350Y0050144D02*
X0171279Y0050144D01*
X0169680Y0051742D02*
X0168350Y0051742D01*
X0187744Y0045348D02*
X0206921Y0045348D01*
X0206921Y0043750D02*
X0189343Y0043750D01*
X0190941Y0042151D02*
X0206921Y0042151D01*
X0206921Y0040553D02*
X0192540Y0040553D01*
X0194138Y0038954D02*
X0206921Y0038954D01*
X0206921Y0037356D02*
X0199956Y0037356D01*
X0201555Y0035757D02*
X0206921Y0035757D01*
X0206921Y0034159D02*
X0201700Y0034159D01*
X0201700Y0032560D02*
X0206921Y0032560D01*
X0206921Y0030962D02*
X0201109Y0030962D01*
X0199510Y0029363D02*
X0206921Y0029363D01*
X0206921Y0027765D02*
X0198840Y0027765D01*
X0196800Y0027765D02*
X0196800Y0027765D01*
X0196800Y0027982D02*
X0196800Y0023583D01*
X0196800Y0023583D01*
X0196800Y0027982D01*
X0196800Y0026166D02*
X0196800Y0026166D01*
X0196800Y0024568D02*
X0196800Y0024568D01*
X0196800Y0022969D02*
X0196800Y0022969D01*
X0196800Y0021370D02*
X0196800Y0021370D01*
X0196800Y0019772D02*
X0196800Y0019772D01*
X0199212Y0019772D02*
X0206921Y0019772D01*
X0206921Y0021370D02*
X0200811Y0021370D01*
X0201200Y0022969D02*
X0206921Y0022969D01*
X0206921Y0024568D02*
X0201200Y0024568D01*
X0200439Y0026166D02*
X0206921Y0026166D01*
X0206921Y0018173D02*
X0081008Y0018173D01*
X0077000Y0018173D02*
X0076600Y0018173D01*
X0076600Y0016782D02*
X0073983Y0016782D01*
X0070000Y0020766D01*
X0070000Y0023382D01*
X0076600Y0023382D01*
X0077000Y0023382D01*
X0077000Y0023782D01*
X0076600Y0023782D01*
X0076600Y0023382D01*
X0076600Y0016782D01*
X0076600Y0019772D02*
X0077000Y0019772D01*
X0077000Y0021370D02*
X0076600Y0021370D01*
X0076600Y0022969D02*
X0077000Y0022969D01*
X0076600Y0023782D02*
X0070000Y0023782D01*
X0070000Y0026399D01*
X0073983Y0030382D01*
X0076600Y0030382D01*
X0076600Y0023782D01*
X0076600Y0024568D02*
X0077000Y0024568D01*
X0077000Y0026166D02*
X0076600Y0026166D01*
X0076600Y0027765D02*
X0077000Y0027765D01*
X0077000Y0029363D02*
X0076600Y0029363D01*
X0072964Y0029363D02*
X0031540Y0029363D01*
X0030037Y0027765D02*
X0071365Y0027765D01*
X0070000Y0026166D02*
X0029470Y0026166D01*
X0028204Y0024568D02*
X0070000Y0024568D01*
X0070000Y0022969D02*
X0026663Y0022969D01*
X0028637Y0021370D02*
X0070000Y0021370D01*
X0070994Y0019772D02*
X0029396Y0019772D01*
X0029532Y0018173D02*
X0072592Y0018173D01*
X0029097Y0016575D02*
X0206921Y0016575D01*
X0206921Y0014976D02*
X0027906Y0014976D01*
X0021984Y0014976D02*
X0021616Y0014976D01*
X0021616Y0016575D02*
X0021984Y0016575D01*
X0021984Y0018173D02*
X0021616Y0018173D01*
X0016937Y0022969D02*
X0006600Y0022969D01*
X0006600Y0021370D02*
X0014963Y0021370D01*
X0014204Y0019772D02*
X0006600Y0019772D01*
X0006600Y0018173D02*
X0014068Y0018173D01*
X0014503Y0016575D02*
X0006600Y0016575D01*
X0006600Y0014976D02*
X0015694Y0014976D01*
X0015396Y0024568D02*
X0006600Y0024568D01*
X0006600Y0026166D02*
X0014130Y0026166D01*
X0013563Y0027765D02*
X0006600Y0027765D01*
X0006600Y0029363D02*
X0013563Y0029363D01*
X0014114Y0030962D02*
X0006600Y0030962D01*
X0006600Y0032560D02*
X0015358Y0032560D01*
X0026288Y0046947D02*
X0026412Y0046947D01*
X0057103Y0072523D02*
X0057993Y0072523D01*
X0064977Y0072523D02*
X0065867Y0072523D01*
X0080725Y0072523D02*
X0081615Y0072523D01*
X0088599Y0072523D02*
X0089489Y0072523D01*
X0096473Y0072523D02*
X0099281Y0072523D01*
X0100879Y0074121D02*
X0097643Y0074121D01*
X0097643Y0075720D02*
X0102478Y0075720D01*
X0104076Y0077318D02*
X0097643Y0077318D01*
X0097643Y0078917D02*
X0105675Y0078917D01*
X0106900Y0080515D02*
X0097643Y0080515D01*
X0097643Y0082114D02*
X0108402Y0082114D01*
X0105961Y0083712D02*
X0105198Y0083712D01*
X0105198Y0085311D02*
X0105961Y0085311D01*
X0099881Y0083712D02*
X0097403Y0083712D01*
X0108799Y0074121D02*
X0109331Y0074121D01*
X0108811Y0072523D02*
X0107200Y0072523D01*
X0107212Y0070924D02*
X0105602Y0070924D01*
X0106084Y0069326D02*
X0104003Y0069326D01*
X0104485Y0067727D02*
X0102405Y0067727D01*
X0107609Y0062932D02*
X0109220Y0062932D01*
X0144269Y0074121D02*
X0146866Y0074121D01*
X0145993Y0075720D02*
X0145867Y0075720D01*
X0144789Y0072523D02*
X0149124Y0072523D01*
X0148332Y0082114D02*
X0148041Y0082114D01*
X0153800Y0090106D02*
X0154200Y0090106D01*
X0154200Y0091705D02*
X0153800Y0091705D01*
X0153800Y0093303D02*
X0154200Y0093303D01*
X0154200Y0094902D02*
X0153800Y0094902D01*
X0153800Y0096501D02*
X0154200Y0096501D01*
X0154200Y0098099D02*
X0153800Y0098099D01*
X0160372Y0098099D02*
X0160824Y0098099D01*
X0161456Y0096501D02*
X0162422Y0096501D01*
X0161800Y0094902D02*
X0164021Y0094902D01*
X0165250Y0093303D02*
X0161599Y0093303D01*
X0160770Y0091705D02*
X0165250Y0091705D01*
X0165250Y0090106D02*
X0158450Y0090106D01*
X0162011Y0088508D02*
X0165250Y0088508D01*
X0165250Y0086909D02*
X0163683Y0086909D01*
X0160559Y0082114D02*
X0159668Y0082114D01*
X0161462Y0080515D02*
X0162157Y0080515D01*
X0162142Y0078917D02*
X0163756Y0078917D01*
X0162300Y0077318D02*
X0165250Y0077318D01*
X0165250Y0075720D02*
X0162007Y0075720D01*
X0161134Y0074121D02*
X0165250Y0074121D01*
X0165250Y0072523D02*
X0158876Y0072523D01*
X0170850Y0083712D02*
X0188500Y0083712D01*
X0188672Y0082114D02*
X0185268Y0082114D01*
X0187062Y0080515D02*
X0189372Y0080515D01*
X0187742Y0078917D02*
X0191214Y0078917D01*
X0190041Y0077318D02*
X0187900Y0077318D01*
X0187607Y0075720D02*
X0188949Y0075720D01*
X0188379Y0074121D02*
X0186734Y0074121D01*
X0186781Y0072523D02*
X0184476Y0072523D01*
X0189905Y0067727D02*
X0190450Y0067727D01*
X0189118Y0066129D02*
X0188193Y0066129D01*
X0174724Y0072523D02*
X0173350Y0072523D01*
X0173932Y0082114D02*
X0172228Y0082114D01*
X0170850Y0085311D02*
X0188779Y0085311D01*
X0189632Y0086909D02*
X0170850Y0086909D01*
X0170850Y0088508D02*
X0191842Y0088508D01*
X0189781Y0090106D02*
X0184050Y0090106D01*
X0183724Y0090001D02*
X0184443Y0090234D01*
X0185116Y0090577D01*
X0185727Y0091021D01*
X0186261Y0091555D01*
X0186705Y0092167D01*
X0187048Y0092840D01*
X0187282Y0093558D01*
X0187400Y0094305D01*
X0187400Y0094482D01*
X0179800Y0094482D01*
X0179800Y0089882D01*
X0182978Y0089882D01*
X0183724Y0090001D01*
X0179800Y0090106D02*
X0179400Y0090106D01*
X0179400Y0089882D02*
X0179400Y0094482D01*
X0179800Y0094482D01*
X0179800Y0094882D01*
X0187400Y0094882D01*
X0187400Y0095060D01*
X0187282Y0095806D01*
X0187048Y0096525D01*
X0186705Y0097198D01*
X0186261Y0097809D01*
X0185727Y0098344D01*
X0185116Y0098788D01*
X0184443Y0099131D01*
X0183724Y0099364D01*
X0182978Y0099482D01*
X0179800Y0099482D01*
X0179800Y0094882D01*
X0179400Y0094882D01*
X0179400Y0094482D01*
X0171800Y0094482D01*
X0171800Y0094305D01*
X0171918Y0093558D01*
X0172152Y0092840D01*
X0172495Y0092167D01*
X0172939Y0091555D01*
X0173473Y0091021D01*
X0174084Y0090577D01*
X0174757Y0090234D01*
X0175476Y0090001D01*
X0176222Y0089882D01*
X0179400Y0089882D01*
X0179400Y0091705D02*
X0179800Y0091705D01*
X0179800Y0093303D02*
X0179400Y0093303D01*
X0179400Y0094882D02*
X0171800Y0094882D01*
X0171800Y0095060D01*
X0171918Y0095806D01*
X0172152Y0096525D01*
X0172495Y0097198D01*
X0172939Y0097809D01*
X0173473Y0098344D01*
X0174084Y0098788D01*
X0174757Y0099131D01*
X0175476Y0099364D01*
X0176222Y0099482D01*
X0179400Y0099482D01*
X0179400Y0094882D01*
X0179400Y0094902D02*
X0179800Y0094902D01*
X0179800Y0096501D02*
X0179400Y0096501D01*
X0179400Y0098099D02*
X0179800Y0098099D01*
X0185972Y0098099D02*
X0190855Y0098099D01*
X0190981Y0099698D02*
X0167145Y0099698D01*
X0165546Y0101296D02*
X0189578Y0101296D01*
X0189049Y0102895D02*
X0163948Y0102895D01*
X0162349Y0104493D02*
X0189084Y0104493D01*
X0189272Y0096501D02*
X0187056Y0096501D01*
X0187400Y0094902D02*
X0188610Y0094902D01*
X0188500Y0093303D02*
X0187199Y0093303D01*
X0186370Y0091705D02*
X0188841Y0091705D01*
X0175150Y0090106D02*
X0170850Y0090106D01*
X0170850Y0091705D02*
X0172830Y0091705D01*
X0172001Y0093303D02*
X0170850Y0093303D01*
X0170850Y0094902D02*
X0171800Y0094902D01*
X0172144Y0096501D02*
X0170342Y0096501D01*
X0168743Y0098099D02*
X0173228Y0098099D01*
X0174320Y0107690D02*
X0159280Y0107690D01*
X0161302Y0109289D02*
X0172298Y0109289D01*
X0171524Y0110887D02*
X0162076Y0110887D01*
X0162300Y0112486D02*
X0171300Y0112486D01*
X0171527Y0114084D02*
X0162073Y0114084D01*
X0161295Y0115683D02*
X0172305Y0115683D01*
X0174336Y0117281D02*
X0159264Y0117281D01*
X0206921Y0165237D02*
X0107600Y0165237D01*
X0107600Y0166835D02*
X0206921Y0166835D01*
X0206921Y0168434D02*
X0107600Y0168434D01*
X0107600Y0170032D02*
X0206921Y0170032D01*
X0206921Y0171631D02*
X0107600Y0171631D01*
X0175439Y0026166D02*
X0193161Y0026166D01*
X0192400Y0024568D02*
X0176200Y0024568D01*
X0176200Y0022969D02*
X0192400Y0022969D01*
X0192789Y0021370D02*
X0175811Y0021370D01*
X0174212Y0019772D02*
X0194388Y0019772D01*
M02*
