G75*
%MOIN*%
%OFA0B0*%
%FSLAX25Y25*%
%IPPOS*%
%LPD*%
%AMOC8*
5,1,8,0,0,1.08239X$1,22.5*
%
%ADD10C,0.00000*%
%ADD11C,0.00600*%
%ADD12C,0.01000*%
%ADD13C,0.00500*%
%ADD14C,0.00200*%
%ADD15C,0.00800*%
%ADD16C,0.00100*%
%ADD17C,0.00400*%
%ADD18R,0.02000X0.01500*%
%ADD19R,0.01500X0.02000*%
D10*
X0001800Y0008582D02*
X0001800Y0177283D01*
X0211721Y0177283D01*
X0211721Y0008582D01*
X0001800Y0008582D01*
D11*
X0059800Y0053582D02*
X0059802Y0053723D01*
X0059808Y0053864D01*
X0059818Y0054004D01*
X0059832Y0054144D01*
X0059850Y0054284D01*
X0059871Y0054423D01*
X0059897Y0054562D01*
X0059926Y0054700D01*
X0059960Y0054836D01*
X0059997Y0054972D01*
X0060038Y0055107D01*
X0060083Y0055241D01*
X0060132Y0055373D01*
X0060184Y0055504D01*
X0060240Y0055633D01*
X0060300Y0055760D01*
X0060363Y0055886D01*
X0060429Y0056010D01*
X0060500Y0056133D01*
X0060573Y0056253D01*
X0060650Y0056371D01*
X0060730Y0056487D01*
X0060814Y0056600D01*
X0060900Y0056711D01*
X0060990Y0056820D01*
X0061083Y0056926D01*
X0061178Y0057029D01*
X0061277Y0057130D01*
X0061378Y0057228D01*
X0061482Y0057323D01*
X0061589Y0057415D01*
X0061698Y0057504D01*
X0061810Y0057589D01*
X0061924Y0057672D01*
X0062040Y0057752D01*
X0062159Y0057828D01*
X0062280Y0057900D01*
X0062402Y0057970D01*
X0062527Y0058035D01*
X0062653Y0058098D01*
X0062781Y0058156D01*
X0062911Y0058211D01*
X0063042Y0058263D01*
X0063175Y0058310D01*
X0063309Y0058354D01*
X0063444Y0058395D01*
X0063580Y0058431D01*
X0063717Y0058463D01*
X0063855Y0058492D01*
X0063993Y0058517D01*
X0064133Y0058537D01*
X0064273Y0058554D01*
X0064413Y0058567D01*
X0064554Y0058576D01*
X0064694Y0058581D01*
X0064835Y0058582D01*
X0064976Y0058579D01*
X0065117Y0058572D01*
X0065257Y0058561D01*
X0065397Y0058546D01*
X0065537Y0058527D01*
X0065676Y0058505D01*
X0065814Y0058478D01*
X0065952Y0058448D01*
X0066088Y0058413D01*
X0066224Y0058375D01*
X0066358Y0058333D01*
X0066492Y0058287D01*
X0066624Y0058238D01*
X0066754Y0058184D01*
X0066883Y0058127D01*
X0067010Y0058067D01*
X0067136Y0058003D01*
X0067259Y0057935D01*
X0067381Y0057864D01*
X0067501Y0057790D01*
X0067618Y0057712D01*
X0067733Y0057631D01*
X0067846Y0057547D01*
X0067957Y0057460D01*
X0068065Y0057369D01*
X0068170Y0057276D01*
X0068273Y0057179D01*
X0068373Y0057080D01*
X0068470Y0056978D01*
X0068564Y0056873D01*
X0068655Y0056766D01*
X0068743Y0056656D01*
X0068828Y0056544D01*
X0068910Y0056429D01*
X0068989Y0056312D01*
X0069064Y0056193D01*
X0069136Y0056072D01*
X0069204Y0055949D01*
X0069269Y0055824D01*
X0069331Y0055697D01*
X0069388Y0055568D01*
X0069443Y0055438D01*
X0069493Y0055307D01*
X0069540Y0055174D01*
X0069583Y0055040D01*
X0069622Y0054904D01*
X0069657Y0054768D01*
X0069689Y0054631D01*
X0069716Y0054493D01*
X0069740Y0054354D01*
X0069760Y0054214D01*
X0069776Y0054074D01*
X0069788Y0053934D01*
X0069796Y0053793D01*
X0069800Y0053652D01*
X0069800Y0053512D01*
X0069796Y0053371D01*
X0069788Y0053230D01*
X0069776Y0053090D01*
X0069760Y0052950D01*
X0069740Y0052810D01*
X0069716Y0052671D01*
X0069689Y0052533D01*
X0069657Y0052396D01*
X0069622Y0052260D01*
X0069583Y0052124D01*
X0069540Y0051990D01*
X0069493Y0051857D01*
X0069443Y0051726D01*
X0069388Y0051596D01*
X0069331Y0051467D01*
X0069269Y0051340D01*
X0069204Y0051215D01*
X0069136Y0051092D01*
X0069064Y0050971D01*
X0068989Y0050852D01*
X0068910Y0050735D01*
X0068828Y0050620D01*
X0068743Y0050508D01*
X0068655Y0050398D01*
X0068564Y0050291D01*
X0068470Y0050186D01*
X0068373Y0050084D01*
X0068273Y0049985D01*
X0068170Y0049888D01*
X0068065Y0049795D01*
X0067957Y0049704D01*
X0067846Y0049617D01*
X0067733Y0049533D01*
X0067618Y0049452D01*
X0067501Y0049374D01*
X0067381Y0049300D01*
X0067259Y0049229D01*
X0067136Y0049161D01*
X0067010Y0049097D01*
X0066883Y0049037D01*
X0066754Y0048980D01*
X0066624Y0048926D01*
X0066492Y0048877D01*
X0066358Y0048831D01*
X0066224Y0048789D01*
X0066088Y0048751D01*
X0065952Y0048716D01*
X0065814Y0048686D01*
X0065676Y0048659D01*
X0065537Y0048637D01*
X0065397Y0048618D01*
X0065257Y0048603D01*
X0065117Y0048592D01*
X0064976Y0048585D01*
X0064835Y0048582D01*
X0064694Y0048583D01*
X0064554Y0048588D01*
X0064413Y0048597D01*
X0064273Y0048610D01*
X0064133Y0048627D01*
X0063993Y0048647D01*
X0063855Y0048672D01*
X0063717Y0048701D01*
X0063580Y0048733D01*
X0063444Y0048769D01*
X0063309Y0048810D01*
X0063175Y0048854D01*
X0063042Y0048901D01*
X0062911Y0048953D01*
X0062781Y0049008D01*
X0062653Y0049066D01*
X0062527Y0049129D01*
X0062402Y0049194D01*
X0062280Y0049264D01*
X0062159Y0049336D01*
X0062040Y0049412D01*
X0061924Y0049492D01*
X0061810Y0049575D01*
X0061698Y0049660D01*
X0061589Y0049749D01*
X0061482Y0049841D01*
X0061378Y0049936D01*
X0061277Y0050034D01*
X0061178Y0050135D01*
X0061083Y0050238D01*
X0060990Y0050344D01*
X0060900Y0050453D01*
X0060814Y0050564D01*
X0060730Y0050677D01*
X0060650Y0050793D01*
X0060573Y0050911D01*
X0060500Y0051031D01*
X0060429Y0051154D01*
X0060363Y0051278D01*
X0060300Y0051404D01*
X0060240Y0051531D01*
X0060184Y0051660D01*
X0060132Y0051791D01*
X0060083Y0051923D01*
X0060038Y0052057D01*
X0059997Y0052192D01*
X0059960Y0052328D01*
X0059926Y0052464D01*
X0059897Y0052602D01*
X0059871Y0052741D01*
X0059850Y0052880D01*
X0059832Y0053020D01*
X0059818Y0053160D01*
X0059808Y0053300D01*
X0059802Y0053441D01*
X0059800Y0053582D01*
X0071800Y0038582D02*
X0071802Y0038723D01*
X0071808Y0038864D01*
X0071818Y0039004D01*
X0071832Y0039144D01*
X0071850Y0039284D01*
X0071871Y0039423D01*
X0071897Y0039562D01*
X0071926Y0039700D01*
X0071960Y0039836D01*
X0071997Y0039972D01*
X0072038Y0040107D01*
X0072083Y0040241D01*
X0072132Y0040373D01*
X0072184Y0040504D01*
X0072240Y0040633D01*
X0072300Y0040760D01*
X0072363Y0040886D01*
X0072429Y0041010D01*
X0072500Y0041133D01*
X0072573Y0041253D01*
X0072650Y0041371D01*
X0072730Y0041487D01*
X0072814Y0041600D01*
X0072900Y0041711D01*
X0072990Y0041820D01*
X0073083Y0041926D01*
X0073178Y0042029D01*
X0073277Y0042130D01*
X0073378Y0042228D01*
X0073482Y0042323D01*
X0073589Y0042415D01*
X0073698Y0042504D01*
X0073810Y0042589D01*
X0073924Y0042672D01*
X0074040Y0042752D01*
X0074159Y0042828D01*
X0074280Y0042900D01*
X0074402Y0042970D01*
X0074527Y0043035D01*
X0074653Y0043098D01*
X0074781Y0043156D01*
X0074911Y0043211D01*
X0075042Y0043263D01*
X0075175Y0043310D01*
X0075309Y0043354D01*
X0075444Y0043395D01*
X0075580Y0043431D01*
X0075717Y0043463D01*
X0075855Y0043492D01*
X0075993Y0043517D01*
X0076133Y0043537D01*
X0076273Y0043554D01*
X0076413Y0043567D01*
X0076554Y0043576D01*
X0076694Y0043581D01*
X0076835Y0043582D01*
X0076976Y0043579D01*
X0077117Y0043572D01*
X0077257Y0043561D01*
X0077397Y0043546D01*
X0077537Y0043527D01*
X0077676Y0043505D01*
X0077814Y0043478D01*
X0077952Y0043448D01*
X0078088Y0043413D01*
X0078224Y0043375D01*
X0078358Y0043333D01*
X0078492Y0043287D01*
X0078624Y0043238D01*
X0078754Y0043184D01*
X0078883Y0043127D01*
X0079010Y0043067D01*
X0079136Y0043003D01*
X0079259Y0042935D01*
X0079381Y0042864D01*
X0079501Y0042790D01*
X0079618Y0042712D01*
X0079733Y0042631D01*
X0079846Y0042547D01*
X0079957Y0042460D01*
X0080065Y0042369D01*
X0080170Y0042276D01*
X0080273Y0042179D01*
X0080373Y0042080D01*
X0080470Y0041978D01*
X0080564Y0041873D01*
X0080655Y0041766D01*
X0080743Y0041656D01*
X0080828Y0041544D01*
X0080910Y0041429D01*
X0080989Y0041312D01*
X0081064Y0041193D01*
X0081136Y0041072D01*
X0081204Y0040949D01*
X0081269Y0040824D01*
X0081331Y0040697D01*
X0081388Y0040568D01*
X0081443Y0040438D01*
X0081493Y0040307D01*
X0081540Y0040174D01*
X0081583Y0040040D01*
X0081622Y0039904D01*
X0081657Y0039768D01*
X0081689Y0039631D01*
X0081716Y0039493D01*
X0081740Y0039354D01*
X0081760Y0039214D01*
X0081776Y0039074D01*
X0081788Y0038934D01*
X0081796Y0038793D01*
X0081800Y0038652D01*
X0081800Y0038512D01*
X0081796Y0038371D01*
X0081788Y0038230D01*
X0081776Y0038090D01*
X0081760Y0037950D01*
X0081740Y0037810D01*
X0081716Y0037671D01*
X0081689Y0037533D01*
X0081657Y0037396D01*
X0081622Y0037260D01*
X0081583Y0037124D01*
X0081540Y0036990D01*
X0081493Y0036857D01*
X0081443Y0036726D01*
X0081388Y0036596D01*
X0081331Y0036467D01*
X0081269Y0036340D01*
X0081204Y0036215D01*
X0081136Y0036092D01*
X0081064Y0035971D01*
X0080989Y0035852D01*
X0080910Y0035735D01*
X0080828Y0035620D01*
X0080743Y0035508D01*
X0080655Y0035398D01*
X0080564Y0035291D01*
X0080470Y0035186D01*
X0080373Y0035084D01*
X0080273Y0034985D01*
X0080170Y0034888D01*
X0080065Y0034795D01*
X0079957Y0034704D01*
X0079846Y0034617D01*
X0079733Y0034533D01*
X0079618Y0034452D01*
X0079501Y0034374D01*
X0079381Y0034300D01*
X0079259Y0034229D01*
X0079136Y0034161D01*
X0079010Y0034097D01*
X0078883Y0034037D01*
X0078754Y0033980D01*
X0078624Y0033926D01*
X0078492Y0033877D01*
X0078358Y0033831D01*
X0078224Y0033789D01*
X0078088Y0033751D01*
X0077952Y0033716D01*
X0077814Y0033686D01*
X0077676Y0033659D01*
X0077537Y0033637D01*
X0077397Y0033618D01*
X0077257Y0033603D01*
X0077117Y0033592D01*
X0076976Y0033585D01*
X0076835Y0033582D01*
X0076694Y0033583D01*
X0076554Y0033588D01*
X0076413Y0033597D01*
X0076273Y0033610D01*
X0076133Y0033627D01*
X0075993Y0033647D01*
X0075855Y0033672D01*
X0075717Y0033701D01*
X0075580Y0033733D01*
X0075444Y0033769D01*
X0075309Y0033810D01*
X0075175Y0033854D01*
X0075042Y0033901D01*
X0074911Y0033953D01*
X0074781Y0034008D01*
X0074653Y0034066D01*
X0074527Y0034129D01*
X0074402Y0034194D01*
X0074280Y0034264D01*
X0074159Y0034336D01*
X0074040Y0034412D01*
X0073924Y0034492D01*
X0073810Y0034575D01*
X0073698Y0034660D01*
X0073589Y0034749D01*
X0073482Y0034841D01*
X0073378Y0034936D01*
X0073277Y0035034D01*
X0073178Y0035135D01*
X0073083Y0035238D01*
X0072990Y0035344D01*
X0072900Y0035453D01*
X0072814Y0035564D01*
X0072730Y0035677D01*
X0072650Y0035793D01*
X0072573Y0035911D01*
X0072500Y0036031D01*
X0072429Y0036154D01*
X0072363Y0036278D01*
X0072300Y0036404D01*
X0072240Y0036531D01*
X0072184Y0036660D01*
X0072132Y0036791D01*
X0072083Y0036923D01*
X0072038Y0037057D01*
X0071997Y0037192D01*
X0071960Y0037328D01*
X0071926Y0037464D01*
X0071897Y0037602D01*
X0071871Y0037741D01*
X0071850Y0037880D01*
X0071832Y0038020D01*
X0071818Y0038160D01*
X0071808Y0038300D01*
X0071802Y0038441D01*
X0071800Y0038582D01*
X0049300Y0038582D02*
X0049308Y0039257D01*
X0049333Y0039931D01*
X0049375Y0040605D01*
X0049432Y0041277D01*
X0049507Y0041948D01*
X0049598Y0042617D01*
X0049705Y0043283D01*
X0049828Y0043947D01*
X0049968Y0044607D01*
X0050124Y0045264D01*
X0050296Y0045917D01*
X0050484Y0046565D01*
X0050688Y0047208D01*
X0050908Y0047846D01*
X0051143Y0048479D01*
X0051393Y0049106D01*
X0051659Y0049726D01*
X0051940Y0050340D01*
X0052236Y0050946D01*
X0052547Y0051545D01*
X0052873Y0052137D01*
X0053212Y0052720D01*
X0053567Y0053294D01*
X0053935Y0053860D01*
X0054316Y0054417D01*
X0054712Y0054964D01*
X0055120Y0055501D01*
X0055542Y0056028D01*
X0055977Y0056544D01*
X0056424Y0057050D01*
X0056883Y0057544D01*
X0057355Y0058027D01*
X0057838Y0058499D01*
X0058332Y0058958D01*
X0058838Y0059405D01*
X0059354Y0059840D01*
X0059881Y0060262D01*
X0060418Y0060670D01*
X0060965Y0061066D01*
X0061522Y0061447D01*
X0062088Y0061815D01*
X0062662Y0062170D01*
X0063245Y0062509D01*
X0063837Y0062835D01*
X0064436Y0063146D01*
X0065042Y0063442D01*
X0065656Y0063723D01*
X0066276Y0063989D01*
X0066903Y0064239D01*
X0067536Y0064474D01*
X0068174Y0064694D01*
X0068817Y0064898D01*
X0069465Y0065086D01*
X0070118Y0065258D01*
X0070775Y0065414D01*
X0071435Y0065554D01*
X0072099Y0065677D01*
X0072765Y0065784D01*
X0073434Y0065875D01*
X0074105Y0065950D01*
X0074777Y0066007D01*
X0075451Y0066049D01*
X0076125Y0066074D01*
X0076800Y0066082D01*
X0077475Y0066074D01*
X0078149Y0066049D01*
X0078823Y0066007D01*
X0079495Y0065950D01*
X0080166Y0065875D01*
X0080835Y0065784D01*
X0081501Y0065677D01*
X0082165Y0065554D01*
X0082825Y0065414D01*
X0083482Y0065258D01*
X0084135Y0065086D01*
X0084783Y0064898D01*
X0085426Y0064694D01*
X0086064Y0064474D01*
X0086697Y0064239D01*
X0087324Y0063989D01*
X0087944Y0063723D01*
X0088558Y0063442D01*
X0089164Y0063146D01*
X0089763Y0062835D01*
X0090355Y0062509D01*
X0090938Y0062170D01*
X0091512Y0061815D01*
X0092078Y0061447D01*
X0092635Y0061066D01*
X0093182Y0060670D01*
X0093719Y0060262D01*
X0094246Y0059840D01*
X0094762Y0059405D01*
X0095268Y0058958D01*
X0095762Y0058499D01*
X0096245Y0058027D01*
X0096717Y0057544D01*
X0097176Y0057050D01*
X0097623Y0056544D01*
X0098058Y0056028D01*
X0098480Y0055501D01*
X0098888Y0054964D01*
X0099284Y0054417D01*
X0099665Y0053860D01*
X0100033Y0053294D01*
X0100388Y0052720D01*
X0100727Y0052137D01*
X0101053Y0051545D01*
X0101364Y0050946D01*
X0101660Y0050340D01*
X0101941Y0049726D01*
X0102207Y0049106D01*
X0102457Y0048479D01*
X0102692Y0047846D01*
X0102912Y0047208D01*
X0103116Y0046565D01*
X0103304Y0045917D01*
X0103476Y0045264D01*
X0103632Y0044607D01*
X0103772Y0043947D01*
X0103895Y0043283D01*
X0104002Y0042617D01*
X0104093Y0041948D01*
X0104168Y0041277D01*
X0104225Y0040605D01*
X0104267Y0039931D01*
X0104292Y0039257D01*
X0104300Y0038582D01*
X0104292Y0037907D01*
X0104267Y0037233D01*
X0104225Y0036559D01*
X0104168Y0035887D01*
X0104093Y0035216D01*
X0104002Y0034547D01*
X0103895Y0033881D01*
X0103772Y0033217D01*
X0103632Y0032557D01*
X0103476Y0031900D01*
X0103304Y0031247D01*
X0103116Y0030599D01*
X0102912Y0029956D01*
X0102692Y0029318D01*
X0102457Y0028685D01*
X0102207Y0028058D01*
X0101941Y0027438D01*
X0101660Y0026824D01*
X0101364Y0026218D01*
X0101053Y0025619D01*
X0100727Y0025027D01*
X0100388Y0024444D01*
X0100033Y0023870D01*
X0099665Y0023304D01*
X0099284Y0022747D01*
X0098888Y0022200D01*
X0098480Y0021663D01*
X0098058Y0021136D01*
X0097623Y0020620D01*
X0097176Y0020114D01*
X0096717Y0019620D01*
X0096245Y0019137D01*
X0095762Y0018665D01*
X0095268Y0018206D01*
X0094762Y0017759D01*
X0094246Y0017324D01*
X0093719Y0016902D01*
X0093182Y0016494D01*
X0092635Y0016098D01*
X0092078Y0015717D01*
X0091512Y0015349D01*
X0090938Y0014994D01*
X0090355Y0014655D01*
X0089763Y0014329D01*
X0089164Y0014018D01*
X0088558Y0013722D01*
X0087944Y0013441D01*
X0087324Y0013175D01*
X0086697Y0012925D01*
X0086064Y0012690D01*
X0085426Y0012470D01*
X0084783Y0012266D01*
X0084135Y0012078D01*
X0083482Y0011906D01*
X0082825Y0011750D01*
X0082165Y0011610D01*
X0081501Y0011487D01*
X0080835Y0011380D01*
X0080166Y0011289D01*
X0079495Y0011214D01*
X0078823Y0011157D01*
X0078149Y0011115D01*
X0077475Y0011090D01*
X0076800Y0011082D01*
X0076125Y0011090D01*
X0075451Y0011115D01*
X0074777Y0011157D01*
X0074105Y0011214D01*
X0073434Y0011289D01*
X0072765Y0011380D01*
X0072099Y0011487D01*
X0071435Y0011610D01*
X0070775Y0011750D01*
X0070118Y0011906D01*
X0069465Y0012078D01*
X0068817Y0012266D01*
X0068174Y0012470D01*
X0067536Y0012690D01*
X0066903Y0012925D01*
X0066276Y0013175D01*
X0065656Y0013441D01*
X0065042Y0013722D01*
X0064436Y0014018D01*
X0063837Y0014329D01*
X0063245Y0014655D01*
X0062662Y0014994D01*
X0062088Y0015349D01*
X0061522Y0015717D01*
X0060965Y0016098D01*
X0060418Y0016494D01*
X0059881Y0016902D01*
X0059354Y0017324D01*
X0058838Y0017759D01*
X0058332Y0018206D01*
X0057838Y0018665D01*
X0057355Y0019137D01*
X0056883Y0019620D01*
X0056424Y0020114D01*
X0055977Y0020620D01*
X0055542Y0021136D01*
X0055120Y0021663D01*
X0054712Y0022200D01*
X0054316Y0022747D01*
X0053935Y0023304D01*
X0053567Y0023870D01*
X0053212Y0024444D01*
X0052873Y0025027D01*
X0052547Y0025619D01*
X0052236Y0026218D01*
X0051940Y0026824D01*
X0051659Y0027438D01*
X0051393Y0028058D01*
X0051143Y0028685D01*
X0050908Y0029318D01*
X0050688Y0029956D01*
X0050484Y0030599D01*
X0050296Y0031247D01*
X0050124Y0031900D01*
X0049968Y0032557D01*
X0049828Y0033217D01*
X0049705Y0033881D01*
X0049598Y0034547D01*
X0049507Y0035216D01*
X0049432Y0035887D01*
X0049375Y0036559D01*
X0049333Y0037233D01*
X0049308Y0037907D01*
X0049300Y0038582D01*
X0031902Y0074201D02*
X0023902Y0074201D01*
X0023842Y0074203D01*
X0023781Y0074208D01*
X0023722Y0074217D01*
X0023663Y0074230D01*
X0023604Y0074246D01*
X0023547Y0074266D01*
X0023492Y0074289D01*
X0023437Y0074316D01*
X0023385Y0074345D01*
X0023334Y0074378D01*
X0023285Y0074414D01*
X0023239Y0074452D01*
X0023195Y0074494D01*
X0023153Y0074538D01*
X0023115Y0074584D01*
X0023079Y0074633D01*
X0023046Y0074684D01*
X0023017Y0074736D01*
X0022990Y0074791D01*
X0022967Y0074846D01*
X0022947Y0074903D01*
X0022931Y0074962D01*
X0022918Y0075021D01*
X0022909Y0075080D01*
X0022904Y0075141D01*
X0022902Y0075201D01*
X0022902Y0092201D01*
X0022904Y0092261D01*
X0022909Y0092322D01*
X0022918Y0092381D01*
X0022931Y0092440D01*
X0022947Y0092499D01*
X0022967Y0092556D01*
X0022990Y0092611D01*
X0023017Y0092666D01*
X0023046Y0092718D01*
X0023079Y0092769D01*
X0023115Y0092818D01*
X0023153Y0092864D01*
X0023195Y0092908D01*
X0023239Y0092950D01*
X0023285Y0092988D01*
X0023334Y0093024D01*
X0023385Y0093057D01*
X0023437Y0093086D01*
X0023492Y0093113D01*
X0023547Y0093136D01*
X0023604Y0093156D01*
X0023663Y0093172D01*
X0023722Y0093185D01*
X0023781Y0093194D01*
X0023842Y0093199D01*
X0023902Y0093201D01*
X0031902Y0093201D01*
X0031962Y0093199D01*
X0032023Y0093194D01*
X0032082Y0093185D01*
X0032141Y0093172D01*
X0032200Y0093156D01*
X0032257Y0093136D01*
X0032312Y0093113D01*
X0032367Y0093086D01*
X0032419Y0093057D01*
X0032470Y0093024D01*
X0032519Y0092988D01*
X0032565Y0092950D01*
X0032609Y0092908D01*
X0032651Y0092864D01*
X0032689Y0092818D01*
X0032725Y0092769D01*
X0032758Y0092718D01*
X0032787Y0092666D01*
X0032814Y0092611D01*
X0032837Y0092556D01*
X0032857Y0092499D01*
X0032873Y0092440D01*
X0032886Y0092381D01*
X0032895Y0092322D01*
X0032900Y0092261D01*
X0032902Y0092201D01*
X0032902Y0075201D01*
X0032900Y0075141D01*
X0032895Y0075080D01*
X0032886Y0075021D01*
X0032873Y0074962D01*
X0032857Y0074903D01*
X0032837Y0074846D01*
X0032814Y0074791D01*
X0032787Y0074736D01*
X0032758Y0074684D01*
X0032725Y0074633D01*
X0032689Y0074584D01*
X0032651Y0074538D01*
X0032609Y0074494D01*
X0032565Y0074452D01*
X0032519Y0074414D01*
X0032470Y0074378D01*
X0032419Y0074345D01*
X0032367Y0074316D01*
X0032312Y0074289D01*
X0032257Y0074266D01*
X0032200Y0074246D01*
X0032141Y0074230D01*
X0032082Y0074217D01*
X0032023Y0074208D01*
X0031962Y0074203D01*
X0031902Y0074201D01*
X0027902Y0082201D02*
X0027902Y0082701D01*
X0027902Y0084701D02*
X0027902Y0085201D01*
X0020800Y0089582D02*
X0020800Y0091082D01*
X0020300Y0091582D01*
X0020300Y0105582D01*
X0020800Y0106082D01*
X0020800Y0107582D01*
X0020798Y0107642D01*
X0020793Y0107703D01*
X0020784Y0107762D01*
X0020771Y0107821D01*
X0020755Y0107880D01*
X0020735Y0107937D01*
X0020712Y0107992D01*
X0020685Y0108047D01*
X0020656Y0108099D01*
X0020623Y0108150D01*
X0020587Y0108199D01*
X0020549Y0108245D01*
X0020507Y0108289D01*
X0020463Y0108331D01*
X0020417Y0108369D01*
X0020368Y0108405D01*
X0020317Y0108438D01*
X0020265Y0108467D01*
X0020210Y0108494D01*
X0020155Y0108517D01*
X0020098Y0108537D01*
X0020039Y0108553D01*
X0019980Y0108566D01*
X0019921Y0108575D01*
X0019860Y0108580D01*
X0019800Y0108582D01*
X0013800Y0108582D01*
X0013740Y0108580D01*
X0013679Y0108575D01*
X0013620Y0108566D01*
X0013561Y0108553D01*
X0013502Y0108537D01*
X0013445Y0108517D01*
X0013390Y0108494D01*
X0013335Y0108467D01*
X0013283Y0108438D01*
X0013232Y0108405D01*
X0013183Y0108369D01*
X0013137Y0108331D01*
X0013093Y0108289D01*
X0013051Y0108245D01*
X0013013Y0108199D01*
X0012977Y0108150D01*
X0012944Y0108099D01*
X0012915Y0108047D01*
X0012888Y0107992D01*
X0012865Y0107937D01*
X0012845Y0107880D01*
X0012829Y0107821D01*
X0012816Y0107762D01*
X0012807Y0107703D01*
X0012802Y0107642D01*
X0012800Y0107582D01*
X0012800Y0106082D01*
X0013300Y0105582D01*
X0013300Y0091582D01*
X0012800Y0091082D01*
X0012800Y0089582D01*
X0012802Y0089522D01*
X0012807Y0089461D01*
X0012816Y0089402D01*
X0012829Y0089343D01*
X0012845Y0089284D01*
X0012865Y0089227D01*
X0012888Y0089172D01*
X0012915Y0089117D01*
X0012944Y0089065D01*
X0012977Y0089014D01*
X0013013Y0088965D01*
X0013051Y0088919D01*
X0013093Y0088875D01*
X0013137Y0088833D01*
X0013183Y0088795D01*
X0013232Y0088759D01*
X0013283Y0088726D01*
X0013335Y0088697D01*
X0013390Y0088670D01*
X0013445Y0088647D01*
X0013502Y0088627D01*
X0013561Y0088611D01*
X0013620Y0088598D01*
X0013679Y0088589D01*
X0013740Y0088584D01*
X0013800Y0088582D01*
X0019800Y0088582D01*
X0019860Y0088584D01*
X0019921Y0088589D01*
X0019980Y0088598D01*
X0020039Y0088611D01*
X0020098Y0088627D01*
X0020155Y0088647D01*
X0020210Y0088670D01*
X0020265Y0088697D01*
X0020317Y0088726D01*
X0020368Y0088759D01*
X0020417Y0088795D01*
X0020463Y0088833D01*
X0020507Y0088875D01*
X0020549Y0088919D01*
X0020587Y0088965D01*
X0020623Y0089014D01*
X0020656Y0089065D01*
X0020685Y0089117D01*
X0020712Y0089172D01*
X0020735Y0089227D01*
X0020755Y0089284D01*
X0020771Y0089343D01*
X0020784Y0089402D01*
X0020793Y0089461D01*
X0020798Y0089522D01*
X0020800Y0089582D01*
X0019800Y0128582D02*
X0013800Y0128582D01*
X0013740Y0128584D01*
X0013679Y0128589D01*
X0013620Y0128598D01*
X0013561Y0128611D01*
X0013502Y0128627D01*
X0013445Y0128647D01*
X0013390Y0128670D01*
X0013335Y0128697D01*
X0013283Y0128726D01*
X0013232Y0128759D01*
X0013183Y0128795D01*
X0013137Y0128833D01*
X0013093Y0128875D01*
X0013051Y0128919D01*
X0013013Y0128965D01*
X0012977Y0129014D01*
X0012944Y0129065D01*
X0012915Y0129117D01*
X0012888Y0129172D01*
X0012865Y0129227D01*
X0012845Y0129284D01*
X0012829Y0129343D01*
X0012816Y0129402D01*
X0012807Y0129461D01*
X0012802Y0129522D01*
X0012800Y0129582D01*
X0012800Y0131082D01*
X0013300Y0131582D01*
X0013300Y0145582D01*
X0012800Y0146082D01*
X0012800Y0147582D01*
X0012802Y0147642D01*
X0012807Y0147703D01*
X0012816Y0147762D01*
X0012829Y0147821D01*
X0012845Y0147880D01*
X0012865Y0147937D01*
X0012888Y0147992D01*
X0012915Y0148047D01*
X0012944Y0148099D01*
X0012977Y0148150D01*
X0013013Y0148199D01*
X0013051Y0148245D01*
X0013093Y0148289D01*
X0013137Y0148331D01*
X0013183Y0148369D01*
X0013232Y0148405D01*
X0013283Y0148438D01*
X0013335Y0148467D01*
X0013390Y0148494D01*
X0013445Y0148517D01*
X0013502Y0148537D01*
X0013561Y0148553D01*
X0013620Y0148566D01*
X0013679Y0148575D01*
X0013740Y0148580D01*
X0013800Y0148582D01*
X0019800Y0148582D01*
X0019860Y0148580D01*
X0019921Y0148575D01*
X0019980Y0148566D01*
X0020039Y0148553D01*
X0020098Y0148537D01*
X0020155Y0148517D01*
X0020210Y0148494D01*
X0020265Y0148467D01*
X0020317Y0148438D01*
X0020368Y0148405D01*
X0020417Y0148369D01*
X0020463Y0148331D01*
X0020507Y0148289D01*
X0020549Y0148245D01*
X0020587Y0148199D01*
X0020623Y0148150D01*
X0020656Y0148099D01*
X0020685Y0148047D01*
X0020712Y0147992D01*
X0020735Y0147937D01*
X0020755Y0147880D01*
X0020771Y0147821D01*
X0020784Y0147762D01*
X0020793Y0147703D01*
X0020798Y0147642D01*
X0020800Y0147582D01*
X0020800Y0146082D01*
X0020300Y0145582D01*
X0020300Y0131582D01*
X0020800Y0131082D01*
X0020800Y0129582D01*
X0020798Y0129522D01*
X0020793Y0129461D01*
X0020784Y0129402D01*
X0020771Y0129343D01*
X0020755Y0129284D01*
X0020735Y0129227D01*
X0020712Y0129172D01*
X0020685Y0129117D01*
X0020656Y0129065D01*
X0020623Y0129014D01*
X0020587Y0128965D01*
X0020549Y0128919D01*
X0020507Y0128875D01*
X0020463Y0128833D01*
X0020417Y0128795D01*
X0020368Y0128759D01*
X0020317Y0128726D01*
X0020265Y0128697D01*
X0020210Y0128670D01*
X0020155Y0128647D01*
X0020098Y0128627D01*
X0020039Y0128611D01*
X0019980Y0128598D01*
X0019921Y0128589D01*
X0019860Y0128584D01*
X0019800Y0128582D01*
X0022800Y0129582D02*
X0022800Y0131082D01*
X0023300Y0131582D01*
X0023300Y0145582D01*
X0022800Y0146082D01*
X0022800Y0147582D01*
X0022802Y0147642D01*
X0022807Y0147703D01*
X0022816Y0147762D01*
X0022829Y0147821D01*
X0022845Y0147880D01*
X0022865Y0147937D01*
X0022888Y0147992D01*
X0022915Y0148047D01*
X0022944Y0148099D01*
X0022977Y0148150D01*
X0023013Y0148199D01*
X0023051Y0148245D01*
X0023093Y0148289D01*
X0023137Y0148331D01*
X0023183Y0148369D01*
X0023232Y0148405D01*
X0023283Y0148438D01*
X0023335Y0148467D01*
X0023390Y0148494D01*
X0023445Y0148517D01*
X0023502Y0148537D01*
X0023561Y0148553D01*
X0023620Y0148566D01*
X0023679Y0148575D01*
X0023740Y0148580D01*
X0023800Y0148582D01*
X0029800Y0148582D01*
X0029860Y0148580D01*
X0029921Y0148575D01*
X0029980Y0148566D01*
X0030039Y0148553D01*
X0030098Y0148537D01*
X0030155Y0148517D01*
X0030210Y0148494D01*
X0030265Y0148467D01*
X0030317Y0148438D01*
X0030368Y0148405D01*
X0030417Y0148369D01*
X0030463Y0148331D01*
X0030507Y0148289D01*
X0030549Y0148245D01*
X0030587Y0148199D01*
X0030623Y0148150D01*
X0030656Y0148099D01*
X0030685Y0148047D01*
X0030712Y0147992D01*
X0030735Y0147937D01*
X0030755Y0147880D01*
X0030771Y0147821D01*
X0030784Y0147762D01*
X0030793Y0147703D01*
X0030798Y0147642D01*
X0030800Y0147582D01*
X0030800Y0146082D01*
X0030300Y0145582D01*
X0030300Y0131582D01*
X0030800Y0131082D01*
X0030800Y0129582D01*
X0030798Y0129522D01*
X0030793Y0129461D01*
X0030784Y0129402D01*
X0030771Y0129343D01*
X0030755Y0129284D01*
X0030735Y0129227D01*
X0030712Y0129172D01*
X0030685Y0129117D01*
X0030656Y0129065D01*
X0030623Y0129014D01*
X0030587Y0128965D01*
X0030549Y0128919D01*
X0030507Y0128875D01*
X0030463Y0128833D01*
X0030417Y0128795D01*
X0030368Y0128759D01*
X0030317Y0128726D01*
X0030265Y0128697D01*
X0030210Y0128670D01*
X0030155Y0128647D01*
X0030098Y0128627D01*
X0030039Y0128611D01*
X0029980Y0128598D01*
X0029921Y0128589D01*
X0029860Y0128584D01*
X0029800Y0128582D01*
X0023800Y0128582D01*
X0023740Y0128584D01*
X0023679Y0128589D01*
X0023620Y0128598D01*
X0023561Y0128611D01*
X0023502Y0128627D01*
X0023445Y0128647D01*
X0023390Y0128670D01*
X0023335Y0128697D01*
X0023283Y0128726D01*
X0023232Y0128759D01*
X0023183Y0128795D01*
X0023137Y0128833D01*
X0023093Y0128875D01*
X0023051Y0128919D01*
X0023013Y0128965D01*
X0022977Y0129014D01*
X0022944Y0129065D01*
X0022915Y0129117D01*
X0022888Y0129172D01*
X0022865Y0129227D01*
X0022845Y0129284D01*
X0022829Y0129343D01*
X0022816Y0129402D01*
X0022807Y0129461D01*
X0022802Y0129522D01*
X0022800Y0129582D01*
X0116800Y0081582D02*
X0116800Y0075582D01*
X0116802Y0075522D01*
X0116807Y0075461D01*
X0116816Y0075402D01*
X0116829Y0075343D01*
X0116845Y0075284D01*
X0116865Y0075227D01*
X0116888Y0075172D01*
X0116915Y0075117D01*
X0116944Y0075065D01*
X0116977Y0075014D01*
X0117013Y0074965D01*
X0117051Y0074919D01*
X0117093Y0074875D01*
X0117137Y0074833D01*
X0117183Y0074795D01*
X0117232Y0074759D01*
X0117283Y0074726D01*
X0117335Y0074697D01*
X0117390Y0074670D01*
X0117445Y0074647D01*
X0117502Y0074627D01*
X0117561Y0074611D01*
X0117620Y0074598D01*
X0117679Y0074589D01*
X0117740Y0074584D01*
X0117800Y0074582D01*
X0119300Y0074582D01*
X0119800Y0075082D01*
X0133800Y0075082D01*
X0134300Y0074582D01*
X0135800Y0074582D01*
X0135860Y0074584D01*
X0135921Y0074589D01*
X0135980Y0074598D01*
X0136039Y0074611D01*
X0136098Y0074627D01*
X0136155Y0074647D01*
X0136210Y0074670D01*
X0136265Y0074697D01*
X0136317Y0074726D01*
X0136368Y0074759D01*
X0136417Y0074795D01*
X0136463Y0074833D01*
X0136507Y0074875D01*
X0136549Y0074919D01*
X0136587Y0074965D01*
X0136623Y0075014D01*
X0136656Y0075065D01*
X0136685Y0075117D01*
X0136712Y0075172D01*
X0136735Y0075227D01*
X0136755Y0075284D01*
X0136771Y0075343D01*
X0136784Y0075402D01*
X0136793Y0075461D01*
X0136798Y0075522D01*
X0136800Y0075582D01*
X0136800Y0081582D01*
X0136798Y0081642D01*
X0136793Y0081703D01*
X0136784Y0081762D01*
X0136771Y0081821D01*
X0136755Y0081880D01*
X0136735Y0081937D01*
X0136712Y0081992D01*
X0136685Y0082047D01*
X0136656Y0082099D01*
X0136623Y0082150D01*
X0136587Y0082199D01*
X0136549Y0082245D01*
X0136507Y0082289D01*
X0136463Y0082331D01*
X0136417Y0082369D01*
X0136368Y0082405D01*
X0136317Y0082438D01*
X0136265Y0082467D01*
X0136210Y0082494D01*
X0136155Y0082517D01*
X0136098Y0082537D01*
X0136039Y0082553D01*
X0135980Y0082566D01*
X0135921Y0082575D01*
X0135860Y0082580D01*
X0135800Y0082582D01*
X0134300Y0082582D01*
X0133800Y0082082D01*
X0119800Y0082082D01*
X0119300Y0082582D01*
X0117800Y0082582D01*
X0117740Y0082580D01*
X0117679Y0082575D01*
X0117620Y0082566D01*
X0117561Y0082553D01*
X0117502Y0082537D01*
X0117445Y0082517D01*
X0117390Y0082494D01*
X0117335Y0082467D01*
X0117283Y0082438D01*
X0117232Y0082405D01*
X0117183Y0082369D01*
X0117137Y0082331D01*
X0117093Y0082289D01*
X0117051Y0082245D01*
X0117013Y0082199D01*
X0116977Y0082150D01*
X0116944Y0082099D01*
X0116915Y0082047D01*
X0116888Y0081992D01*
X0116865Y0081937D01*
X0116845Y0081880D01*
X0116829Y0081821D01*
X0116816Y0081762D01*
X0116807Y0081703D01*
X0116802Y0081642D01*
X0116800Y0081582D01*
X0117800Y0072582D02*
X0119300Y0072582D01*
X0119800Y0072082D01*
X0133800Y0072082D01*
X0134300Y0072582D01*
X0135800Y0072582D01*
X0135860Y0072580D01*
X0135921Y0072575D01*
X0135980Y0072566D01*
X0136039Y0072553D01*
X0136098Y0072537D01*
X0136155Y0072517D01*
X0136210Y0072494D01*
X0136265Y0072467D01*
X0136317Y0072438D01*
X0136368Y0072405D01*
X0136417Y0072369D01*
X0136463Y0072331D01*
X0136507Y0072289D01*
X0136549Y0072245D01*
X0136587Y0072199D01*
X0136623Y0072150D01*
X0136656Y0072099D01*
X0136685Y0072047D01*
X0136712Y0071992D01*
X0136735Y0071937D01*
X0136755Y0071880D01*
X0136771Y0071821D01*
X0136784Y0071762D01*
X0136793Y0071703D01*
X0136798Y0071642D01*
X0136800Y0071582D01*
X0136800Y0065582D01*
X0136798Y0065522D01*
X0136793Y0065461D01*
X0136784Y0065402D01*
X0136771Y0065343D01*
X0136755Y0065284D01*
X0136735Y0065227D01*
X0136712Y0065172D01*
X0136685Y0065117D01*
X0136656Y0065065D01*
X0136623Y0065014D01*
X0136587Y0064965D01*
X0136549Y0064919D01*
X0136507Y0064875D01*
X0136463Y0064833D01*
X0136417Y0064795D01*
X0136368Y0064759D01*
X0136317Y0064726D01*
X0136265Y0064697D01*
X0136210Y0064670D01*
X0136155Y0064647D01*
X0136098Y0064627D01*
X0136039Y0064611D01*
X0135980Y0064598D01*
X0135921Y0064589D01*
X0135860Y0064584D01*
X0135800Y0064582D01*
X0134300Y0064582D01*
X0133800Y0065082D01*
X0119800Y0065082D01*
X0119300Y0064582D01*
X0117800Y0064582D01*
X0117740Y0064584D01*
X0117679Y0064589D01*
X0117620Y0064598D01*
X0117561Y0064611D01*
X0117502Y0064627D01*
X0117445Y0064647D01*
X0117390Y0064670D01*
X0117335Y0064697D01*
X0117283Y0064726D01*
X0117232Y0064759D01*
X0117183Y0064795D01*
X0117137Y0064833D01*
X0117093Y0064875D01*
X0117051Y0064919D01*
X0117013Y0064965D01*
X0116977Y0065014D01*
X0116944Y0065065D01*
X0116915Y0065117D01*
X0116888Y0065172D01*
X0116865Y0065227D01*
X0116845Y0065284D01*
X0116829Y0065343D01*
X0116816Y0065402D01*
X0116807Y0065461D01*
X0116802Y0065522D01*
X0116800Y0065582D01*
X0116800Y0071582D01*
X0116802Y0071642D01*
X0116807Y0071703D01*
X0116816Y0071762D01*
X0116829Y0071821D01*
X0116845Y0071880D01*
X0116865Y0071937D01*
X0116888Y0071992D01*
X0116915Y0072047D01*
X0116944Y0072099D01*
X0116977Y0072150D01*
X0117013Y0072199D01*
X0117051Y0072245D01*
X0117093Y0072289D01*
X0117137Y0072331D01*
X0117183Y0072369D01*
X0117232Y0072405D01*
X0117283Y0072438D01*
X0117335Y0072467D01*
X0117390Y0072494D01*
X0117445Y0072517D01*
X0117502Y0072537D01*
X0117561Y0072553D01*
X0117620Y0072566D01*
X0117679Y0072575D01*
X0117740Y0072580D01*
X0117800Y0072582D01*
X0117800Y0062582D02*
X0119300Y0062582D01*
X0119800Y0062082D01*
X0133800Y0062082D01*
X0134300Y0062582D01*
X0135800Y0062582D01*
X0135860Y0062580D01*
X0135921Y0062575D01*
X0135980Y0062566D01*
X0136039Y0062553D01*
X0136098Y0062537D01*
X0136155Y0062517D01*
X0136210Y0062494D01*
X0136265Y0062467D01*
X0136317Y0062438D01*
X0136368Y0062405D01*
X0136417Y0062369D01*
X0136463Y0062331D01*
X0136507Y0062289D01*
X0136549Y0062245D01*
X0136587Y0062199D01*
X0136623Y0062150D01*
X0136656Y0062099D01*
X0136685Y0062047D01*
X0136712Y0061992D01*
X0136735Y0061937D01*
X0136755Y0061880D01*
X0136771Y0061821D01*
X0136784Y0061762D01*
X0136793Y0061703D01*
X0136798Y0061642D01*
X0136800Y0061582D01*
X0136800Y0055582D01*
X0136798Y0055522D01*
X0136793Y0055461D01*
X0136784Y0055402D01*
X0136771Y0055343D01*
X0136755Y0055284D01*
X0136735Y0055227D01*
X0136712Y0055172D01*
X0136685Y0055117D01*
X0136656Y0055065D01*
X0136623Y0055014D01*
X0136587Y0054965D01*
X0136549Y0054919D01*
X0136507Y0054875D01*
X0136463Y0054833D01*
X0136417Y0054795D01*
X0136368Y0054759D01*
X0136317Y0054726D01*
X0136265Y0054697D01*
X0136210Y0054670D01*
X0136155Y0054647D01*
X0136098Y0054627D01*
X0136039Y0054611D01*
X0135980Y0054598D01*
X0135921Y0054589D01*
X0135860Y0054584D01*
X0135800Y0054582D01*
X0134300Y0054582D01*
X0133800Y0055082D01*
X0119800Y0055082D01*
X0119300Y0054582D01*
X0117800Y0054582D01*
X0117740Y0054584D01*
X0117679Y0054589D01*
X0117620Y0054598D01*
X0117561Y0054611D01*
X0117502Y0054627D01*
X0117445Y0054647D01*
X0117390Y0054670D01*
X0117335Y0054697D01*
X0117283Y0054726D01*
X0117232Y0054759D01*
X0117183Y0054795D01*
X0117137Y0054833D01*
X0117093Y0054875D01*
X0117051Y0054919D01*
X0117013Y0054965D01*
X0116977Y0055014D01*
X0116944Y0055065D01*
X0116915Y0055117D01*
X0116888Y0055172D01*
X0116865Y0055227D01*
X0116845Y0055284D01*
X0116829Y0055343D01*
X0116816Y0055402D01*
X0116807Y0055461D01*
X0116802Y0055522D01*
X0116800Y0055582D01*
X0116800Y0061582D01*
X0116802Y0061642D01*
X0116807Y0061703D01*
X0116816Y0061762D01*
X0116829Y0061821D01*
X0116845Y0061880D01*
X0116865Y0061937D01*
X0116888Y0061992D01*
X0116915Y0062047D01*
X0116944Y0062099D01*
X0116977Y0062150D01*
X0117013Y0062199D01*
X0117051Y0062245D01*
X0117093Y0062289D01*
X0117137Y0062331D01*
X0117183Y0062369D01*
X0117232Y0062405D01*
X0117283Y0062438D01*
X0117335Y0062467D01*
X0117390Y0062494D01*
X0117445Y0062517D01*
X0117502Y0062537D01*
X0117561Y0062553D01*
X0117620Y0062566D01*
X0117679Y0062575D01*
X0117740Y0062580D01*
X0117800Y0062582D01*
X0117800Y0052582D02*
X0119300Y0052582D01*
X0119800Y0052082D01*
X0133800Y0052082D01*
X0134300Y0052582D01*
X0135800Y0052582D01*
X0135860Y0052580D01*
X0135921Y0052575D01*
X0135980Y0052566D01*
X0136039Y0052553D01*
X0136098Y0052537D01*
X0136155Y0052517D01*
X0136210Y0052494D01*
X0136265Y0052467D01*
X0136317Y0052438D01*
X0136368Y0052405D01*
X0136417Y0052369D01*
X0136463Y0052331D01*
X0136507Y0052289D01*
X0136549Y0052245D01*
X0136587Y0052199D01*
X0136623Y0052150D01*
X0136656Y0052099D01*
X0136685Y0052047D01*
X0136712Y0051992D01*
X0136735Y0051937D01*
X0136755Y0051880D01*
X0136771Y0051821D01*
X0136784Y0051762D01*
X0136793Y0051703D01*
X0136798Y0051642D01*
X0136800Y0051582D01*
X0136800Y0045582D01*
X0136798Y0045522D01*
X0136793Y0045461D01*
X0136784Y0045402D01*
X0136771Y0045343D01*
X0136755Y0045284D01*
X0136735Y0045227D01*
X0136712Y0045172D01*
X0136685Y0045117D01*
X0136656Y0045065D01*
X0136623Y0045014D01*
X0136587Y0044965D01*
X0136549Y0044919D01*
X0136507Y0044875D01*
X0136463Y0044833D01*
X0136417Y0044795D01*
X0136368Y0044759D01*
X0136317Y0044726D01*
X0136265Y0044697D01*
X0136210Y0044670D01*
X0136155Y0044647D01*
X0136098Y0044627D01*
X0136039Y0044611D01*
X0135980Y0044598D01*
X0135921Y0044589D01*
X0135860Y0044584D01*
X0135800Y0044582D01*
X0134300Y0044582D01*
X0133800Y0045082D01*
X0119800Y0045082D01*
X0119300Y0044582D01*
X0117800Y0044582D01*
X0117740Y0044584D01*
X0117679Y0044589D01*
X0117620Y0044598D01*
X0117561Y0044611D01*
X0117502Y0044627D01*
X0117445Y0044647D01*
X0117390Y0044670D01*
X0117335Y0044697D01*
X0117283Y0044726D01*
X0117232Y0044759D01*
X0117183Y0044795D01*
X0117137Y0044833D01*
X0117093Y0044875D01*
X0117051Y0044919D01*
X0117013Y0044965D01*
X0116977Y0045014D01*
X0116944Y0045065D01*
X0116915Y0045117D01*
X0116888Y0045172D01*
X0116865Y0045227D01*
X0116845Y0045284D01*
X0116829Y0045343D01*
X0116816Y0045402D01*
X0116807Y0045461D01*
X0116802Y0045522D01*
X0116800Y0045582D01*
X0116800Y0051582D01*
X0116802Y0051642D01*
X0116807Y0051703D01*
X0116816Y0051762D01*
X0116829Y0051821D01*
X0116845Y0051880D01*
X0116865Y0051937D01*
X0116888Y0051992D01*
X0116915Y0052047D01*
X0116944Y0052099D01*
X0116977Y0052150D01*
X0117013Y0052199D01*
X0117051Y0052245D01*
X0117093Y0052289D01*
X0117137Y0052331D01*
X0117183Y0052369D01*
X0117232Y0052405D01*
X0117283Y0052438D01*
X0117335Y0052467D01*
X0117390Y0052494D01*
X0117445Y0052517D01*
X0117502Y0052537D01*
X0117561Y0052553D01*
X0117620Y0052566D01*
X0117679Y0052575D01*
X0117740Y0052580D01*
X0117800Y0052582D01*
X0127800Y0028583D02*
X0127798Y0028429D01*
X0127792Y0028275D01*
X0127782Y0028121D01*
X0127768Y0027967D01*
X0127751Y0027814D01*
X0127729Y0027662D01*
X0127703Y0027510D01*
X0127674Y0027358D01*
X0127640Y0027208D01*
X0127603Y0027058D01*
X0127562Y0026910D01*
X0127517Y0026762D01*
X0127468Y0026616D01*
X0127416Y0026471D01*
X0127360Y0026328D01*
X0127300Y0026185D01*
X0127237Y0026045D01*
X0127170Y0025906D01*
X0127099Y0025769D01*
X0127025Y0025634D01*
X0126948Y0025501D01*
X0126867Y0025369D01*
X0126783Y0025240D01*
X0126695Y0025113D01*
X0126604Y0024989D01*
X0126511Y0024867D01*
X0126413Y0024747D01*
X0126313Y0024630D01*
X0126210Y0024515D01*
X0126104Y0024403D01*
X0125996Y0024294D01*
X0125884Y0024188D01*
X0125770Y0024084D01*
X0125653Y0023984D01*
X0125534Y0023886D01*
X0125412Y0023792D01*
X0125287Y0023701D01*
X0115800Y0028582D02*
X0115802Y0028734D01*
X0115808Y0028885D01*
X0115817Y0029036D01*
X0115831Y0029188D01*
X0115848Y0029338D01*
X0115869Y0029488D01*
X0115894Y0029638D01*
X0115922Y0029787D01*
X0115955Y0029935D01*
X0115991Y0030082D01*
X0116030Y0030229D01*
X0116074Y0030374D01*
X0116121Y0030518D01*
X0116172Y0030661D01*
X0116226Y0030802D01*
X0116284Y0030943D01*
X0116345Y0031081D01*
X0116410Y0031218D01*
X0116479Y0031354D01*
X0116550Y0031487D01*
X0116625Y0031619D01*
X0116704Y0031749D01*
X0116785Y0031876D01*
X0116870Y0032002D01*
X0116958Y0032126D01*
X0117049Y0032247D01*
X0117143Y0032366D01*
X0117241Y0032482D01*
X0117341Y0032596D01*
X0117443Y0032708D01*
X0117549Y0032816D01*
X0117657Y0032922D01*
X0117768Y0033026D01*
X0117882Y0033126D01*
X0117998Y0033224D01*
X0118117Y0033318D01*
X0115800Y0028582D02*
X0115802Y0028430D01*
X0115808Y0028279D01*
X0115817Y0028128D01*
X0115831Y0027976D01*
X0115848Y0027826D01*
X0115869Y0027676D01*
X0115894Y0027526D01*
X0115922Y0027377D01*
X0115955Y0027229D01*
X0115991Y0027082D01*
X0116030Y0026935D01*
X0116074Y0026790D01*
X0116121Y0026646D01*
X0116172Y0026503D01*
X0116226Y0026362D01*
X0116284Y0026221D01*
X0116345Y0026083D01*
X0116410Y0025946D01*
X0116479Y0025810D01*
X0116550Y0025677D01*
X0116625Y0025545D01*
X0116704Y0025415D01*
X0116785Y0025288D01*
X0116870Y0025162D01*
X0116958Y0025038D01*
X0117049Y0024917D01*
X0117143Y0024798D01*
X0117241Y0024682D01*
X0117341Y0024568D01*
X0117443Y0024456D01*
X0117549Y0024348D01*
X0117657Y0024242D01*
X0117768Y0024138D01*
X0117882Y0024038D01*
X0117998Y0023940D01*
X0118117Y0023846D01*
X0127800Y0028582D02*
X0127798Y0028732D01*
X0127792Y0028883D01*
X0127783Y0029033D01*
X0127770Y0029182D01*
X0127753Y0029332D01*
X0127732Y0029481D01*
X0127708Y0029629D01*
X0127680Y0029777D01*
X0127648Y0029924D01*
X0127613Y0030070D01*
X0127573Y0030215D01*
X0127531Y0030359D01*
X0127484Y0030502D01*
X0127434Y0030644D01*
X0127381Y0030785D01*
X0127324Y0030924D01*
X0127264Y0031062D01*
X0127200Y0031198D01*
X0127133Y0031332D01*
X0127062Y0031465D01*
X0126988Y0031596D01*
X0126911Y0031725D01*
X0126830Y0031852D01*
X0126747Y0031977D01*
X0126660Y0032100D01*
X0126571Y0032221D01*
X0126478Y0032339D01*
X0126382Y0032455D01*
X0126284Y0032569D01*
X0126183Y0032680D01*
X0126078Y0032789D01*
X0125972Y0032894D01*
X0125862Y0032998D01*
X0125750Y0033098D01*
X0125636Y0033196D01*
X0125519Y0033290D01*
X0125400Y0033382D01*
X0150287Y0023701D02*
X0150412Y0023792D01*
X0150534Y0023886D01*
X0150653Y0023984D01*
X0150770Y0024084D01*
X0150884Y0024188D01*
X0150996Y0024294D01*
X0151104Y0024403D01*
X0151210Y0024515D01*
X0151313Y0024630D01*
X0151413Y0024747D01*
X0151511Y0024867D01*
X0151604Y0024989D01*
X0151695Y0025113D01*
X0151783Y0025240D01*
X0151867Y0025369D01*
X0151948Y0025501D01*
X0152025Y0025634D01*
X0152099Y0025769D01*
X0152170Y0025906D01*
X0152237Y0026045D01*
X0152300Y0026185D01*
X0152360Y0026328D01*
X0152416Y0026471D01*
X0152468Y0026616D01*
X0152517Y0026762D01*
X0152562Y0026910D01*
X0152603Y0027058D01*
X0152640Y0027208D01*
X0152674Y0027358D01*
X0152703Y0027510D01*
X0152729Y0027662D01*
X0152751Y0027814D01*
X0152768Y0027967D01*
X0152782Y0028121D01*
X0152792Y0028275D01*
X0152798Y0028429D01*
X0152800Y0028583D01*
X0143117Y0033318D02*
X0142998Y0033224D01*
X0142882Y0033126D01*
X0142768Y0033026D01*
X0142657Y0032922D01*
X0142549Y0032816D01*
X0142443Y0032708D01*
X0142341Y0032596D01*
X0142241Y0032482D01*
X0142143Y0032366D01*
X0142049Y0032247D01*
X0141958Y0032126D01*
X0141870Y0032002D01*
X0141785Y0031876D01*
X0141704Y0031749D01*
X0141625Y0031619D01*
X0141550Y0031487D01*
X0141479Y0031354D01*
X0141410Y0031218D01*
X0141345Y0031081D01*
X0141284Y0030943D01*
X0141226Y0030802D01*
X0141172Y0030661D01*
X0141121Y0030518D01*
X0141074Y0030374D01*
X0141030Y0030229D01*
X0140991Y0030082D01*
X0140955Y0029935D01*
X0140922Y0029787D01*
X0140894Y0029638D01*
X0140869Y0029488D01*
X0140848Y0029338D01*
X0140831Y0029188D01*
X0140817Y0029036D01*
X0140808Y0028885D01*
X0140802Y0028734D01*
X0140800Y0028582D01*
X0150400Y0033382D02*
X0150519Y0033290D01*
X0150636Y0033196D01*
X0150750Y0033098D01*
X0150862Y0032998D01*
X0150972Y0032894D01*
X0151078Y0032789D01*
X0151183Y0032680D01*
X0151284Y0032569D01*
X0151382Y0032455D01*
X0151478Y0032339D01*
X0151571Y0032221D01*
X0151660Y0032100D01*
X0151747Y0031977D01*
X0151830Y0031852D01*
X0151911Y0031725D01*
X0151988Y0031596D01*
X0152062Y0031465D01*
X0152133Y0031332D01*
X0152200Y0031198D01*
X0152264Y0031062D01*
X0152324Y0030924D01*
X0152381Y0030785D01*
X0152434Y0030644D01*
X0152484Y0030502D01*
X0152531Y0030359D01*
X0152573Y0030215D01*
X0152613Y0030070D01*
X0152648Y0029924D01*
X0152680Y0029777D01*
X0152708Y0029629D01*
X0152732Y0029481D01*
X0152753Y0029332D01*
X0152770Y0029182D01*
X0152783Y0029033D01*
X0152792Y0028883D01*
X0152798Y0028732D01*
X0152800Y0028582D01*
X0143117Y0023846D02*
X0142998Y0023940D01*
X0142882Y0024038D01*
X0142768Y0024138D01*
X0142657Y0024242D01*
X0142549Y0024348D01*
X0142443Y0024456D01*
X0142341Y0024568D01*
X0142241Y0024682D01*
X0142143Y0024798D01*
X0142049Y0024917D01*
X0141958Y0025038D01*
X0141870Y0025162D01*
X0141785Y0025288D01*
X0141704Y0025415D01*
X0141625Y0025545D01*
X0141550Y0025677D01*
X0141479Y0025810D01*
X0141410Y0025946D01*
X0141345Y0026083D01*
X0141284Y0026221D01*
X0141226Y0026362D01*
X0141172Y0026503D01*
X0141121Y0026646D01*
X0141074Y0026790D01*
X0141030Y0026935D01*
X0140991Y0027082D01*
X0140955Y0027229D01*
X0140922Y0027377D01*
X0140894Y0027526D01*
X0140869Y0027676D01*
X0140848Y0027826D01*
X0140831Y0027976D01*
X0140817Y0028128D01*
X0140808Y0028279D01*
X0140802Y0028430D01*
X0140800Y0028582D01*
X0175400Y0033382D02*
X0175519Y0033290D01*
X0175636Y0033196D01*
X0175750Y0033098D01*
X0175862Y0032998D01*
X0175972Y0032894D01*
X0176078Y0032789D01*
X0176183Y0032680D01*
X0176284Y0032569D01*
X0176382Y0032455D01*
X0176478Y0032339D01*
X0176571Y0032221D01*
X0176660Y0032100D01*
X0176747Y0031977D01*
X0176830Y0031852D01*
X0176911Y0031725D01*
X0176988Y0031596D01*
X0177062Y0031465D01*
X0177133Y0031332D01*
X0177200Y0031198D01*
X0177264Y0031062D01*
X0177324Y0030924D01*
X0177381Y0030785D01*
X0177434Y0030644D01*
X0177484Y0030502D01*
X0177531Y0030359D01*
X0177573Y0030215D01*
X0177613Y0030070D01*
X0177648Y0029924D01*
X0177680Y0029777D01*
X0177708Y0029629D01*
X0177732Y0029481D01*
X0177753Y0029332D01*
X0177770Y0029182D01*
X0177783Y0029033D01*
X0177792Y0028883D01*
X0177798Y0028732D01*
X0177800Y0028582D01*
X0168117Y0033318D02*
X0167998Y0033224D01*
X0167882Y0033126D01*
X0167768Y0033026D01*
X0167657Y0032922D01*
X0167549Y0032816D01*
X0167443Y0032708D01*
X0167341Y0032596D01*
X0167241Y0032482D01*
X0167143Y0032366D01*
X0167049Y0032247D01*
X0166958Y0032126D01*
X0166870Y0032002D01*
X0166785Y0031876D01*
X0166704Y0031749D01*
X0166625Y0031619D01*
X0166550Y0031487D01*
X0166479Y0031354D01*
X0166410Y0031218D01*
X0166345Y0031081D01*
X0166284Y0030943D01*
X0166226Y0030802D01*
X0166172Y0030661D01*
X0166121Y0030518D01*
X0166074Y0030374D01*
X0166030Y0030229D01*
X0165991Y0030082D01*
X0165955Y0029935D01*
X0165922Y0029787D01*
X0165894Y0029638D01*
X0165869Y0029488D01*
X0165848Y0029338D01*
X0165831Y0029188D01*
X0165817Y0029036D01*
X0165808Y0028885D01*
X0165802Y0028734D01*
X0165800Y0028582D01*
X0175287Y0023701D02*
X0175412Y0023792D01*
X0175534Y0023886D01*
X0175653Y0023984D01*
X0175770Y0024084D01*
X0175884Y0024188D01*
X0175996Y0024294D01*
X0176104Y0024403D01*
X0176210Y0024515D01*
X0176313Y0024630D01*
X0176413Y0024747D01*
X0176511Y0024867D01*
X0176604Y0024989D01*
X0176695Y0025113D01*
X0176783Y0025240D01*
X0176867Y0025369D01*
X0176948Y0025501D01*
X0177025Y0025634D01*
X0177099Y0025769D01*
X0177170Y0025906D01*
X0177237Y0026045D01*
X0177300Y0026185D01*
X0177360Y0026328D01*
X0177416Y0026471D01*
X0177468Y0026616D01*
X0177517Y0026762D01*
X0177562Y0026910D01*
X0177603Y0027058D01*
X0177640Y0027208D01*
X0177674Y0027358D01*
X0177703Y0027510D01*
X0177729Y0027662D01*
X0177751Y0027814D01*
X0177768Y0027967D01*
X0177782Y0028121D01*
X0177792Y0028275D01*
X0177798Y0028429D01*
X0177800Y0028583D01*
X0168117Y0023846D02*
X0167998Y0023940D01*
X0167882Y0024038D01*
X0167768Y0024138D01*
X0167657Y0024242D01*
X0167549Y0024348D01*
X0167443Y0024456D01*
X0167341Y0024568D01*
X0167241Y0024682D01*
X0167143Y0024798D01*
X0167049Y0024917D01*
X0166958Y0025038D01*
X0166870Y0025162D01*
X0166785Y0025288D01*
X0166704Y0025415D01*
X0166625Y0025545D01*
X0166550Y0025677D01*
X0166479Y0025810D01*
X0166410Y0025946D01*
X0166345Y0026083D01*
X0166284Y0026221D01*
X0166226Y0026362D01*
X0166172Y0026503D01*
X0166121Y0026646D01*
X0166074Y0026790D01*
X0166030Y0026935D01*
X0165991Y0027082D01*
X0165955Y0027229D01*
X0165922Y0027377D01*
X0165894Y0027526D01*
X0165869Y0027676D01*
X0165848Y0027826D01*
X0165831Y0027976D01*
X0165817Y0028128D01*
X0165808Y0028279D01*
X0165802Y0028430D01*
X0165800Y0028582D01*
X0191800Y0051082D02*
X0194300Y0048582D01*
X0199300Y0048582D01*
X0201800Y0051082D01*
X0201800Y0056082D01*
X0199300Y0058582D01*
X0201800Y0061082D01*
X0201800Y0066082D01*
X0199300Y0068582D01*
X0201800Y0071082D01*
X0201800Y0076082D01*
X0199300Y0078582D01*
X0201800Y0081082D01*
X0201800Y0086082D01*
X0199300Y0088582D01*
X0201800Y0091082D01*
X0201800Y0096082D01*
X0199300Y0098582D01*
X0201800Y0101082D01*
X0201800Y0106082D01*
X0199300Y0108582D01*
X0201800Y0111082D01*
X0201800Y0116082D01*
X0199300Y0118582D01*
X0201800Y0121082D01*
X0201800Y0126082D01*
X0199300Y0128582D01*
X0194300Y0128582D01*
X0191800Y0126082D01*
X0191800Y0121082D01*
X0194300Y0118582D01*
X0191800Y0116082D01*
X0191800Y0111082D01*
X0194300Y0108582D01*
X0191800Y0106082D01*
X0191800Y0101082D01*
X0194300Y0098582D01*
X0191800Y0096082D01*
X0191800Y0091082D01*
X0194300Y0088582D01*
X0191800Y0086082D01*
X0191800Y0081082D01*
X0194300Y0078582D01*
X0191800Y0076082D01*
X0191800Y0071082D01*
X0194300Y0068582D01*
X0191800Y0066082D01*
X0191800Y0061082D01*
X0194300Y0058582D01*
X0191800Y0056082D01*
X0191800Y0051082D01*
X0175300Y0056582D02*
X0171800Y0056582D01*
X0161800Y0056582D01*
X0158300Y0056582D01*
X0154800Y0064582D02*
X0154800Y0065582D01*
X0153800Y0065582D01*
X0153800Y0071582D01*
X0154800Y0071582D01*
X0154800Y0072582D01*
X0158300Y0080582D02*
X0162300Y0080582D01*
X0171800Y0080582D01*
X0175300Y0080582D01*
X0178800Y0072582D02*
X0178800Y0071582D01*
X0179800Y0071582D01*
X0179800Y0065582D01*
X0178800Y0065582D01*
X0178800Y0064582D01*
X0165800Y0068582D02*
X0165802Y0068645D01*
X0165808Y0068707D01*
X0165818Y0068769D01*
X0165831Y0068831D01*
X0165849Y0068891D01*
X0165870Y0068950D01*
X0165895Y0069008D01*
X0165924Y0069064D01*
X0165956Y0069118D01*
X0165991Y0069170D01*
X0166029Y0069219D01*
X0166071Y0069267D01*
X0166115Y0069311D01*
X0166163Y0069353D01*
X0166212Y0069391D01*
X0166264Y0069426D01*
X0166318Y0069458D01*
X0166374Y0069487D01*
X0166432Y0069512D01*
X0166491Y0069533D01*
X0166551Y0069551D01*
X0166613Y0069564D01*
X0166675Y0069574D01*
X0166737Y0069580D01*
X0166800Y0069582D01*
X0166863Y0069580D01*
X0166925Y0069574D01*
X0166987Y0069564D01*
X0167049Y0069551D01*
X0167109Y0069533D01*
X0167168Y0069512D01*
X0167226Y0069487D01*
X0167282Y0069458D01*
X0167336Y0069426D01*
X0167388Y0069391D01*
X0167437Y0069353D01*
X0167485Y0069311D01*
X0167529Y0069267D01*
X0167571Y0069219D01*
X0167609Y0069170D01*
X0167644Y0069118D01*
X0167676Y0069064D01*
X0167705Y0069008D01*
X0167730Y0068950D01*
X0167751Y0068891D01*
X0167769Y0068831D01*
X0167782Y0068769D01*
X0167792Y0068707D01*
X0167798Y0068645D01*
X0167800Y0068582D01*
X0167798Y0068519D01*
X0167792Y0068457D01*
X0167782Y0068395D01*
X0167769Y0068333D01*
X0167751Y0068273D01*
X0167730Y0068214D01*
X0167705Y0068156D01*
X0167676Y0068100D01*
X0167644Y0068046D01*
X0167609Y0067994D01*
X0167571Y0067945D01*
X0167529Y0067897D01*
X0167485Y0067853D01*
X0167437Y0067811D01*
X0167388Y0067773D01*
X0167336Y0067738D01*
X0167282Y0067706D01*
X0167226Y0067677D01*
X0167168Y0067652D01*
X0167109Y0067631D01*
X0167049Y0067613D01*
X0166987Y0067600D01*
X0166925Y0067590D01*
X0166863Y0067584D01*
X0166800Y0067582D01*
X0166737Y0067584D01*
X0166675Y0067590D01*
X0166613Y0067600D01*
X0166551Y0067613D01*
X0166491Y0067631D01*
X0166432Y0067652D01*
X0166374Y0067677D01*
X0166318Y0067706D01*
X0166264Y0067738D01*
X0166212Y0067773D01*
X0166163Y0067811D01*
X0166115Y0067853D01*
X0166071Y0067897D01*
X0166029Y0067945D01*
X0165991Y0067994D01*
X0165956Y0068046D01*
X0165924Y0068100D01*
X0165895Y0068156D01*
X0165870Y0068214D01*
X0165849Y0068273D01*
X0165831Y0068333D01*
X0165818Y0068395D01*
X0165808Y0068457D01*
X0165802Y0068519D01*
X0165800Y0068582D01*
X0159800Y0068582D02*
X0159802Y0068754D01*
X0159808Y0068925D01*
X0159819Y0069097D01*
X0159834Y0069268D01*
X0159853Y0069439D01*
X0159876Y0069609D01*
X0159903Y0069779D01*
X0159935Y0069948D01*
X0159970Y0070116D01*
X0160010Y0070283D01*
X0160054Y0070449D01*
X0160101Y0070614D01*
X0160153Y0070778D01*
X0160209Y0070940D01*
X0160269Y0071101D01*
X0160333Y0071261D01*
X0160401Y0071419D01*
X0160472Y0071575D01*
X0160547Y0071729D01*
X0160627Y0071882D01*
X0160709Y0072032D01*
X0160796Y0072181D01*
X0160886Y0072327D01*
X0160980Y0072471D01*
X0161077Y0072613D01*
X0161178Y0072752D01*
X0161282Y0072889D01*
X0161389Y0073023D01*
X0161500Y0073154D01*
X0161613Y0073283D01*
X0161730Y0073409D01*
X0161850Y0073532D01*
X0161973Y0073652D01*
X0162099Y0073769D01*
X0162228Y0073882D01*
X0162359Y0073993D01*
X0162493Y0074100D01*
X0162630Y0074204D01*
X0162769Y0074305D01*
X0162911Y0074402D01*
X0163055Y0074496D01*
X0163201Y0074586D01*
X0163350Y0074673D01*
X0163500Y0074755D01*
X0163653Y0074835D01*
X0163807Y0074910D01*
X0163963Y0074981D01*
X0164121Y0075049D01*
X0164281Y0075113D01*
X0164442Y0075173D01*
X0164604Y0075229D01*
X0164768Y0075281D01*
X0164933Y0075328D01*
X0165099Y0075372D01*
X0165266Y0075412D01*
X0165434Y0075447D01*
X0165603Y0075479D01*
X0165773Y0075506D01*
X0165943Y0075529D01*
X0166114Y0075548D01*
X0166285Y0075563D01*
X0166457Y0075574D01*
X0166628Y0075580D01*
X0166800Y0075582D01*
X0166972Y0075580D01*
X0167143Y0075574D01*
X0167315Y0075563D01*
X0167486Y0075548D01*
X0167657Y0075529D01*
X0167827Y0075506D01*
X0167997Y0075479D01*
X0168166Y0075447D01*
X0168334Y0075412D01*
X0168501Y0075372D01*
X0168667Y0075328D01*
X0168832Y0075281D01*
X0168996Y0075229D01*
X0169158Y0075173D01*
X0169319Y0075113D01*
X0169479Y0075049D01*
X0169637Y0074981D01*
X0169793Y0074910D01*
X0169947Y0074835D01*
X0170100Y0074755D01*
X0170250Y0074673D01*
X0170399Y0074586D01*
X0170545Y0074496D01*
X0170689Y0074402D01*
X0170831Y0074305D01*
X0170970Y0074204D01*
X0171107Y0074100D01*
X0171241Y0073993D01*
X0171372Y0073882D01*
X0171501Y0073769D01*
X0171627Y0073652D01*
X0171750Y0073532D01*
X0171870Y0073409D01*
X0171987Y0073283D01*
X0172100Y0073154D01*
X0172211Y0073023D01*
X0172318Y0072889D01*
X0172422Y0072752D01*
X0172523Y0072613D01*
X0172620Y0072471D01*
X0172714Y0072327D01*
X0172804Y0072181D01*
X0172891Y0072032D01*
X0172973Y0071882D01*
X0173053Y0071729D01*
X0173128Y0071575D01*
X0173199Y0071419D01*
X0173267Y0071261D01*
X0173331Y0071101D01*
X0173391Y0070940D01*
X0173447Y0070778D01*
X0173499Y0070614D01*
X0173546Y0070449D01*
X0173590Y0070283D01*
X0173630Y0070116D01*
X0173665Y0069948D01*
X0173697Y0069779D01*
X0173724Y0069609D01*
X0173747Y0069439D01*
X0173766Y0069268D01*
X0173781Y0069097D01*
X0173792Y0068925D01*
X0173798Y0068754D01*
X0173800Y0068582D01*
X0173798Y0068410D01*
X0173792Y0068239D01*
X0173781Y0068067D01*
X0173766Y0067896D01*
X0173747Y0067725D01*
X0173724Y0067555D01*
X0173697Y0067385D01*
X0173665Y0067216D01*
X0173630Y0067048D01*
X0173590Y0066881D01*
X0173546Y0066715D01*
X0173499Y0066550D01*
X0173447Y0066386D01*
X0173391Y0066224D01*
X0173331Y0066063D01*
X0173267Y0065903D01*
X0173199Y0065745D01*
X0173128Y0065589D01*
X0173053Y0065435D01*
X0172973Y0065282D01*
X0172891Y0065132D01*
X0172804Y0064983D01*
X0172714Y0064837D01*
X0172620Y0064693D01*
X0172523Y0064551D01*
X0172422Y0064412D01*
X0172318Y0064275D01*
X0172211Y0064141D01*
X0172100Y0064010D01*
X0171987Y0063881D01*
X0171870Y0063755D01*
X0171750Y0063632D01*
X0171627Y0063512D01*
X0171501Y0063395D01*
X0171372Y0063282D01*
X0171241Y0063171D01*
X0171107Y0063064D01*
X0170970Y0062960D01*
X0170831Y0062859D01*
X0170689Y0062762D01*
X0170545Y0062668D01*
X0170399Y0062578D01*
X0170250Y0062491D01*
X0170100Y0062409D01*
X0169947Y0062329D01*
X0169793Y0062254D01*
X0169637Y0062183D01*
X0169479Y0062115D01*
X0169319Y0062051D01*
X0169158Y0061991D01*
X0168996Y0061935D01*
X0168832Y0061883D01*
X0168667Y0061836D01*
X0168501Y0061792D01*
X0168334Y0061752D01*
X0168166Y0061717D01*
X0167997Y0061685D01*
X0167827Y0061658D01*
X0167657Y0061635D01*
X0167486Y0061616D01*
X0167315Y0061601D01*
X0167143Y0061590D01*
X0166972Y0061584D01*
X0166800Y0061582D01*
X0166628Y0061584D01*
X0166457Y0061590D01*
X0166285Y0061601D01*
X0166114Y0061616D01*
X0165943Y0061635D01*
X0165773Y0061658D01*
X0165603Y0061685D01*
X0165434Y0061717D01*
X0165266Y0061752D01*
X0165099Y0061792D01*
X0164933Y0061836D01*
X0164768Y0061883D01*
X0164604Y0061935D01*
X0164442Y0061991D01*
X0164281Y0062051D01*
X0164121Y0062115D01*
X0163963Y0062183D01*
X0163807Y0062254D01*
X0163653Y0062329D01*
X0163500Y0062409D01*
X0163350Y0062491D01*
X0163201Y0062578D01*
X0163055Y0062668D01*
X0162911Y0062762D01*
X0162769Y0062859D01*
X0162630Y0062960D01*
X0162493Y0063064D01*
X0162359Y0063171D01*
X0162228Y0063282D01*
X0162099Y0063395D01*
X0161973Y0063512D01*
X0161850Y0063632D01*
X0161730Y0063755D01*
X0161613Y0063881D01*
X0161500Y0064010D01*
X0161389Y0064141D01*
X0161282Y0064275D01*
X0161178Y0064412D01*
X0161077Y0064551D01*
X0160980Y0064693D01*
X0160886Y0064837D01*
X0160796Y0064983D01*
X0160709Y0065132D01*
X0160627Y0065282D01*
X0160547Y0065435D01*
X0160472Y0065589D01*
X0160401Y0065745D01*
X0160333Y0065903D01*
X0160269Y0066063D01*
X0160209Y0066224D01*
X0160153Y0066386D01*
X0160101Y0066550D01*
X0160054Y0066715D01*
X0160010Y0066881D01*
X0159970Y0067048D01*
X0159935Y0067216D01*
X0159903Y0067385D01*
X0159876Y0067555D01*
X0159853Y0067725D01*
X0159834Y0067896D01*
X0159819Y0068067D01*
X0159808Y0068239D01*
X0159802Y0068410D01*
X0159800Y0068582D01*
X0158300Y0091582D02*
X0161800Y0091582D01*
X0171800Y0091582D01*
X0175300Y0091582D01*
X0178800Y0099582D02*
X0178800Y0100582D01*
X0179800Y0100582D01*
X0179800Y0106582D01*
X0178800Y0106582D01*
X0178800Y0107582D01*
X0175300Y0115582D02*
X0171800Y0115582D01*
X0162300Y0115582D01*
X0158300Y0115582D01*
X0154800Y0107582D02*
X0154800Y0106582D01*
X0153800Y0106582D01*
X0153800Y0100582D01*
X0154800Y0100582D01*
X0154800Y0099582D01*
X0165800Y0103582D02*
X0165802Y0103645D01*
X0165808Y0103707D01*
X0165818Y0103769D01*
X0165831Y0103831D01*
X0165849Y0103891D01*
X0165870Y0103950D01*
X0165895Y0104008D01*
X0165924Y0104064D01*
X0165956Y0104118D01*
X0165991Y0104170D01*
X0166029Y0104219D01*
X0166071Y0104267D01*
X0166115Y0104311D01*
X0166163Y0104353D01*
X0166212Y0104391D01*
X0166264Y0104426D01*
X0166318Y0104458D01*
X0166374Y0104487D01*
X0166432Y0104512D01*
X0166491Y0104533D01*
X0166551Y0104551D01*
X0166613Y0104564D01*
X0166675Y0104574D01*
X0166737Y0104580D01*
X0166800Y0104582D01*
X0166863Y0104580D01*
X0166925Y0104574D01*
X0166987Y0104564D01*
X0167049Y0104551D01*
X0167109Y0104533D01*
X0167168Y0104512D01*
X0167226Y0104487D01*
X0167282Y0104458D01*
X0167336Y0104426D01*
X0167388Y0104391D01*
X0167437Y0104353D01*
X0167485Y0104311D01*
X0167529Y0104267D01*
X0167571Y0104219D01*
X0167609Y0104170D01*
X0167644Y0104118D01*
X0167676Y0104064D01*
X0167705Y0104008D01*
X0167730Y0103950D01*
X0167751Y0103891D01*
X0167769Y0103831D01*
X0167782Y0103769D01*
X0167792Y0103707D01*
X0167798Y0103645D01*
X0167800Y0103582D01*
X0167798Y0103519D01*
X0167792Y0103457D01*
X0167782Y0103395D01*
X0167769Y0103333D01*
X0167751Y0103273D01*
X0167730Y0103214D01*
X0167705Y0103156D01*
X0167676Y0103100D01*
X0167644Y0103046D01*
X0167609Y0102994D01*
X0167571Y0102945D01*
X0167529Y0102897D01*
X0167485Y0102853D01*
X0167437Y0102811D01*
X0167388Y0102773D01*
X0167336Y0102738D01*
X0167282Y0102706D01*
X0167226Y0102677D01*
X0167168Y0102652D01*
X0167109Y0102631D01*
X0167049Y0102613D01*
X0166987Y0102600D01*
X0166925Y0102590D01*
X0166863Y0102584D01*
X0166800Y0102582D01*
X0166737Y0102584D01*
X0166675Y0102590D01*
X0166613Y0102600D01*
X0166551Y0102613D01*
X0166491Y0102631D01*
X0166432Y0102652D01*
X0166374Y0102677D01*
X0166318Y0102706D01*
X0166264Y0102738D01*
X0166212Y0102773D01*
X0166163Y0102811D01*
X0166115Y0102853D01*
X0166071Y0102897D01*
X0166029Y0102945D01*
X0165991Y0102994D01*
X0165956Y0103046D01*
X0165924Y0103100D01*
X0165895Y0103156D01*
X0165870Y0103214D01*
X0165849Y0103273D01*
X0165831Y0103333D01*
X0165818Y0103395D01*
X0165808Y0103457D01*
X0165802Y0103519D01*
X0165800Y0103582D01*
X0159800Y0103582D02*
X0159802Y0103754D01*
X0159808Y0103925D01*
X0159819Y0104097D01*
X0159834Y0104268D01*
X0159853Y0104439D01*
X0159876Y0104609D01*
X0159903Y0104779D01*
X0159935Y0104948D01*
X0159970Y0105116D01*
X0160010Y0105283D01*
X0160054Y0105449D01*
X0160101Y0105614D01*
X0160153Y0105778D01*
X0160209Y0105940D01*
X0160269Y0106101D01*
X0160333Y0106261D01*
X0160401Y0106419D01*
X0160472Y0106575D01*
X0160547Y0106729D01*
X0160627Y0106882D01*
X0160709Y0107032D01*
X0160796Y0107181D01*
X0160886Y0107327D01*
X0160980Y0107471D01*
X0161077Y0107613D01*
X0161178Y0107752D01*
X0161282Y0107889D01*
X0161389Y0108023D01*
X0161500Y0108154D01*
X0161613Y0108283D01*
X0161730Y0108409D01*
X0161850Y0108532D01*
X0161973Y0108652D01*
X0162099Y0108769D01*
X0162228Y0108882D01*
X0162359Y0108993D01*
X0162493Y0109100D01*
X0162630Y0109204D01*
X0162769Y0109305D01*
X0162911Y0109402D01*
X0163055Y0109496D01*
X0163201Y0109586D01*
X0163350Y0109673D01*
X0163500Y0109755D01*
X0163653Y0109835D01*
X0163807Y0109910D01*
X0163963Y0109981D01*
X0164121Y0110049D01*
X0164281Y0110113D01*
X0164442Y0110173D01*
X0164604Y0110229D01*
X0164768Y0110281D01*
X0164933Y0110328D01*
X0165099Y0110372D01*
X0165266Y0110412D01*
X0165434Y0110447D01*
X0165603Y0110479D01*
X0165773Y0110506D01*
X0165943Y0110529D01*
X0166114Y0110548D01*
X0166285Y0110563D01*
X0166457Y0110574D01*
X0166628Y0110580D01*
X0166800Y0110582D01*
X0166972Y0110580D01*
X0167143Y0110574D01*
X0167315Y0110563D01*
X0167486Y0110548D01*
X0167657Y0110529D01*
X0167827Y0110506D01*
X0167997Y0110479D01*
X0168166Y0110447D01*
X0168334Y0110412D01*
X0168501Y0110372D01*
X0168667Y0110328D01*
X0168832Y0110281D01*
X0168996Y0110229D01*
X0169158Y0110173D01*
X0169319Y0110113D01*
X0169479Y0110049D01*
X0169637Y0109981D01*
X0169793Y0109910D01*
X0169947Y0109835D01*
X0170100Y0109755D01*
X0170250Y0109673D01*
X0170399Y0109586D01*
X0170545Y0109496D01*
X0170689Y0109402D01*
X0170831Y0109305D01*
X0170970Y0109204D01*
X0171107Y0109100D01*
X0171241Y0108993D01*
X0171372Y0108882D01*
X0171501Y0108769D01*
X0171627Y0108652D01*
X0171750Y0108532D01*
X0171870Y0108409D01*
X0171987Y0108283D01*
X0172100Y0108154D01*
X0172211Y0108023D01*
X0172318Y0107889D01*
X0172422Y0107752D01*
X0172523Y0107613D01*
X0172620Y0107471D01*
X0172714Y0107327D01*
X0172804Y0107181D01*
X0172891Y0107032D01*
X0172973Y0106882D01*
X0173053Y0106729D01*
X0173128Y0106575D01*
X0173199Y0106419D01*
X0173267Y0106261D01*
X0173331Y0106101D01*
X0173391Y0105940D01*
X0173447Y0105778D01*
X0173499Y0105614D01*
X0173546Y0105449D01*
X0173590Y0105283D01*
X0173630Y0105116D01*
X0173665Y0104948D01*
X0173697Y0104779D01*
X0173724Y0104609D01*
X0173747Y0104439D01*
X0173766Y0104268D01*
X0173781Y0104097D01*
X0173792Y0103925D01*
X0173798Y0103754D01*
X0173800Y0103582D01*
X0173798Y0103410D01*
X0173792Y0103239D01*
X0173781Y0103067D01*
X0173766Y0102896D01*
X0173747Y0102725D01*
X0173724Y0102555D01*
X0173697Y0102385D01*
X0173665Y0102216D01*
X0173630Y0102048D01*
X0173590Y0101881D01*
X0173546Y0101715D01*
X0173499Y0101550D01*
X0173447Y0101386D01*
X0173391Y0101224D01*
X0173331Y0101063D01*
X0173267Y0100903D01*
X0173199Y0100745D01*
X0173128Y0100589D01*
X0173053Y0100435D01*
X0172973Y0100282D01*
X0172891Y0100132D01*
X0172804Y0099983D01*
X0172714Y0099837D01*
X0172620Y0099693D01*
X0172523Y0099551D01*
X0172422Y0099412D01*
X0172318Y0099275D01*
X0172211Y0099141D01*
X0172100Y0099010D01*
X0171987Y0098881D01*
X0171870Y0098755D01*
X0171750Y0098632D01*
X0171627Y0098512D01*
X0171501Y0098395D01*
X0171372Y0098282D01*
X0171241Y0098171D01*
X0171107Y0098064D01*
X0170970Y0097960D01*
X0170831Y0097859D01*
X0170689Y0097762D01*
X0170545Y0097668D01*
X0170399Y0097578D01*
X0170250Y0097491D01*
X0170100Y0097409D01*
X0169947Y0097329D01*
X0169793Y0097254D01*
X0169637Y0097183D01*
X0169479Y0097115D01*
X0169319Y0097051D01*
X0169158Y0096991D01*
X0168996Y0096935D01*
X0168832Y0096883D01*
X0168667Y0096836D01*
X0168501Y0096792D01*
X0168334Y0096752D01*
X0168166Y0096717D01*
X0167997Y0096685D01*
X0167827Y0096658D01*
X0167657Y0096635D01*
X0167486Y0096616D01*
X0167315Y0096601D01*
X0167143Y0096590D01*
X0166972Y0096584D01*
X0166800Y0096582D01*
X0166628Y0096584D01*
X0166457Y0096590D01*
X0166285Y0096601D01*
X0166114Y0096616D01*
X0165943Y0096635D01*
X0165773Y0096658D01*
X0165603Y0096685D01*
X0165434Y0096717D01*
X0165266Y0096752D01*
X0165099Y0096792D01*
X0164933Y0096836D01*
X0164768Y0096883D01*
X0164604Y0096935D01*
X0164442Y0096991D01*
X0164281Y0097051D01*
X0164121Y0097115D01*
X0163963Y0097183D01*
X0163807Y0097254D01*
X0163653Y0097329D01*
X0163500Y0097409D01*
X0163350Y0097491D01*
X0163201Y0097578D01*
X0163055Y0097668D01*
X0162911Y0097762D01*
X0162769Y0097859D01*
X0162630Y0097960D01*
X0162493Y0098064D01*
X0162359Y0098171D01*
X0162228Y0098282D01*
X0162099Y0098395D01*
X0161973Y0098512D01*
X0161850Y0098632D01*
X0161730Y0098755D01*
X0161613Y0098881D01*
X0161500Y0099010D01*
X0161389Y0099141D01*
X0161282Y0099275D01*
X0161178Y0099412D01*
X0161077Y0099551D01*
X0160980Y0099693D01*
X0160886Y0099837D01*
X0160796Y0099983D01*
X0160709Y0100132D01*
X0160627Y0100282D01*
X0160547Y0100435D01*
X0160472Y0100589D01*
X0160401Y0100745D01*
X0160333Y0100903D01*
X0160269Y0101063D01*
X0160209Y0101224D01*
X0160153Y0101386D01*
X0160101Y0101550D01*
X0160054Y0101715D01*
X0160010Y0101881D01*
X0159970Y0102048D01*
X0159935Y0102216D01*
X0159903Y0102385D01*
X0159876Y0102555D01*
X0159853Y0102725D01*
X0159834Y0102896D01*
X0159819Y0103067D01*
X0159808Y0103239D01*
X0159802Y0103410D01*
X0159800Y0103582D01*
X0130800Y0096082D02*
X0130800Y0094582D01*
X0130798Y0094522D01*
X0130793Y0094461D01*
X0130784Y0094402D01*
X0130771Y0094343D01*
X0130755Y0094284D01*
X0130735Y0094227D01*
X0130712Y0094172D01*
X0130685Y0094117D01*
X0130656Y0094065D01*
X0130623Y0094014D01*
X0130587Y0093965D01*
X0130549Y0093919D01*
X0130507Y0093875D01*
X0130463Y0093833D01*
X0130417Y0093795D01*
X0130368Y0093759D01*
X0130317Y0093726D01*
X0130265Y0093697D01*
X0130210Y0093670D01*
X0130155Y0093647D01*
X0130098Y0093627D01*
X0130039Y0093611D01*
X0129980Y0093598D01*
X0129921Y0093589D01*
X0129860Y0093584D01*
X0129800Y0093582D01*
X0123800Y0093582D01*
X0123740Y0093584D01*
X0123679Y0093589D01*
X0123620Y0093598D01*
X0123561Y0093611D01*
X0123502Y0093627D01*
X0123445Y0093647D01*
X0123390Y0093670D01*
X0123335Y0093697D01*
X0123283Y0093726D01*
X0123232Y0093759D01*
X0123183Y0093795D01*
X0123137Y0093833D01*
X0123093Y0093875D01*
X0123051Y0093919D01*
X0123013Y0093965D01*
X0122977Y0094014D01*
X0122944Y0094065D01*
X0122915Y0094117D01*
X0122888Y0094172D01*
X0122865Y0094227D01*
X0122845Y0094284D01*
X0122829Y0094343D01*
X0122816Y0094402D01*
X0122807Y0094461D01*
X0122802Y0094522D01*
X0122800Y0094582D01*
X0122800Y0096082D01*
X0123300Y0096582D01*
X0123300Y0110582D01*
X0122800Y0111082D01*
X0122800Y0112582D01*
X0122802Y0112642D01*
X0122807Y0112703D01*
X0122816Y0112762D01*
X0122829Y0112821D01*
X0122845Y0112880D01*
X0122865Y0112937D01*
X0122888Y0112992D01*
X0122915Y0113047D01*
X0122944Y0113099D01*
X0122977Y0113150D01*
X0123013Y0113199D01*
X0123051Y0113245D01*
X0123093Y0113289D01*
X0123137Y0113331D01*
X0123183Y0113369D01*
X0123232Y0113405D01*
X0123283Y0113438D01*
X0123335Y0113467D01*
X0123390Y0113494D01*
X0123445Y0113517D01*
X0123502Y0113537D01*
X0123561Y0113553D01*
X0123620Y0113566D01*
X0123679Y0113575D01*
X0123740Y0113580D01*
X0123800Y0113582D01*
X0129800Y0113582D01*
X0129860Y0113580D01*
X0129921Y0113575D01*
X0129980Y0113566D01*
X0130039Y0113553D01*
X0130098Y0113537D01*
X0130155Y0113517D01*
X0130210Y0113494D01*
X0130265Y0113467D01*
X0130317Y0113438D01*
X0130368Y0113405D01*
X0130417Y0113369D01*
X0130463Y0113331D01*
X0130507Y0113289D01*
X0130549Y0113245D01*
X0130587Y0113199D01*
X0130623Y0113150D01*
X0130656Y0113099D01*
X0130685Y0113047D01*
X0130712Y0112992D01*
X0130735Y0112937D01*
X0130755Y0112880D01*
X0130771Y0112821D01*
X0130784Y0112762D01*
X0130793Y0112703D01*
X0130798Y0112642D01*
X0130800Y0112582D01*
X0130800Y0111082D01*
X0130300Y0110582D01*
X0130300Y0096582D01*
X0130800Y0096082D01*
X0131269Y0141456D02*
X0128769Y0143956D01*
X0128769Y0148956D01*
X0131269Y0151456D01*
X0136269Y0151456D01*
X0138769Y0148956D01*
X0141269Y0151456D01*
X0146269Y0151456D01*
X0148769Y0148956D01*
X0151269Y0151456D01*
X0156269Y0151456D01*
X0158769Y0148956D01*
X0161269Y0151456D01*
X0166269Y0151456D01*
X0168769Y0148956D01*
X0171269Y0151456D01*
X0176269Y0151456D01*
X0178769Y0148956D01*
X0181269Y0151456D01*
X0186269Y0151456D01*
X0188769Y0148956D01*
X0188769Y0143956D01*
X0186269Y0141456D01*
X0181269Y0141456D01*
X0178769Y0143956D01*
X0176269Y0141456D01*
X0171269Y0141456D01*
X0168769Y0143956D01*
X0166269Y0141456D01*
X0161269Y0141456D01*
X0158769Y0143956D01*
X0156269Y0141456D01*
X0151269Y0141456D01*
X0148769Y0143956D01*
X0146269Y0141456D01*
X0141269Y0141456D01*
X0138769Y0143956D01*
X0136269Y0141456D01*
X0131269Y0141456D01*
X0202800Y0028583D02*
X0202798Y0028429D01*
X0202792Y0028275D01*
X0202782Y0028121D01*
X0202768Y0027967D01*
X0202751Y0027814D01*
X0202729Y0027662D01*
X0202703Y0027510D01*
X0202674Y0027358D01*
X0202640Y0027208D01*
X0202603Y0027058D01*
X0202562Y0026910D01*
X0202517Y0026762D01*
X0202468Y0026616D01*
X0202416Y0026471D01*
X0202360Y0026328D01*
X0202300Y0026185D01*
X0202237Y0026045D01*
X0202170Y0025906D01*
X0202099Y0025769D01*
X0202025Y0025634D01*
X0201948Y0025501D01*
X0201867Y0025369D01*
X0201783Y0025240D01*
X0201695Y0025113D01*
X0201604Y0024989D01*
X0201511Y0024867D01*
X0201413Y0024747D01*
X0201313Y0024630D01*
X0201210Y0024515D01*
X0201104Y0024403D01*
X0200996Y0024294D01*
X0200884Y0024188D01*
X0200770Y0024084D01*
X0200653Y0023984D01*
X0200534Y0023886D01*
X0200412Y0023792D01*
X0200287Y0023701D01*
X0190800Y0028582D02*
X0190802Y0028734D01*
X0190808Y0028885D01*
X0190817Y0029036D01*
X0190831Y0029188D01*
X0190848Y0029338D01*
X0190869Y0029488D01*
X0190894Y0029638D01*
X0190922Y0029787D01*
X0190955Y0029935D01*
X0190991Y0030082D01*
X0191030Y0030229D01*
X0191074Y0030374D01*
X0191121Y0030518D01*
X0191172Y0030661D01*
X0191226Y0030802D01*
X0191284Y0030943D01*
X0191345Y0031081D01*
X0191410Y0031218D01*
X0191479Y0031354D01*
X0191550Y0031487D01*
X0191625Y0031619D01*
X0191704Y0031749D01*
X0191785Y0031876D01*
X0191870Y0032002D01*
X0191958Y0032126D01*
X0192049Y0032247D01*
X0192143Y0032366D01*
X0192241Y0032482D01*
X0192341Y0032596D01*
X0192443Y0032708D01*
X0192549Y0032816D01*
X0192657Y0032922D01*
X0192768Y0033026D01*
X0192882Y0033126D01*
X0192998Y0033224D01*
X0193117Y0033318D01*
X0190800Y0028582D02*
X0190802Y0028430D01*
X0190808Y0028279D01*
X0190817Y0028128D01*
X0190831Y0027976D01*
X0190848Y0027826D01*
X0190869Y0027676D01*
X0190894Y0027526D01*
X0190922Y0027377D01*
X0190955Y0027229D01*
X0190991Y0027082D01*
X0191030Y0026935D01*
X0191074Y0026790D01*
X0191121Y0026646D01*
X0191172Y0026503D01*
X0191226Y0026362D01*
X0191284Y0026221D01*
X0191345Y0026083D01*
X0191410Y0025946D01*
X0191479Y0025810D01*
X0191550Y0025677D01*
X0191625Y0025545D01*
X0191704Y0025415D01*
X0191785Y0025288D01*
X0191870Y0025162D01*
X0191958Y0025038D01*
X0192049Y0024917D01*
X0192143Y0024798D01*
X0192241Y0024682D01*
X0192341Y0024568D01*
X0192443Y0024456D01*
X0192549Y0024348D01*
X0192657Y0024242D01*
X0192768Y0024138D01*
X0192882Y0024038D01*
X0192998Y0023940D01*
X0193117Y0023846D01*
X0202800Y0028582D02*
X0202798Y0028732D01*
X0202792Y0028883D01*
X0202783Y0029033D01*
X0202770Y0029182D01*
X0202753Y0029332D01*
X0202732Y0029481D01*
X0202708Y0029629D01*
X0202680Y0029777D01*
X0202648Y0029924D01*
X0202613Y0030070D01*
X0202573Y0030215D01*
X0202531Y0030359D01*
X0202484Y0030502D01*
X0202434Y0030644D01*
X0202381Y0030785D01*
X0202324Y0030924D01*
X0202264Y0031062D01*
X0202200Y0031198D01*
X0202133Y0031332D01*
X0202062Y0031465D01*
X0201988Y0031596D01*
X0201911Y0031725D01*
X0201830Y0031852D01*
X0201747Y0031977D01*
X0201660Y0032100D01*
X0201571Y0032221D01*
X0201478Y0032339D01*
X0201382Y0032455D01*
X0201284Y0032569D01*
X0201183Y0032680D01*
X0201078Y0032789D01*
X0200972Y0032894D01*
X0200862Y0032998D01*
X0200750Y0033098D01*
X0200636Y0033196D01*
X0200519Y0033290D01*
X0200400Y0033382D01*
D12*
X0192831Y0035529D02*
X0192662Y0035430D01*
X0192496Y0035326D01*
X0192332Y0035219D01*
X0192171Y0035108D01*
X0192013Y0034993D01*
X0191858Y0034874D01*
X0191705Y0034751D01*
X0191556Y0034625D01*
X0191410Y0034495D01*
X0191267Y0034361D01*
X0191127Y0034224D01*
X0190991Y0034084D01*
X0190858Y0033940D01*
X0190729Y0033793D01*
X0190603Y0033643D01*
X0190482Y0033490D01*
X0190363Y0033334D01*
X0190249Y0033175D01*
X0190139Y0033014D01*
X0190033Y0032849D01*
X0189930Y0032683D01*
X0189832Y0032513D01*
X0189738Y0032342D01*
X0189648Y0032168D01*
X0189563Y0031992D01*
X0189481Y0031814D01*
X0189405Y0031634D01*
X0189332Y0031452D01*
X0189264Y0031269D01*
X0189201Y0031084D01*
X0189142Y0030897D01*
X0189088Y0030709D01*
X0189038Y0030520D01*
X0188993Y0030330D01*
X0188953Y0030138D01*
X0188917Y0029946D01*
X0188886Y0029753D01*
X0188860Y0029559D01*
X0188838Y0029364D01*
X0188822Y0029169D01*
X0188810Y0028974D01*
X0188802Y0028778D01*
X0188800Y0028583D01*
X0200565Y0035641D02*
X0200733Y0035548D01*
X0200899Y0035452D01*
X0201063Y0035352D01*
X0201224Y0035247D01*
X0201383Y0035139D01*
X0201539Y0035027D01*
X0201693Y0034911D01*
X0201843Y0034792D01*
X0201991Y0034669D01*
X0202136Y0034543D01*
X0202277Y0034413D01*
X0202416Y0034280D01*
X0202551Y0034143D01*
X0202683Y0034003D01*
X0202811Y0033861D01*
X0202936Y0033715D01*
X0203058Y0033566D01*
X0203176Y0033414D01*
X0203290Y0033260D01*
X0203400Y0033102D01*
X0203507Y0032943D01*
X0203610Y0032780D01*
X0203709Y0032615D01*
X0203804Y0032448D01*
X0203894Y0032279D01*
X0203981Y0032108D01*
X0204064Y0031934D01*
X0204142Y0031759D01*
X0204216Y0031581D01*
X0204286Y0031402D01*
X0204352Y0031222D01*
X0204413Y0031040D01*
X0204470Y0030856D01*
X0204522Y0030671D01*
X0204570Y0030485D01*
X0204614Y0030298D01*
X0204653Y0030110D01*
X0204687Y0029921D01*
X0204717Y0029731D01*
X0204742Y0029541D01*
X0204763Y0029350D01*
X0204779Y0029158D01*
X0204791Y0028966D01*
X0204798Y0028774D01*
X0204800Y0028582D01*
X0191632Y0022475D02*
X0191486Y0022602D01*
X0191344Y0022731D01*
X0191204Y0022865D01*
X0191068Y0023001D01*
X0190935Y0023141D01*
X0190805Y0023284D01*
X0190679Y0023431D01*
X0190557Y0023580D01*
X0190438Y0023732D01*
X0190323Y0023887D01*
X0190211Y0024044D01*
X0190104Y0024204D01*
X0190000Y0024367D01*
X0189901Y0024533D01*
X0189805Y0024700D01*
X0189713Y0024870D01*
X0189626Y0025042D01*
X0189542Y0025216D01*
X0189463Y0025392D01*
X0189389Y0025570D01*
X0189318Y0025750D01*
X0189252Y0025931D01*
X0189190Y0026114D01*
X0189133Y0026298D01*
X0189080Y0026484D01*
X0189032Y0026671D01*
X0188988Y0026859D01*
X0188949Y0027048D01*
X0188914Y0027238D01*
X0188884Y0027428D01*
X0188858Y0027619D01*
X0188837Y0027811D01*
X0188821Y0028004D01*
X0188809Y0028196D01*
X0188802Y0028389D01*
X0188800Y0028582D01*
X0201922Y0022436D02*
X0202070Y0022563D01*
X0202215Y0022693D01*
X0202356Y0022826D01*
X0202495Y0022963D01*
X0202630Y0023103D01*
X0202761Y0023247D01*
X0202889Y0023394D01*
X0203014Y0023543D01*
X0203135Y0023696D01*
X0203252Y0023851D01*
X0203365Y0024010D01*
X0203474Y0024171D01*
X0203579Y0024335D01*
X0203681Y0024501D01*
X0203778Y0024670D01*
X0203871Y0024840D01*
X0203960Y0025014D01*
X0204045Y0025189D01*
X0204125Y0025366D01*
X0204201Y0025545D01*
X0204273Y0025726D01*
X0204340Y0025909D01*
X0204403Y0026093D01*
X0204461Y0026279D01*
X0204515Y0026466D01*
X0204564Y0026654D01*
X0204609Y0026844D01*
X0204649Y0027034D01*
X0204684Y0027226D01*
X0204715Y0027418D01*
X0204741Y0027611D01*
X0204762Y0027805D01*
X0204779Y0027999D01*
X0204791Y0028193D01*
X0204798Y0028387D01*
X0204800Y0028582D01*
X0167831Y0035529D02*
X0167662Y0035430D01*
X0167496Y0035326D01*
X0167332Y0035219D01*
X0167171Y0035108D01*
X0167013Y0034993D01*
X0166858Y0034874D01*
X0166705Y0034751D01*
X0166556Y0034625D01*
X0166410Y0034495D01*
X0166267Y0034361D01*
X0166127Y0034224D01*
X0165991Y0034084D01*
X0165858Y0033940D01*
X0165729Y0033793D01*
X0165603Y0033643D01*
X0165482Y0033490D01*
X0165363Y0033334D01*
X0165249Y0033175D01*
X0165139Y0033014D01*
X0165033Y0032849D01*
X0164930Y0032683D01*
X0164832Y0032513D01*
X0164738Y0032342D01*
X0164648Y0032168D01*
X0164563Y0031992D01*
X0164481Y0031814D01*
X0164405Y0031634D01*
X0164332Y0031452D01*
X0164264Y0031269D01*
X0164201Y0031084D01*
X0164142Y0030897D01*
X0164088Y0030709D01*
X0164038Y0030520D01*
X0163993Y0030330D01*
X0163953Y0030138D01*
X0163917Y0029946D01*
X0163886Y0029753D01*
X0163860Y0029559D01*
X0163838Y0029364D01*
X0163822Y0029169D01*
X0163810Y0028974D01*
X0163802Y0028778D01*
X0163800Y0028583D01*
X0175565Y0035641D02*
X0175733Y0035548D01*
X0175899Y0035452D01*
X0176063Y0035352D01*
X0176224Y0035247D01*
X0176383Y0035139D01*
X0176539Y0035027D01*
X0176693Y0034911D01*
X0176843Y0034792D01*
X0176991Y0034669D01*
X0177136Y0034543D01*
X0177277Y0034413D01*
X0177416Y0034280D01*
X0177551Y0034143D01*
X0177683Y0034003D01*
X0177811Y0033861D01*
X0177936Y0033715D01*
X0178058Y0033566D01*
X0178176Y0033414D01*
X0178290Y0033260D01*
X0178400Y0033102D01*
X0178507Y0032943D01*
X0178610Y0032780D01*
X0178709Y0032615D01*
X0178804Y0032448D01*
X0178894Y0032279D01*
X0178981Y0032108D01*
X0179064Y0031934D01*
X0179142Y0031759D01*
X0179216Y0031581D01*
X0179286Y0031402D01*
X0179352Y0031222D01*
X0179413Y0031040D01*
X0179470Y0030856D01*
X0179522Y0030671D01*
X0179570Y0030485D01*
X0179614Y0030298D01*
X0179653Y0030110D01*
X0179687Y0029921D01*
X0179717Y0029731D01*
X0179742Y0029541D01*
X0179763Y0029350D01*
X0179779Y0029158D01*
X0179791Y0028966D01*
X0179798Y0028774D01*
X0179800Y0028582D01*
X0166632Y0022475D02*
X0166486Y0022602D01*
X0166344Y0022731D01*
X0166204Y0022865D01*
X0166068Y0023001D01*
X0165935Y0023141D01*
X0165805Y0023284D01*
X0165679Y0023431D01*
X0165557Y0023580D01*
X0165438Y0023732D01*
X0165323Y0023887D01*
X0165211Y0024044D01*
X0165104Y0024204D01*
X0165000Y0024367D01*
X0164901Y0024533D01*
X0164805Y0024700D01*
X0164713Y0024870D01*
X0164626Y0025042D01*
X0164542Y0025216D01*
X0164463Y0025392D01*
X0164389Y0025570D01*
X0164318Y0025750D01*
X0164252Y0025931D01*
X0164190Y0026114D01*
X0164133Y0026298D01*
X0164080Y0026484D01*
X0164032Y0026671D01*
X0163988Y0026859D01*
X0163949Y0027048D01*
X0163914Y0027238D01*
X0163884Y0027428D01*
X0163858Y0027619D01*
X0163837Y0027811D01*
X0163821Y0028004D01*
X0163809Y0028196D01*
X0163802Y0028389D01*
X0163800Y0028582D01*
X0176922Y0022436D02*
X0177070Y0022563D01*
X0177215Y0022693D01*
X0177356Y0022826D01*
X0177495Y0022963D01*
X0177630Y0023103D01*
X0177761Y0023247D01*
X0177889Y0023394D01*
X0178014Y0023543D01*
X0178135Y0023696D01*
X0178252Y0023851D01*
X0178365Y0024010D01*
X0178474Y0024171D01*
X0178579Y0024335D01*
X0178681Y0024501D01*
X0178778Y0024670D01*
X0178871Y0024840D01*
X0178960Y0025014D01*
X0179045Y0025189D01*
X0179125Y0025366D01*
X0179201Y0025545D01*
X0179273Y0025726D01*
X0179340Y0025909D01*
X0179403Y0026093D01*
X0179461Y0026279D01*
X0179515Y0026466D01*
X0179564Y0026654D01*
X0179609Y0026844D01*
X0179649Y0027034D01*
X0179684Y0027226D01*
X0179715Y0027418D01*
X0179741Y0027611D01*
X0179762Y0027805D01*
X0179779Y0027999D01*
X0179791Y0028193D01*
X0179798Y0028387D01*
X0179800Y0028582D01*
X0142831Y0035529D02*
X0142662Y0035430D01*
X0142496Y0035326D01*
X0142332Y0035219D01*
X0142171Y0035108D01*
X0142013Y0034993D01*
X0141858Y0034874D01*
X0141705Y0034751D01*
X0141556Y0034625D01*
X0141410Y0034495D01*
X0141267Y0034361D01*
X0141127Y0034224D01*
X0140991Y0034084D01*
X0140858Y0033940D01*
X0140729Y0033793D01*
X0140603Y0033643D01*
X0140482Y0033490D01*
X0140363Y0033334D01*
X0140249Y0033175D01*
X0140139Y0033014D01*
X0140033Y0032849D01*
X0139930Y0032683D01*
X0139832Y0032513D01*
X0139738Y0032342D01*
X0139648Y0032168D01*
X0139563Y0031992D01*
X0139481Y0031814D01*
X0139405Y0031634D01*
X0139332Y0031452D01*
X0139264Y0031269D01*
X0139201Y0031084D01*
X0139142Y0030897D01*
X0139088Y0030709D01*
X0139038Y0030520D01*
X0138993Y0030330D01*
X0138953Y0030138D01*
X0138917Y0029946D01*
X0138886Y0029753D01*
X0138860Y0029559D01*
X0138838Y0029364D01*
X0138822Y0029169D01*
X0138810Y0028974D01*
X0138802Y0028778D01*
X0138800Y0028583D01*
X0150565Y0035641D02*
X0150733Y0035548D01*
X0150899Y0035452D01*
X0151063Y0035352D01*
X0151224Y0035247D01*
X0151383Y0035139D01*
X0151539Y0035027D01*
X0151693Y0034911D01*
X0151843Y0034792D01*
X0151991Y0034669D01*
X0152136Y0034543D01*
X0152277Y0034413D01*
X0152416Y0034280D01*
X0152551Y0034143D01*
X0152683Y0034003D01*
X0152811Y0033861D01*
X0152936Y0033715D01*
X0153058Y0033566D01*
X0153176Y0033414D01*
X0153290Y0033260D01*
X0153400Y0033102D01*
X0153507Y0032943D01*
X0153610Y0032780D01*
X0153709Y0032615D01*
X0153804Y0032448D01*
X0153894Y0032279D01*
X0153981Y0032108D01*
X0154064Y0031934D01*
X0154142Y0031759D01*
X0154216Y0031581D01*
X0154286Y0031402D01*
X0154352Y0031222D01*
X0154413Y0031040D01*
X0154470Y0030856D01*
X0154522Y0030671D01*
X0154570Y0030485D01*
X0154614Y0030298D01*
X0154653Y0030110D01*
X0154687Y0029921D01*
X0154717Y0029731D01*
X0154742Y0029541D01*
X0154763Y0029350D01*
X0154779Y0029158D01*
X0154791Y0028966D01*
X0154798Y0028774D01*
X0154800Y0028582D01*
X0141632Y0022475D02*
X0141486Y0022602D01*
X0141344Y0022731D01*
X0141204Y0022865D01*
X0141068Y0023001D01*
X0140935Y0023141D01*
X0140805Y0023284D01*
X0140679Y0023431D01*
X0140557Y0023580D01*
X0140438Y0023732D01*
X0140323Y0023887D01*
X0140211Y0024044D01*
X0140104Y0024204D01*
X0140000Y0024367D01*
X0139901Y0024533D01*
X0139805Y0024700D01*
X0139713Y0024870D01*
X0139626Y0025042D01*
X0139542Y0025216D01*
X0139463Y0025392D01*
X0139389Y0025570D01*
X0139318Y0025750D01*
X0139252Y0025931D01*
X0139190Y0026114D01*
X0139133Y0026298D01*
X0139080Y0026484D01*
X0139032Y0026671D01*
X0138988Y0026859D01*
X0138949Y0027048D01*
X0138914Y0027238D01*
X0138884Y0027428D01*
X0138858Y0027619D01*
X0138837Y0027811D01*
X0138821Y0028004D01*
X0138809Y0028196D01*
X0138802Y0028389D01*
X0138800Y0028582D01*
X0151922Y0022436D02*
X0152070Y0022563D01*
X0152215Y0022693D01*
X0152356Y0022826D01*
X0152495Y0022963D01*
X0152630Y0023103D01*
X0152761Y0023247D01*
X0152889Y0023394D01*
X0153014Y0023543D01*
X0153135Y0023696D01*
X0153252Y0023851D01*
X0153365Y0024010D01*
X0153474Y0024171D01*
X0153579Y0024335D01*
X0153681Y0024501D01*
X0153778Y0024670D01*
X0153871Y0024840D01*
X0153960Y0025014D01*
X0154045Y0025189D01*
X0154125Y0025366D01*
X0154201Y0025545D01*
X0154273Y0025726D01*
X0154340Y0025909D01*
X0154403Y0026093D01*
X0154461Y0026279D01*
X0154515Y0026466D01*
X0154564Y0026654D01*
X0154609Y0026844D01*
X0154649Y0027034D01*
X0154684Y0027226D01*
X0154715Y0027418D01*
X0154741Y0027611D01*
X0154762Y0027805D01*
X0154779Y0027999D01*
X0154791Y0028193D01*
X0154798Y0028387D01*
X0154800Y0028582D01*
X0117831Y0035529D02*
X0117662Y0035430D01*
X0117496Y0035326D01*
X0117332Y0035219D01*
X0117171Y0035108D01*
X0117013Y0034993D01*
X0116858Y0034874D01*
X0116705Y0034751D01*
X0116556Y0034625D01*
X0116410Y0034495D01*
X0116267Y0034361D01*
X0116127Y0034224D01*
X0115991Y0034084D01*
X0115858Y0033940D01*
X0115729Y0033793D01*
X0115603Y0033643D01*
X0115482Y0033490D01*
X0115363Y0033334D01*
X0115249Y0033175D01*
X0115139Y0033014D01*
X0115033Y0032849D01*
X0114930Y0032683D01*
X0114832Y0032513D01*
X0114738Y0032342D01*
X0114648Y0032168D01*
X0114563Y0031992D01*
X0114481Y0031814D01*
X0114405Y0031634D01*
X0114332Y0031452D01*
X0114264Y0031269D01*
X0114201Y0031084D01*
X0114142Y0030897D01*
X0114088Y0030709D01*
X0114038Y0030520D01*
X0113993Y0030330D01*
X0113953Y0030138D01*
X0113917Y0029946D01*
X0113886Y0029753D01*
X0113860Y0029559D01*
X0113838Y0029364D01*
X0113822Y0029169D01*
X0113810Y0028974D01*
X0113802Y0028778D01*
X0113800Y0028583D01*
X0125565Y0035641D02*
X0125733Y0035548D01*
X0125899Y0035452D01*
X0126063Y0035352D01*
X0126224Y0035247D01*
X0126383Y0035139D01*
X0126539Y0035027D01*
X0126693Y0034911D01*
X0126843Y0034792D01*
X0126991Y0034669D01*
X0127136Y0034543D01*
X0127277Y0034413D01*
X0127416Y0034280D01*
X0127551Y0034143D01*
X0127683Y0034003D01*
X0127811Y0033861D01*
X0127936Y0033715D01*
X0128058Y0033566D01*
X0128176Y0033414D01*
X0128290Y0033260D01*
X0128400Y0033102D01*
X0128507Y0032943D01*
X0128610Y0032780D01*
X0128709Y0032615D01*
X0128804Y0032448D01*
X0128894Y0032279D01*
X0128981Y0032108D01*
X0129064Y0031934D01*
X0129142Y0031759D01*
X0129216Y0031581D01*
X0129286Y0031402D01*
X0129352Y0031222D01*
X0129413Y0031040D01*
X0129470Y0030856D01*
X0129522Y0030671D01*
X0129570Y0030485D01*
X0129614Y0030298D01*
X0129653Y0030110D01*
X0129687Y0029921D01*
X0129717Y0029731D01*
X0129742Y0029541D01*
X0129763Y0029350D01*
X0129779Y0029158D01*
X0129791Y0028966D01*
X0129798Y0028774D01*
X0129800Y0028582D01*
X0116632Y0022475D02*
X0116486Y0022602D01*
X0116344Y0022731D01*
X0116204Y0022865D01*
X0116068Y0023001D01*
X0115935Y0023141D01*
X0115805Y0023284D01*
X0115679Y0023431D01*
X0115557Y0023580D01*
X0115438Y0023732D01*
X0115323Y0023887D01*
X0115211Y0024044D01*
X0115104Y0024204D01*
X0115000Y0024367D01*
X0114901Y0024533D01*
X0114805Y0024700D01*
X0114713Y0024870D01*
X0114626Y0025042D01*
X0114542Y0025216D01*
X0114463Y0025392D01*
X0114389Y0025570D01*
X0114318Y0025750D01*
X0114252Y0025931D01*
X0114190Y0026114D01*
X0114133Y0026298D01*
X0114080Y0026484D01*
X0114032Y0026671D01*
X0113988Y0026859D01*
X0113949Y0027048D01*
X0113914Y0027238D01*
X0113884Y0027428D01*
X0113858Y0027619D01*
X0113837Y0027811D01*
X0113821Y0028004D01*
X0113809Y0028196D01*
X0113802Y0028389D01*
X0113800Y0028582D01*
X0126922Y0022436D02*
X0127070Y0022563D01*
X0127215Y0022693D01*
X0127356Y0022826D01*
X0127495Y0022963D01*
X0127630Y0023103D01*
X0127761Y0023247D01*
X0127889Y0023394D01*
X0128014Y0023543D01*
X0128135Y0023696D01*
X0128252Y0023851D01*
X0128365Y0024010D01*
X0128474Y0024171D01*
X0128579Y0024335D01*
X0128681Y0024501D01*
X0128778Y0024670D01*
X0128871Y0024840D01*
X0128960Y0025014D01*
X0129045Y0025189D01*
X0129125Y0025366D01*
X0129201Y0025545D01*
X0129273Y0025726D01*
X0129340Y0025909D01*
X0129403Y0026093D01*
X0129461Y0026279D01*
X0129515Y0026466D01*
X0129564Y0026654D01*
X0129609Y0026844D01*
X0129649Y0027034D01*
X0129684Y0027226D01*
X0129715Y0027418D01*
X0129741Y0027611D01*
X0129762Y0027805D01*
X0129779Y0027999D01*
X0129791Y0028193D01*
X0129798Y0028387D01*
X0129800Y0028582D01*
X0067300Y0053582D02*
X0062300Y0053582D01*
X0064800Y0051082D02*
X0064800Y0056082D01*
X0034300Y0033582D02*
X0034300Y0013582D01*
X0016800Y0013582D01*
X0016800Y0033582D01*
X0034300Y0033582D01*
X0016800Y0033582D02*
X0009300Y0033582D01*
X0009300Y0013582D01*
X0016800Y0013582D01*
X0024902Y0082701D02*
X0027902Y0082701D01*
X0030902Y0082701D01*
X0030902Y0084701D02*
X0027902Y0084701D01*
X0024902Y0084701D01*
D13*
X0021652Y0082557D02*
X0021652Y0079554D01*
X0021652Y0081056D02*
X0017149Y0081056D01*
X0018650Y0079554D01*
X0017899Y0077953D02*
X0017149Y0077202D01*
X0017149Y0075701D01*
X0017899Y0074951D01*
X0020902Y0074951D01*
X0021652Y0075701D01*
X0021652Y0077202D01*
X0020902Y0077953D01*
X0041800Y0078582D02*
X0105580Y0078582D01*
X0105580Y0173464D01*
X0041800Y0173464D01*
X0041800Y0078582D01*
X0045297Y0074855D02*
X0044546Y0074104D01*
X0044546Y0071852D01*
X0049050Y0071852D01*
X0047549Y0071852D02*
X0047549Y0074104D01*
X0046798Y0074855D01*
X0045297Y0074855D01*
X0047549Y0073353D02*
X0049050Y0074855D01*
X0049050Y0070251D02*
X0049050Y0067248D01*
X0044546Y0067248D01*
X0044546Y0070251D01*
X0046798Y0068749D02*
X0046798Y0067248D01*
X0045297Y0065647D02*
X0044546Y0065647D01*
X0044546Y0062644D01*
X0044546Y0061043D02*
X0045297Y0061043D01*
X0048299Y0058040D01*
X0049050Y0058040D01*
X0049050Y0061043D01*
X0049050Y0062644D02*
X0049050Y0065647D01*
X0048299Y0062644D02*
X0045297Y0065647D01*
X0048299Y0062644D02*
X0049050Y0062644D01*
X0044546Y0061043D02*
X0044546Y0058040D01*
X0044546Y0056439D02*
X0048299Y0056439D01*
X0049050Y0055688D01*
X0049050Y0054187D01*
X0048299Y0053436D01*
X0044546Y0053436D01*
X0045297Y0051835D02*
X0044546Y0051084D01*
X0044546Y0048832D01*
X0049050Y0048832D01*
X0049050Y0051084D01*
X0048299Y0051835D01*
X0047549Y0051835D01*
X0046798Y0051084D01*
X0046798Y0048832D01*
X0046798Y0051084D02*
X0046047Y0051835D01*
X0045297Y0051835D01*
X0123546Y0018230D02*
X0128050Y0018230D01*
X0128050Y0019731D02*
X0128050Y0016728D01*
X0127299Y0015127D02*
X0124297Y0015127D01*
X0123546Y0014376D01*
X0123546Y0012125D01*
X0128050Y0012125D01*
X0128050Y0014376D01*
X0127299Y0015127D01*
X0125047Y0016728D02*
X0123546Y0018230D01*
X0123546Y0010523D02*
X0123546Y0007521D01*
X0128050Y0007521D01*
X0128050Y0010523D01*
X0125798Y0009022D02*
X0125798Y0007521D01*
X0128050Y0005919D02*
X0128050Y0002917D01*
X0123546Y0002917D01*
X0148546Y0002917D02*
X0153050Y0002917D01*
X0153050Y0005919D01*
X0153050Y0007521D02*
X0153050Y0010523D01*
X0153050Y0012125D02*
X0153050Y0014376D01*
X0152299Y0015127D01*
X0149297Y0015127D01*
X0148546Y0014376D01*
X0148546Y0012125D01*
X0153050Y0012125D01*
X0150798Y0009022D02*
X0150798Y0007521D01*
X0148546Y0007521D02*
X0148546Y0010523D01*
X0148546Y0007521D02*
X0153050Y0007521D01*
X0153050Y0016728D02*
X0150047Y0019731D01*
X0149297Y0019731D01*
X0148546Y0018980D01*
X0148546Y0017479D01*
X0149297Y0016728D01*
X0153050Y0016728D02*
X0153050Y0019731D01*
X0173546Y0018980D02*
X0173546Y0017479D01*
X0174297Y0016728D01*
X0174297Y0015127D02*
X0173546Y0014376D01*
X0173546Y0012125D01*
X0178050Y0012125D01*
X0178050Y0014376D01*
X0177299Y0015127D01*
X0174297Y0015127D01*
X0177299Y0016728D02*
X0178050Y0017479D01*
X0178050Y0018980D01*
X0177299Y0019731D01*
X0176549Y0019731D01*
X0175798Y0018980D01*
X0175798Y0018230D01*
X0175798Y0018980D02*
X0175047Y0019731D01*
X0174297Y0019731D01*
X0173546Y0018980D01*
X0173546Y0010523D02*
X0173546Y0007521D01*
X0178050Y0007521D01*
X0178050Y0010523D01*
X0175798Y0009022D02*
X0175798Y0007521D01*
X0178050Y0005919D02*
X0178050Y0002917D01*
X0173546Y0002917D01*
X0198546Y0002917D02*
X0203050Y0002917D01*
X0203050Y0005919D01*
X0203050Y0007521D02*
X0203050Y0010523D01*
X0203050Y0012125D02*
X0203050Y0014376D01*
X0202299Y0015127D01*
X0199297Y0015127D01*
X0198546Y0014376D01*
X0198546Y0012125D01*
X0203050Y0012125D01*
X0200798Y0009022D02*
X0200798Y0007521D01*
X0198546Y0007521D02*
X0198546Y0010523D01*
X0198546Y0007521D02*
X0203050Y0007521D01*
X0200798Y0016728D02*
X0200798Y0019731D01*
X0198546Y0018980D02*
X0200798Y0016728D01*
X0203050Y0018980D02*
X0198546Y0018980D01*
X0190050Y0048832D02*
X0185546Y0048832D01*
X0187047Y0050334D01*
X0185546Y0051835D01*
X0190050Y0051835D01*
X0190050Y0053436D02*
X0185546Y0053436D01*
X0185546Y0055688D01*
X0186297Y0056439D01*
X0187798Y0056439D01*
X0188549Y0055688D01*
X0188549Y0053436D01*
X0188549Y0054938D02*
X0190050Y0056439D01*
X0190050Y0058040D02*
X0185546Y0058040D01*
X0185546Y0061043D01*
X0186297Y0062644D02*
X0185546Y0063395D01*
X0185546Y0064896D01*
X0186297Y0065647D01*
X0185546Y0067248D02*
X0187798Y0067248D01*
X0187047Y0068749D01*
X0187047Y0069500D01*
X0187798Y0070251D01*
X0189299Y0070251D01*
X0190050Y0069500D01*
X0190050Y0067999D01*
X0189299Y0067248D01*
X0189299Y0065647D02*
X0190050Y0064896D01*
X0190050Y0063395D01*
X0189299Y0062644D01*
X0186297Y0062644D01*
X0187798Y0059542D02*
X0187798Y0058040D01*
X0177449Y0053836D02*
X0174446Y0053836D01*
X0175947Y0053836D02*
X0175947Y0049332D01*
X0172845Y0049332D02*
X0169842Y0049332D01*
X0169842Y0053836D01*
X0172845Y0053836D01*
X0171343Y0051584D02*
X0169842Y0051584D01*
X0168241Y0050834D02*
X0168241Y0050083D01*
X0167490Y0049332D01*
X0165989Y0049332D01*
X0165238Y0050083D01*
X0165989Y0051584D02*
X0167490Y0051584D01*
X0168241Y0050834D01*
X0168241Y0053086D02*
X0167490Y0053836D01*
X0165989Y0053836D01*
X0165238Y0053086D01*
X0165238Y0052335D01*
X0165989Y0051584D01*
X0163637Y0049332D02*
X0160634Y0049332D01*
X0160634Y0053836D01*
X0163637Y0053836D01*
X0162136Y0051584D02*
X0160634Y0051584D01*
X0159033Y0051584D02*
X0159033Y0053086D01*
X0158282Y0053836D01*
X0156030Y0053836D01*
X0156030Y0049332D01*
X0156030Y0050834D02*
X0158282Y0050834D01*
X0159033Y0051584D01*
X0157532Y0050834D02*
X0159033Y0049332D01*
X0185546Y0067248D02*
X0185546Y0070251D01*
X0186297Y0071852D02*
X0185546Y0072603D01*
X0185546Y0074104D01*
X0186297Y0074855D01*
X0187047Y0074855D01*
X0190050Y0071852D01*
X0190050Y0074855D01*
X0190050Y0076456D02*
X0187047Y0079459D01*
X0186297Y0079459D01*
X0185546Y0078708D01*
X0185546Y0077207D01*
X0186297Y0076456D01*
X0190050Y0076456D02*
X0190050Y0079459D01*
X0177449Y0084332D02*
X0177449Y0088836D01*
X0177449Y0086584D02*
X0174446Y0086584D01*
X0172845Y0085834D02*
X0172845Y0085083D01*
X0172094Y0084332D01*
X0170593Y0084332D01*
X0169842Y0085083D01*
X0170593Y0086584D02*
X0172094Y0086584D01*
X0172845Y0085834D01*
X0174446Y0084332D02*
X0174446Y0088836D01*
X0172845Y0088086D02*
X0172094Y0088836D01*
X0170593Y0088836D01*
X0169842Y0088086D01*
X0169842Y0087335D01*
X0170593Y0086584D01*
X0168241Y0086584D02*
X0165238Y0086584D01*
X0165238Y0087335D02*
X0166739Y0088836D01*
X0168241Y0087335D01*
X0168241Y0084332D01*
X0165238Y0084332D02*
X0165238Y0087335D01*
X0163637Y0084332D02*
X0160634Y0084332D01*
X0160634Y0088836D01*
X0159033Y0088836D02*
X0156030Y0088836D01*
X0156030Y0084332D01*
X0156030Y0086584D02*
X0157532Y0086584D01*
X0186297Y0121332D02*
X0187047Y0121332D01*
X0187798Y0122083D01*
X0187798Y0123584D01*
X0188549Y0124335D01*
X0189299Y0124335D01*
X0190050Y0123584D01*
X0190050Y0122083D01*
X0189299Y0121332D01*
X0188549Y0121332D01*
X0187798Y0122083D01*
X0187798Y0123584D02*
X0187047Y0124335D01*
X0186297Y0124335D01*
X0185546Y0123584D01*
X0185546Y0122083D01*
X0186297Y0121332D01*
X0185949Y0135206D02*
X0187450Y0135206D01*
X0186700Y0135206D02*
X0186700Y0139710D01*
X0187450Y0139710D02*
X0185949Y0139710D01*
X0184348Y0138960D02*
X0183597Y0139710D01*
X0181345Y0139710D01*
X0181345Y0135206D01*
X0183597Y0135206D01*
X0184348Y0135957D01*
X0184348Y0138960D01*
X0179744Y0139710D02*
X0176741Y0139710D01*
X0178243Y0139710D02*
X0178243Y0135206D01*
X0173639Y0137458D02*
X0172137Y0137458D01*
X0172137Y0135206D02*
X0172137Y0139710D01*
X0175140Y0139710D01*
X0181915Y0153206D02*
X0184917Y0153206D01*
X0183416Y0153206D02*
X0183416Y0157710D01*
X0181915Y0156209D01*
X0134917Y0139710D02*
X0133416Y0138960D01*
X0131915Y0137458D01*
X0134166Y0137458D01*
X0134917Y0136708D01*
X0134917Y0135957D01*
X0134166Y0135206D01*
X0132665Y0135206D01*
X0131915Y0135957D01*
X0131915Y0137458D01*
X0208050Y0054835D02*
X0208050Y0051832D01*
X0208050Y0053334D02*
X0203546Y0053334D01*
X0205047Y0051832D01*
D14*
X0171800Y0056582D02*
X0171800Y0057582D01*
X0161800Y0057582D01*
X0161800Y0056582D01*
X0162300Y0079582D02*
X0162300Y0080582D01*
X0162300Y0079582D02*
X0171800Y0079582D01*
X0171800Y0080582D01*
X0171800Y0091582D02*
X0171800Y0092582D01*
X0161800Y0092582D01*
X0161800Y0091582D01*
X0162300Y0114582D02*
X0162300Y0115582D01*
X0162300Y0114582D02*
X0171800Y0114582D01*
X0171800Y0115582D01*
D15*
X0034700Y0060082D02*
X0034700Y0047082D01*
X0008900Y0047082D01*
X0008900Y0060082D01*
X0034700Y0060082D01*
D16*
X0027440Y0071382D02*
X0027440Y0071633D01*
X0028440Y0072633D01*
X0028440Y0072884D01*
X0027440Y0072884D01*
X0026467Y0072884D02*
X0026467Y0071382D01*
X0026967Y0071382D02*
X0025966Y0071382D01*
X0025494Y0071382D02*
X0024493Y0071382D01*
X0024021Y0071382D02*
X0023020Y0071382D01*
X0023520Y0071382D02*
X0023520Y0072884D01*
X0023020Y0072383D01*
X0022547Y0072633D02*
X0022297Y0072884D01*
X0021797Y0072884D01*
X0021547Y0072633D01*
X0021547Y0072383D01*
X0021797Y0072133D01*
X0022297Y0072133D01*
X0022547Y0071883D01*
X0022547Y0071633D01*
X0022297Y0071382D01*
X0021797Y0071382D01*
X0021547Y0071633D01*
X0021074Y0071382D02*
X0021074Y0072884D01*
X0020574Y0072383D01*
X0020073Y0072884D01*
X0020073Y0071382D01*
X0019601Y0071382D02*
X0019601Y0072383D01*
X0019100Y0072884D01*
X0018600Y0072383D01*
X0018600Y0071382D01*
X0018600Y0072133D02*
X0019601Y0072133D01*
X0024493Y0072383D02*
X0024993Y0072884D01*
X0024993Y0071382D01*
X0025966Y0072383D02*
X0026467Y0072884D01*
D17*
X0056681Y0086656D02*
X0058216Y0088191D01*
X0056681Y0089726D01*
X0061285Y0089726D01*
X0061285Y0091260D02*
X0061285Y0093562D01*
X0060518Y0094330D01*
X0057448Y0094330D01*
X0056681Y0093562D01*
X0056681Y0091260D01*
X0061285Y0091260D01*
X0061285Y0086656D02*
X0056681Y0086656D01*
X0056681Y0095864D02*
X0061285Y0095864D01*
X0061285Y0098934D01*
X0061285Y0100468D02*
X0061285Y0103537D01*
X0061285Y0102003D02*
X0056681Y0102003D01*
X0058216Y0100468D01*
X0061685Y0122523D02*
X0064754Y0122523D01*
X0066289Y0123290D02*
X0067056Y0122523D01*
X0068591Y0122523D01*
X0069358Y0123290D01*
X0069358Y0124057D01*
X0068591Y0124825D01*
X0067056Y0124825D01*
X0066289Y0125592D01*
X0066289Y0126359D01*
X0067056Y0127126D01*
X0068591Y0127126D01*
X0069358Y0126359D01*
X0070893Y0127126D02*
X0073195Y0127126D01*
X0073962Y0126359D01*
X0073962Y0124825D01*
X0073195Y0124057D01*
X0070893Y0124057D01*
X0070893Y0122523D02*
X0070893Y0127126D01*
X0075497Y0124825D02*
X0078566Y0124825D01*
X0080101Y0125592D02*
X0081635Y0127126D01*
X0081635Y0122523D01*
X0080101Y0122523D02*
X0083170Y0122523D01*
X0084705Y0122523D02*
X0087774Y0125592D01*
X0087774Y0126359D01*
X0087007Y0127126D01*
X0085472Y0127126D01*
X0084705Y0126359D01*
X0084705Y0122523D02*
X0087774Y0122523D01*
X0089309Y0122523D02*
X0092378Y0122523D01*
X0090843Y0124825D02*
X0089309Y0124825D01*
X0089309Y0127126D02*
X0089309Y0122523D01*
X0089309Y0127126D02*
X0092378Y0127126D01*
X0064754Y0127126D02*
X0061685Y0127126D01*
X0061685Y0122523D01*
X0061685Y0124825D02*
X0063220Y0124825D01*
X0035600Y0141600D02*
X0032097Y0141600D01*
X0032097Y0143352D01*
X0032681Y0143936D01*
X0033849Y0143936D01*
X0034432Y0143352D01*
X0034432Y0141600D01*
X0034432Y0142768D02*
X0035600Y0143936D01*
X0033849Y0145191D02*
X0033849Y0147527D01*
X0035600Y0146943D02*
X0032097Y0146943D01*
X0033849Y0145191D01*
X0011500Y0134709D02*
X0011500Y0132373D01*
X0009165Y0134709D01*
X0008581Y0134709D01*
X0007997Y0134125D01*
X0007997Y0132957D01*
X0008581Y0132373D01*
X0008581Y0131118D02*
X0009749Y0131118D01*
X0010332Y0130534D01*
X0010332Y0128782D01*
X0011500Y0128782D02*
X0007997Y0128782D01*
X0007997Y0130534D01*
X0008581Y0131118D01*
X0010332Y0129950D02*
X0011500Y0131118D01*
X0025600Y0107527D02*
X0025600Y0105191D01*
X0025600Y0106359D02*
X0022097Y0106359D01*
X0023265Y0105191D01*
X0022681Y0103936D02*
X0023849Y0103936D01*
X0024432Y0103352D01*
X0024432Y0101600D01*
X0024432Y0102768D02*
X0025600Y0103936D01*
X0022681Y0103936D02*
X0022097Y0103352D01*
X0022097Y0101600D01*
X0025600Y0101600D01*
X0006600Y0038283D02*
X0004198Y0038283D01*
X0002997Y0037082D01*
X0004198Y0035881D01*
X0006600Y0035881D01*
X0005999Y0034600D02*
X0003597Y0034600D01*
X0002997Y0034000D01*
X0002997Y0032198D01*
X0006600Y0032198D01*
X0006600Y0034000D01*
X0005999Y0034600D01*
X0004798Y0035881D02*
X0004798Y0038283D01*
X0004798Y0030917D02*
X0004798Y0028515D01*
X0004198Y0028515D02*
X0002997Y0029716D01*
X0004198Y0030917D01*
X0006600Y0030917D01*
X0006600Y0028515D02*
X0004198Y0028515D01*
X0003597Y0027234D02*
X0004798Y0027234D01*
X0005399Y0026633D01*
X0005399Y0024832D01*
X0005399Y0026033D02*
X0006600Y0027234D01*
X0006600Y0024832D02*
X0002997Y0024832D01*
X0002997Y0026633D01*
X0003597Y0027234D01*
X0002997Y0023551D02*
X0002997Y0021149D01*
X0002997Y0022350D02*
X0006600Y0022350D01*
X0006600Y0019868D02*
X0002997Y0019868D01*
X0002997Y0017466D02*
X0006600Y0019868D01*
X0006600Y0017466D02*
X0002997Y0017466D01*
X0002997Y0016184D02*
X0002997Y0013782D01*
X0006600Y0013782D01*
X0006600Y0016184D01*
X0004798Y0014983D02*
X0004798Y0013782D01*
X0129818Y0039782D02*
X0129818Y0043285D01*
X0131569Y0043285D01*
X0132153Y0042702D01*
X0132153Y0041534D01*
X0131569Y0040950D01*
X0129818Y0040950D01*
X0130986Y0040950D02*
X0132153Y0039782D01*
X0133409Y0040366D02*
X0133993Y0039782D01*
X0135160Y0039782D01*
X0135744Y0040366D01*
X0135744Y0041534D01*
X0135160Y0042118D01*
X0134577Y0042118D01*
X0133409Y0041534D01*
X0133409Y0043285D01*
X0135744Y0043285D01*
X0135160Y0049782D02*
X0133993Y0049782D01*
X0133409Y0050366D01*
X0133409Y0051534D01*
X0135160Y0051534D01*
X0135744Y0050950D01*
X0135744Y0050366D01*
X0135160Y0049782D01*
X0133409Y0051534D02*
X0134577Y0052702D01*
X0135744Y0053285D01*
X0132153Y0052702D02*
X0132153Y0051534D01*
X0131569Y0050950D01*
X0129818Y0050950D01*
X0130986Y0050950D02*
X0132153Y0049782D01*
X0129818Y0049782D02*
X0129818Y0053285D01*
X0131569Y0053285D01*
X0132153Y0052702D01*
X0132153Y0059782D02*
X0130986Y0060950D01*
X0131569Y0060950D02*
X0129818Y0060950D01*
X0129818Y0059782D02*
X0129818Y0063285D01*
X0131569Y0063285D01*
X0132153Y0062702D01*
X0132153Y0061534D01*
X0131569Y0060950D01*
X0133409Y0060366D02*
X0133409Y0059782D01*
X0133409Y0060366D02*
X0135744Y0062702D01*
X0135744Y0063285D01*
X0133409Y0063285D01*
X0133993Y0069782D02*
X0133409Y0070366D01*
X0133409Y0070950D01*
X0133993Y0071534D01*
X0135160Y0071534D01*
X0135744Y0070950D01*
X0135744Y0070366D01*
X0135160Y0069782D01*
X0133993Y0069782D01*
X0133993Y0071534D02*
X0133409Y0072118D01*
X0133409Y0072702D01*
X0133993Y0073285D01*
X0135160Y0073285D01*
X0135744Y0072702D01*
X0135744Y0072118D01*
X0135160Y0071534D01*
X0132153Y0071534D02*
X0131569Y0070950D01*
X0129818Y0070950D01*
X0130986Y0070950D02*
X0132153Y0069782D01*
X0132153Y0071534D02*
X0132153Y0072702D01*
X0131569Y0073285D01*
X0129818Y0073285D01*
X0129818Y0069782D01*
X0132097Y0106600D02*
X0132097Y0108352D01*
X0132681Y0108936D01*
X0133849Y0108936D01*
X0134432Y0108352D01*
X0134432Y0106600D01*
X0134432Y0107768D02*
X0135600Y0108936D01*
X0135016Y0110191D02*
X0135600Y0110775D01*
X0135600Y0111943D01*
X0135016Y0112527D01*
X0134432Y0112527D01*
X0133849Y0111943D01*
X0133849Y0111359D01*
X0133849Y0111943D02*
X0133265Y0112527D01*
X0132681Y0112527D01*
X0132097Y0111943D01*
X0132097Y0110775D01*
X0132681Y0110191D01*
X0132097Y0106600D02*
X0135600Y0106600D01*
D18*
X0126800Y0114332D03*
X0126800Y0092832D03*
X0026800Y0127832D03*
X0016800Y0127832D03*
X0016800Y0109332D03*
X0016800Y0087832D03*
X0016800Y0149332D03*
X0026800Y0149332D03*
D19*
X0116050Y0078582D03*
X0116050Y0068582D03*
X0116050Y0058582D03*
X0116050Y0048582D03*
X0137550Y0048582D03*
X0137550Y0058582D03*
X0137550Y0068582D03*
X0137550Y0078582D03*
M02*
