G75*
%MOIN*%
%OFA0B0*%
%FSLAX25Y25*%
%IPPOS*%
%LPD*%
%AMOC8*
5,1,8,0,0,1.08239X$1,22.5*
%
%ADD10OC8,0.05200*%
%ADD11C,0.06000*%
%ADD12C,0.05937*%
%ADD13OC8,0.10000*%
%ADD14C,0.01000*%
%ADD15C,0.04000*%
%ADD16C,0.01600*%
D10*
X0027902Y0078701D03*
X0027902Y0088701D03*
X0016800Y0083582D03*
X0016800Y0113582D03*
X0016800Y0123582D03*
X0026800Y0123582D03*
X0026800Y0153582D03*
X0016800Y0153582D03*
X0111800Y0078582D03*
X0111800Y0068582D03*
X0111800Y0058582D03*
X0111800Y0048582D03*
X0121800Y0033582D03*
X0121800Y0023582D03*
X0146800Y0023582D03*
X0146800Y0033582D03*
X0141800Y0048582D03*
X0141800Y0058582D03*
X0141800Y0068582D03*
X0141800Y0078582D03*
X0126800Y0088582D03*
X0126800Y0118582D03*
X0171800Y0033582D03*
X0171800Y0023582D03*
X0196800Y0023582D03*
X0196800Y0033582D03*
D11*
X0199800Y0053582D02*
X0193800Y0053582D01*
X0182600Y0059682D02*
X0176600Y0059682D01*
X0193800Y0063582D02*
X0199800Y0063582D01*
X0199800Y0073582D02*
X0193800Y0073582D01*
X0193800Y0083582D02*
X0199800Y0083582D01*
X0199800Y0093582D02*
X0193800Y0093582D01*
X0193800Y0103582D02*
X0199800Y0103582D01*
X0199800Y0113582D02*
X0193800Y0113582D01*
X0182600Y0112482D02*
X0176600Y0112482D01*
X0193800Y0123582D02*
X0199800Y0123582D01*
X0183769Y0143456D02*
X0183769Y0149456D01*
X0173769Y0149456D02*
X0173769Y0143456D01*
X0163769Y0143456D02*
X0163769Y0149456D01*
X0153769Y0149456D02*
X0153769Y0143456D01*
X0143769Y0143456D02*
X0143769Y0149456D01*
X0133769Y0149456D02*
X0133769Y0143456D01*
X0151000Y0112482D02*
X0157000Y0112482D01*
X0157000Y0094682D02*
X0151000Y0094682D01*
X0151000Y0077482D02*
X0157000Y0077482D01*
X0176600Y0077482D02*
X0182600Y0077482D01*
X0182600Y0094682D02*
X0176600Y0094682D01*
X0157000Y0059682D02*
X0151000Y0059682D01*
D12*
X0024769Y0028582D02*
X0018831Y0028582D01*
X0018831Y0018582D02*
X0024769Y0018582D01*
D13*
X0076800Y0023582D03*
X0076800Y0053582D03*
D14*
X0055550Y0033582D02*
X0100550Y0033582D01*
X0118050Y0016082D01*
X0125550Y0016082D01*
X0126800Y0017332D01*
X0141800Y0017332D01*
X0143050Y0016082D01*
X0150550Y0016082D01*
X0163050Y0028582D01*
X0163050Y0036082D01*
X0171800Y0044832D01*
X0193050Y0044832D01*
X0195550Y0047332D01*
X0195550Y0052332D01*
X0196800Y0053582D01*
X0196800Y0063582D02*
X0190550Y0063582D01*
X0185550Y0068582D01*
X0173050Y0068582D01*
X0165550Y0076082D01*
X0165550Y0097332D01*
X0155550Y0107332D01*
X0155550Y0111082D01*
X0154300Y0112332D01*
X0154000Y0112482D01*
X0141800Y0106082D02*
X0071800Y0106082D01*
X0068050Y0109832D01*
X0035550Y0109832D01*
X0019300Y0093582D01*
X0019300Y0088582D01*
X0016800Y0086082D01*
X0016800Y0083582D01*
X0008050Y0081082D02*
X0055550Y0033582D01*
X0109300Y0058582D02*
X0111800Y0058582D01*
X0109300Y0058582D02*
X0073050Y0094832D01*
X0034300Y0094832D01*
X0034300Y0102332D02*
X0099300Y0102332D01*
X0120550Y0081082D01*
X0120550Y0056082D01*
X0113050Y0048582D01*
X0111800Y0048582D01*
X0133050Y0051082D02*
X0133050Y0046082D01*
X0145550Y0033582D01*
X0146800Y0033582D01*
X0133050Y0051082D02*
X0140550Y0058582D01*
X0141800Y0058582D01*
X0154000Y0077482D02*
X0153050Y0078582D01*
X0153050Y0084832D01*
X0151800Y0086082D01*
X0148050Y0086082D01*
X0141800Y0092332D01*
X0141800Y0106082D01*
X0141800Y0139832D01*
X0143050Y0141082D01*
X0143050Y0146082D01*
X0143769Y0146456D01*
X0131800Y0158582D02*
X0186800Y0158582D01*
X0193050Y0152332D01*
X0193050Y0141082D01*
X0168050Y0116082D01*
X0168050Y0092332D01*
X0174300Y0086082D01*
X0185550Y0086082D01*
X0188050Y0083582D01*
X0196800Y0083582D01*
X0196800Y0123582D02*
X0196800Y0152332D01*
X0188050Y0161082D01*
X0128050Y0161082D01*
X0109300Y0142332D01*
X0044300Y0142332D01*
X0035550Y0151082D01*
X0035550Y0156082D01*
X0029300Y0162332D01*
X0014300Y0162332D01*
X0008050Y0156082D01*
X0008050Y0151082D01*
X0013050Y0146082D01*
X0013050Y0129832D01*
X0016800Y0126082D01*
X0016800Y0123582D01*
X0029300Y0109832D02*
X0029300Y0107332D01*
X0008050Y0086082D01*
X0008050Y0081082D01*
X0035550Y0109832D02*
X0035550Y0126082D01*
X0034300Y0127332D01*
X0034300Y0139832D01*
X0028050Y0153582D02*
X0026800Y0153582D01*
X0028050Y0153582D02*
X0070550Y0111082D01*
X0098050Y0111082D01*
X0113050Y0118582D02*
X0113050Y0139832D01*
X0131800Y0158582D01*
D15*
X0113050Y0118582D03*
X0098050Y0111082D03*
X0034300Y0102332D03*
X0029300Y0109832D03*
X0034300Y0094832D03*
X0034300Y0139832D03*
D16*
X0006600Y0013382D02*
X0117252Y0013382D01*
X0116464Y0013709D01*
X0115676Y0014496D01*
X0099390Y0030782D01*
X0054993Y0030782D01*
X0053964Y0031209D01*
X0053176Y0031996D01*
X0006600Y0078573D01*
X0006600Y0013382D01*
X0006600Y0014976D02*
X0015694Y0014976D01*
X0015725Y0014945D02*
X0016332Y0014504D01*
X0017001Y0014163D01*
X0017715Y0013931D01*
X0018456Y0013814D01*
X0021616Y0013814D01*
X0021616Y0018398D01*
X0021984Y0018398D01*
X0021984Y0013814D01*
X0025144Y0013814D01*
X0025885Y0013931D01*
X0026599Y0014163D01*
X0027268Y0014504D01*
X0027875Y0014945D01*
X0028406Y0015476D01*
X0028847Y0016083D01*
X0029188Y0016752D01*
X0029420Y0017466D01*
X0029537Y0018207D01*
X0029537Y0018398D01*
X0021984Y0018398D01*
X0021984Y0018767D01*
X0029537Y0018767D01*
X0029537Y0018958D01*
X0029420Y0019699D01*
X0029188Y0020413D01*
X0028847Y0021082D01*
X0028406Y0021689D01*
X0027875Y0022220D01*
X0027268Y0022661D01*
X0026599Y0023002D01*
X0025885Y0023233D01*
X0025377Y0023314D01*
X0025816Y0023314D01*
X0027753Y0024116D01*
X0029235Y0025598D01*
X0030037Y0027534D01*
X0030037Y0029630D01*
X0029235Y0031567D01*
X0027753Y0033049D01*
X0025816Y0033851D01*
X0017784Y0033851D01*
X0015847Y0033049D01*
X0014365Y0031567D01*
X0013563Y0029630D01*
X0013563Y0027534D01*
X0014365Y0025598D01*
X0015847Y0024116D01*
X0017784Y0023314D01*
X0018223Y0023314D01*
X0017715Y0023233D01*
X0017001Y0023002D01*
X0016332Y0022661D01*
X0015725Y0022220D01*
X0015194Y0021689D01*
X0014753Y0021082D01*
X0014412Y0020413D01*
X0014180Y0019699D01*
X0014063Y0018958D01*
X0014063Y0018767D01*
X0021616Y0018767D01*
X0021616Y0018398D01*
X0014063Y0018398D01*
X0014063Y0018207D01*
X0014180Y0017466D01*
X0014412Y0016752D01*
X0014753Y0016083D01*
X0015194Y0015476D01*
X0015725Y0014945D01*
X0014503Y0016575D02*
X0006600Y0016575D01*
X0006600Y0018173D02*
X0014068Y0018173D01*
X0014204Y0019772D02*
X0006600Y0019772D01*
X0006600Y0021370D02*
X0014963Y0021370D01*
X0016937Y0022969D02*
X0006600Y0022969D01*
X0006600Y0024568D02*
X0015396Y0024568D01*
X0014130Y0026166D02*
X0006600Y0026166D01*
X0006600Y0027765D02*
X0013563Y0027765D01*
X0013563Y0029363D02*
X0006600Y0029363D01*
X0006600Y0030962D02*
X0014114Y0030962D01*
X0015358Y0032560D02*
X0006600Y0032560D01*
X0006600Y0034159D02*
X0051014Y0034159D01*
X0049416Y0035757D02*
X0006600Y0035757D01*
X0006600Y0037356D02*
X0047817Y0037356D01*
X0046218Y0038954D02*
X0006600Y0038954D01*
X0006600Y0040553D02*
X0044620Y0040553D01*
X0043021Y0042151D02*
X0006600Y0042151D01*
X0006600Y0043750D02*
X0041423Y0043750D01*
X0039824Y0045348D02*
X0006600Y0045348D01*
X0006600Y0046947D02*
X0038226Y0046947D01*
X0036627Y0048545D02*
X0006600Y0048545D01*
X0006600Y0050144D02*
X0035029Y0050144D01*
X0033430Y0051742D02*
X0006600Y0051742D01*
X0006600Y0053341D02*
X0031832Y0053341D01*
X0030233Y0054939D02*
X0006600Y0054939D01*
X0006600Y0056538D02*
X0028635Y0056538D01*
X0027036Y0058136D02*
X0006600Y0058136D01*
X0006600Y0059735D02*
X0025438Y0059735D01*
X0023839Y0061333D02*
X0006600Y0061333D01*
X0006600Y0062932D02*
X0022241Y0062932D01*
X0020642Y0064530D02*
X0006600Y0064530D01*
X0006600Y0066129D02*
X0019044Y0066129D01*
X0017445Y0067727D02*
X0006600Y0067727D01*
X0006600Y0069326D02*
X0015847Y0069326D01*
X0014248Y0070924D02*
X0006600Y0070924D01*
X0006600Y0072523D02*
X0012650Y0072523D01*
X0011051Y0074121D02*
X0006600Y0074121D01*
X0006600Y0075720D02*
X0009453Y0075720D01*
X0007854Y0077318D02*
X0006600Y0077318D01*
X0010978Y0082114D02*
X0011900Y0082114D01*
X0011900Y0081553D02*
X0014770Y0078682D01*
X0018830Y0078682D01*
X0021700Y0081553D01*
X0021700Y0085612D01*
X0020995Y0086317D01*
X0021674Y0086996D01*
X0022100Y0088025D01*
X0022100Y0092423D01*
X0030338Y0100661D01*
X0030655Y0099897D01*
X0031864Y0098687D01*
X0032117Y0098582D01*
X0031864Y0098478D01*
X0030655Y0097268D01*
X0030000Y0095688D01*
X0030000Y0093977D01*
X0030314Y0093218D01*
X0029932Y0093600D01*
X0025873Y0093600D01*
X0023002Y0090730D01*
X0023002Y0086671D01*
X0025873Y0083801D01*
X0029932Y0083801D01*
X0032802Y0086671D01*
X0032802Y0090730D01*
X0032686Y0090847D01*
X0033445Y0090532D01*
X0035155Y0090532D01*
X0036736Y0091187D01*
X0037581Y0092032D01*
X0071890Y0092032D01*
X0106900Y0057023D01*
X0106900Y0056553D01*
X0109770Y0053682D01*
X0113830Y0053682D01*
X0116700Y0056553D01*
X0116700Y0060612D01*
X0113830Y0063482D01*
X0109770Y0063482D01*
X0109065Y0062777D01*
X0074636Y0097206D01*
X0073607Y0097632D01*
X0037581Y0097632D01*
X0036736Y0098478D01*
X0036483Y0098582D01*
X0036736Y0098687D01*
X0037581Y0099532D01*
X0098140Y0099532D01*
X0117750Y0079923D01*
X0117750Y0057242D01*
X0113910Y0053402D01*
X0113830Y0053482D01*
X0109770Y0053482D01*
X0106900Y0050612D01*
X0106900Y0046553D01*
X0109770Y0043682D01*
X0113830Y0043682D01*
X0116700Y0046553D01*
X0116700Y0048273D01*
X0122924Y0054496D01*
X0123350Y0055525D01*
X0123350Y0081639D01*
X0122924Y0082668D01*
X0122136Y0083456D01*
X0102310Y0103282D01*
X0139000Y0103282D01*
X0139000Y0091775D01*
X0139426Y0090746D01*
X0140214Y0089959D01*
X0146464Y0083709D01*
X0147493Y0083282D01*
X0150250Y0083282D01*
X0150250Y0082782D01*
X0149946Y0082782D01*
X0147998Y0081976D01*
X0146667Y0080645D01*
X0143830Y0083482D01*
X0139770Y0083482D01*
X0136900Y0080612D01*
X0136900Y0076553D01*
X0139770Y0073682D01*
X0143830Y0073682D01*
X0145956Y0075809D01*
X0146507Y0074480D01*
X0147998Y0072989D01*
X0149946Y0072182D01*
X0158054Y0072182D01*
X0160002Y0072989D01*
X0161493Y0074480D01*
X0162300Y0076428D01*
X0162300Y0078537D01*
X0161493Y0080485D01*
X0160002Y0081976D01*
X0158054Y0082782D01*
X0155850Y0082782D01*
X0155850Y0085389D01*
X0155424Y0086418D01*
X0154174Y0087668D01*
X0153386Y0088456D01*
X0152357Y0088882D01*
X0149210Y0088882D01*
X0144600Y0093492D01*
X0144600Y0138156D01*
X0144823Y0138156D01*
X0146771Y0138963D01*
X0148262Y0140454D01*
X0148769Y0141678D01*
X0149275Y0140454D01*
X0150766Y0138963D01*
X0152714Y0138156D01*
X0154823Y0138156D01*
X0156771Y0138963D01*
X0158262Y0140454D01*
X0158769Y0141678D01*
X0159275Y0140454D01*
X0160766Y0138963D01*
X0162714Y0138156D01*
X0164823Y0138156D01*
X0166771Y0138963D01*
X0168262Y0140454D01*
X0168769Y0141678D01*
X0169275Y0140454D01*
X0170766Y0138963D01*
X0172714Y0138156D01*
X0174823Y0138156D01*
X0176771Y0138963D01*
X0178262Y0140454D01*
X0178769Y0141678D01*
X0179275Y0140454D01*
X0180766Y0138963D01*
X0182714Y0138156D01*
X0184823Y0138156D01*
X0186771Y0138963D01*
X0188262Y0140454D01*
X0189068Y0142402D01*
X0189068Y0150511D01*
X0188262Y0152459D01*
X0186771Y0153950D01*
X0184823Y0154756D01*
X0182714Y0154756D01*
X0180766Y0153950D01*
X0179275Y0152459D01*
X0178769Y0151235D01*
X0178262Y0152459D01*
X0176771Y0153950D01*
X0174823Y0154756D01*
X0172714Y0154756D01*
X0170766Y0153950D01*
X0169275Y0152459D01*
X0168769Y0151235D01*
X0168262Y0152459D01*
X0166771Y0153950D01*
X0164823Y0154756D01*
X0162714Y0154756D01*
X0160766Y0153950D01*
X0159275Y0152459D01*
X0158769Y0151235D01*
X0158262Y0152459D01*
X0156771Y0153950D01*
X0154823Y0154756D01*
X0152714Y0154756D01*
X0150766Y0153950D01*
X0149275Y0152459D01*
X0148769Y0151235D01*
X0148262Y0152459D01*
X0146771Y0153950D01*
X0144823Y0154756D01*
X0142714Y0154756D01*
X0140766Y0153950D01*
X0139275Y0152459D01*
X0138469Y0150511D01*
X0138469Y0150465D01*
X0138450Y0150580D01*
X0138217Y0151299D01*
X0137874Y0151972D01*
X0137430Y0152583D01*
X0136895Y0153118D01*
X0136284Y0153562D01*
X0135611Y0153905D01*
X0134893Y0154138D01*
X0134146Y0154256D01*
X0133969Y0154256D01*
X0133969Y0146656D01*
X0133568Y0146656D01*
X0133568Y0146256D01*
X0133969Y0146256D01*
X0133969Y0138656D01*
X0134146Y0138656D01*
X0134893Y0138775D01*
X0135611Y0139008D01*
X0136284Y0139351D01*
X0136895Y0139795D01*
X0137430Y0140329D01*
X0137874Y0140941D01*
X0138217Y0141614D01*
X0138450Y0142332D01*
X0138469Y0142447D01*
X0138469Y0142402D01*
X0139151Y0140754D01*
X0139000Y0140389D01*
X0139000Y0108882D01*
X0101793Y0108882D01*
X0102350Y0110227D01*
X0102350Y0111938D01*
X0101695Y0113518D01*
X0100486Y0114728D01*
X0098905Y0115382D01*
X0097195Y0115382D01*
X0095614Y0114728D01*
X0094769Y0113882D01*
X0071710Y0113882D01*
X0046060Y0139532D01*
X0109857Y0139532D01*
X0110250Y0139695D01*
X0110250Y0121864D01*
X0109405Y0121018D01*
X0108750Y0119438D01*
X0108750Y0117727D01*
X0109405Y0116147D01*
X0110614Y0114937D01*
X0112195Y0114282D01*
X0113905Y0114282D01*
X0115486Y0114937D01*
X0116695Y0116147D01*
X0117350Y0117727D01*
X0117350Y0119438D01*
X0116695Y0121018D01*
X0115850Y0121864D01*
X0115850Y0138673D01*
X0132960Y0155782D01*
X0185640Y0155782D01*
X0190250Y0151173D01*
X0190250Y0142242D01*
X0166464Y0118456D01*
X0165676Y0117668D01*
X0165250Y0116639D01*
X0165250Y0101592D01*
X0159190Y0107653D01*
X0160002Y0107989D01*
X0161493Y0109480D01*
X0162300Y0111428D01*
X0162300Y0113537D01*
X0161493Y0115485D01*
X0160002Y0116976D01*
X0158054Y0117782D01*
X0149946Y0117782D01*
X0147998Y0116976D01*
X0146507Y0115485D01*
X0145700Y0113537D01*
X0145700Y0111428D01*
X0146507Y0109480D01*
X0147998Y0107989D01*
X0149946Y0107182D01*
X0152750Y0107182D01*
X0152750Y0106775D01*
X0153176Y0105746D01*
X0153964Y0104959D01*
X0162750Y0096173D01*
X0162750Y0075525D01*
X0163176Y0074496D01*
X0163964Y0073709D01*
X0171464Y0066209D01*
X0172493Y0065782D01*
X0184390Y0065782D01*
X0188964Y0061209D01*
X0189064Y0061167D01*
X0189307Y0060580D01*
X0190798Y0059089D01*
X0192022Y0058582D01*
X0190798Y0058076D01*
X0189307Y0056585D01*
X0188500Y0054637D01*
X0188500Y0052528D01*
X0189307Y0050580D01*
X0190798Y0049089D01*
X0192600Y0048343D01*
X0191890Y0047632D01*
X0171243Y0047632D01*
X0170214Y0047206D01*
X0169426Y0046418D01*
X0160676Y0037668D01*
X0160250Y0036639D01*
X0160250Y0029742D01*
X0149390Y0018882D01*
X0144210Y0018882D01*
X0143386Y0019706D01*
X0142357Y0020132D01*
X0126243Y0020132D01*
X0125214Y0019706D01*
X0124426Y0018918D01*
X0124390Y0018882D01*
X0119210Y0018882D01*
X0102136Y0035956D01*
X0101107Y0036382D01*
X0056710Y0036382D01*
X0010850Y0082242D01*
X0010850Y0084923D01*
X0016500Y0090573D01*
X0016500Y0089742D01*
X0015240Y0088482D01*
X0014770Y0088482D01*
X0011900Y0085612D01*
X0011900Y0081553D01*
X0012577Y0080515D02*
X0012937Y0080515D01*
X0014175Y0078917D02*
X0014536Y0078917D01*
X0015774Y0077318D02*
X0023502Y0077318D01*
X0023502Y0076878D02*
X0023502Y0078700D01*
X0027902Y0078700D01*
X0027902Y0078700D01*
X0027902Y0074300D01*
X0026080Y0074301D01*
X0023502Y0076878D01*
X0024660Y0075720D02*
X0017372Y0075720D01*
X0018971Y0074121D02*
X0089801Y0074121D01*
X0091400Y0072523D02*
X0020569Y0072523D01*
X0022168Y0070924D02*
X0092998Y0070924D01*
X0094597Y0069326D02*
X0023766Y0069326D01*
X0025365Y0067727D02*
X0096195Y0067727D01*
X0097794Y0066129D02*
X0026963Y0066129D01*
X0028562Y0064530D02*
X0099392Y0064530D01*
X0100991Y0062932D02*
X0030160Y0062932D01*
X0031759Y0061333D02*
X0102589Y0061333D01*
X0104188Y0059735D02*
X0080971Y0059735D01*
X0079824Y0060882D02*
X0073776Y0060882D01*
X0069500Y0056606D01*
X0069500Y0050559D01*
X0073776Y0046282D01*
X0079824Y0046282D01*
X0084100Y0050559D01*
X0084100Y0056606D01*
X0079824Y0060882D01*
X0082570Y0058136D02*
X0105786Y0058136D01*
X0106915Y0056538D02*
X0084100Y0056538D01*
X0084100Y0054939D02*
X0108514Y0054939D01*
X0109629Y0053341D02*
X0084100Y0053341D01*
X0084100Y0051742D02*
X0108030Y0051742D01*
X0106900Y0050144D02*
X0083685Y0050144D01*
X0082087Y0048545D02*
X0106900Y0048545D01*
X0106900Y0046947D02*
X0080488Y0046947D01*
X0073112Y0046947D02*
X0046146Y0046947D01*
X0047744Y0045348D02*
X0108105Y0045348D01*
X0109703Y0043750D02*
X0049343Y0043750D01*
X0050941Y0042151D02*
X0133021Y0042151D01*
X0131464Y0043709D02*
X0141900Y0033273D01*
X0141900Y0031553D01*
X0144770Y0028682D01*
X0148830Y0028682D01*
X0151700Y0031553D01*
X0151700Y0035612D01*
X0148830Y0038482D01*
X0144770Y0038482D01*
X0144690Y0038402D01*
X0135850Y0047242D01*
X0135850Y0049923D01*
X0139690Y0053763D01*
X0139770Y0053682D01*
X0143830Y0053682D01*
X0146700Y0056553D01*
X0146700Y0057549D01*
X0146895Y0057167D01*
X0147339Y0056555D01*
X0147873Y0056021D01*
X0148484Y0055577D01*
X0149157Y0055234D01*
X0149876Y0055001D01*
X0150622Y0054882D01*
X0153800Y0054882D01*
X0153800Y0059482D01*
X0154200Y0059482D01*
X0154200Y0054882D01*
X0157378Y0054882D01*
X0158124Y0055001D01*
X0158843Y0055234D01*
X0159516Y0055577D01*
X0160127Y0056021D01*
X0160661Y0056555D01*
X0161105Y0057167D01*
X0161448Y0057840D01*
X0161682Y0058558D01*
X0161800Y0059305D01*
X0161800Y0059482D01*
X0154200Y0059482D01*
X0154200Y0059882D01*
X0161800Y0059882D01*
X0161800Y0060060D01*
X0161682Y0060806D01*
X0161448Y0061525D01*
X0161105Y0062198D01*
X0160661Y0062809D01*
X0160127Y0063344D01*
X0159516Y0063788D01*
X0158843Y0064131D01*
X0158124Y0064364D01*
X0157378Y0064482D01*
X0154200Y0064482D01*
X0154200Y0059882D01*
X0153800Y0059882D01*
X0153800Y0064482D01*
X0150622Y0064482D01*
X0149876Y0064364D01*
X0149157Y0064131D01*
X0148484Y0063788D01*
X0147873Y0063344D01*
X0147339Y0062809D01*
X0146895Y0062198D01*
X0146552Y0061525D01*
X0146364Y0060948D01*
X0143830Y0063482D01*
X0139770Y0063482D01*
X0136900Y0060612D01*
X0136900Y0058892D01*
X0130676Y0052668D01*
X0130250Y0051639D01*
X0130250Y0045525D01*
X0130676Y0044496D01*
X0131464Y0043709D01*
X0131423Y0043750D02*
X0113897Y0043750D01*
X0115495Y0045348D02*
X0130323Y0045348D01*
X0130250Y0046947D02*
X0116700Y0046947D01*
X0116973Y0048545D02*
X0130250Y0048545D01*
X0130250Y0050144D02*
X0118571Y0050144D01*
X0120170Y0051742D02*
X0130293Y0051742D01*
X0131349Y0053341D02*
X0121768Y0053341D01*
X0123107Y0054939D02*
X0132947Y0054939D01*
X0134546Y0056538D02*
X0123350Y0056538D01*
X0123350Y0058136D02*
X0136144Y0058136D01*
X0136900Y0059735D02*
X0123350Y0059735D01*
X0123350Y0061333D02*
X0137621Y0061333D01*
X0139220Y0062932D02*
X0123350Y0062932D01*
X0123350Y0064530D02*
X0138922Y0064530D01*
X0139770Y0063682D02*
X0136900Y0066553D01*
X0136900Y0070612D01*
X0139770Y0073482D01*
X0143830Y0073482D01*
X0146700Y0070612D01*
X0146700Y0066553D01*
X0143830Y0063682D01*
X0139770Y0063682D01*
X0137324Y0066129D02*
X0123350Y0066129D01*
X0123350Y0067727D02*
X0136900Y0067727D01*
X0136900Y0069326D02*
X0123350Y0069326D01*
X0123350Y0070924D02*
X0137212Y0070924D01*
X0138811Y0072523D02*
X0123350Y0072523D01*
X0123350Y0074121D02*
X0139331Y0074121D01*
X0137733Y0075720D02*
X0123350Y0075720D01*
X0123350Y0077318D02*
X0136900Y0077318D01*
X0136900Y0078917D02*
X0123350Y0078917D01*
X0123350Y0080515D02*
X0136900Y0080515D01*
X0138402Y0082114D02*
X0123153Y0082114D01*
X0121880Y0083712D02*
X0146460Y0083712D01*
X0145198Y0082114D02*
X0148332Y0082114D01*
X0144862Y0085311D02*
X0129751Y0085311D01*
X0128623Y0084182D02*
X0131200Y0086760D01*
X0131200Y0088582D01*
X0126800Y0088582D01*
X0126800Y0084182D01*
X0126800Y0088582D01*
X0126800Y0088582D01*
X0126800Y0088582D01*
X0122400Y0088582D01*
X0122400Y0086760D01*
X0124977Y0084182D01*
X0126800Y0084182D01*
X0128623Y0084182D01*
X0126800Y0085311D02*
X0126800Y0085311D01*
X0126800Y0086909D02*
X0126800Y0086909D01*
X0126800Y0088508D02*
X0126800Y0088508D01*
X0126800Y0088582D02*
X0126800Y0088582D01*
X0122400Y0088582D01*
X0122400Y0090405D01*
X0124977Y0092982D01*
X0126800Y0092982D01*
X0126800Y0088583D01*
X0126800Y0088583D01*
X0126800Y0092982D01*
X0128623Y0092982D01*
X0131200Y0090405D01*
X0131200Y0088582D01*
X0126800Y0088582D01*
X0126800Y0090106D02*
X0126800Y0090106D01*
X0126800Y0091705D02*
X0126800Y0091705D01*
X0129900Y0091705D02*
X0139029Y0091705D01*
X0139000Y0093303D02*
X0112289Y0093303D01*
X0113887Y0091705D02*
X0123700Y0091705D01*
X0122400Y0090106D02*
X0115486Y0090106D01*
X0117084Y0088508D02*
X0122400Y0088508D01*
X0122400Y0086909D02*
X0118683Y0086909D01*
X0120281Y0085311D02*
X0123849Y0085311D01*
X0117157Y0080515D02*
X0116700Y0080515D01*
X0116700Y0080612D02*
X0113830Y0083482D01*
X0109770Y0083482D01*
X0106900Y0080612D01*
X0106900Y0076553D01*
X0109770Y0073682D01*
X0113830Y0073682D01*
X0116700Y0076553D01*
X0116700Y0080612D01*
X0116700Y0078917D02*
X0117750Y0078917D01*
X0117750Y0077318D02*
X0116700Y0077318D01*
X0115867Y0075720D02*
X0117750Y0075720D01*
X0117750Y0074121D02*
X0114269Y0074121D01*
X0113830Y0073482D02*
X0109770Y0073482D01*
X0106900Y0070612D01*
X0106900Y0066553D01*
X0109770Y0063682D01*
X0113830Y0063682D01*
X0116700Y0066553D01*
X0116700Y0070612D01*
X0113830Y0073482D01*
X0114789Y0072523D02*
X0117750Y0072523D01*
X0117750Y0070924D02*
X0116388Y0070924D01*
X0116700Y0069326D02*
X0117750Y0069326D01*
X0117750Y0067727D02*
X0116700Y0067727D01*
X0116276Y0066129D02*
X0117750Y0066129D01*
X0117750Y0064530D02*
X0114678Y0064530D01*
X0114380Y0062932D02*
X0117750Y0062932D01*
X0117750Y0061333D02*
X0115979Y0061333D01*
X0116700Y0059735D02*
X0117750Y0059735D01*
X0117750Y0058136D02*
X0116700Y0058136D01*
X0116685Y0056538D02*
X0117046Y0056538D01*
X0115447Y0054939D02*
X0115086Y0054939D01*
X0109220Y0062932D02*
X0108910Y0062932D01*
X0108922Y0064530D02*
X0107312Y0064530D01*
X0107324Y0066129D02*
X0105713Y0066129D01*
X0106900Y0067727D02*
X0104115Y0067727D01*
X0102516Y0069326D02*
X0106900Y0069326D01*
X0107212Y0070924D02*
X0100918Y0070924D01*
X0099319Y0072523D02*
X0108811Y0072523D01*
X0109331Y0074121D02*
X0097721Y0074121D01*
X0096122Y0075720D02*
X0107733Y0075720D01*
X0106900Y0077318D02*
X0094524Y0077318D01*
X0092925Y0078917D02*
X0106900Y0078917D01*
X0106900Y0080515D02*
X0091327Y0080515D01*
X0089728Y0082114D02*
X0108402Y0082114D01*
X0112362Y0085311D02*
X0086531Y0085311D01*
X0084933Y0086909D02*
X0110763Y0086909D01*
X0109165Y0088508D02*
X0083334Y0088508D01*
X0081736Y0090106D02*
X0107566Y0090106D01*
X0105968Y0091705D02*
X0080137Y0091705D01*
X0078539Y0093303D02*
X0104369Y0093303D01*
X0102771Y0094902D02*
X0076940Y0094902D01*
X0075342Y0096501D02*
X0101172Y0096501D01*
X0099574Y0098099D02*
X0037114Y0098099D01*
X0031486Y0098099D02*
X0027776Y0098099D01*
X0026178Y0096501D02*
X0030337Y0096501D01*
X0030000Y0094902D02*
X0024579Y0094902D01*
X0025576Y0093303D02*
X0022981Y0093303D01*
X0022100Y0091705D02*
X0023977Y0091705D01*
X0023002Y0090106D02*
X0022100Y0090106D01*
X0022100Y0088508D02*
X0023002Y0088508D01*
X0023002Y0086909D02*
X0021587Y0086909D01*
X0021700Y0085311D02*
X0024362Y0085311D01*
X0026080Y0083100D02*
X0023502Y0080523D01*
X0023502Y0078701D01*
X0027902Y0078701D01*
X0027902Y0083100D01*
X0026080Y0083100D01*
X0025093Y0082114D02*
X0021700Y0082114D01*
X0021700Y0083712D02*
X0080210Y0083712D01*
X0081809Y0082114D02*
X0030711Y0082114D01*
X0029725Y0083100D02*
X0027902Y0083100D01*
X0027902Y0078701D01*
X0027902Y0078701D01*
X0027902Y0078700D01*
X0027902Y0074301D01*
X0029725Y0074301D01*
X0032302Y0076878D01*
X0032302Y0078700D01*
X0027902Y0078700D01*
X0027902Y0078701D01*
X0032302Y0078701D01*
X0032302Y0080523D01*
X0029725Y0083100D01*
X0027902Y0082114D02*
X0027902Y0082114D01*
X0027902Y0080515D02*
X0027902Y0080515D01*
X0027902Y0078917D02*
X0027902Y0078917D01*
X0027902Y0077318D02*
X0027902Y0077318D01*
X0027902Y0075720D02*
X0027902Y0075720D01*
X0031144Y0075720D02*
X0088203Y0075720D01*
X0086604Y0077318D02*
X0032302Y0077318D01*
X0032302Y0078917D02*
X0085006Y0078917D01*
X0083407Y0080515D02*
X0032302Y0080515D01*
X0031442Y0085311D02*
X0078612Y0085311D01*
X0077013Y0086909D02*
X0032802Y0086909D01*
X0032802Y0088508D02*
X0075415Y0088508D01*
X0073816Y0090106D02*
X0032802Y0090106D01*
X0030279Y0093303D02*
X0030229Y0093303D01*
X0030854Y0099698D02*
X0029375Y0099698D01*
X0037254Y0091705D02*
X0072218Y0091705D01*
X0088130Y0083712D02*
X0113960Y0083712D01*
X0115198Y0082114D02*
X0115559Y0082114D01*
X0131200Y0086909D02*
X0143263Y0086909D01*
X0141665Y0088508D02*
X0131200Y0088508D01*
X0131200Y0090106D02*
X0140066Y0090106D01*
X0144789Y0093303D02*
X0146401Y0093303D01*
X0146318Y0093558D02*
X0146552Y0092840D01*
X0146895Y0092167D01*
X0147339Y0091555D01*
X0147873Y0091021D01*
X0148484Y0090577D01*
X0149157Y0090234D01*
X0149876Y0090001D01*
X0150622Y0089882D01*
X0153800Y0089882D01*
X0153800Y0094482D01*
X0154200Y0094482D01*
X0154200Y0089882D01*
X0157378Y0089882D01*
X0158124Y0090001D01*
X0158843Y0090234D01*
X0159516Y0090577D01*
X0160127Y0091021D01*
X0160661Y0091555D01*
X0161105Y0092167D01*
X0161448Y0092840D01*
X0161682Y0093558D01*
X0161800Y0094305D01*
X0161800Y0094482D01*
X0154200Y0094482D01*
X0154200Y0094882D01*
X0161800Y0094882D01*
X0161800Y0095060D01*
X0161682Y0095806D01*
X0161448Y0096525D01*
X0161105Y0097198D01*
X0160661Y0097809D01*
X0160127Y0098344D01*
X0159516Y0098788D01*
X0158843Y0099131D01*
X0158124Y0099364D01*
X0157378Y0099482D01*
X0154200Y0099482D01*
X0154200Y0094882D01*
X0153800Y0094882D01*
X0153800Y0094482D01*
X0146200Y0094482D01*
X0146200Y0094305D01*
X0146318Y0093558D01*
X0146200Y0094882D02*
X0153800Y0094882D01*
X0153800Y0099482D01*
X0150622Y0099482D01*
X0149876Y0099364D01*
X0149157Y0099131D01*
X0148484Y0098788D01*
X0147873Y0098344D01*
X0147339Y0097809D01*
X0146895Y0097198D01*
X0146552Y0096525D01*
X0146318Y0095806D01*
X0146200Y0095060D01*
X0146200Y0094882D01*
X0146200Y0094902D02*
X0144600Y0094902D01*
X0144600Y0096501D02*
X0146544Y0096501D01*
X0147628Y0098099D02*
X0144600Y0098099D01*
X0144600Y0099698D02*
X0159225Y0099698D01*
X0160372Y0098099D02*
X0160824Y0098099D01*
X0161456Y0096501D02*
X0162422Y0096501D01*
X0162750Y0094902D02*
X0161800Y0094902D01*
X0161599Y0093303D02*
X0162750Y0093303D01*
X0162750Y0091705D02*
X0160770Y0091705D01*
X0162750Y0090106D02*
X0158450Y0090106D01*
X0154200Y0090106D02*
X0153800Y0090106D01*
X0153800Y0091705D02*
X0154200Y0091705D01*
X0154200Y0093303D02*
X0153800Y0093303D01*
X0153800Y0094902D02*
X0154200Y0094902D01*
X0154200Y0096501D02*
X0153800Y0096501D01*
X0153800Y0098099D02*
X0154200Y0098099D01*
X0157627Y0101296D02*
X0144600Y0101296D01*
X0144600Y0102895D02*
X0156028Y0102895D01*
X0154430Y0104493D02*
X0144600Y0104493D01*
X0144600Y0106092D02*
X0153033Y0106092D01*
X0148720Y0107690D02*
X0144600Y0107690D01*
X0144600Y0109289D02*
X0146698Y0109289D01*
X0145924Y0110887D02*
X0144600Y0110887D01*
X0144600Y0112486D02*
X0145700Y0112486D01*
X0145927Y0114084D02*
X0144600Y0114084D01*
X0144600Y0115683D02*
X0146705Y0115683D01*
X0148736Y0117281D02*
X0144600Y0117281D01*
X0144600Y0118880D02*
X0166887Y0118880D01*
X0165516Y0117281D02*
X0159264Y0117281D01*
X0161295Y0115683D02*
X0165250Y0115683D01*
X0165250Y0114084D02*
X0162073Y0114084D01*
X0162300Y0112486D02*
X0165250Y0112486D01*
X0165250Y0110887D02*
X0162076Y0110887D01*
X0161302Y0109289D02*
X0165250Y0109289D01*
X0165250Y0107690D02*
X0159280Y0107690D01*
X0160751Y0106092D02*
X0165250Y0106092D01*
X0165250Y0104493D02*
X0162349Y0104493D01*
X0163948Y0102895D02*
X0165250Y0102895D01*
X0170850Y0102895D02*
X0189049Y0102895D01*
X0189000Y0103205D02*
X0189118Y0102458D01*
X0189352Y0101740D01*
X0189695Y0101067D01*
X0190139Y0100455D01*
X0190673Y0099921D01*
X0191284Y0099477D01*
X0191957Y0099134D01*
X0192676Y0098901D01*
X0192791Y0098882D01*
X0192746Y0098882D01*
X0190798Y0098076D01*
X0189307Y0096585D01*
X0188500Y0094637D01*
X0188500Y0092528D01*
X0189307Y0090580D01*
X0190798Y0089089D01*
X0192022Y0088582D01*
X0190798Y0088076D01*
X0189307Y0086585D01*
X0189223Y0086382D01*
X0189210Y0086382D01*
X0187136Y0088456D01*
X0186107Y0088882D01*
X0175460Y0088882D01*
X0170850Y0093492D01*
X0170850Y0114923D01*
X0194000Y0138073D01*
X0194000Y0128882D01*
X0192746Y0128882D01*
X0190798Y0128076D01*
X0189307Y0126585D01*
X0188500Y0124637D01*
X0188500Y0122528D01*
X0189307Y0120580D01*
X0190798Y0119089D01*
X0192022Y0118582D01*
X0190798Y0118076D01*
X0189307Y0116585D01*
X0188500Y0114637D01*
X0188500Y0112528D01*
X0189307Y0110580D01*
X0190798Y0109089D01*
X0192746Y0108282D01*
X0192791Y0108282D01*
X0192676Y0108264D01*
X0191957Y0108031D01*
X0191284Y0107688D01*
X0190673Y0107244D01*
X0190139Y0106709D01*
X0189695Y0106098D01*
X0189352Y0105425D01*
X0189118Y0104706D01*
X0189000Y0103960D01*
X0189000Y0103782D01*
X0196600Y0103782D01*
X0196600Y0103382D01*
X0189000Y0103382D01*
X0189000Y0103205D01*
X0189084Y0104493D02*
X0170850Y0104493D01*
X0170850Y0106092D02*
X0189691Y0106092D01*
X0191289Y0107690D02*
X0184880Y0107690D01*
X0185602Y0107989D02*
X0187093Y0109480D01*
X0187900Y0111428D01*
X0187900Y0113537D01*
X0187093Y0115485D01*
X0185602Y0116976D01*
X0183654Y0117782D01*
X0175546Y0117782D01*
X0173598Y0116976D01*
X0172107Y0115485D01*
X0171300Y0113537D01*
X0171300Y0111428D01*
X0172107Y0109480D01*
X0173598Y0107989D01*
X0175546Y0107182D01*
X0183654Y0107182D01*
X0185602Y0107989D01*
X0186902Y0109289D02*
X0190598Y0109289D01*
X0189180Y0110887D02*
X0187676Y0110887D01*
X0187900Y0112486D02*
X0188518Y0112486D01*
X0188500Y0114084D02*
X0187673Y0114084D01*
X0186895Y0115683D02*
X0188933Y0115683D01*
X0190003Y0117281D02*
X0184864Y0117281D01*
X0189409Y0120478D02*
X0176406Y0120478D01*
X0178004Y0122077D02*
X0188687Y0122077D01*
X0188500Y0123675D02*
X0179603Y0123675D01*
X0181201Y0125274D02*
X0188764Y0125274D01*
X0189595Y0126872D02*
X0182800Y0126872D01*
X0184398Y0128471D02*
X0191752Y0128471D01*
X0194000Y0130069D02*
X0185997Y0130069D01*
X0187595Y0131668D02*
X0194000Y0131668D01*
X0194000Y0133266D02*
X0189194Y0133266D01*
X0190792Y0134865D02*
X0194000Y0134865D01*
X0194000Y0136463D02*
X0192391Y0136463D01*
X0193989Y0138062D02*
X0194000Y0138062D01*
X0189267Y0141259D02*
X0188595Y0141259D01*
X0189068Y0142857D02*
X0190250Y0142857D01*
X0190250Y0144456D02*
X0189068Y0144456D01*
X0189068Y0146054D02*
X0190250Y0146054D01*
X0190250Y0147653D02*
X0189068Y0147653D01*
X0189068Y0149251D02*
X0190250Y0149251D01*
X0190250Y0150850D02*
X0188928Y0150850D01*
X0188974Y0152448D02*
X0188266Y0152448D01*
X0187376Y0154047D02*
X0186536Y0154047D01*
X0185777Y0155645D02*
X0132823Y0155645D01*
X0133391Y0154256D02*
X0132644Y0154138D01*
X0131926Y0153905D01*
X0131253Y0153562D01*
X0130642Y0153118D01*
X0130107Y0152583D01*
X0129663Y0151972D01*
X0129320Y0151299D01*
X0129087Y0150580D01*
X0128969Y0149834D01*
X0128968Y0146656D01*
X0133568Y0146656D01*
X0133568Y0154256D01*
X0133391Y0154256D01*
X0133568Y0154047D02*
X0133969Y0154047D01*
X0135173Y0154047D02*
X0141001Y0154047D01*
X0139271Y0152448D02*
X0137528Y0152448D01*
X0138363Y0150850D02*
X0138609Y0150850D01*
X0133969Y0150850D02*
X0133568Y0150850D01*
X0133568Y0152448D02*
X0133969Y0152448D01*
X0132364Y0154047D02*
X0131224Y0154047D01*
X0130009Y0152448D02*
X0129626Y0152448D01*
X0129174Y0150850D02*
X0128027Y0150850D01*
X0128969Y0149251D02*
X0126429Y0149251D01*
X0124830Y0147653D02*
X0128969Y0147653D01*
X0128969Y0146256D02*
X0128969Y0143079D01*
X0129087Y0142332D01*
X0129320Y0141614D01*
X0129663Y0140941D01*
X0130107Y0140329D01*
X0130642Y0139795D01*
X0131253Y0139351D01*
X0131926Y0139008D01*
X0132644Y0138775D01*
X0133391Y0138656D01*
X0133568Y0138656D01*
X0133568Y0146256D01*
X0128969Y0146256D01*
X0128969Y0146054D02*
X0123232Y0146054D01*
X0121633Y0144456D02*
X0128969Y0144456D01*
X0129004Y0142857D02*
X0120035Y0142857D01*
X0118436Y0141259D02*
X0129501Y0141259D01*
X0130827Y0139660D02*
X0116838Y0139660D01*
X0115850Y0138062D02*
X0139000Y0138062D01*
X0139000Y0139660D02*
X0136710Y0139660D01*
X0138036Y0141259D02*
X0138942Y0141259D01*
X0139000Y0136463D02*
X0115850Y0136463D01*
X0115850Y0134865D02*
X0139000Y0134865D01*
X0139000Y0133266D02*
X0115850Y0133266D01*
X0115850Y0131668D02*
X0139000Y0131668D01*
X0139000Y0130069D02*
X0115850Y0130069D01*
X0115850Y0128471D02*
X0139000Y0128471D01*
X0139000Y0126872D02*
X0115850Y0126872D01*
X0115850Y0125274D02*
X0139000Y0125274D01*
X0139000Y0123675D02*
X0115850Y0123675D01*
X0115850Y0122077D02*
X0123365Y0122077D01*
X0124770Y0123482D02*
X0121900Y0120612D01*
X0121900Y0116553D01*
X0124770Y0113682D01*
X0128830Y0113682D01*
X0131700Y0116553D01*
X0131700Y0120612D01*
X0128830Y0123482D01*
X0124770Y0123482D01*
X0121900Y0120478D02*
X0116919Y0120478D01*
X0117350Y0118880D02*
X0121900Y0118880D01*
X0121900Y0117281D02*
X0117165Y0117281D01*
X0116231Y0115683D02*
X0122770Y0115683D01*
X0124369Y0114084D02*
X0101129Y0114084D01*
X0102123Y0112486D02*
X0139000Y0112486D01*
X0139000Y0114084D02*
X0129231Y0114084D01*
X0130830Y0115683D02*
X0139000Y0115683D01*
X0139000Y0117281D02*
X0131700Y0117281D01*
X0131700Y0118880D02*
X0139000Y0118880D01*
X0139000Y0120478D02*
X0131700Y0120478D01*
X0130235Y0122077D02*
X0139000Y0122077D01*
X0144600Y0122077D02*
X0170085Y0122077D01*
X0171683Y0123675D02*
X0144600Y0123675D01*
X0144600Y0125274D02*
X0173282Y0125274D01*
X0174880Y0126872D02*
X0144600Y0126872D01*
X0144600Y0128471D02*
X0176479Y0128471D01*
X0178077Y0130069D02*
X0144600Y0130069D01*
X0144600Y0131668D02*
X0179676Y0131668D01*
X0181274Y0133266D02*
X0144600Y0133266D01*
X0144600Y0134865D02*
X0182873Y0134865D01*
X0184471Y0136463D02*
X0144600Y0136463D01*
X0144600Y0138062D02*
X0186070Y0138062D01*
X0187468Y0139660D02*
X0187668Y0139660D01*
X0180069Y0139660D02*
X0177468Y0139660D01*
X0178595Y0141259D02*
X0178942Y0141259D01*
X0170069Y0139660D02*
X0167468Y0139660D01*
X0168595Y0141259D02*
X0168942Y0141259D01*
X0160069Y0139660D02*
X0157468Y0139660D01*
X0158595Y0141259D02*
X0158942Y0141259D01*
X0150069Y0139660D02*
X0147468Y0139660D01*
X0148595Y0141259D02*
X0148942Y0141259D01*
X0149271Y0152448D02*
X0148266Y0152448D01*
X0146536Y0154047D02*
X0151001Y0154047D01*
X0156536Y0154047D02*
X0161001Y0154047D01*
X0159271Y0152448D02*
X0158266Y0152448D01*
X0166536Y0154047D02*
X0171001Y0154047D01*
X0169271Y0152448D02*
X0168266Y0152448D01*
X0176536Y0154047D02*
X0181001Y0154047D01*
X0179271Y0152448D02*
X0178266Y0152448D01*
X0188607Y0163882D02*
X0127493Y0163882D01*
X0126464Y0163456D01*
X0108140Y0145132D01*
X0045460Y0145132D01*
X0045310Y0145282D01*
X0107131Y0145282D01*
X0107600Y0145751D01*
X0107600Y0172483D01*
X0206921Y0172483D01*
X0206921Y0013382D01*
X0151348Y0013382D01*
X0152136Y0013709D01*
X0164636Y0026209D01*
X0165424Y0026996D01*
X0165850Y0028025D01*
X0165850Y0034923D01*
X0172960Y0042032D01*
X0193607Y0042032D01*
X0194636Y0042459D01*
X0197136Y0044959D01*
X0197924Y0045746D01*
X0198350Y0046775D01*
X0198350Y0048282D01*
X0200854Y0048282D01*
X0202802Y0049089D01*
X0204293Y0050580D01*
X0205100Y0052528D01*
X0205100Y0054637D01*
X0204293Y0056585D01*
X0202802Y0058076D01*
X0201578Y0058582D01*
X0202802Y0059089D01*
X0204293Y0060580D01*
X0205100Y0062528D01*
X0205100Y0064637D01*
X0204293Y0066585D01*
X0202802Y0068076D01*
X0201578Y0068582D01*
X0202802Y0069089D01*
X0204293Y0070580D01*
X0205100Y0072528D01*
X0205100Y0074637D01*
X0204293Y0076585D01*
X0202802Y0078076D01*
X0201578Y0078582D01*
X0202802Y0079089D01*
X0204293Y0080580D01*
X0205100Y0082528D01*
X0205100Y0084637D01*
X0204293Y0086585D01*
X0202802Y0088076D01*
X0201578Y0088582D01*
X0202802Y0089089D01*
X0204293Y0090580D01*
X0205100Y0092528D01*
X0205100Y0094637D01*
X0204293Y0096585D01*
X0202802Y0098076D01*
X0200854Y0098882D01*
X0200809Y0098882D01*
X0200924Y0098901D01*
X0201643Y0099134D01*
X0202316Y0099477D01*
X0202927Y0099921D01*
X0203461Y0100455D01*
X0203905Y0101067D01*
X0204248Y0101740D01*
X0204482Y0102458D01*
X0204600Y0103205D01*
X0204600Y0103382D01*
X0197000Y0103382D01*
X0197000Y0103782D01*
X0204600Y0103782D01*
X0204600Y0103960D01*
X0204482Y0104706D01*
X0204248Y0105425D01*
X0203905Y0106098D01*
X0203461Y0106709D01*
X0202927Y0107244D01*
X0202316Y0107688D01*
X0201643Y0108031D01*
X0200924Y0108264D01*
X0200809Y0108282D01*
X0200854Y0108282D01*
X0202802Y0109089D01*
X0204293Y0110580D01*
X0205100Y0112528D01*
X0205100Y0114637D01*
X0204293Y0116585D01*
X0202802Y0118076D01*
X0201578Y0118582D01*
X0202802Y0119089D01*
X0204293Y0120580D01*
X0205100Y0122528D01*
X0205100Y0124637D01*
X0204293Y0126585D01*
X0202802Y0128076D01*
X0200854Y0128882D01*
X0199600Y0128882D01*
X0199600Y0152889D01*
X0199174Y0153918D01*
X0190424Y0162668D01*
X0189636Y0163456D01*
X0188607Y0163882D01*
X0189197Y0163638D02*
X0206921Y0163638D01*
X0206921Y0165237D02*
X0107600Y0165237D01*
X0107600Y0166835D02*
X0206921Y0166835D01*
X0206921Y0168434D02*
X0107600Y0168434D01*
X0107600Y0170032D02*
X0206921Y0170032D01*
X0206921Y0171631D02*
X0107600Y0171631D01*
X0107600Y0163638D02*
X0126903Y0163638D01*
X0125047Y0162039D02*
X0107600Y0162039D01*
X0107600Y0160441D02*
X0123449Y0160441D01*
X0121850Y0158842D02*
X0107600Y0158842D01*
X0107600Y0157244D02*
X0120252Y0157244D01*
X0118653Y0155645D02*
X0107600Y0155645D01*
X0107600Y0154047D02*
X0117055Y0154047D01*
X0115456Y0152448D02*
X0107600Y0152448D01*
X0107600Y0150850D02*
X0113858Y0150850D01*
X0112259Y0149251D02*
X0107600Y0149251D01*
X0107600Y0147653D02*
X0110661Y0147653D01*
X0109062Y0146054D02*
X0107600Y0146054D01*
X0110166Y0139660D02*
X0110250Y0139660D01*
X0110250Y0138062D02*
X0047530Y0138062D01*
X0049129Y0136463D02*
X0110250Y0136463D01*
X0110250Y0134865D02*
X0050727Y0134865D01*
X0052326Y0133266D02*
X0110250Y0133266D01*
X0110250Y0131668D02*
X0053924Y0131668D01*
X0055523Y0130069D02*
X0110250Y0130069D01*
X0110250Y0128471D02*
X0057121Y0128471D01*
X0058720Y0126872D02*
X0110250Y0126872D01*
X0110250Y0125274D02*
X0060318Y0125274D01*
X0061917Y0123675D02*
X0110250Y0123675D01*
X0110250Y0122077D02*
X0063515Y0122077D01*
X0065114Y0120478D02*
X0109181Y0120478D01*
X0108750Y0118880D02*
X0066713Y0118880D01*
X0068311Y0117281D02*
X0108935Y0117281D01*
X0109869Y0115683D02*
X0069910Y0115683D01*
X0071508Y0114084D02*
X0094971Y0114084D01*
X0102350Y0110887D02*
X0139000Y0110887D01*
X0139000Y0109289D02*
X0101961Y0109289D01*
X0102698Y0102895D02*
X0139000Y0102895D01*
X0139000Y0101296D02*
X0104296Y0101296D01*
X0105895Y0099698D02*
X0139000Y0099698D01*
X0139000Y0098099D02*
X0107493Y0098099D01*
X0109092Y0096501D02*
X0139000Y0096501D01*
X0139000Y0094902D02*
X0110690Y0094902D01*
X0144269Y0074121D02*
X0146866Y0074121D01*
X0145993Y0075720D02*
X0145867Y0075720D01*
X0144789Y0072523D02*
X0149124Y0072523D01*
X0146388Y0070924D02*
X0166748Y0070924D01*
X0168347Y0069326D02*
X0146700Y0069326D01*
X0146700Y0067727D02*
X0169945Y0067727D01*
X0171657Y0066129D02*
X0146276Y0066129D01*
X0144678Y0064530D02*
X0185642Y0064530D01*
X0185116Y0063788D02*
X0184443Y0064131D01*
X0183724Y0064364D01*
X0182978Y0064482D01*
X0179800Y0064482D01*
X0179800Y0059882D01*
X0187400Y0059882D01*
X0187400Y0060060D01*
X0187282Y0060806D01*
X0187048Y0061525D01*
X0186705Y0062198D01*
X0186261Y0062809D01*
X0185727Y0063344D01*
X0185116Y0063788D01*
X0186139Y0062932D02*
X0187241Y0062932D01*
X0187111Y0061333D02*
X0188839Y0061333D01*
X0190152Y0059735D02*
X0179800Y0059735D01*
X0179800Y0059882D02*
X0179800Y0059482D01*
X0179800Y0054882D01*
X0182978Y0054882D01*
X0183724Y0055001D01*
X0184443Y0055234D01*
X0185116Y0055577D01*
X0185727Y0056021D01*
X0186261Y0056555D01*
X0186705Y0057167D01*
X0187048Y0057840D01*
X0187282Y0058558D01*
X0187400Y0059305D01*
X0187400Y0059482D01*
X0179800Y0059482D01*
X0179400Y0059482D01*
X0179400Y0054882D01*
X0176222Y0054882D01*
X0175476Y0055001D01*
X0174757Y0055234D01*
X0174084Y0055577D01*
X0173473Y0056021D01*
X0172939Y0056555D01*
X0172495Y0057167D01*
X0172152Y0057840D01*
X0171918Y0058558D01*
X0171800Y0059305D01*
X0171800Y0059482D01*
X0179400Y0059482D01*
X0179400Y0059882D01*
X0171800Y0059882D01*
X0171800Y0060060D01*
X0171918Y0060806D01*
X0172152Y0061525D01*
X0172495Y0062198D01*
X0172939Y0062809D01*
X0173473Y0063344D01*
X0174084Y0063788D01*
X0174757Y0064131D01*
X0175476Y0064364D01*
X0176222Y0064482D01*
X0179400Y0064482D01*
X0179400Y0059882D01*
X0179800Y0059882D01*
X0179400Y0059735D02*
X0154200Y0059735D01*
X0154200Y0061333D02*
X0153800Y0061333D01*
X0153800Y0062932D02*
X0154200Y0062932D01*
X0154200Y0058136D02*
X0153800Y0058136D01*
X0153800Y0056538D02*
X0154200Y0056538D01*
X0154200Y0054939D02*
X0153800Y0054939D01*
X0150263Y0054939D02*
X0145086Y0054939D01*
X0143830Y0053482D02*
X0139770Y0053482D01*
X0136900Y0050612D01*
X0136900Y0046553D01*
X0139770Y0043682D01*
X0143830Y0043682D01*
X0146700Y0046553D01*
X0146700Y0050612D01*
X0143830Y0053482D01*
X0143971Y0053341D02*
X0188500Y0053341D01*
X0188625Y0054939D02*
X0183337Y0054939D01*
X0179800Y0054939D02*
X0179400Y0054939D01*
X0179400Y0056538D02*
X0179800Y0056538D01*
X0179800Y0058136D02*
X0179400Y0058136D01*
X0179400Y0061333D02*
X0179800Y0061333D01*
X0179800Y0062932D02*
X0179400Y0062932D01*
X0173061Y0062932D02*
X0160539Y0062932D01*
X0161511Y0061333D02*
X0172089Y0061333D01*
X0172055Y0058136D02*
X0161545Y0058136D01*
X0160644Y0056538D02*
X0172956Y0056538D01*
X0175863Y0054939D02*
X0157737Y0054939D01*
X0147356Y0056538D02*
X0146685Y0056538D01*
X0146489Y0061333D02*
X0145979Y0061333D01*
X0147461Y0062932D02*
X0144380Y0062932D01*
X0139629Y0053341D02*
X0139268Y0053341D01*
X0138030Y0051742D02*
X0137670Y0051742D01*
X0136900Y0050144D02*
X0136071Y0050144D01*
X0135850Y0048545D02*
X0136900Y0048545D01*
X0136900Y0046947D02*
X0136146Y0046947D01*
X0137744Y0045348D02*
X0138105Y0045348D01*
X0139343Y0043750D02*
X0139703Y0043750D01*
X0140941Y0042151D02*
X0165159Y0042151D01*
X0163560Y0040553D02*
X0142540Y0040553D01*
X0144138Y0038954D02*
X0161962Y0038954D01*
X0160547Y0037356D02*
X0149956Y0037356D01*
X0151555Y0035757D02*
X0160250Y0035757D01*
X0160250Y0034159D02*
X0151700Y0034159D01*
X0151700Y0032560D02*
X0160250Y0032560D01*
X0160250Y0030962D02*
X0151109Y0030962D01*
X0149510Y0029363D02*
X0159871Y0029363D01*
X0158272Y0027765D02*
X0148840Y0027765D01*
X0148623Y0027982D02*
X0146800Y0027982D01*
X0144977Y0027982D01*
X0142400Y0025405D01*
X0142400Y0023582D01*
X0142400Y0021760D01*
X0144977Y0019182D01*
X0146800Y0019182D01*
X0146800Y0023582D01*
X0146800Y0019182D01*
X0148623Y0019182D01*
X0151200Y0021760D01*
X0151200Y0023582D01*
X0146800Y0023582D01*
X0146800Y0023582D01*
X0146800Y0023582D01*
X0142400Y0023582D01*
X0146800Y0023582D01*
X0146800Y0023582D01*
X0151200Y0023582D01*
X0151200Y0025405D01*
X0148623Y0027982D01*
X0146800Y0027982D02*
X0146800Y0023583D01*
X0146800Y0027982D01*
X0146800Y0027765D02*
X0146800Y0027765D01*
X0146800Y0026166D02*
X0146800Y0026166D01*
X0146800Y0024568D02*
X0146800Y0024568D01*
X0146800Y0023583D02*
X0146800Y0023583D01*
X0146800Y0022969D02*
X0146800Y0022969D01*
X0146800Y0021370D02*
X0146800Y0021370D01*
X0146800Y0019772D02*
X0146800Y0019772D01*
X0149212Y0019772D02*
X0150280Y0019772D01*
X0150811Y0021370D02*
X0151878Y0021370D01*
X0151200Y0022969D02*
X0153477Y0022969D01*
X0155075Y0024568D02*
X0151200Y0024568D01*
X0150439Y0026166D02*
X0156674Y0026166D01*
X0161396Y0022969D02*
X0167400Y0022969D01*
X0167400Y0023582D02*
X0167400Y0021760D01*
X0169977Y0019182D01*
X0171800Y0019182D01*
X0171800Y0023582D01*
X0171800Y0019182D01*
X0173623Y0019182D01*
X0176200Y0021760D01*
X0176200Y0023582D01*
X0171800Y0023582D01*
X0171800Y0023582D01*
X0171800Y0023582D01*
X0167400Y0023582D01*
X0171800Y0023582D01*
X0171800Y0023582D01*
X0176200Y0023582D01*
X0176200Y0025405D01*
X0173623Y0027982D01*
X0171800Y0027982D01*
X0169977Y0027982D01*
X0167400Y0025405D01*
X0167400Y0023582D01*
X0167400Y0024568D02*
X0162995Y0024568D01*
X0164593Y0026166D02*
X0168161Y0026166D01*
X0169760Y0027765D02*
X0165742Y0027765D01*
X0165850Y0029363D02*
X0169090Y0029363D01*
X0169770Y0028682D02*
X0173830Y0028682D01*
X0176700Y0031553D01*
X0176700Y0035612D01*
X0173830Y0038482D01*
X0169770Y0038482D01*
X0166900Y0035612D01*
X0166900Y0031553D01*
X0169770Y0028682D01*
X0171800Y0027982D02*
X0171800Y0023583D01*
X0171800Y0023583D01*
X0171800Y0027982D01*
X0171800Y0027765D02*
X0171800Y0027765D01*
X0171800Y0026166D02*
X0171800Y0026166D01*
X0171800Y0024568D02*
X0171800Y0024568D01*
X0171800Y0022969D02*
X0171800Y0022969D01*
X0171800Y0021370D02*
X0171800Y0021370D01*
X0171800Y0019772D02*
X0171800Y0019772D01*
X0174212Y0019772D02*
X0194388Y0019772D01*
X0194977Y0019182D02*
X0192400Y0021760D01*
X0192400Y0023582D01*
X0196800Y0023582D01*
X0196800Y0019182D01*
X0196800Y0023582D01*
X0196800Y0023582D01*
X0196800Y0023582D01*
X0201200Y0023582D01*
X0201200Y0021760D01*
X0198623Y0019182D01*
X0196800Y0019182D01*
X0194977Y0019182D01*
X0196800Y0019772D02*
X0196800Y0019772D01*
X0196800Y0021370D02*
X0196800Y0021370D01*
X0196800Y0022969D02*
X0196800Y0022969D01*
X0196800Y0023582D02*
X0196800Y0023582D01*
X0192400Y0023582D01*
X0192400Y0025405D01*
X0194977Y0027982D01*
X0196800Y0027982D01*
X0196800Y0023583D01*
X0196800Y0023583D01*
X0196800Y0027982D01*
X0198623Y0027982D01*
X0201200Y0025405D01*
X0201200Y0023582D01*
X0196800Y0023582D01*
X0196800Y0024568D02*
X0196800Y0024568D01*
X0196800Y0026166D02*
X0196800Y0026166D01*
X0196800Y0027765D02*
X0196800Y0027765D01*
X0198840Y0027765D02*
X0206921Y0027765D01*
X0206921Y0029363D02*
X0199510Y0029363D01*
X0198830Y0028682D02*
X0201700Y0031553D01*
X0201700Y0035612D01*
X0198830Y0038482D01*
X0194770Y0038482D01*
X0191900Y0035612D01*
X0191900Y0031553D01*
X0194770Y0028682D01*
X0198830Y0028682D01*
X0201109Y0030962D02*
X0206921Y0030962D01*
X0206921Y0032560D02*
X0201700Y0032560D01*
X0201700Y0034159D02*
X0206921Y0034159D01*
X0206921Y0035757D02*
X0201555Y0035757D01*
X0199956Y0037356D02*
X0206921Y0037356D01*
X0206921Y0038954D02*
X0169882Y0038954D01*
X0168644Y0037356D02*
X0168283Y0037356D01*
X0167045Y0035757D02*
X0166684Y0035757D01*
X0166900Y0034159D02*
X0165850Y0034159D01*
X0165850Y0032560D02*
X0166900Y0032560D01*
X0167491Y0030962D02*
X0165850Y0030962D01*
X0173840Y0027765D02*
X0194760Y0027765D01*
X0194090Y0029363D02*
X0174510Y0029363D01*
X0176109Y0030962D02*
X0192491Y0030962D01*
X0191900Y0032560D02*
X0176700Y0032560D01*
X0176700Y0034159D02*
X0191900Y0034159D01*
X0192045Y0035757D02*
X0176555Y0035757D01*
X0174956Y0037356D02*
X0193644Y0037356D01*
X0193894Y0042151D02*
X0206921Y0042151D01*
X0206921Y0040553D02*
X0171480Y0040553D01*
X0166757Y0043750D02*
X0143897Y0043750D01*
X0145495Y0045348D02*
X0168356Y0045348D01*
X0169954Y0046947D02*
X0146700Y0046947D01*
X0146700Y0048545D02*
X0192111Y0048545D01*
X0189743Y0050144D02*
X0146700Y0050144D01*
X0145570Y0051742D02*
X0188826Y0051742D01*
X0189287Y0056538D02*
X0186244Y0056538D01*
X0187145Y0058136D02*
X0190944Y0058136D01*
X0202656Y0058136D02*
X0206921Y0058136D01*
X0206921Y0056538D02*
X0204313Y0056538D01*
X0204975Y0054939D02*
X0206921Y0054939D01*
X0206921Y0053341D02*
X0205100Y0053341D01*
X0204774Y0051742D02*
X0206921Y0051742D01*
X0206921Y0050144D02*
X0203857Y0050144D01*
X0201489Y0048545D02*
X0206921Y0048545D01*
X0206921Y0046947D02*
X0198350Y0046947D01*
X0197526Y0045348D02*
X0206921Y0045348D01*
X0206921Y0043750D02*
X0195927Y0043750D01*
X0203448Y0059735D02*
X0206921Y0059735D01*
X0206921Y0061333D02*
X0204605Y0061333D01*
X0205100Y0062932D02*
X0206921Y0062932D01*
X0206921Y0064530D02*
X0205100Y0064530D01*
X0204482Y0066129D02*
X0206921Y0066129D01*
X0206921Y0067727D02*
X0203150Y0067727D01*
X0203039Y0069326D02*
X0206921Y0069326D01*
X0206921Y0070924D02*
X0204436Y0070924D01*
X0205098Y0072523D02*
X0206921Y0072523D01*
X0206921Y0074121D02*
X0205100Y0074121D01*
X0204651Y0075720D02*
X0206921Y0075720D01*
X0206921Y0077318D02*
X0203559Y0077318D01*
X0202386Y0078917D02*
X0206921Y0078917D01*
X0206921Y0080515D02*
X0204228Y0080515D01*
X0204928Y0082114D02*
X0206921Y0082114D01*
X0206921Y0083712D02*
X0205100Y0083712D01*
X0204821Y0085311D02*
X0206921Y0085311D01*
X0206921Y0086909D02*
X0203968Y0086909D01*
X0201758Y0088508D02*
X0206921Y0088508D01*
X0206921Y0090106D02*
X0203819Y0090106D01*
X0204759Y0091705D02*
X0206921Y0091705D01*
X0206921Y0093303D02*
X0205100Y0093303D01*
X0204990Y0094902D02*
X0206921Y0094902D01*
X0206921Y0096501D02*
X0204328Y0096501D01*
X0202745Y0098099D02*
X0206921Y0098099D01*
X0206921Y0099698D02*
X0202619Y0099698D01*
X0204022Y0101296D02*
X0206921Y0101296D01*
X0206921Y0102895D02*
X0204551Y0102895D01*
X0204516Y0104493D02*
X0206921Y0104493D01*
X0206921Y0106092D02*
X0203909Y0106092D01*
X0202311Y0107690D02*
X0206921Y0107690D01*
X0206921Y0109289D02*
X0203002Y0109289D01*
X0204420Y0110887D02*
X0206921Y0110887D01*
X0206921Y0112486D02*
X0205082Y0112486D01*
X0205100Y0114084D02*
X0206921Y0114084D01*
X0206921Y0115683D02*
X0204667Y0115683D01*
X0203597Y0117281D02*
X0206921Y0117281D01*
X0206921Y0118880D02*
X0202296Y0118880D01*
X0204191Y0120478D02*
X0206921Y0120478D01*
X0206921Y0122077D02*
X0204913Y0122077D01*
X0205100Y0123675D02*
X0206921Y0123675D01*
X0206921Y0125274D02*
X0204836Y0125274D01*
X0204005Y0126872D02*
X0206921Y0126872D01*
X0206921Y0128471D02*
X0201848Y0128471D01*
X0199600Y0130069D02*
X0206921Y0130069D01*
X0206921Y0131668D02*
X0199600Y0131668D01*
X0199600Y0133266D02*
X0206921Y0133266D01*
X0206921Y0134865D02*
X0199600Y0134865D01*
X0199600Y0136463D02*
X0206921Y0136463D01*
X0206921Y0138062D02*
X0199600Y0138062D01*
X0199600Y0139660D02*
X0206921Y0139660D01*
X0206921Y0141259D02*
X0199600Y0141259D01*
X0199600Y0142857D02*
X0206921Y0142857D01*
X0206921Y0144456D02*
X0199600Y0144456D01*
X0199600Y0146054D02*
X0206921Y0146054D01*
X0206921Y0147653D02*
X0199600Y0147653D01*
X0199600Y0149251D02*
X0206921Y0149251D01*
X0206921Y0150850D02*
X0199600Y0150850D01*
X0199600Y0152448D02*
X0206921Y0152448D01*
X0206921Y0154047D02*
X0199045Y0154047D01*
X0197447Y0155645D02*
X0206921Y0155645D01*
X0206921Y0157244D02*
X0195848Y0157244D01*
X0194250Y0158842D02*
X0206921Y0158842D01*
X0206921Y0160441D02*
X0192651Y0160441D01*
X0191053Y0162039D02*
X0206921Y0162039D01*
X0168486Y0120478D02*
X0144600Y0120478D01*
X0133969Y0139660D02*
X0133568Y0139660D01*
X0133568Y0141259D02*
X0133969Y0141259D01*
X0133969Y0142857D02*
X0133568Y0142857D01*
X0133568Y0144456D02*
X0133969Y0144456D01*
X0133969Y0146054D02*
X0133568Y0146054D01*
X0133568Y0147653D02*
X0133969Y0147653D01*
X0133969Y0149251D02*
X0133568Y0149251D01*
X0171610Y0115683D02*
X0172305Y0115683D01*
X0171527Y0114084D02*
X0170850Y0114084D01*
X0170850Y0112486D02*
X0171300Y0112486D01*
X0171524Y0110887D02*
X0170850Y0110887D01*
X0170850Y0109289D02*
X0172298Y0109289D01*
X0170850Y0107690D02*
X0174320Y0107690D01*
X0170850Y0101296D02*
X0189578Y0101296D01*
X0190981Y0099698D02*
X0170850Y0099698D01*
X0170850Y0098099D02*
X0173228Y0098099D01*
X0173473Y0098344D02*
X0172939Y0097809D01*
X0172495Y0097198D01*
X0172152Y0096525D01*
X0171918Y0095806D01*
X0171800Y0095060D01*
X0171800Y0094882D01*
X0179400Y0094882D01*
X0179400Y0094482D01*
X0179800Y0094482D01*
X0179800Y0089882D01*
X0182978Y0089882D01*
X0183724Y0090001D01*
X0184443Y0090234D01*
X0185116Y0090577D01*
X0185727Y0091021D01*
X0186261Y0091555D01*
X0186705Y0092167D01*
X0187048Y0092840D01*
X0187282Y0093558D01*
X0187400Y0094305D01*
X0187400Y0094482D01*
X0179800Y0094482D01*
X0179800Y0094882D01*
X0187400Y0094882D01*
X0187400Y0095060D01*
X0187282Y0095806D01*
X0187048Y0096525D01*
X0186705Y0097198D01*
X0186261Y0097809D01*
X0185727Y0098344D01*
X0185116Y0098788D01*
X0184443Y0099131D01*
X0183724Y0099364D01*
X0182978Y0099482D01*
X0179800Y0099482D01*
X0179800Y0094882D01*
X0179400Y0094882D01*
X0179400Y0099482D01*
X0176222Y0099482D01*
X0175476Y0099364D01*
X0174757Y0099131D01*
X0174084Y0098788D01*
X0173473Y0098344D01*
X0172144Y0096501D02*
X0170850Y0096501D01*
X0170850Y0094902D02*
X0171800Y0094902D01*
X0171800Y0094482D02*
X0171800Y0094305D01*
X0171918Y0093558D01*
X0172152Y0092840D01*
X0172495Y0092167D01*
X0172939Y0091555D01*
X0173473Y0091021D01*
X0174084Y0090577D01*
X0174757Y0090234D01*
X0175476Y0090001D01*
X0176222Y0089882D01*
X0179400Y0089882D01*
X0179400Y0094482D01*
X0171800Y0094482D01*
X0172001Y0093303D02*
X0171039Y0093303D01*
X0172637Y0091705D02*
X0172830Y0091705D01*
X0174236Y0090106D02*
X0175150Y0090106D01*
X0179400Y0090106D02*
X0179800Y0090106D01*
X0179800Y0091705D02*
X0179400Y0091705D01*
X0179400Y0093303D02*
X0179800Y0093303D01*
X0179800Y0094902D02*
X0179400Y0094902D01*
X0179400Y0096501D02*
X0179800Y0096501D01*
X0179800Y0098099D02*
X0179400Y0098099D01*
X0185972Y0098099D02*
X0190855Y0098099D01*
X0189272Y0096501D02*
X0187056Y0096501D01*
X0187400Y0094902D02*
X0188610Y0094902D01*
X0188500Y0093303D02*
X0187199Y0093303D01*
X0186370Y0091705D02*
X0188841Y0091705D01*
X0189781Y0090106D02*
X0184050Y0090106D01*
X0187011Y0088508D02*
X0191842Y0088508D01*
X0189632Y0086909D02*
X0188683Y0086909D01*
X0165150Y0072523D02*
X0158876Y0072523D01*
X0161134Y0074121D02*
X0163551Y0074121D01*
X0162750Y0075720D02*
X0162007Y0075720D01*
X0162300Y0077318D02*
X0162750Y0077318D01*
X0162750Y0078917D02*
X0162142Y0078917D01*
X0162750Y0080515D02*
X0161462Y0080515D01*
X0162750Y0082114D02*
X0159668Y0082114D01*
X0162750Y0083712D02*
X0155850Y0083712D01*
X0155850Y0085311D02*
X0162750Y0085311D01*
X0162750Y0086909D02*
X0154933Y0086909D01*
X0153261Y0088508D02*
X0162750Y0088508D01*
X0149550Y0090106D02*
X0147986Y0090106D01*
X0147230Y0091705D02*
X0146387Y0091705D01*
X0173209Y0117281D02*
X0174336Y0117281D01*
X0174807Y0118880D02*
X0191304Y0118880D01*
X0134620Y0040553D02*
X0052540Y0040553D01*
X0054138Y0038954D02*
X0136218Y0038954D01*
X0137817Y0037356D02*
X0124956Y0037356D01*
X0123830Y0038482D02*
X0119770Y0038482D01*
X0116900Y0035612D01*
X0116900Y0031553D01*
X0119770Y0028682D01*
X0123830Y0028682D01*
X0126700Y0031553D01*
X0126700Y0035612D01*
X0123830Y0038482D01*
X0126555Y0035757D02*
X0139416Y0035757D01*
X0141014Y0034159D02*
X0126700Y0034159D01*
X0126700Y0032560D02*
X0141900Y0032560D01*
X0142491Y0030962D02*
X0126109Y0030962D01*
X0124510Y0029363D02*
X0144090Y0029363D01*
X0144760Y0027765D02*
X0123840Y0027765D01*
X0123623Y0027982D02*
X0121800Y0027982D01*
X0119977Y0027982D01*
X0117400Y0025405D01*
X0117400Y0023582D01*
X0117400Y0021760D01*
X0119977Y0019182D01*
X0121800Y0019182D01*
X0121800Y0023582D01*
X0121800Y0019182D01*
X0123623Y0019182D01*
X0126200Y0021760D01*
X0126200Y0023582D01*
X0121800Y0023582D01*
X0121800Y0023582D01*
X0121800Y0023582D01*
X0117400Y0023582D01*
X0121800Y0023582D01*
X0121800Y0023582D01*
X0126200Y0023582D01*
X0126200Y0025405D01*
X0123623Y0027982D01*
X0121800Y0027982D02*
X0121800Y0023583D01*
X0121800Y0027982D01*
X0121800Y0027765D02*
X0121800Y0027765D01*
X0121800Y0026166D02*
X0121800Y0026166D01*
X0121800Y0024568D02*
X0121800Y0024568D01*
X0121800Y0023583D02*
X0121800Y0023583D01*
X0121800Y0022969D02*
X0121800Y0022969D01*
X0121800Y0021370D02*
X0121800Y0021370D01*
X0121800Y0019772D02*
X0121800Y0019772D01*
X0124212Y0019772D02*
X0125373Y0019772D01*
X0125811Y0021370D02*
X0142789Y0021370D01*
X0142400Y0022969D02*
X0126200Y0022969D01*
X0126200Y0024568D02*
X0142400Y0024568D01*
X0143161Y0026166D02*
X0125439Y0026166D01*
X0119760Y0027765D02*
X0110328Y0027765D01*
X0108729Y0029363D02*
X0119090Y0029363D01*
X0117491Y0030962D02*
X0107131Y0030962D01*
X0105532Y0032560D02*
X0116900Y0032560D01*
X0116900Y0034159D02*
X0103934Y0034159D01*
X0102335Y0035757D02*
X0117045Y0035757D01*
X0118644Y0037356D02*
X0055737Y0037356D01*
X0052613Y0032560D02*
X0028242Y0032560D01*
X0029486Y0030962D02*
X0054560Y0030962D01*
X0070000Y0026399D02*
X0070000Y0023782D01*
X0076600Y0023782D01*
X0076600Y0023382D01*
X0077000Y0023382D01*
X0077000Y0016782D01*
X0079617Y0016782D01*
X0083600Y0020766D01*
X0083600Y0023382D01*
X0077000Y0023382D01*
X0077000Y0023782D01*
X0083600Y0023782D01*
X0083600Y0026399D01*
X0079617Y0030382D01*
X0077000Y0030382D01*
X0077000Y0023782D01*
X0076600Y0023782D01*
X0076600Y0030382D01*
X0073983Y0030382D01*
X0070000Y0026399D01*
X0070000Y0026166D02*
X0029470Y0026166D01*
X0030037Y0027765D02*
X0071365Y0027765D01*
X0072964Y0029363D02*
X0030037Y0029363D01*
X0028204Y0024568D02*
X0070000Y0024568D01*
X0070000Y0023382D02*
X0070000Y0020766D01*
X0073983Y0016782D01*
X0076600Y0016782D01*
X0076600Y0023382D01*
X0070000Y0023382D01*
X0070000Y0022969D02*
X0026663Y0022969D01*
X0028637Y0021370D02*
X0070000Y0021370D01*
X0070994Y0019772D02*
X0029396Y0019772D01*
X0029532Y0018173D02*
X0072592Y0018173D01*
X0076600Y0018173D02*
X0077000Y0018173D01*
X0077000Y0019772D02*
X0076600Y0019772D01*
X0076600Y0021370D02*
X0077000Y0021370D01*
X0077000Y0022969D02*
X0076600Y0022969D01*
X0076600Y0024568D02*
X0077000Y0024568D01*
X0077000Y0026166D02*
X0076600Y0026166D01*
X0076600Y0027765D02*
X0077000Y0027765D01*
X0077000Y0029363D02*
X0076600Y0029363D01*
X0080636Y0029363D02*
X0100810Y0029363D01*
X0102408Y0027765D02*
X0082234Y0027765D01*
X0083600Y0026166D02*
X0104007Y0026166D01*
X0105605Y0024568D02*
X0083600Y0024568D01*
X0083600Y0022969D02*
X0107204Y0022969D01*
X0108802Y0021370D02*
X0083600Y0021370D01*
X0082606Y0019772D02*
X0110401Y0019772D01*
X0111999Y0018173D02*
X0081008Y0018173D01*
X0111926Y0026166D02*
X0118161Y0026166D01*
X0117400Y0024568D02*
X0113525Y0024568D01*
X0115123Y0022969D02*
X0117400Y0022969D01*
X0117789Y0021370D02*
X0116722Y0021370D01*
X0118320Y0019772D02*
X0119388Y0019772D01*
X0113598Y0016575D02*
X0029097Y0016575D01*
X0027906Y0014976D02*
X0115196Y0014976D01*
X0143227Y0019772D02*
X0144388Y0019772D01*
X0153404Y0014976D02*
X0206921Y0014976D01*
X0206921Y0016575D02*
X0155002Y0016575D01*
X0156601Y0018173D02*
X0206921Y0018173D01*
X0206921Y0019772D02*
X0199212Y0019772D01*
X0200811Y0021370D02*
X0206921Y0021370D01*
X0206921Y0022969D02*
X0201200Y0022969D01*
X0201200Y0024568D02*
X0206921Y0024568D01*
X0206921Y0026166D02*
X0200439Y0026166D01*
X0193161Y0026166D02*
X0175439Y0026166D01*
X0176200Y0024568D02*
X0192400Y0024568D01*
X0192400Y0022969D02*
X0176200Y0022969D01*
X0175811Y0021370D02*
X0192789Y0021370D01*
X0169388Y0019772D02*
X0158199Y0019772D01*
X0159798Y0021370D02*
X0167789Y0021370D01*
X0071513Y0048545D02*
X0044547Y0048545D01*
X0042948Y0050144D02*
X0069915Y0050144D01*
X0069500Y0051742D02*
X0041350Y0051742D01*
X0039751Y0053341D02*
X0069500Y0053341D01*
X0069500Y0054939D02*
X0038153Y0054939D01*
X0036554Y0056538D02*
X0069500Y0056538D01*
X0071030Y0058136D02*
X0034956Y0058136D01*
X0033357Y0059735D02*
X0072629Y0059735D01*
X0023502Y0078917D02*
X0019064Y0078917D01*
X0020663Y0080515D02*
X0023502Y0080515D01*
X0015266Y0088508D02*
X0014435Y0088508D01*
X0013197Y0086909D02*
X0012837Y0086909D01*
X0011900Y0085311D02*
X0011238Y0085311D01*
X0010850Y0083712D02*
X0011900Y0083712D01*
X0016034Y0090106D02*
X0016500Y0090106D01*
X0021616Y0018173D02*
X0021984Y0018173D01*
X0021984Y0016575D02*
X0021616Y0016575D01*
X0021616Y0014976D02*
X0021984Y0014976D01*
M02*
