G75*
%MOIN*%
%OFA0B0*%
%FSLAX25Y25*%
%IPPOS*%
%LPD*%
%AMOC8*
5,1,8,0,0,1.08239X$1,22.5*
%
%ADD10C,0.00000*%
%ADD11C,0.00600*%
%ADD12C,0.01000*%
%ADD13C,0.00500*%
%ADD14C,0.00400*%
%ADD15C,0.00200*%
%ADD16R,0.02400X0.03400*%
%ADD17R,0.03400X0.02400*%
%ADD18C,0.00800*%
%ADD19C,0.00100*%
D10*
X0001740Y0002787D02*
X0001740Y0177984D01*
X0169063Y0177984D01*
X0169063Y0002787D01*
X0001740Y0002787D01*
D11*
X0040480Y0012925D02*
X0042980Y0010425D01*
X0047980Y0010425D01*
X0050480Y0012925D01*
X0052980Y0010425D01*
X0057980Y0010425D01*
X0060480Y0012925D01*
X0062980Y0010425D01*
X0067980Y0010425D01*
X0070480Y0012925D01*
X0072980Y0010425D01*
X0077980Y0010425D01*
X0080480Y0012925D01*
X0082980Y0010425D01*
X0087980Y0010425D01*
X0090480Y0012925D01*
X0092980Y0010425D01*
X0097980Y0010425D01*
X0100480Y0012925D01*
X0100480Y0017925D01*
X0097980Y0020425D01*
X0092980Y0020425D01*
X0090480Y0017925D01*
X0087980Y0020425D01*
X0082980Y0020425D01*
X0080480Y0017925D01*
X0077980Y0020425D01*
X0072980Y0020425D01*
X0070480Y0017925D01*
X0067980Y0020425D01*
X0062980Y0020425D01*
X0060480Y0017925D01*
X0057980Y0020425D01*
X0052980Y0020425D01*
X0050480Y0017925D01*
X0047980Y0020425D01*
X0042980Y0020425D01*
X0040480Y0017925D01*
X0040480Y0012925D01*
X0041193Y0056232D02*
X0048193Y0056232D01*
X0048253Y0056234D01*
X0048314Y0056239D01*
X0048373Y0056248D01*
X0048432Y0056261D01*
X0048491Y0056277D01*
X0048548Y0056297D01*
X0048603Y0056320D01*
X0048658Y0056347D01*
X0048710Y0056376D01*
X0048761Y0056409D01*
X0048810Y0056445D01*
X0048856Y0056483D01*
X0048900Y0056525D01*
X0048942Y0056569D01*
X0048980Y0056615D01*
X0049016Y0056664D01*
X0049049Y0056715D01*
X0049078Y0056767D01*
X0049105Y0056822D01*
X0049128Y0056877D01*
X0049148Y0056934D01*
X0049164Y0056993D01*
X0049177Y0057052D01*
X0049186Y0057111D01*
X0049191Y0057172D01*
X0049193Y0057232D01*
X0049193Y0058732D01*
X0048693Y0059232D01*
X0048693Y0078232D01*
X0049193Y0078732D01*
X0049193Y0080232D01*
X0049191Y0080292D01*
X0049186Y0080353D01*
X0049177Y0080412D01*
X0049164Y0080471D01*
X0049148Y0080530D01*
X0049128Y0080587D01*
X0049105Y0080642D01*
X0049078Y0080697D01*
X0049049Y0080749D01*
X0049016Y0080800D01*
X0048980Y0080849D01*
X0048942Y0080895D01*
X0048900Y0080939D01*
X0048856Y0080981D01*
X0048810Y0081019D01*
X0048761Y0081055D01*
X0048710Y0081088D01*
X0048658Y0081117D01*
X0048603Y0081144D01*
X0048548Y0081167D01*
X0048491Y0081187D01*
X0048432Y0081203D01*
X0048373Y0081216D01*
X0048314Y0081225D01*
X0048253Y0081230D01*
X0048193Y0081232D01*
X0041193Y0081232D01*
X0041133Y0081230D01*
X0041072Y0081225D01*
X0041013Y0081216D01*
X0040954Y0081203D01*
X0040895Y0081187D01*
X0040838Y0081167D01*
X0040783Y0081144D01*
X0040728Y0081117D01*
X0040676Y0081088D01*
X0040625Y0081055D01*
X0040576Y0081019D01*
X0040530Y0080981D01*
X0040486Y0080939D01*
X0040444Y0080895D01*
X0040406Y0080849D01*
X0040370Y0080800D01*
X0040337Y0080749D01*
X0040308Y0080697D01*
X0040281Y0080642D01*
X0040258Y0080587D01*
X0040238Y0080530D01*
X0040222Y0080471D01*
X0040209Y0080412D01*
X0040200Y0080353D01*
X0040195Y0080292D01*
X0040193Y0080232D01*
X0040193Y0078732D01*
X0040693Y0078232D01*
X0040693Y0059232D01*
X0040193Y0058732D01*
X0040193Y0057232D01*
X0040195Y0057172D01*
X0040200Y0057111D01*
X0040209Y0057052D01*
X0040222Y0056993D01*
X0040238Y0056934D01*
X0040258Y0056877D01*
X0040281Y0056822D01*
X0040308Y0056767D01*
X0040337Y0056715D01*
X0040370Y0056664D01*
X0040406Y0056615D01*
X0040444Y0056569D01*
X0040486Y0056525D01*
X0040530Y0056483D01*
X0040576Y0056445D01*
X0040625Y0056409D01*
X0040676Y0056376D01*
X0040728Y0056347D01*
X0040783Y0056320D01*
X0040838Y0056297D01*
X0040895Y0056277D01*
X0040954Y0056261D01*
X0041013Y0056248D01*
X0041072Y0056239D01*
X0041133Y0056234D01*
X0041193Y0056232D01*
X0033839Y0057373D02*
X0033839Y0058873D01*
X0033339Y0059373D01*
X0033339Y0078373D01*
X0033839Y0078873D01*
X0033839Y0080373D01*
X0033837Y0080433D01*
X0033832Y0080494D01*
X0033823Y0080553D01*
X0033810Y0080612D01*
X0033794Y0080671D01*
X0033774Y0080728D01*
X0033751Y0080783D01*
X0033724Y0080838D01*
X0033695Y0080890D01*
X0033662Y0080941D01*
X0033626Y0080990D01*
X0033588Y0081036D01*
X0033546Y0081080D01*
X0033502Y0081122D01*
X0033456Y0081160D01*
X0033407Y0081196D01*
X0033356Y0081229D01*
X0033304Y0081258D01*
X0033249Y0081285D01*
X0033194Y0081308D01*
X0033137Y0081328D01*
X0033078Y0081344D01*
X0033019Y0081357D01*
X0032960Y0081366D01*
X0032899Y0081371D01*
X0032839Y0081373D01*
X0025839Y0081373D01*
X0025779Y0081371D01*
X0025718Y0081366D01*
X0025659Y0081357D01*
X0025600Y0081344D01*
X0025541Y0081328D01*
X0025484Y0081308D01*
X0025429Y0081285D01*
X0025374Y0081258D01*
X0025322Y0081229D01*
X0025271Y0081196D01*
X0025222Y0081160D01*
X0025176Y0081122D01*
X0025132Y0081080D01*
X0025090Y0081036D01*
X0025052Y0080990D01*
X0025016Y0080941D01*
X0024983Y0080890D01*
X0024954Y0080838D01*
X0024927Y0080783D01*
X0024904Y0080728D01*
X0024884Y0080671D01*
X0024868Y0080612D01*
X0024855Y0080553D01*
X0024846Y0080494D01*
X0024841Y0080433D01*
X0024839Y0080373D01*
X0024839Y0078873D01*
X0025339Y0078373D01*
X0025339Y0059373D01*
X0024839Y0058873D01*
X0024839Y0057373D01*
X0024841Y0057313D01*
X0024846Y0057252D01*
X0024855Y0057193D01*
X0024868Y0057134D01*
X0024884Y0057075D01*
X0024904Y0057018D01*
X0024927Y0056963D01*
X0024954Y0056908D01*
X0024983Y0056856D01*
X0025016Y0056805D01*
X0025052Y0056756D01*
X0025090Y0056710D01*
X0025132Y0056666D01*
X0025176Y0056624D01*
X0025222Y0056586D01*
X0025271Y0056550D01*
X0025322Y0056517D01*
X0025374Y0056488D01*
X0025429Y0056461D01*
X0025484Y0056438D01*
X0025541Y0056418D01*
X0025600Y0056402D01*
X0025659Y0056389D01*
X0025718Y0056380D01*
X0025779Y0056375D01*
X0025839Y0056373D01*
X0032839Y0056373D01*
X0032899Y0056375D01*
X0032960Y0056380D01*
X0033019Y0056389D01*
X0033078Y0056402D01*
X0033137Y0056418D01*
X0033194Y0056438D01*
X0033249Y0056461D01*
X0033304Y0056488D01*
X0033356Y0056517D01*
X0033407Y0056550D01*
X0033456Y0056586D01*
X0033502Y0056624D01*
X0033546Y0056666D01*
X0033588Y0056710D01*
X0033626Y0056756D01*
X0033662Y0056805D01*
X0033695Y0056856D01*
X0033724Y0056908D01*
X0033751Y0056963D01*
X0033774Y0057018D01*
X0033794Y0057075D01*
X0033810Y0057134D01*
X0033823Y0057193D01*
X0033832Y0057252D01*
X0033837Y0057313D01*
X0033839Y0057373D01*
X0019035Y0057342D02*
X0019035Y0058842D01*
X0018535Y0059342D01*
X0018535Y0078342D01*
X0019035Y0078842D01*
X0019035Y0080342D01*
X0019033Y0080402D01*
X0019028Y0080463D01*
X0019019Y0080522D01*
X0019006Y0080581D01*
X0018990Y0080640D01*
X0018970Y0080697D01*
X0018947Y0080752D01*
X0018920Y0080807D01*
X0018891Y0080859D01*
X0018858Y0080910D01*
X0018822Y0080959D01*
X0018784Y0081005D01*
X0018742Y0081049D01*
X0018698Y0081091D01*
X0018652Y0081129D01*
X0018603Y0081165D01*
X0018552Y0081198D01*
X0018500Y0081227D01*
X0018445Y0081254D01*
X0018390Y0081277D01*
X0018333Y0081297D01*
X0018274Y0081313D01*
X0018215Y0081326D01*
X0018156Y0081335D01*
X0018095Y0081340D01*
X0018035Y0081342D01*
X0011035Y0081342D01*
X0010975Y0081340D01*
X0010914Y0081335D01*
X0010855Y0081326D01*
X0010796Y0081313D01*
X0010737Y0081297D01*
X0010680Y0081277D01*
X0010625Y0081254D01*
X0010570Y0081227D01*
X0010518Y0081198D01*
X0010467Y0081165D01*
X0010418Y0081129D01*
X0010372Y0081091D01*
X0010328Y0081049D01*
X0010286Y0081005D01*
X0010248Y0080959D01*
X0010212Y0080910D01*
X0010179Y0080859D01*
X0010150Y0080807D01*
X0010123Y0080752D01*
X0010100Y0080697D01*
X0010080Y0080640D01*
X0010064Y0080581D01*
X0010051Y0080522D01*
X0010042Y0080463D01*
X0010037Y0080402D01*
X0010035Y0080342D01*
X0010035Y0078842D01*
X0010535Y0078342D01*
X0010535Y0059342D01*
X0010035Y0058842D01*
X0010035Y0057342D01*
X0010037Y0057282D01*
X0010042Y0057221D01*
X0010051Y0057162D01*
X0010064Y0057103D01*
X0010080Y0057044D01*
X0010100Y0056987D01*
X0010123Y0056932D01*
X0010150Y0056877D01*
X0010179Y0056825D01*
X0010212Y0056774D01*
X0010248Y0056725D01*
X0010286Y0056679D01*
X0010328Y0056635D01*
X0010372Y0056593D01*
X0010418Y0056555D01*
X0010467Y0056519D01*
X0010518Y0056486D01*
X0010570Y0056457D01*
X0010625Y0056430D01*
X0010680Y0056407D01*
X0010737Y0056387D01*
X0010796Y0056371D01*
X0010855Y0056358D01*
X0010914Y0056349D01*
X0010975Y0056344D01*
X0011035Y0056342D01*
X0018035Y0056342D01*
X0018095Y0056344D01*
X0018156Y0056349D01*
X0018215Y0056358D01*
X0018274Y0056371D01*
X0018333Y0056387D01*
X0018390Y0056407D01*
X0018445Y0056430D01*
X0018500Y0056457D01*
X0018552Y0056486D01*
X0018603Y0056519D01*
X0018652Y0056555D01*
X0018698Y0056593D01*
X0018742Y0056635D01*
X0018784Y0056679D01*
X0018822Y0056725D01*
X0018858Y0056774D01*
X0018891Y0056825D01*
X0018920Y0056877D01*
X0018947Y0056932D01*
X0018970Y0056987D01*
X0018990Y0057044D01*
X0019006Y0057103D01*
X0019019Y0057162D01*
X0019028Y0057221D01*
X0019033Y0057282D01*
X0019035Y0057342D01*
X0055311Y0057035D02*
X0055311Y0058535D01*
X0055811Y0059035D01*
X0055811Y0078035D01*
X0055311Y0078535D01*
X0055311Y0080035D01*
X0055313Y0080095D01*
X0055318Y0080156D01*
X0055327Y0080215D01*
X0055340Y0080274D01*
X0055356Y0080333D01*
X0055376Y0080390D01*
X0055399Y0080445D01*
X0055426Y0080500D01*
X0055455Y0080552D01*
X0055488Y0080603D01*
X0055524Y0080652D01*
X0055562Y0080698D01*
X0055604Y0080742D01*
X0055648Y0080784D01*
X0055694Y0080822D01*
X0055743Y0080858D01*
X0055794Y0080891D01*
X0055846Y0080920D01*
X0055901Y0080947D01*
X0055956Y0080970D01*
X0056013Y0080990D01*
X0056072Y0081006D01*
X0056131Y0081019D01*
X0056190Y0081028D01*
X0056251Y0081033D01*
X0056311Y0081035D01*
X0063311Y0081035D01*
X0063371Y0081033D01*
X0063432Y0081028D01*
X0063491Y0081019D01*
X0063550Y0081006D01*
X0063609Y0080990D01*
X0063666Y0080970D01*
X0063721Y0080947D01*
X0063776Y0080920D01*
X0063828Y0080891D01*
X0063879Y0080858D01*
X0063928Y0080822D01*
X0063974Y0080784D01*
X0064018Y0080742D01*
X0064060Y0080698D01*
X0064098Y0080652D01*
X0064134Y0080603D01*
X0064167Y0080552D01*
X0064196Y0080500D01*
X0064223Y0080445D01*
X0064246Y0080390D01*
X0064266Y0080333D01*
X0064282Y0080274D01*
X0064295Y0080215D01*
X0064304Y0080156D01*
X0064309Y0080095D01*
X0064311Y0080035D01*
X0064311Y0078535D01*
X0063811Y0078035D01*
X0063811Y0059035D01*
X0064311Y0058535D01*
X0064311Y0057035D01*
X0064309Y0056975D01*
X0064304Y0056914D01*
X0064295Y0056855D01*
X0064282Y0056796D01*
X0064266Y0056737D01*
X0064246Y0056680D01*
X0064223Y0056625D01*
X0064196Y0056570D01*
X0064167Y0056518D01*
X0064134Y0056467D01*
X0064098Y0056418D01*
X0064060Y0056372D01*
X0064018Y0056328D01*
X0063974Y0056286D01*
X0063928Y0056248D01*
X0063879Y0056212D01*
X0063828Y0056179D01*
X0063776Y0056150D01*
X0063721Y0056123D01*
X0063666Y0056100D01*
X0063609Y0056080D01*
X0063550Y0056064D01*
X0063491Y0056051D01*
X0063432Y0056042D01*
X0063371Y0056037D01*
X0063311Y0056035D01*
X0056311Y0056035D01*
X0056251Y0056037D01*
X0056190Y0056042D01*
X0056131Y0056051D01*
X0056072Y0056064D01*
X0056013Y0056080D01*
X0055956Y0056100D01*
X0055901Y0056123D01*
X0055846Y0056150D01*
X0055794Y0056179D01*
X0055743Y0056212D01*
X0055694Y0056248D01*
X0055648Y0056286D01*
X0055604Y0056328D01*
X0055562Y0056372D01*
X0055524Y0056418D01*
X0055488Y0056467D01*
X0055455Y0056518D01*
X0055426Y0056570D01*
X0055399Y0056625D01*
X0055376Y0056680D01*
X0055356Y0056737D01*
X0055340Y0056796D01*
X0055327Y0056855D01*
X0055318Y0056914D01*
X0055313Y0056975D01*
X0055311Y0057035D01*
X0093591Y0069397D02*
X0093591Y0086397D01*
X0093593Y0086457D01*
X0093598Y0086518D01*
X0093607Y0086577D01*
X0093620Y0086636D01*
X0093636Y0086695D01*
X0093656Y0086752D01*
X0093679Y0086807D01*
X0093706Y0086862D01*
X0093735Y0086914D01*
X0093768Y0086965D01*
X0093804Y0087014D01*
X0093842Y0087060D01*
X0093884Y0087104D01*
X0093928Y0087146D01*
X0093974Y0087184D01*
X0094023Y0087220D01*
X0094074Y0087253D01*
X0094126Y0087282D01*
X0094181Y0087309D01*
X0094236Y0087332D01*
X0094293Y0087352D01*
X0094352Y0087368D01*
X0094411Y0087381D01*
X0094470Y0087390D01*
X0094531Y0087395D01*
X0094591Y0087397D01*
X0102591Y0087397D01*
X0102651Y0087395D01*
X0102712Y0087390D01*
X0102771Y0087381D01*
X0102830Y0087368D01*
X0102889Y0087352D01*
X0102946Y0087332D01*
X0103001Y0087309D01*
X0103056Y0087282D01*
X0103108Y0087253D01*
X0103159Y0087220D01*
X0103208Y0087184D01*
X0103254Y0087146D01*
X0103298Y0087104D01*
X0103340Y0087060D01*
X0103378Y0087014D01*
X0103414Y0086965D01*
X0103447Y0086914D01*
X0103476Y0086862D01*
X0103503Y0086807D01*
X0103526Y0086752D01*
X0103546Y0086695D01*
X0103562Y0086636D01*
X0103575Y0086577D01*
X0103584Y0086518D01*
X0103589Y0086457D01*
X0103591Y0086397D01*
X0103591Y0069397D01*
X0103589Y0069337D01*
X0103584Y0069276D01*
X0103575Y0069217D01*
X0103562Y0069158D01*
X0103546Y0069099D01*
X0103526Y0069042D01*
X0103503Y0068987D01*
X0103476Y0068932D01*
X0103447Y0068880D01*
X0103414Y0068829D01*
X0103378Y0068780D01*
X0103340Y0068734D01*
X0103298Y0068690D01*
X0103254Y0068648D01*
X0103208Y0068610D01*
X0103159Y0068574D01*
X0103108Y0068541D01*
X0103056Y0068512D01*
X0103001Y0068485D01*
X0102946Y0068462D01*
X0102889Y0068442D01*
X0102830Y0068426D01*
X0102771Y0068413D01*
X0102712Y0068404D01*
X0102651Y0068399D01*
X0102591Y0068397D01*
X0094591Y0068397D01*
X0094531Y0068399D01*
X0094470Y0068404D01*
X0094411Y0068413D01*
X0094352Y0068426D01*
X0094293Y0068442D01*
X0094236Y0068462D01*
X0094181Y0068485D01*
X0094126Y0068512D01*
X0094074Y0068541D01*
X0094023Y0068574D01*
X0093974Y0068610D01*
X0093928Y0068648D01*
X0093884Y0068690D01*
X0093842Y0068734D01*
X0093804Y0068780D01*
X0093768Y0068829D01*
X0093735Y0068880D01*
X0093706Y0068932D01*
X0093679Y0068987D01*
X0093656Y0069042D01*
X0093636Y0069099D01*
X0093620Y0069158D01*
X0093607Y0069217D01*
X0093598Y0069276D01*
X0093593Y0069337D01*
X0093591Y0069397D01*
X0098591Y0076397D02*
X0098591Y0076897D01*
X0098591Y0078897D02*
X0098591Y0079397D01*
X0114760Y0079310D02*
X0114760Y0080810D01*
X0115260Y0081310D01*
X0115260Y0100310D01*
X0114760Y0100810D01*
X0114760Y0102310D01*
X0114762Y0102370D01*
X0114767Y0102431D01*
X0114776Y0102490D01*
X0114789Y0102549D01*
X0114805Y0102608D01*
X0114825Y0102665D01*
X0114848Y0102720D01*
X0114875Y0102775D01*
X0114904Y0102827D01*
X0114937Y0102878D01*
X0114973Y0102927D01*
X0115011Y0102973D01*
X0115053Y0103017D01*
X0115097Y0103059D01*
X0115143Y0103097D01*
X0115192Y0103133D01*
X0115243Y0103166D01*
X0115295Y0103195D01*
X0115350Y0103222D01*
X0115405Y0103245D01*
X0115462Y0103265D01*
X0115521Y0103281D01*
X0115580Y0103294D01*
X0115639Y0103303D01*
X0115700Y0103308D01*
X0115760Y0103310D01*
X0122760Y0103310D01*
X0122820Y0103308D01*
X0122881Y0103303D01*
X0122940Y0103294D01*
X0122999Y0103281D01*
X0123058Y0103265D01*
X0123115Y0103245D01*
X0123170Y0103222D01*
X0123225Y0103195D01*
X0123277Y0103166D01*
X0123328Y0103133D01*
X0123377Y0103097D01*
X0123423Y0103059D01*
X0123467Y0103017D01*
X0123509Y0102973D01*
X0123547Y0102927D01*
X0123583Y0102878D01*
X0123616Y0102827D01*
X0123645Y0102775D01*
X0123672Y0102720D01*
X0123695Y0102665D01*
X0123715Y0102608D01*
X0123731Y0102549D01*
X0123744Y0102490D01*
X0123753Y0102431D01*
X0123758Y0102370D01*
X0123760Y0102310D01*
X0123760Y0100810D01*
X0123260Y0100310D01*
X0123260Y0081310D01*
X0123760Y0080810D01*
X0123760Y0079310D01*
X0123758Y0079250D01*
X0123753Y0079189D01*
X0123744Y0079130D01*
X0123731Y0079071D01*
X0123715Y0079012D01*
X0123695Y0078955D01*
X0123672Y0078900D01*
X0123645Y0078845D01*
X0123616Y0078793D01*
X0123583Y0078742D01*
X0123547Y0078693D01*
X0123509Y0078647D01*
X0123467Y0078603D01*
X0123423Y0078561D01*
X0123377Y0078523D01*
X0123328Y0078487D01*
X0123277Y0078454D01*
X0123225Y0078425D01*
X0123170Y0078398D01*
X0123115Y0078375D01*
X0123058Y0078355D01*
X0122999Y0078339D01*
X0122940Y0078326D01*
X0122881Y0078317D01*
X0122820Y0078312D01*
X0122760Y0078310D01*
X0115760Y0078310D01*
X0115700Y0078312D01*
X0115639Y0078317D01*
X0115580Y0078326D01*
X0115521Y0078339D01*
X0115462Y0078355D01*
X0115405Y0078375D01*
X0115350Y0078398D01*
X0115295Y0078425D01*
X0115243Y0078454D01*
X0115192Y0078487D01*
X0115143Y0078523D01*
X0115097Y0078561D01*
X0115053Y0078603D01*
X0115011Y0078647D01*
X0114973Y0078693D01*
X0114937Y0078742D01*
X0114904Y0078793D01*
X0114875Y0078845D01*
X0114848Y0078900D01*
X0114825Y0078955D01*
X0114805Y0079012D01*
X0114789Y0079071D01*
X0114776Y0079130D01*
X0114767Y0079189D01*
X0114762Y0079250D01*
X0114760Y0079310D01*
X0117776Y0065791D02*
X0119276Y0065791D01*
X0119776Y0065291D01*
X0138776Y0065291D01*
X0139276Y0065791D01*
X0140776Y0065791D01*
X0140836Y0065789D01*
X0140897Y0065784D01*
X0140956Y0065775D01*
X0141015Y0065762D01*
X0141074Y0065746D01*
X0141131Y0065726D01*
X0141186Y0065703D01*
X0141241Y0065676D01*
X0141293Y0065647D01*
X0141344Y0065614D01*
X0141393Y0065578D01*
X0141439Y0065540D01*
X0141483Y0065498D01*
X0141525Y0065454D01*
X0141563Y0065408D01*
X0141599Y0065359D01*
X0141632Y0065308D01*
X0141661Y0065256D01*
X0141688Y0065201D01*
X0141711Y0065146D01*
X0141731Y0065089D01*
X0141747Y0065030D01*
X0141760Y0064971D01*
X0141769Y0064912D01*
X0141774Y0064851D01*
X0141776Y0064791D01*
X0141776Y0057791D01*
X0141774Y0057731D01*
X0141769Y0057670D01*
X0141760Y0057611D01*
X0141747Y0057552D01*
X0141731Y0057493D01*
X0141711Y0057436D01*
X0141688Y0057381D01*
X0141661Y0057326D01*
X0141632Y0057274D01*
X0141599Y0057223D01*
X0141563Y0057174D01*
X0141525Y0057128D01*
X0141483Y0057084D01*
X0141439Y0057042D01*
X0141393Y0057004D01*
X0141344Y0056968D01*
X0141293Y0056935D01*
X0141241Y0056906D01*
X0141186Y0056879D01*
X0141131Y0056856D01*
X0141074Y0056836D01*
X0141015Y0056820D01*
X0140956Y0056807D01*
X0140897Y0056798D01*
X0140836Y0056793D01*
X0140776Y0056791D01*
X0139276Y0056791D01*
X0138776Y0057291D01*
X0119776Y0057291D01*
X0119276Y0056791D01*
X0117776Y0056791D01*
X0117716Y0056793D01*
X0117655Y0056798D01*
X0117596Y0056807D01*
X0117537Y0056820D01*
X0117478Y0056836D01*
X0117421Y0056856D01*
X0117366Y0056879D01*
X0117311Y0056906D01*
X0117259Y0056935D01*
X0117208Y0056968D01*
X0117159Y0057004D01*
X0117113Y0057042D01*
X0117069Y0057084D01*
X0117027Y0057128D01*
X0116989Y0057174D01*
X0116953Y0057223D01*
X0116920Y0057274D01*
X0116891Y0057326D01*
X0116864Y0057381D01*
X0116841Y0057436D01*
X0116821Y0057493D01*
X0116805Y0057552D01*
X0116792Y0057611D01*
X0116783Y0057670D01*
X0116778Y0057731D01*
X0116776Y0057791D01*
X0116776Y0064791D01*
X0116778Y0064851D01*
X0116783Y0064912D01*
X0116792Y0064971D01*
X0116805Y0065030D01*
X0116821Y0065089D01*
X0116841Y0065146D01*
X0116864Y0065201D01*
X0116891Y0065256D01*
X0116920Y0065308D01*
X0116953Y0065359D01*
X0116989Y0065408D01*
X0117027Y0065454D01*
X0117069Y0065498D01*
X0117113Y0065540D01*
X0117159Y0065578D01*
X0117208Y0065614D01*
X0117259Y0065647D01*
X0117311Y0065676D01*
X0117366Y0065703D01*
X0117421Y0065726D01*
X0117478Y0065746D01*
X0117537Y0065762D01*
X0117596Y0065775D01*
X0117655Y0065784D01*
X0117716Y0065789D01*
X0117776Y0065791D01*
X0138713Y0098661D02*
X0142213Y0098661D01*
X0152213Y0098661D01*
X0155713Y0098661D01*
X0159213Y0106661D02*
X0159213Y0107661D01*
X0160213Y0107661D01*
X0160213Y0113661D01*
X0159213Y0113661D01*
X0159213Y0114661D01*
X0155713Y0122661D02*
X0152213Y0122661D01*
X0142713Y0122661D01*
X0138713Y0122661D01*
X0135213Y0114661D02*
X0135213Y0113661D01*
X0134213Y0113661D01*
X0134213Y0107661D01*
X0135213Y0107661D01*
X0135213Y0106661D01*
X0146213Y0110661D02*
X0146215Y0110724D01*
X0146221Y0110786D01*
X0146231Y0110848D01*
X0146244Y0110910D01*
X0146262Y0110970D01*
X0146283Y0111029D01*
X0146308Y0111087D01*
X0146337Y0111143D01*
X0146369Y0111197D01*
X0146404Y0111249D01*
X0146442Y0111298D01*
X0146484Y0111346D01*
X0146528Y0111390D01*
X0146576Y0111432D01*
X0146625Y0111470D01*
X0146677Y0111505D01*
X0146731Y0111537D01*
X0146787Y0111566D01*
X0146845Y0111591D01*
X0146904Y0111612D01*
X0146964Y0111630D01*
X0147026Y0111643D01*
X0147088Y0111653D01*
X0147150Y0111659D01*
X0147213Y0111661D01*
X0147276Y0111659D01*
X0147338Y0111653D01*
X0147400Y0111643D01*
X0147462Y0111630D01*
X0147522Y0111612D01*
X0147581Y0111591D01*
X0147639Y0111566D01*
X0147695Y0111537D01*
X0147749Y0111505D01*
X0147801Y0111470D01*
X0147850Y0111432D01*
X0147898Y0111390D01*
X0147942Y0111346D01*
X0147984Y0111298D01*
X0148022Y0111249D01*
X0148057Y0111197D01*
X0148089Y0111143D01*
X0148118Y0111087D01*
X0148143Y0111029D01*
X0148164Y0110970D01*
X0148182Y0110910D01*
X0148195Y0110848D01*
X0148205Y0110786D01*
X0148211Y0110724D01*
X0148213Y0110661D01*
X0148211Y0110598D01*
X0148205Y0110536D01*
X0148195Y0110474D01*
X0148182Y0110412D01*
X0148164Y0110352D01*
X0148143Y0110293D01*
X0148118Y0110235D01*
X0148089Y0110179D01*
X0148057Y0110125D01*
X0148022Y0110073D01*
X0147984Y0110024D01*
X0147942Y0109976D01*
X0147898Y0109932D01*
X0147850Y0109890D01*
X0147801Y0109852D01*
X0147749Y0109817D01*
X0147695Y0109785D01*
X0147639Y0109756D01*
X0147581Y0109731D01*
X0147522Y0109710D01*
X0147462Y0109692D01*
X0147400Y0109679D01*
X0147338Y0109669D01*
X0147276Y0109663D01*
X0147213Y0109661D01*
X0147150Y0109663D01*
X0147088Y0109669D01*
X0147026Y0109679D01*
X0146964Y0109692D01*
X0146904Y0109710D01*
X0146845Y0109731D01*
X0146787Y0109756D01*
X0146731Y0109785D01*
X0146677Y0109817D01*
X0146625Y0109852D01*
X0146576Y0109890D01*
X0146528Y0109932D01*
X0146484Y0109976D01*
X0146442Y0110024D01*
X0146404Y0110073D01*
X0146369Y0110125D01*
X0146337Y0110179D01*
X0146308Y0110235D01*
X0146283Y0110293D01*
X0146262Y0110352D01*
X0146244Y0110412D01*
X0146231Y0110474D01*
X0146221Y0110536D01*
X0146215Y0110598D01*
X0146213Y0110661D01*
X0140213Y0110661D02*
X0140215Y0110833D01*
X0140221Y0111004D01*
X0140232Y0111176D01*
X0140247Y0111347D01*
X0140266Y0111518D01*
X0140289Y0111688D01*
X0140316Y0111858D01*
X0140348Y0112027D01*
X0140383Y0112195D01*
X0140423Y0112362D01*
X0140467Y0112528D01*
X0140514Y0112693D01*
X0140566Y0112857D01*
X0140622Y0113019D01*
X0140682Y0113180D01*
X0140746Y0113340D01*
X0140814Y0113498D01*
X0140885Y0113654D01*
X0140960Y0113808D01*
X0141040Y0113961D01*
X0141122Y0114111D01*
X0141209Y0114260D01*
X0141299Y0114406D01*
X0141393Y0114550D01*
X0141490Y0114692D01*
X0141591Y0114831D01*
X0141695Y0114968D01*
X0141802Y0115102D01*
X0141913Y0115233D01*
X0142026Y0115362D01*
X0142143Y0115488D01*
X0142263Y0115611D01*
X0142386Y0115731D01*
X0142512Y0115848D01*
X0142641Y0115961D01*
X0142772Y0116072D01*
X0142906Y0116179D01*
X0143043Y0116283D01*
X0143182Y0116384D01*
X0143324Y0116481D01*
X0143468Y0116575D01*
X0143614Y0116665D01*
X0143763Y0116752D01*
X0143913Y0116834D01*
X0144066Y0116914D01*
X0144220Y0116989D01*
X0144376Y0117060D01*
X0144534Y0117128D01*
X0144694Y0117192D01*
X0144855Y0117252D01*
X0145017Y0117308D01*
X0145181Y0117360D01*
X0145346Y0117407D01*
X0145512Y0117451D01*
X0145679Y0117491D01*
X0145847Y0117526D01*
X0146016Y0117558D01*
X0146186Y0117585D01*
X0146356Y0117608D01*
X0146527Y0117627D01*
X0146698Y0117642D01*
X0146870Y0117653D01*
X0147041Y0117659D01*
X0147213Y0117661D01*
X0147385Y0117659D01*
X0147556Y0117653D01*
X0147728Y0117642D01*
X0147899Y0117627D01*
X0148070Y0117608D01*
X0148240Y0117585D01*
X0148410Y0117558D01*
X0148579Y0117526D01*
X0148747Y0117491D01*
X0148914Y0117451D01*
X0149080Y0117407D01*
X0149245Y0117360D01*
X0149409Y0117308D01*
X0149571Y0117252D01*
X0149732Y0117192D01*
X0149892Y0117128D01*
X0150050Y0117060D01*
X0150206Y0116989D01*
X0150360Y0116914D01*
X0150513Y0116834D01*
X0150663Y0116752D01*
X0150812Y0116665D01*
X0150958Y0116575D01*
X0151102Y0116481D01*
X0151244Y0116384D01*
X0151383Y0116283D01*
X0151520Y0116179D01*
X0151654Y0116072D01*
X0151785Y0115961D01*
X0151914Y0115848D01*
X0152040Y0115731D01*
X0152163Y0115611D01*
X0152283Y0115488D01*
X0152400Y0115362D01*
X0152513Y0115233D01*
X0152624Y0115102D01*
X0152731Y0114968D01*
X0152835Y0114831D01*
X0152936Y0114692D01*
X0153033Y0114550D01*
X0153127Y0114406D01*
X0153217Y0114260D01*
X0153304Y0114111D01*
X0153386Y0113961D01*
X0153466Y0113808D01*
X0153541Y0113654D01*
X0153612Y0113498D01*
X0153680Y0113340D01*
X0153744Y0113180D01*
X0153804Y0113019D01*
X0153860Y0112857D01*
X0153912Y0112693D01*
X0153959Y0112528D01*
X0154003Y0112362D01*
X0154043Y0112195D01*
X0154078Y0112027D01*
X0154110Y0111858D01*
X0154137Y0111688D01*
X0154160Y0111518D01*
X0154179Y0111347D01*
X0154194Y0111176D01*
X0154205Y0111004D01*
X0154211Y0110833D01*
X0154213Y0110661D01*
X0154211Y0110489D01*
X0154205Y0110318D01*
X0154194Y0110146D01*
X0154179Y0109975D01*
X0154160Y0109804D01*
X0154137Y0109634D01*
X0154110Y0109464D01*
X0154078Y0109295D01*
X0154043Y0109127D01*
X0154003Y0108960D01*
X0153959Y0108794D01*
X0153912Y0108629D01*
X0153860Y0108465D01*
X0153804Y0108303D01*
X0153744Y0108142D01*
X0153680Y0107982D01*
X0153612Y0107824D01*
X0153541Y0107668D01*
X0153466Y0107514D01*
X0153386Y0107361D01*
X0153304Y0107211D01*
X0153217Y0107062D01*
X0153127Y0106916D01*
X0153033Y0106772D01*
X0152936Y0106630D01*
X0152835Y0106491D01*
X0152731Y0106354D01*
X0152624Y0106220D01*
X0152513Y0106089D01*
X0152400Y0105960D01*
X0152283Y0105834D01*
X0152163Y0105711D01*
X0152040Y0105591D01*
X0151914Y0105474D01*
X0151785Y0105361D01*
X0151654Y0105250D01*
X0151520Y0105143D01*
X0151383Y0105039D01*
X0151244Y0104938D01*
X0151102Y0104841D01*
X0150958Y0104747D01*
X0150812Y0104657D01*
X0150663Y0104570D01*
X0150513Y0104488D01*
X0150360Y0104408D01*
X0150206Y0104333D01*
X0150050Y0104262D01*
X0149892Y0104194D01*
X0149732Y0104130D01*
X0149571Y0104070D01*
X0149409Y0104014D01*
X0149245Y0103962D01*
X0149080Y0103915D01*
X0148914Y0103871D01*
X0148747Y0103831D01*
X0148579Y0103796D01*
X0148410Y0103764D01*
X0148240Y0103737D01*
X0148070Y0103714D01*
X0147899Y0103695D01*
X0147728Y0103680D01*
X0147556Y0103669D01*
X0147385Y0103663D01*
X0147213Y0103661D01*
X0147041Y0103663D01*
X0146870Y0103669D01*
X0146698Y0103680D01*
X0146527Y0103695D01*
X0146356Y0103714D01*
X0146186Y0103737D01*
X0146016Y0103764D01*
X0145847Y0103796D01*
X0145679Y0103831D01*
X0145512Y0103871D01*
X0145346Y0103915D01*
X0145181Y0103962D01*
X0145017Y0104014D01*
X0144855Y0104070D01*
X0144694Y0104130D01*
X0144534Y0104194D01*
X0144376Y0104262D01*
X0144220Y0104333D01*
X0144066Y0104408D01*
X0143913Y0104488D01*
X0143763Y0104570D01*
X0143614Y0104657D01*
X0143468Y0104747D01*
X0143324Y0104841D01*
X0143182Y0104938D01*
X0143043Y0105039D01*
X0142906Y0105143D01*
X0142772Y0105250D01*
X0142641Y0105361D01*
X0142512Y0105474D01*
X0142386Y0105591D01*
X0142263Y0105711D01*
X0142143Y0105834D01*
X0142026Y0105960D01*
X0141913Y0106089D01*
X0141802Y0106220D01*
X0141695Y0106354D01*
X0141591Y0106491D01*
X0141490Y0106630D01*
X0141393Y0106772D01*
X0141299Y0106916D01*
X0141209Y0107062D01*
X0141122Y0107211D01*
X0141040Y0107361D01*
X0140960Y0107514D01*
X0140885Y0107668D01*
X0140814Y0107824D01*
X0140746Y0107982D01*
X0140682Y0108142D01*
X0140622Y0108303D01*
X0140566Y0108465D01*
X0140514Y0108629D01*
X0140467Y0108794D01*
X0140423Y0108960D01*
X0140383Y0109127D01*
X0140348Y0109295D01*
X0140316Y0109464D01*
X0140289Y0109634D01*
X0140266Y0109804D01*
X0140247Y0109975D01*
X0140232Y0110146D01*
X0140221Y0110318D01*
X0140215Y0110489D01*
X0140213Y0110661D01*
X0138713Y0143661D02*
X0142213Y0143661D01*
X0152213Y0143661D01*
X0155713Y0143661D01*
X0159213Y0151661D02*
X0159213Y0152661D01*
X0160213Y0152661D01*
X0160213Y0158661D01*
X0159213Y0158661D01*
X0159213Y0159661D01*
X0155713Y0167661D02*
X0152213Y0167661D01*
X0142713Y0167661D01*
X0138713Y0167661D01*
X0135213Y0159661D02*
X0135213Y0158661D01*
X0134213Y0158661D01*
X0134213Y0152661D01*
X0135213Y0152661D01*
X0135213Y0151661D01*
X0146213Y0155661D02*
X0146215Y0155724D01*
X0146221Y0155786D01*
X0146231Y0155848D01*
X0146244Y0155910D01*
X0146262Y0155970D01*
X0146283Y0156029D01*
X0146308Y0156087D01*
X0146337Y0156143D01*
X0146369Y0156197D01*
X0146404Y0156249D01*
X0146442Y0156298D01*
X0146484Y0156346D01*
X0146528Y0156390D01*
X0146576Y0156432D01*
X0146625Y0156470D01*
X0146677Y0156505D01*
X0146731Y0156537D01*
X0146787Y0156566D01*
X0146845Y0156591D01*
X0146904Y0156612D01*
X0146964Y0156630D01*
X0147026Y0156643D01*
X0147088Y0156653D01*
X0147150Y0156659D01*
X0147213Y0156661D01*
X0147276Y0156659D01*
X0147338Y0156653D01*
X0147400Y0156643D01*
X0147462Y0156630D01*
X0147522Y0156612D01*
X0147581Y0156591D01*
X0147639Y0156566D01*
X0147695Y0156537D01*
X0147749Y0156505D01*
X0147801Y0156470D01*
X0147850Y0156432D01*
X0147898Y0156390D01*
X0147942Y0156346D01*
X0147984Y0156298D01*
X0148022Y0156249D01*
X0148057Y0156197D01*
X0148089Y0156143D01*
X0148118Y0156087D01*
X0148143Y0156029D01*
X0148164Y0155970D01*
X0148182Y0155910D01*
X0148195Y0155848D01*
X0148205Y0155786D01*
X0148211Y0155724D01*
X0148213Y0155661D01*
X0148211Y0155598D01*
X0148205Y0155536D01*
X0148195Y0155474D01*
X0148182Y0155412D01*
X0148164Y0155352D01*
X0148143Y0155293D01*
X0148118Y0155235D01*
X0148089Y0155179D01*
X0148057Y0155125D01*
X0148022Y0155073D01*
X0147984Y0155024D01*
X0147942Y0154976D01*
X0147898Y0154932D01*
X0147850Y0154890D01*
X0147801Y0154852D01*
X0147749Y0154817D01*
X0147695Y0154785D01*
X0147639Y0154756D01*
X0147581Y0154731D01*
X0147522Y0154710D01*
X0147462Y0154692D01*
X0147400Y0154679D01*
X0147338Y0154669D01*
X0147276Y0154663D01*
X0147213Y0154661D01*
X0147150Y0154663D01*
X0147088Y0154669D01*
X0147026Y0154679D01*
X0146964Y0154692D01*
X0146904Y0154710D01*
X0146845Y0154731D01*
X0146787Y0154756D01*
X0146731Y0154785D01*
X0146677Y0154817D01*
X0146625Y0154852D01*
X0146576Y0154890D01*
X0146528Y0154932D01*
X0146484Y0154976D01*
X0146442Y0155024D01*
X0146404Y0155073D01*
X0146369Y0155125D01*
X0146337Y0155179D01*
X0146308Y0155235D01*
X0146283Y0155293D01*
X0146262Y0155352D01*
X0146244Y0155412D01*
X0146231Y0155474D01*
X0146221Y0155536D01*
X0146215Y0155598D01*
X0146213Y0155661D01*
X0140213Y0155661D02*
X0140215Y0155833D01*
X0140221Y0156004D01*
X0140232Y0156176D01*
X0140247Y0156347D01*
X0140266Y0156518D01*
X0140289Y0156688D01*
X0140316Y0156858D01*
X0140348Y0157027D01*
X0140383Y0157195D01*
X0140423Y0157362D01*
X0140467Y0157528D01*
X0140514Y0157693D01*
X0140566Y0157857D01*
X0140622Y0158019D01*
X0140682Y0158180D01*
X0140746Y0158340D01*
X0140814Y0158498D01*
X0140885Y0158654D01*
X0140960Y0158808D01*
X0141040Y0158961D01*
X0141122Y0159111D01*
X0141209Y0159260D01*
X0141299Y0159406D01*
X0141393Y0159550D01*
X0141490Y0159692D01*
X0141591Y0159831D01*
X0141695Y0159968D01*
X0141802Y0160102D01*
X0141913Y0160233D01*
X0142026Y0160362D01*
X0142143Y0160488D01*
X0142263Y0160611D01*
X0142386Y0160731D01*
X0142512Y0160848D01*
X0142641Y0160961D01*
X0142772Y0161072D01*
X0142906Y0161179D01*
X0143043Y0161283D01*
X0143182Y0161384D01*
X0143324Y0161481D01*
X0143468Y0161575D01*
X0143614Y0161665D01*
X0143763Y0161752D01*
X0143913Y0161834D01*
X0144066Y0161914D01*
X0144220Y0161989D01*
X0144376Y0162060D01*
X0144534Y0162128D01*
X0144694Y0162192D01*
X0144855Y0162252D01*
X0145017Y0162308D01*
X0145181Y0162360D01*
X0145346Y0162407D01*
X0145512Y0162451D01*
X0145679Y0162491D01*
X0145847Y0162526D01*
X0146016Y0162558D01*
X0146186Y0162585D01*
X0146356Y0162608D01*
X0146527Y0162627D01*
X0146698Y0162642D01*
X0146870Y0162653D01*
X0147041Y0162659D01*
X0147213Y0162661D01*
X0147385Y0162659D01*
X0147556Y0162653D01*
X0147728Y0162642D01*
X0147899Y0162627D01*
X0148070Y0162608D01*
X0148240Y0162585D01*
X0148410Y0162558D01*
X0148579Y0162526D01*
X0148747Y0162491D01*
X0148914Y0162451D01*
X0149080Y0162407D01*
X0149245Y0162360D01*
X0149409Y0162308D01*
X0149571Y0162252D01*
X0149732Y0162192D01*
X0149892Y0162128D01*
X0150050Y0162060D01*
X0150206Y0161989D01*
X0150360Y0161914D01*
X0150513Y0161834D01*
X0150663Y0161752D01*
X0150812Y0161665D01*
X0150958Y0161575D01*
X0151102Y0161481D01*
X0151244Y0161384D01*
X0151383Y0161283D01*
X0151520Y0161179D01*
X0151654Y0161072D01*
X0151785Y0160961D01*
X0151914Y0160848D01*
X0152040Y0160731D01*
X0152163Y0160611D01*
X0152283Y0160488D01*
X0152400Y0160362D01*
X0152513Y0160233D01*
X0152624Y0160102D01*
X0152731Y0159968D01*
X0152835Y0159831D01*
X0152936Y0159692D01*
X0153033Y0159550D01*
X0153127Y0159406D01*
X0153217Y0159260D01*
X0153304Y0159111D01*
X0153386Y0158961D01*
X0153466Y0158808D01*
X0153541Y0158654D01*
X0153612Y0158498D01*
X0153680Y0158340D01*
X0153744Y0158180D01*
X0153804Y0158019D01*
X0153860Y0157857D01*
X0153912Y0157693D01*
X0153959Y0157528D01*
X0154003Y0157362D01*
X0154043Y0157195D01*
X0154078Y0157027D01*
X0154110Y0156858D01*
X0154137Y0156688D01*
X0154160Y0156518D01*
X0154179Y0156347D01*
X0154194Y0156176D01*
X0154205Y0156004D01*
X0154211Y0155833D01*
X0154213Y0155661D01*
X0154211Y0155489D01*
X0154205Y0155318D01*
X0154194Y0155146D01*
X0154179Y0154975D01*
X0154160Y0154804D01*
X0154137Y0154634D01*
X0154110Y0154464D01*
X0154078Y0154295D01*
X0154043Y0154127D01*
X0154003Y0153960D01*
X0153959Y0153794D01*
X0153912Y0153629D01*
X0153860Y0153465D01*
X0153804Y0153303D01*
X0153744Y0153142D01*
X0153680Y0152982D01*
X0153612Y0152824D01*
X0153541Y0152668D01*
X0153466Y0152514D01*
X0153386Y0152361D01*
X0153304Y0152211D01*
X0153217Y0152062D01*
X0153127Y0151916D01*
X0153033Y0151772D01*
X0152936Y0151630D01*
X0152835Y0151491D01*
X0152731Y0151354D01*
X0152624Y0151220D01*
X0152513Y0151089D01*
X0152400Y0150960D01*
X0152283Y0150834D01*
X0152163Y0150711D01*
X0152040Y0150591D01*
X0151914Y0150474D01*
X0151785Y0150361D01*
X0151654Y0150250D01*
X0151520Y0150143D01*
X0151383Y0150039D01*
X0151244Y0149938D01*
X0151102Y0149841D01*
X0150958Y0149747D01*
X0150812Y0149657D01*
X0150663Y0149570D01*
X0150513Y0149488D01*
X0150360Y0149408D01*
X0150206Y0149333D01*
X0150050Y0149262D01*
X0149892Y0149194D01*
X0149732Y0149130D01*
X0149571Y0149070D01*
X0149409Y0149014D01*
X0149245Y0148962D01*
X0149080Y0148915D01*
X0148914Y0148871D01*
X0148747Y0148831D01*
X0148579Y0148796D01*
X0148410Y0148764D01*
X0148240Y0148737D01*
X0148070Y0148714D01*
X0147899Y0148695D01*
X0147728Y0148680D01*
X0147556Y0148669D01*
X0147385Y0148663D01*
X0147213Y0148661D01*
X0147041Y0148663D01*
X0146870Y0148669D01*
X0146698Y0148680D01*
X0146527Y0148695D01*
X0146356Y0148714D01*
X0146186Y0148737D01*
X0146016Y0148764D01*
X0145847Y0148796D01*
X0145679Y0148831D01*
X0145512Y0148871D01*
X0145346Y0148915D01*
X0145181Y0148962D01*
X0145017Y0149014D01*
X0144855Y0149070D01*
X0144694Y0149130D01*
X0144534Y0149194D01*
X0144376Y0149262D01*
X0144220Y0149333D01*
X0144066Y0149408D01*
X0143913Y0149488D01*
X0143763Y0149570D01*
X0143614Y0149657D01*
X0143468Y0149747D01*
X0143324Y0149841D01*
X0143182Y0149938D01*
X0143043Y0150039D01*
X0142906Y0150143D01*
X0142772Y0150250D01*
X0142641Y0150361D01*
X0142512Y0150474D01*
X0142386Y0150591D01*
X0142263Y0150711D01*
X0142143Y0150834D01*
X0142026Y0150960D01*
X0141913Y0151089D01*
X0141802Y0151220D01*
X0141695Y0151354D01*
X0141591Y0151491D01*
X0141490Y0151630D01*
X0141393Y0151772D01*
X0141299Y0151916D01*
X0141209Y0152062D01*
X0141122Y0152211D01*
X0141040Y0152361D01*
X0140960Y0152514D01*
X0140885Y0152668D01*
X0140814Y0152824D01*
X0140746Y0152982D01*
X0140682Y0153142D01*
X0140622Y0153303D01*
X0140566Y0153465D01*
X0140514Y0153629D01*
X0140467Y0153794D01*
X0140423Y0153960D01*
X0140383Y0154127D01*
X0140348Y0154295D01*
X0140316Y0154464D01*
X0140289Y0154634D01*
X0140266Y0154804D01*
X0140247Y0154975D01*
X0140232Y0155146D01*
X0140221Y0155318D01*
X0140215Y0155489D01*
X0140213Y0155661D01*
X0158075Y0053275D02*
X0160575Y0050775D01*
X0158075Y0048275D01*
X0155575Y0050775D02*
X0158075Y0053275D01*
X0146048Y0048321D02*
X0145902Y0048234D01*
X0145759Y0048143D01*
X0145618Y0048049D01*
X0145479Y0047951D01*
X0145342Y0047850D01*
X0145208Y0047746D01*
X0145077Y0047639D01*
X0144948Y0047528D01*
X0144822Y0047414D01*
X0144699Y0047298D01*
X0144579Y0047178D01*
X0144461Y0047055D01*
X0144347Y0046930D01*
X0144236Y0046802D01*
X0144127Y0046671D01*
X0144022Y0046538D01*
X0143921Y0046402D01*
X0143822Y0046263D01*
X0143727Y0046123D01*
X0143636Y0045980D01*
X0143548Y0045835D01*
X0143463Y0045688D01*
X0143382Y0045538D01*
X0143305Y0045387D01*
X0143231Y0045234D01*
X0143161Y0045080D01*
X0143095Y0044923D01*
X0143033Y0044765D01*
X0142975Y0044606D01*
X0142920Y0044445D01*
X0142869Y0044283D01*
X0142823Y0044120D01*
X0142780Y0043956D01*
X0142741Y0043791D01*
X0142706Y0043624D01*
X0142676Y0043457D01*
X0142649Y0043290D01*
X0142626Y0043122D01*
X0142608Y0042953D01*
X0142594Y0042784D01*
X0142583Y0042614D01*
X0142577Y0042445D01*
X0142575Y0042275D01*
X0153102Y0048321D02*
X0153248Y0048234D01*
X0153391Y0048143D01*
X0153532Y0048049D01*
X0153671Y0047951D01*
X0153808Y0047850D01*
X0153942Y0047746D01*
X0154073Y0047639D01*
X0154202Y0047528D01*
X0154328Y0047414D01*
X0154451Y0047298D01*
X0154571Y0047178D01*
X0154689Y0047055D01*
X0154803Y0046930D01*
X0154914Y0046802D01*
X0155023Y0046671D01*
X0155128Y0046538D01*
X0155229Y0046402D01*
X0155328Y0046263D01*
X0155423Y0046123D01*
X0155514Y0045980D01*
X0155602Y0045835D01*
X0155687Y0045688D01*
X0155768Y0045538D01*
X0155845Y0045387D01*
X0155919Y0045234D01*
X0155989Y0045080D01*
X0156055Y0044923D01*
X0156117Y0044765D01*
X0156175Y0044606D01*
X0156230Y0044445D01*
X0156281Y0044283D01*
X0156327Y0044120D01*
X0156370Y0043956D01*
X0156409Y0043791D01*
X0156444Y0043624D01*
X0156474Y0043457D01*
X0156501Y0043290D01*
X0156524Y0043122D01*
X0156542Y0042953D01*
X0156556Y0042784D01*
X0156567Y0042614D01*
X0156573Y0042445D01*
X0156575Y0042275D01*
X0139075Y0042275D02*
X0139078Y0042533D01*
X0139088Y0042790D01*
X0139103Y0043047D01*
X0139126Y0043304D01*
X0139154Y0043560D01*
X0139189Y0043816D01*
X0139230Y0044070D01*
X0139277Y0044323D01*
X0139330Y0044576D01*
X0139390Y0044826D01*
X0139455Y0045075D01*
X0139527Y0045323D01*
X0139605Y0045569D01*
X0139689Y0045812D01*
X0139779Y0046054D01*
X0139874Y0046293D01*
X0139976Y0046530D01*
X0140083Y0046764D01*
X0140196Y0046996D01*
X0140315Y0047225D01*
X0140439Y0047450D01*
X0140569Y0047673D01*
X0140704Y0047892D01*
X0140845Y0048108D01*
X0140990Y0048321D01*
X0141141Y0048530D01*
X0141297Y0048735D01*
X0141458Y0048936D01*
X0141624Y0049133D01*
X0141795Y0049326D01*
X0141970Y0049515D01*
X0142150Y0049700D01*
X0142335Y0049880D01*
X0142524Y0050055D01*
X0142717Y0050226D01*
X0142914Y0050392D01*
X0143115Y0050553D01*
X0143320Y0050709D01*
X0143529Y0050860D01*
X0143742Y0051005D01*
X0143958Y0051146D01*
X0144177Y0051281D01*
X0144400Y0051411D01*
X0144625Y0051535D01*
X0144854Y0051654D01*
X0145086Y0051767D01*
X0145320Y0051874D01*
X0145557Y0051976D01*
X0145796Y0052071D01*
X0146038Y0052161D01*
X0146281Y0052245D01*
X0146527Y0052323D01*
X0146775Y0052395D01*
X0147024Y0052460D01*
X0147274Y0052520D01*
X0147527Y0052573D01*
X0147780Y0052620D01*
X0148034Y0052661D01*
X0148290Y0052696D01*
X0148546Y0052724D01*
X0148803Y0052747D01*
X0149060Y0052762D01*
X0149317Y0052772D01*
X0149575Y0052775D01*
X0149833Y0052772D01*
X0150090Y0052762D01*
X0150347Y0052747D01*
X0150604Y0052724D01*
X0150860Y0052696D01*
X0151116Y0052661D01*
X0151370Y0052620D01*
X0151623Y0052573D01*
X0151876Y0052520D01*
X0152126Y0052460D01*
X0152375Y0052395D01*
X0152623Y0052323D01*
X0152869Y0052245D01*
X0153112Y0052161D01*
X0153354Y0052071D01*
X0153593Y0051976D01*
X0153830Y0051874D01*
X0154064Y0051767D01*
X0154296Y0051654D01*
X0154525Y0051535D01*
X0154750Y0051411D01*
X0154973Y0051281D01*
X0155192Y0051146D01*
X0155408Y0051005D01*
X0155621Y0050860D01*
X0155830Y0050709D01*
X0156035Y0050553D01*
X0156236Y0050392D01*
X0156433Y0050226D01*
X0156626Y0050055D01*
X0156815Y0049880D01*
X0157000Y0049700D01*
X0157180Y0049515D01*
X0157355Y0049326D01*
X0157526Y0049133D01*
X0157692Y0048936D01*
X0157853Y0048735D01*
X0158009Y0048530D01*
X0158160Y0048321D01*
X0158305Y0048108D01*
X0158446Y0047892D01*
X0158581Y0047673D01*
X0158711Y0047450D01*
X0158835Y0047225D01*
X0158954Y0046996D01*
X0159067Y0046764D01*
X0159174Y0046530D01*
X0159276Y0046293D01*
X0159371Y0046054D01*
X0159461Y0045812D01*
X0159545Y0045569D01*
X0159623Y0045323D01*
X0159695Y0045075D01*
X0159760Y0044826D01*
X0159820Y0044576D01*
X0159873Y0044323D01*
X0159920Y0044070D01*
X0159961Y0043816D01*
X0159996Y0043560D01*
X0160024Y0043304D01*
X0160047Y0043047D01*
X0160062Y0042790D01*
X0160072Y0042533D01*
X0160075Y0042275D01*
X0160072Y0042017D01*
X0160062Y0041760D01*
X0160047Y0041503D01*
X0160024Y0041246D01*
X0159996Y0040990D01*
X0159961Y0040734D01*
X0159920Y0040480D01*
X0159873Y0040227D01*
X0159820Y0039974D01*
X0159760Y0039724D01*
X0159695Y0039475D01*
X0159623Y0039227D01*
X0159545Y0038981D01*
X0159461Y0038738D01*
X0159371Y0038496D01*
X0159276Y0038257D01*
X0159174Y0038020D01*
X0159067Y0037786D01*
X0158954Y0037554D01*
X0158835Y0037325D01*
X0158711Y0037100D01*
X0158581Y0036877D01*
X0158446Y0036658D01*
X0158305Y0036442D01*
X0158160Y0036229D01*
X0158009Y0036020D01*
X0157853Y0035815D01*
X0157692Y0035614D01*
X0157526Y0035417D01*
X0157355Y0035224D01*
X0157180Y0035035D01*
X0157000Y0034850D01*
X0156815Y0034670D01*
X0156626Y0034495D01*
X0156433Y0034324D01*
X0156236Y0034158D01*
X0156035Y0033997D01*
X0155830Y0033841D01*
X0155621Y0033690D01*
X0155408Y0033545D01*
X0155192Y0033404D01*
X0154973Y0033269D01*
X0154750Y0033139D01*
X0154525Y0033015D01*
X0154296Y0032896D01*
X0154064Y0032783D01*
X0153830Y0032676D01*
X0153593Y0032574D01*
X0153354Y0032479D01*
X0153112Y0032389D01*
X0152869Y0032305D01*
X0152623Y0032227D01*
X0152375Y0032155D01*
X0152126Y0032090D01*
X0151876Y0032030D01*
X0151623Y0031977D01*
X0151370Y0031930D01*
X0151116Y0031889D01*
X0150860Y0031854D01*
X0150604Y0031826D01*
X0150347Y0031803D01*
X0150090Y0031788D01*
X0149833Y0031778D01*
X0149575Y0031775D01*
X0149317Y0031778D01*
X0149060Y0031788D01*
X0148803Y0031803D01*
X0148546Y0031826D01*
X0148290Y0031854D01*
X0148034Y0031889D01*
X0147780Y0031930D01*
X0147527Y0031977D01*
X0147274Y0032030D01*
X0147024Y0032090D01*
X0146775Y0032155D01*
X0146527Y0032227D01*
X0146281Y0032305D01*
X0146038Y0032389D01*
X0145796Y0032479D01*
X0145557Y0032574D01*
X0145320Y0032676D01*
X0145086Y0032783D01*
X0144854Y0032896D01*
X0144625Y0033015D01*
X0144400Y0033139D01*
X0144177Y0033269D01*
X0143958Y0033404D01*
X0143742Y0033545D01*
X0143529Y0033690D01*
X0143320Y0033841D01*
X0143115Y0033997D01*
X0142914Y0034158D01*
X0142717Y0034324D01*
X0142524Y0034495D01*
X0142335Y0034670D01*
X0142150Y0034850D01*
X0141970Y0035035D01*
X0141795Y0035224D01*
X0141624Y0035417D01*
X0141458Y0035614D01*
X0141297Y0035815D01*
X0141141Y0036020D01*
X0140990Y0036229D01*
X0140845Y0036442D01*
X0140704Y0036658D01*
X0140569Y0036877D01*
X0140439Y0037100D01*
X0140315Y0037325D01*
X0140196Y0037554D01*
X0140083Y0037786D01*
X0139976Y0038020D01*
X0139874Y0038257D01*
X0139779Y0038496D01*
X0139689Y0038738D01*
X0139605Y0038981D01*
X0139527Y0039227D01*
X0139455Y0039475D01*
X0139390Y0039724D01*
X0139330Y0039974D01*
X0139277Y0040227D01*
X0139230Y0040480D01*
X0139189Y0040734D01*
X0139154Y0040990D01*
X0139126Y0041246D01*
X0139103Y0041503D01*
X0139088Y0041760D01*
X0139078Y0042017D01*
X0139075Y0042275D01*
X0153102Y0036229D02*
X0153248Y0036316D01*
X0153391Y0036407D01*
X0153532Y0036501D01*
X0153671Y0036599D01*
X0153808Y0036700D01*
X0153942Y0036804D01*
X0154073Y0036911D01*
X0154202Y0037022D01*
X0154328Y0037136D01*
X0154451Y0037252D01*
X0154571Y0037372D01*
X0154689Y0037495D01*
X0154803Y0037620D01*
X0154914Y0037748D01*
X0155023Y0037879D01*
X0155128Y0038012D01*
X0155229Y0038148D01*
X0155328Y0038287D01*
X0155423Y0038427D01*
X0155514Y0038570D01*
X0155602Y0038715D01*
X0155687Y0038862D01*
X0155768Y0039012D01*
X0155845Y0039163D01*
X0155919Y0039316D01*
X0155989Y0039470D01*
X0156055Y0039627D01*
X0156117Y0039785D01*
X0156175Y0039944D01*
X0156230Y0040105D01*
X0156281Y0040267D01*
X0156327Y0040430D01*
X0156370Y0040594D01*
X0156409Y0040759D01*
X0156444Y0040926D01*
X0156474Y0041093D01*
X0156501Y0041260D01*
X0156524Y0041428D01*
X0156542Y0041597D01*
X0156556Y0041766D01*
X0156567Y0041936D01*
X0156573Y0042105D01*
X0156575Y0042275D01*
X0146048Y0036229D02*
X0145902Y0036316D01*
X0145759Y0036407D01*
X0145618Y0036501D01*
X0145479Y0036599D01*
X0145342Y0036700D01*
X0145208Y0036804D01*
X0145077Y0036911D01*
X0144948Y0037022D01*
X0144822Y0037136D01*
X0144699Y0037252D01*
X0144579Y0037372D01*
X0144461Y0037495D01*
X0144347Y0037620D01*
X0144236Y0037748D01*
X0144127Y0037879D01*
X0144022Y0038012D01*
X0143921Y0038148D01*
X0143822Y0038287D01*
X0143727Y0038427D01*
X0143636Y0038570D01*
X0143548Y0038715D01*
X0143463Y0038862D01*
X0143382Y0039012D01*
X0143305Y0039163D01*
X0143231Y0039316D01*
X0143161Y0039470D01*
X0143095Y0039627D01*
X0143033Y0039785D01*
X0142975Y0039944D01*
X0142920Y0040105D01*
X0142869Y0040267D01*
X0142823Y0040430D01*
X0142780Y0040594D01*
X0142741Y0040759D01*
X0142706Y0040926D01*
X0142676Y0041093D01*
X0142649Y0041260D01*
X0142626Y0041428D01*
X0142608Y0041597D01*
X0142594Y0041766D01*
X0142583Y0041936D01*
X0142577Y0042105D01*
X0142575Y0042275D01*
D12*
X0140075Y0042275D02*
X0140078Y0042508D01*
X0140086Y0042741D01*
X0140101Y0042974D01*
X0140121Y0043206D01*
X0140146Y0043438D01*
X0140178Y0043669D01*
X0140215Y0043899D01*
X0140258Y0044128D01*
X0140306Y0044356D01*
X0140360Y0044583D01*
X0140419Y0044809D01*
X0140484Y0045033D01*
X0140554Y0045255D01*
X0140630Y0045475D01*
X0140712Y0045694D01*
X0140798Y0045910D01*
X0140890Y0046125D01*
X0140987Y0046337D01*
X0141089Y0046546D01*
X0141197Y0046753D01*
X0141309Y0046958D01*
X0141427Y0047159D01*
X0141549Y0047357D01*
X0141676Y0047553D01*
X0141808Y0047745D01*
X0141945Y0047934D01*
X0142086Y0048120D01*
X0142231Y0048302D01*
X0142382Y0048480D01*
X0142536Y0048655D01*
X0142695Y0048826D01*
X0142857Y0048993D01*
X0143024Y0049155D01*
X0143195Y0049314D01*
X0143370Y0049468D01*
X0143548Y0049619D01*
X0143730Y0049764D01*
X0143916Y0049905D01*
X0144105Y0050042D01*
X0144297Y0050174D01*
X0144493Y0050301D01*
X0144691Y0050423D01*
X0144892Y0050541D01*
X0145097Y0050653D01*
X0145304Y0050761D01*
X0145513Y0050863D01*
X0145725Y0050960D01*
X0145940Y0051052D01*
X0146156Y0051138D01*
X0146375Y0051220D01*
X0146595Y0051296D01*
X0146817Y0051366D01*
X0147041Y0051431D01*
X0147267Y0051490D01*
X0147494Y0051544D01*
X0147722Y0051592D01*
X0147951Y0051635D01*
X0148181Y0051672D01*
X0148412Y0051704D01*
X0148644Y0051729D01*
X0148876Y0051749D01*
X0149109Y0051764D01*
X0149342Y0051772D01*
X0149575Y0051775D01*
X0149808Y0051772D01*
X0150041Y0051764D01*
X0150274Y0051749D01*
X0150506Y0051729D01*
X0150738Y0051704D01*
X0150969Y0051672D01*
X0151199Y0051635D01*
X0151428Y0051592D01*
X0151656Y0051544D01*
X0151883Y0051490D01*
X0152109Y0051431D01*
X0152333Y0051366D01*
X0152555Y0051296D01*
X0152775Y0051220D01*
X0152994Y0051138D01*
X0153210Y0051052D01*
X0153425Y0050960D01*
X0153637Y0050863D01*
X0153846Y0050761D01*
X0154053Y0050653D01*
X0154258Y0050541D01*
X0154459Y0050423D01*
X0154657Y0050301D01*
X0154853Y0050174D01*
X0155045Y0050042D01*
X0155234Y0049905D01*
X0155420Y0049764D01*
X0155602Y0049619D01*
X0155780Y0049468D01*
X0155955Y0049314D01*
X0156126Y0049155D01*
X0156293Y0048993D01*
X0156455Y0048826D01*
X0156614Y0048655D01*
X0156768Y0048480D01*
X0156919Y0048302D01*
X0157064Y0048120D01*
X0157205Y0047934D01*
X0157342Y0047745D01*
X0157474Y0047553D01*
X0157601Y0047357D01*
X0157723Y0047159D01*
X0157841Y0046958D01*
X0157953Y0046753D01*
X0158061Y0046546D01*
X0158163Y0046337D01*
X0158260Y0046125D01*
X0158352Y0045910D01*
X0158438Y0045694D01*
X0158520Y0045475D01*
X0158596Y0045255D01*
X0158666Y0045033D01*
X0158731Y0044809D01*
X0158790Y0044583D01*
X0158844Y0044356D01*
X0158892Y0044128D01*
X0158935Y0043899D01*
X0158972Y0043669D01*
X0159004Y0043438D01*
X0159029Y0043206D01*
X0159049Y0042974D01*
X0159064Y0042741D01*
X0159072Y0042508D01*
X0159075Y0042275D01*
X0159072Y0042042D01*
X0159064Y0041809D01*
X0159049Y0041576D01*
X0159029Y0041344D01*
X0159004Y0041112D01*
X0158972Y0040881D01*
X0158935Y0040651D01*
X0158892Y0040422D01*
X0158844Y0040194D01*
X0158790Y0039967D01*
X0158731Y0039741D01*
X0158666Y0039517D01*
X0158596Y0039295D01*
X0158520Y0039075D01*
X0158438Y0038856D01*
X0158352Y0038640D01*
X0158260Y0038425D01*
X0158163Y0038213D01*
X0158061Y0038004D01*
X0157953Y0037797D01*
X0157841Y0037592D01*
X0157723Y0037391D01*
X0157601Y0037193D01*
X0157474Y0036997D01*
X0157342Y0036805D01*
X0157205Y0036616D01*
X0157064Y0036430D01*
X0156919Y0036248D01*
X0156768Y0036070D01*
X0156614Y0035895D01*
X0156455Y0035724D01*
X0156293Y0035557D01*
X0156126Y0035395D01*
X0155955Y0035236D01*
X0155780Y0035082D01*
X0155602Y0034931D01*
X0155420Y0034786D01*
X0155234Y0034645D01*
X0155045Y0034508D01*
X0154853Y0034376D01*
X0154657Y0034249D01*
X0154459Y0034127D01*
X0154258Y0034009D01*
X0154053Y0033897D01*
X0153846Y0033789D01*
X0153637Y0033687D01*
X0153425Y0033590D01*
X0153210Y0033498D01*
X0152994Y0033412D01*
X0152775Y0033330D01*
X0152555Y0033254D01*
X0152333Y0033184D01*
X0152109Y0033119D01*
X0151883Y0033060D01*
X0151656Y0033006D01*
X0151428Y0032958D01*
X0151199Y0032915D01*
X0150969Y0032878D01*
X0150738Y0032846D01*
X0150506Y0032821D01*
X0150274Y0032801D01*
X0150041Y0032786D01*
X0149808Y0032778D01*
X0149575Y0032775D01*
X0149342Y0032778D01*
X0149109Y0032786D01*
X0148876Y0032801D01*
X0148644Y0032821D01*
X0148412Y0032846D01*
X0148181Y0032878D01*
X0147951Y0032915D01*
X0147722Y0032958D01*
X0147494Y0033006D01*
X0147267Y0033060D01*
X0147041Y0033119D01*
X0146817Y0033184D01*
X0146595Y0033254D01*
X0146375Y0033330D01*
X0146156Y0033412D01*
X0145940Y0033498D01*
X0145725Y0033590D01*
X0145513Y0033687D01*
X0145304Y0033789D01*
X0145097Y0033897D01*
X0144892Y0034009D01*
X0144691Y0034127D01*
X0144493Y0034249D01*
X0144297Y0034376D01*
X0144105Y0034508D01*
X0143916Y0034645D01*
X0143730Y0034786D01*
X0143548Y0034931D01*
X0143370Y0035082D01*
X0143195Y0035236D01*
X0143024Y0035395D01*
X0142857Y0035557D01*
X0142695Y0035724D01*
X0142536Y0035895D01*
X0142382Y0036070D01*
X0142231Y0036248D01*
X0142086Y0036430D01*
X0141945Y0036616D01*
X0141808Y0036805D01*
X0141676Y0036997D01*
X0141549Y0037193D01*
X0141427Y0037391D01*
X0141309Y0037592D01*
X0141197Y0037797D01*
X0141089Y0038004D01*
X0140987Y0038213D01*
X0140890Y0038425D01*
X0140798Y0038640D01*
X0140712Y0038856D01*
X0140630Y0039075D01*
X0140554Y0039295D01*
X0140484Y0039517D01*
X0140419Y0039741D01*
X0140360Y0039967D01*
X0140306Y0040194D01*
X0140258Y0040422D01*
X0140215Y0040651D01*
X0140178Y0040881D01*
X0140146Y0041112D01*
X0140121Y0041344D01*
X0140101Y0041576D01*
X0140086Y0041809D01*
X0140078Y0042042D01*
X0140075Y0042275D01*
X0101591Y0076897D02*
X0098591Y0076897D01*
X0095591Y0076897D01*
X0095591Y0078897D02*
X0098591Y0078897D01*
X0101591Y0078897D01*
X0035500Y0039165D02*
X0035500Y0019165D01*
X0028000Y0019165D01*
X0028000Y0039165D01*
X0035500Y0039165D01*
X0028000Y0039165D02*
X0010500Y0039165D01*
X0010500Y0019165D01*
X0028000Y0019165D01*
D13*
X0040730Y0022175D02*
X0040730Y0026678D01*
X0043733Y0026678D01*
X0045334Y0026678D02*
X0048337Y0026678D01*
X0046836Y0026678D02*
X0046836Y0022175D01*
X0049938Y0022175D02*
X0049938Y0026678D01*
X0052190Y0026678D01*
X0052941Y0025928D01*
X0052941Y0022925D01*
X0052190Y0022175D01*
X0049938Y0022175D01*
X0054542Y0022175D02*
X0056043Y0022175D01*
X0055293Y0022175D02*
X0055293Y0026678D01*
X0056043Y0026678D02*
X0054542Y0026678D01*
X0042232Y0024427D02*
X0040730Y0024427D01*
X0044732Y0008678D02*
X0044732Y0004175D01*
X0046233Y0004175D02*
X0043230Y0004175D01*
X0043230Y0007177D02*
X0044732Y0008678D01*
X0023089Y0057123D02*
X0018585Y0057123D01*
X0018585Y0059375D01*
X0019335Y0060126D01*
X0020837Y0060126D01*
X0021587Y0059375D01*
X0021587Y0057123D01*
X0021587Y0058625D02*
X0023089Y0060126D01*
X0023089Y0061727D02*
X0020086Y0064730D01*
X0019335Y0064730D01*
X0018585Y0063979D01*
X0018585Y0062478D01*
X0019335Y0061727D01*
X0023089Y0061727D02*
X0023089Y0064730D01*
X0008285Y0064698D02*
X0008285Y0061696D01*
X0008285Y0063197D02*
X0003782Y0063197D01*
X0005283Y0061696D01*
X0004532Y0060095D02*
X0006034Y0060095D01*
X0006784Y0059344D01*
X0006784Y0057092D01*
X0006784Y0058593D02*
X0008285Y0060095D01*
X0008285Y0057092D02*
X0003782Y0057092D01*
X0003782Y0059344D01*
X0004532Y0060095D01*
X0011858Y0097787D02*
X0106740Y0097787D01*
X0106740Y0161566D01*
X0011858Y0161566D01*
X0011858Y0097787D01*
X0050939Y0078630D02*
X0050939Y0077128D01*
X0051690Y0076378D01*
X0051690Y0074776D02*
X0050939Y0074026D01*
X0050939Y0071774D01*
X0055443Y0071774D01*
X0053942Y0071774D02*
X0053942Y0074026D01*
X0053191Y0074776D01*
X0051690Y0074776D01*
X0053942Y0073275D02*
X0055443Y0074776D01*
X0054692Y0076378D02*
X0055443Y0077128D01*
X0055443Y0078630D01*
X0054692Y0079380D01*
X0053942Y0079380D01*
X0053191Y0078630D01*
X0053191Y0077879D01*
X0053191Y0078630D02*
X0052440Y0079380D01*
X0051690Y0079380D01*
X0050939Y0078630D01*
X0066057Y0079184D02*
X0066808Y0077682D01*
X0068309Y0076181D01*
X0068309Y0078433D01*
X0069060Y0079184D01*
X0069810Y0079184D01*
X0070561Y0078433D01*
X0070561Y0076932D01*
X0069810Y0076181D01*
X0068309Y0076181D01*
X0068309Y0074580D02*
X0066808Y0074580D01*
X0066057Y0073829D01*
X0066057Y0071577D01*
X0070561Y0071577D01*
X0069060Y0071577D02*
X0069060Y0073829D01*
X0068309Y0074580D01*
X0069060Y0073078D02*
X0070561Y0074580D01*
X0104837Y0078690D02*
X0105587Y0077939D01*
X0108590Y0077939D01*
X0109341Y0078690D01*
X0109341Y0080191D01*
X0108590Y0080942D01*
X0109341Y0082543D02*
X0109341Y0085546D01*
X0109341Y0084044D02*
X0104837Y0084044D01*
X0106338Y0082543D01*
X0105587Y0080942D02*
X0104837Y0080191D01*
X0104837Y0078690D01*
X0117526Y0072045D02*
X0117526Y0067541D01*
X0117526Y0069042D02*
X0119778Y0069042D01*
X0120528Y0069793D01*
X0120528Y0071294D01*
X0119778Y0072045D01*
X0117526Y0072045D01*
X0119027Y0069042D02*
X0120528Y0067541D01*
X0122130Y0068291D02*
X0122880Y0067541D01*
X0124381Y0067541D01*
X0125132Y0068291D01*
X0125132Y0069793D01*
X0124381Y0070543D01*
X0123631Y0070543D01*
X0122130Y0069793D01*
X0122130Y0072045D01*
X0125132Y0072045D01*
X0136443Y0091411D02*
X0136443Y0095915D01*
X0138695Y0095915D01*
X0139445Y0095164D01*
X0139445Y0093663D01*
X0138695Y0092912D01*
X0136443Y0092912D01*
X0137944Y0092912D02*
X0139445Y0091411D01*
X0141047Y0091411D02*
X0144049Y0091411D01*
X0145651Y0092162D02*
X0146401Y0091411D01*
X0147903Y0091411D01*
X0148653Y0092162D01*
X0148653Y0092912D01*
X0147903Y0093663D01*
X0146401Y0093663D01*
X0145651Y0094413D01*
X0145651Y0095164D01*
X0146401Y0095915D01*
X0147903Y0095915D01*
X0148653Y0095164D01*
X0150255Y0095915D02*
X0150255Y0091411D01*
X0153257Y0091411D01*
X0151756Y0093663D02*
X0150255Y0093663D01*
X0150255Y0095915D02*
X0153257Y0095915D01*
X0154859Y0095915D02*
X0157861Y0095915D01*
X0156360Y0095915D02*
X0156360Y0091411D01*
X0144049Y0095915D02*
X0141047Y0095915D01*
X0141047Y0091411D01*
X0141047Y0093663D02*
X0142548Y0093663D01*
X0130010Y0093853D02*
X0125506Y0093853D01*
X0125506Y0096105D01*
X0126257Y0096855D01*
X0127758Y0096855D01*
X0128509Y0096105D01*
X0128509Y0093853D01*
X0128509Y0095354D02*
X0130010Y0096855D01*
X0127758Y0098457D02*
X0127758Y0101459D01*
X0130010Y0100708D02*
X0125506Y0100708D01*
X0127758Y0098457D01*
X0136443Y0136411D02*
X0136443Y0140915D01*
X0139445Y0140915D01*
X0141047Y0140915D02*
X0141047Y0136411D01*
X0144049Y0136411D01*
X0145651Y0136411D02*
X0145651Y0139413D01*
X0147152Y0140915D01*
X0148653Y0139413D01*
X0148653Y0136411D01*
X0150255Y0137162D02*
X0151005Y0136411D01*
X0152507Y0136411D01*
X0153257Y0137162D01*
X0153257Y0137912D01*
X0152507Y0138663D01*
X0151005Y0138663D01*
X0150255Y0139413D01*
X0150255Y0140164D01*
X0151005Y0140915D01*
X0152507Y0140915D01*
X0153257Y0140164D01*
X0154859Y0140915D02*
X0154859Y0136411D01*
X0154859Y0138663D02*
X0157861Y0138663D01*
X0157861Y0140915D02*
X0157861Y0136411D01*
X0148653Y0138663D02*
X0145651Y0138663D01*
X0137944Y0138663D02*
X0136443Y0138663D01*
X0123872Y0050584D02*
X0123872Y0047582D01*
X0123872Y0049083D02*
X0119368Y0049083D01*
X0120869Y0047582D01*
X0120119Y0045980D02*
X0119368Y0045230D01*
X0119368Y0043728D01*
X0120119Y0042978D01*
X0123121Y0042978D01*
X0123872Y0043728D01*
X0123872Y0045230D01*
X0123121Y0045980D01*
X0120119Y0045980D01*
X0122371Y0044479D02*
X0123872Y0045980D01*
X0127622Y0040680D02*
X0127622Y0039101D01*
X0133122Y0038474D02*
X0133122Y0021982D01*
X0127622Y0021355D02*
X0127622Y0019775D01*
X0127622Y0029101D02*
X0127622Y0031355D01*
X0133122Y0021982D02*
X0132923Y0021829D01*
X0132721Y0021681D01*
X0132516Y0021538D01*
X0132307Y0021400D01*
X0132095Y0021267D01*
X0131880Y0021139D01*
X0131662Y0021017D01*
X0131441Y0020899D01*
X0131217Y0020787D01*
X0130991Y0020680D01*
X0130762Y0020579D01*
X0130531Y0020483D01*
X0130297Y0020392D01*
X0130062Y0020307D01*
X0129824Y0020228D01*
X0129585Y0020155D01*
X0129344Y0020087D01*
X0129102Y0020025D01*
X0128858Y0019969D01*
X0128612Y0019918D01*
X0128366Y0019874D01*
X0128119Y0019835D01*
X0127871Y0019803D01*
X0127622Y0019776D01*
X0127367Y0019754D01*
X0127111Y0019739D01*
X0126855Y0019731D01*
X0126598Y0019728D01*
X0126342Y0019732D01*
X0126086Y0019742D01*
X0125830Y0019758D01*
X0125575Y0019780D01*
X0125320Y0019809D01*
X0125066Y0019844D01*
X0124813Y0019885D01*
X0124561Y0019932D01*
X0124311Y0019986D01*
X0124062Y0020045D01*
X0123814Y0020111D01*
X0123568Y0020182D01*
X0123323Y0020260D01*
X0123081Y0020343D01*
X0122841Y0020432D01*
X0122603Y0020528D01*
X0122367Y0020629D01*
X0122134Y0020735D01*
X0121904Y0020848D01*
X0121676Y0020966D01*
X0121452Y0021089D01*
X0121230Y0021218D01*
X0121012Y0021352D01*
X0120797Y0021492D01*
X0120586Y0021637D01*
X0120378Y0021787D01*
X0120174Y0021941D01*
X0119973Y0022101D01*
X0119777Y0022266D01*
X0119585Y0022435D01*
X0119396Y0022610D01*
X0119213Y0022788D01*
X0119033Y0022971D01*
X0118858Y0023159D01*
X0118688Y0023350D01*
X0118523Y0023546D01*
X0118362Y0023746D01*
X0118206Y0023949D01*
X0118056Y0024156D01*
X0117910Y0024367D01*
X0117769Y0024582D01*
X0117634Y0024799D01*
X0117504Y0025020D01*
X0117380Y0025244D01*
X0117261Y0025471D01*
X0117148Y0025701D01*
X0117040Y0025934D01*
X0116938Y0026169D01*
X0116842Y0026407D01*
X0116752Y0026646D01*
X0116667Y0026888D01*
X0116589Y0027132D01*
X0116589Y0033324D02*
X0116667Y0033566D01*
X0116751Y0033806D01*
X0116840Y0034044D01*
X0116935Y0034280D01*
X0117037Y0034514D01*
X0117143Y0034745D01*
X0117256Y0034973D01*
X0117373Y0035199D01*
X0117496Y0035422D01*
X0117625Y0035641D01*
X0117759Y0035858D01*
X0117898Y0036071D01*
X0118042Y0036281D01*
X0118191Y0036487D01*
X0118345Y0036689D01*
X0118504Y0036888D01*
X0118668Y0037083D01*
X0118837Y0037274D01*
X0119010Y0037460D01*
X0119187Y0037643D01*
X0119369Y0037821D01*
X0119555Y0037994D01*
X0119746Y0038163D01*
X0119940Y0038327D01*
X0120138Y0038487D01*
X0120340Y0038642D01*
X0120546Y0038791D01*
X0120755Y0038936D01*
X0120968Y0039076D01*
X0121184Y0039210D01*
X0121404Y0039339D01*
X0121626Y0039463D01*
X0121851Y0039582D01*
X0122079Y0039694D01*
X0122310Y0039802D01*
X0122543Y0039903D01*
X0122779Y0039999D01*
X0123017Y0040090D01*
X0123257Y0040174D01*
X0123499Y0040253D01*
X0123743Y0040326D01*
X0123989Y0040392D01*
X0124236Y0040453D01*
X0124484Y0040508D01*
X0124734Y0040557D01*
X0124985Y0040600D01*
X0125237Y0040636D01*
X0125489Y0040667D01*
X0125743Y0040691D01*
X0125996Y0040709D01*
X0126251Y0040721D01*
X0126505Y0040727D01*
X0126760Y0040727D01*
X0127014Y0040721D01*
X0127268Y0040708D01*
X0127522Y0040689D01*
X0127775Y0040664D01*
X0128028Y0040633D01*
X0128280Y0040596D01*
X0128530Y0040553D01*
X0128780Y0040504D01*
X0129029Y0040448D01*
X0129276Y0040387D01*
X0129521Y0040320D01*
X0129765Y0040247D01*
X0130007Y0040168D01*
X0130246Y0040083D01*
X0130484Y0039992D01*
X0130720Y0039895D01*
X0130953Y0039793D01*
X0131183Y0039685D01*
X0131411Y0039572D01*
X0131636Y0039453D01*
X0131858Y0039329D01*
X0132077Y0039199D01*
X0132293Y0039065D01*
X0132506Y0038925D01*
X0132715Y0038779D01*
X0132920Y0038629D01*
X0133122Y0038474D01*
X0161821Y0039852D02*
X0161821Y0041353D01*
X0161821Y0040602D02*
X0166325Y0040602D01*
X0166325Y0039852D02*
X0166325Y0041353D01*
X0166325Y0042921D02*
X0161821Y0042921D01*
X0161821Y0045173D01*
X0162572Y0045924D01*
X0164073Y0045924D01*
X0164824Y0045173D01*
X0164824Y0042921D01*
X0164824Y0044422D02*
X0166325Y0045924D01*
X0096233Y0026678D02*
X0094732Y0025928D01*
X0093230Y0024427D01*
X0095482Y0024427D01*
X0096233Y0023676D01*
X0096233Y0022925D01*
X0095482Y0022175D01*
X0093981Y0022175D01*
X0093230Y0022925D01*
X0093230Y0024427D01*
D14*
X0041800Y0031999D02*
X0038197Y0034401D01*
X0039398Y0035682D02*
X0038197Y0036883D01*
X0041800Y0036883D01*
X0041800Y0035682D02*
X0041800Y0038084D01*
X0041800Y0034401D02*
X0038197Y0031999D01*
X0080650Y0112672D02*
X0080650Y0117276D01*
X0082185Y0115741D01*
X0083720Y0117276D01*
X0083720Y0112672D01*
X0085254Y0112672D02*
X0087556Y0112672D01*
X0088324Y0113439D01*
X0088324Y0116508D01*
X0087556Y0117276D01*
X0085254Y0117276D01*
X0085254Y0112672D01*
X0089858Y0112672D02*
X0089858Y0117276D01*
X0089858Y0112672D02*
X0092928Y0112672D01*
X0094462Y0112672D02*
X0097531Y0112672D01*
X0095997Y0112672D02*
X0095997Y0117276D01*
X0094462Y0115741D01*
X0062800Y0117672D02*
X0062800Y0120741D01*
X0062033Y0122276D02*
X0062800Y0123043D01*
X0062800Y0124578D01*
X0062033Y0125345D01*
X0061265Y0125345D01*
X0060498Y0124578D01*
X0060498Y0123043D01*
X0059731Y0122276D01*
X0058963Y0122276D01*
X0058196Y0123043D01*
X0058196Y0124578D01*
X0058963Y0125345D01*
X0058196Y0126880D02*
X0058196Y0129182D01*
X0058963Y0129949D01*
X0060498Y0129949D01*
X0061265Y0129182D01*
X0061265Y0126880D01*
X0062800Y0126880D02*
X0058196Y0126880D01*
X0060498Y0131484D02*
X0060498Y0134553D01*
X0059731Y0136088D02*
X0058196Y0137622D01*
X0062800Y0137622D01*
X0062800Y0136088D02*
X0062800Y0139157D01*
X0062800Y0140692D02*
X0059731Y0143761D01*
X0058963Y0143761D01*
X0058196Y0142993D01*
X0058196Y0141459D01*
X0058963Y0140692D01*
X0062800Y0140692D02*
X0062800Y0143761D01*
X0062800Y0145295D02*
X0062800Y0148365D01*
X0060498Y0146830D02*
X0060498Y0145295D01*
X0058196Y0145295D02*
X0062800Y0145295D01*
X0058196Y0145295D02*
X0058196Y0148365D01*
X0058196Y0120741D02*
X0058196Y0117672D01*
X0062800Y0117672D01*
X0060498Y0117672D02*
X0060498Y0119207D01*
D15*
X0142713Y0121661D02*
X0142713Y0122661D01*
X0142713Y0121661D02*
X0152213Y0121661D01*
X0152213Y0122661D01*
X0152213Y0143661D02*
X0152213Y0144661D01*
X0142213Y0144661D01*
X0142213Y0143661D01*
X0142713Y0166661D02*
X0142713Y0167661D01*
X0142713Y0166661D02*
X0152213Y0166661D01*
X0152213Y0167661D01*
X0152213Y0099661D02*
X0142213Y0099661D01*
X0142213Y0098661D01*
X0152213Y0098661D02*
X0152213Y0099661D01*
D16*
X0119260Y0105010D03*
X0119260Y0076610D03*
X0059811Y0082735D03*
X0044693Y0082932D03*
X0029339Y0083073D03*
X0014535Y0083042D03*
X0014535Y0054642D03*
X0029339Y0054673D03*
X0044693Y0054532D03*
X0059811Y0054335D03*
D17*
X0115076Y0061291D03*
X0143476Y0061291D03*
D18*
X0095248Y0061356D02*
X0095248Y0035556D01*
X0082248Y0035556D01*
X0082248Y0061356D01*
X0095248Y0061356D01*
D19*
X0106547Y0050783D02*
X0108048Y0050783D01*
X0108048Y0050283D02*
X0108048Y0051284D01*
X0107047Y0050283D02*
X0106547Y0050783D01*
X0106797Y0049810D02*
X0106547Y0049560D01*
X0106547Y0049060D01*
X0106797Y0048810D01*
X0107798Y0048810D01*
X0108048Y0049060D01*
X0108048Y0049560D01*
X0107798Y0049810D01*
X0108048Y0048328D02*
X0108048Y0047827D01*
X0108048Y0048078D02*
X0106547Y0048078D01*
X0106547Y0048328D02*
X0106547Y0047827D01*
M02*
