G75*
%MOIN*%
%OFA0B0*%
%FSLAX25Y25*%
%IPPOS*%
%LPD*%
%AMOC8*
5,1,8,0,0,1.08239X$1,22.5*
%
%ADD10C,0.05200*%
%ADD11C,0.06000*%
%ADD12R,0.04724X0.07874*%
%ADD13R,0.07874X0.04724*%
%ADD14OC8,0.05200*%
%ADD15R,0.08800X0.04800*%
%ADD16R,0.08661X0.14173*%
%ADD17C,0.05937*%
%ADD18C,0.01000*%
%ADD19C,0.04000*%
D10*
X0146975Y0037275D02*
X0152175Y0037275D01*
X0152175Y0047275D02*
X0146975Y0047275D01*
D11*
X0137413Y0101761D02*
X0131413Y0101761D01*
X0131413Y0119561D02*
X0137413Y0119561D01*
X0157013Y0119561D02*
X0163013Y0119561D01*
X0163013Y0101761D02*
X0157013Y0101761D01*
X0157013Y0146761D02*
X0163013Y0146761D01*
X0163013Y0164561D02*
X0157013Y0164561D01*
X0137413Y0164561D02*
X0131413Y0164561D01*
X0131413Y0146761D02*
X0137413Y0146761D01*
X0095480Y0018425D02*
X0095480Y0012425D01*
X0085480Y0012425D02*
X0085480Y0018425D01*
X0075480Y0018425D02*
X0075480Y0012425D01*
X0065480Y0012425D02*
X0065480Y0018425D01*
X0055480Y0018425D02*
X0055480Y0012425D01*
X0045480Y0012425D02*
X0045480Y0018425D01*
D12*
X0043748Y0097787D03*
X0051622Y0097787D03*
X0059496Y0097787D03*
X0067370Y0097787D03*
X0075244Y0097787D03*
X0083118Y0097787D03*
X0090992Y0097787D03*
X0098866Y0097787D03*
X0098866Y0161566D03*
X0090992Y0161566D03*
X0083118Y0161566D03*
X0075244Y0161566D03*
X0067370Y0161566D03*
X0059496Y0161566D03*
X0051622Y0161566D03*
X0043748Y0161566D03*
D13*
X0106740Y0148968D03*
X0106740Y0141094D03*
X0106740Y0133220D03*
X0106740Y0125346D03*
X0106740Y0117472D03*
X0106740Y0109598D03*
D14*
X0119260Y0110810D03*
X0098591Y0082897D03*
X0098591Y0072897D03*
X0109276Y0061291D03*
X0119260Y0070810D03*
X0149276Y0061291D03*
X0126622Y0035228D03*
X0119122Y0030228D03*
X0126622Y0025228D03*
X0059811Y0048535D03*
X0044693Y0048732D03*
X0029339Y0048873D03*
X0014535Y0048842D03*
X0014535Y0088842D03*
X0029339Y0088873D03*
X0044693Y0088732D03*
X0059811Y0088535D03*
D15*
X0076548Y0057556D03*
X0076548Y0048456D03*
X0076548Y0039356D03*
D16*
X0100949Y0048456D03*
D17*
X0025969Y0034165D02*
X0020031Y0034165D01*
X0020031Y0024165D02*
X0025969Y0024165D01*
D18*
X0006240Y0007287D02*
X0006240Y0173484D01*
X0164563Y0173484D01*
X0164563Y0169331D01*
X0164007Y0169561D01*
X0156018Y0169561D01*
X0154180Y0168800D01*
X0152774Y0167393D01*
X0152013Y0165555D01*
X0152013Y0163566D01*
X0152774Y0161729D01*
X0154180Y0160322D01*
X0156018Y0159561D01*
X0164007Y0159561D01*
X0164563Y0159791D01*
X0164563Y0150989D01*
X0164066Y0151150D01*
X0163367Y0151261D01*
X0160513Y0151261D01*
X0160513Y0147261D01*
X0159513Y0147261D01*
X0159513Y0151261D01*
X0156658Y0151261D01*
X0155959Y0151150D01*
X0155285Y0150931D01*
X0154654Y0150610D01*
X0154081Y0150193D01*
X0153580Y0149692D01*
X0153164Y0149119D01*
X0152842Y0148488D01*
X0152623Y0147815D01*
X0152536Y0147261D01*
X0159513Y0147261D01*
X0159513Y0146261D01*
X0160513Y0146261D01*
X0160513Y0142261D01*
X0163367Y0142261D01*
X0164066Y0142372D01*
X0164563Y0142533D01*
X0164563Y0123789D01*
X0164066Y0123950D01*
X0163367Y0124061D01*
X0160513Y0124061D01*
X0160513Y0120061D01*
X0159513Y0120061D01*
X0159513Y0124061D01*
X0156658Y0124061D01*
X0155959Y0123950D01*
X0155285Y0123731D01*
X0154654Y0123410D01*
X0154081Y0122993D01*
X0153580Y0122492D01*
X0153164Y0121919D01*
X0152842Y0121288D01*
X0152623Y0120615D01*
X0152536Y0120061D01*
X0159513Y0120061D01*
X0159513Y0119061D01*
X0160513Y0119061D01*
X0160513Y0115061D01*
X0163367Y0115061D01*
X0164066Y0115172D01*
X0164563Y0115333D01*
X0164563Y0106531D01*
X0164007Y0106761D01*
X0156018Y0106761D01*
X0154180Y0106000D01*
X0152774Y0104593D01*
X0152013Y0102755D01*
X0152013Y0100766D01*
X0152774Y0098929D01*
X0154180Y0097522D01*
X0156018Y0096761D01*
X0164007Y0096761D01*
X0164563Y0096991D01*
X0164563Y0007287D01*
X0006240Y0007287D01*
X0006240Y0007779D02*
X0043629Y0007779D01*
X0044486Y0007425D02*
X0042648Y0008186D01*
X0041242Y0009592D01*
X0040480Y0011430D01*
X0040480Y0019419D01*
X0041242Y0021257D01*
X0042648Y0022663D01*
X0044486Y0023425D01*
X0046475Y0023425D01*
X0048313Y0022663D01*
X0049719Y0021257D01*
X0050480Y0019419D01*
X0050480Y0011430D01*
X0049719Y0009592D01*
X0048313Y0008186D01*
X0046475Y0007425D01*
X0044486Y0007425D01*
X0047331Y0007779D02*
X0053629Y0007779D01*
X0054486Y0007425D02*
X0056475Y0007425D01*
X0058313Y0008186D01*
X0059719Y0009592D01*
X0060480Y0011430D01*
X0060480Y0019419D01*
X0059719Y0021257D01*
X0058313Y0022663D01*
X0056475Y0023425D01*
X0054486Y0023425D01*
X0052648Y0022663D01*
X0051242Y0021257D01*
X0050480Y0019419D01*
X0050480Y0011430D01*
X0051242Y0009592D01*
X0052648Y0008186D01*
X0054486Y0007425D01*
X0052056Y0008778D02*
X0048905Y0008778D01*
X0049795Y0009776D02*
X0051165Y0009776D01*
X0050752Y0010775D02*
X0050209Y0010775D01*
X0050480Y0011773D02*
X0050480Y0011773D01*
X0050480Y0012772D02*
X0050480Y0012772D01*
X0050480Y0013770D02*
X0050480Y0013770D01*
X0050480Y0014769D02*
X0050480Y0014769D01*
X0050480Y0015767D02*
X0050480Y0015767D01*
X0050480Y0016766D02*
X0050480Y0016766D01*
X0050480Y0017765D02*
X0050480Y0017765D01*
X0050480Y0018763D02*
X0050480Y0018763D01*
X0050339Y0019762D02*
X0050622Y0019762D01*
X0051036Y0020760D02*
X0049925Y0020760D01*
X0049217Y0021759D02*
X0051743Y0021759D01*
X0052874Y0022757D02*
X0048087Y0022757D01*
X0042874Y0022757D02*
X0030763Y0022757D01*
X0030937Y0023176D02*
X0030937Y0023448D01*
X0031360Y0023871D01*
X0044026Y0036537D01*
X0070148Y0036537D01*
X0070148Y0036128D01*
X0071320Y0034956D01*
X0081776Y0034956D01*
X0082948Y0036128D01*
X0082948Y0038989D01*
X0083349Y0038021D01*
X0084240Y0037130D01*
X0084240Y0036322D01*
X0076955Y0029037D01*
X0071243Y0029037D01*
X0070324Y0028656D01*
X0065092Y0023425D01*
X0064486Y0023425D01*
X0062648Y0022663D01*
X0061242Y0021257D01*
X0060480Y0019419D01*
X0060480Y0011430D01*
X0061242Y0009592D01*
X0062648Y0008186D01*
X0064486Y0007425D01*
X0066475Y0007425D01*
X0068313Y0008186D01*
X0069719Y0009592D01*
X0070480Y0011430D01*
X0070480Y0019419D01*
X0069800Y0021061D01*
X0072776Y0024037D01*
X0075705Y0024037D01*
X0075092Y0023425D01*
X0074486Y0023425D01*
X0072648Y0022663D01*
X0071242Y0021257D01*
X0070480Y0019419D01*
X0070480Y0011430D01*
X0071242Y0009592D01*
X0072648Y0008186D01*
X0074486Y0007425D01*
X0076475Y0007425D01*
X0078313Y0008186D01*
X0079719Y0009592D01*
X0080480Y0011430D01*
X0080480Y0019419D01*
X0079800Y0021061D01*
X0093156Y0034417D01*
X0093860Y0035121D01*
X0094240Y0036040D01*
X0094240Y0040501D01*
X0094618Y0040879D01*
X0094618Y0040541D01*
X0095790Y0039370D01*
X0106108Y0039370D01*
X0107280Y0040541D01*
X0107280Y0048541D01*
X0112610Y0053871D01*
X0112990Y0054790D01*
X0112990Y0058284D01*
X0112927Y0058437D01*
X0113876Y0059385D01*
X0113876Y0063196D01*
X0111181Y0065891D01*
X0107370Y0065891D01*
X0104676Y0063196D01*
X0104676Y0059385D01*
X0107370Y0056691D01*
X0107990Y0056691D01*
X0107990Y0056322D01*
X0107280Y0055612D01*
X0107280Y0056371D01*
X0106108Y0057543D01*
X0095790Y0057543D01*
X0094618Y0056371D01*
X0094618Y0047950D01*
X0091740Y0045072D01*
X0085656Y0051156D01*
X0084737Y0051537D01*
X0082948Y0051537D01*
X0082948Y0051685D01*
X0081776Y0052856D01*
X0071320Y0052856D01*
X0070148Y0051685D01*
X0070148Y0050287D01*
X0064411Y0050287D01*
X0064411Y0050440D01*
X0061716Y0053135D01*
X0057906Y0053135D01*
X0055211Y0050440D01*
X0055211Y0048543D01*
X0050705Y0044037D01*
X0039026Y0044037D01*
X0033939Y0049124D01*
X0033939Y0050779D01*
X0031244Y0053473D01*
X0027433Y0053473D01*
X0026636Y0052676D01*
X0023156Y0056156D01*
X0022237Y0056537D01*
X0019993Y0056537D01*
X0019074Y0056156D01*
X0018371Y0055453D01*
X0016360Y0053442D01*
X0012630Y0053442D01*
X0009935Y0050747D01*
X0009935Y0046937D01*
X0012630Y0044242D01*
X0016441Y0044242D01*
X0019135Y0046937D01*
X0019135Y0049147D01*
X0021115Y0051126D01*
X0024621Y0047621D01*
X0024739Y0047503D01*
X0024739Y0046968D01*
X0027433Y0044273D01*
X0031244Y0044273D01*
X0031481Y0044510D01*
X0035871Y0040121D01*
X0036574Y0039417D01*
X0037493Y0039037D01*
X0039455Y0039037D01*
X0028789Y0028371D01*
X0028783Y0028377D01*
X0026957Y0029133D01*
X0019043Y0029133D01*
X0017217Y0028377D01*
X0015819Y0026979D01*
X0015063Y0025153D01*
X0015063Y0023176D01*
X0015819Y0021350D01*
X0017217Y0019953D01*
X0019043Y0019196D01*
X0026957Y0019196D01*
X0028783Y0019953D01*
X0030181Y0021350D01*
X0030937Y0023176D01*
X0031244Y0023756D02*
X0065423Y0023756D01*
X0066422Y0024754D02*
X0032243Y0024754D01*
X0033241Y0025753D02*
X0067420Y0025753D01*
X0068419Y0026751D02*
X0034240Y0026751D01*
X0035238Y0027750D02*
X0069417Y0027750D01*
X0070546Y0028748D02*
X0036237Y0028748D01*
X0037235Y0029747D02*
X0077664Y0029747D01*
X0078663Y0030745D02*
X0038234Y0030745D01*
X0039233Y0031744D02*
X0079661Y0031744D01*
X0080660Y0032742D02*
X0040231Y0032742D01*
X0041230Y0033741D02*
X0081658Y0033741D01*
X0082657Y0034739D02*
X0042228Y0034739D01*
X0043227Y0035738D02*
X0070538Y0035738D01*
X0075490Y0039037D02*
X0076548Y0039356D01*
X0075490Y0039037D02*
X0042990Y0039037D01*
X0029240Y0025287D01*
X0024240Y0025287D01*
X0023000Y0024165D01*
X0022516Y0029696D02*
X0019680Y0029696D01*
X0018985Y0029806D01*
X0018316Y0030024D01*
X0017689Y0030343D01*
X0017120Y0030756D01*
X0016623Y0031254D01*
X0016210Y0031823D01*
X0015890Y0032449D01*
X0015673Y0033118D01*
X0015584Y0033681D01*
X0022516Y0033681D01*
X0022516Y0034649D01*
X0022516Y0038633D01*
X0019680Y0038633D01*
X0018985Y0038523D01*
X0018316Y0038306D01*
X0017689Y0037987D01*
X0017120Y0037573D01*
X0016623Y0037076D01*
X0016210Y0036507D01*
X0015890Y0035880D01*
X0015673Y0035211D01*
X0015584Y0034649D01*
X0022516Y0034649D01*
X0023484Y0034649D01*
X0023484Y0038633D01*
X0026320Y0038633D01*
X0027015Y0038523D01*
X0027684Y0038306D01*
X0028311Y0037987D01*
X0028880Y0037573D01*
X0029377Y0037076D01*
X0029790Y0036507D01*
X0030110Y0035880D01*
X0030327Y0035211D01*
X0030416Y0034649D01*
X0023484Y0034649D01*
X0023484Y0033681D01*
X0030416Y0033681D01*
X0030327Y0033118D01*
X0030110Y0032449D01*
X0029790Y0031823D01*
X0029377Y0031254D01*
X0028880Y0030756D01*
X0028311Y0030343D01*
X0027684Y0030024D01*
X0027015Y0029806D01*
X0026320Y0029696D01*
X0023484Y0029696D01*
X0023484Y0033680D01*
X0022516Y0033680D01*
X0022516Y0029696D01*
X0022516Y0029747D02*
X0023484Y0029747D01*
X0023484Y0030745D02*
X0022516Y0030745D01*
X0022516Y0031744D02*
X0023484Y0031744D01*
X0023484Y0032742D02*
X0022516Y0032742D01*
X0022516Y0033741D02*
X0006240Y0033741D01*
X0006240Y0034739D02*
X0015598Y0034739D01*
X0015844Y0035738D02*
X0006240Y0035738D01*
X0006240Y0036736D02*
X0016376Y0036736D01*
X0017343Y0037735D02*
X0006240Y0037735D01*
X0006240Y0038733D02*
X0039151Y0038733D01*
X0038153Y0037735D02*
X0028657Y0037735D01*
X0029624Y0036736D02*
X0037154Y0036736D01*
X0036156Y0035738D02*
X0030156Y0035738D01*
X0030402Y0034739D02*
X0035157Y0034739D01*
X0034158Y0033741D02*
X0023484Y0033741D01*
X0023484Y0034739D02*
X0022516Y0034739D01*
X0022516Y0035738D02*
X0023484Y0035738D01*
X0023484Y0036736D02*
X0022516Y0036736D01*
X0022516Y0037735D02*
X0023484Y0037735D01*
X0026982Y0044724D02*
X0016923Y0044724D01*
X0017922Y0045723D02*
X0025984Y0045723D01*
X0024985Y0046721D02*
X0018920Y0046721D01*
X0019135Y0047720D02*
X0024522Y0047720D01*
X0023523Y0048718D02*
X0019135Y0048718D01*
X0019706Y0049717D02*
X0022525Y0049717D01*
X0021526Y0050715D02*
X0020704Y0050715D01*
X0020490Y0054037D02*
X0021740Y0054037D01*
X0026740Y0049037D01*
X0029240Y0049037D01*
X0029339Y0048873D01*
X0030490Y0047787D01*
X0031740Y0047787D01*
X0037990Y0041537D01*
X0051740Y0041537D01*
X0059240Y0049037D01*
X0059811Y0048535D01*
X0060490Y0047787D01*
X0075490Y0047787D01*
X0076548Y0048456D01*
X0076740Y0049037D01*
X0084240Y0049037D01*
X0091740Y0041537D01*
X0097990Y0047787D01*
X0100490Y0047787D01*
X0100949Y0048456D01*
X0101740Y0049037D01*
X0104240Y0049037D01*
X0110490Y0055287D01*
X0110490Y0057787D01*
X0109240Y0059037D01*
X0109240Y0060287D01*
X0109276Y0061291D01*
X0112377Y0064695D02*
X0115530Y0064695D01*
X0115490Y0064790D02*
X0115871Y0063871D01*
X0116574Y0063167D01*
X0116740Y0063001D01*
X0116740Y0038822D01*
X0115871Y0037953D01*
X0115490Y0037034D01*
X0115490Y0033540D01*
X0115619Y0033230D01*
X0114522Y0032133D01*
X0114522Y0028322D01*
X0117217Y0025628D01*
X0121027Y0025628D01*
X0123722Y0028322D01*
X0123722Y0031622D01*
X0124717Y0030628D01*
X0128527Y0030628D01*
X0129446Y0031546D01*
X0133371Y0027621D01*
X0134074Y0026917D01*
X0134993Y0026537D01*
X0147237Y0026537D01*
X0148156Y0026917D01*
X0148860Y0027621D01*
X0150656Y0029417D01*
X0151360Y0030121D01*
X0151740Y0031040D01*
X0151740Y0032675D01*
X0153090Y0032675D01*
X0154780Y0033375D01*
X0156074Y0034669D01*
X0156775Y0036360D01*
X0156775Y0038190D01*
X0156074Y0039881D01*
X0154780Y0041175D01*
X0153090Y0041875D01*
X0146060Y0041875D01*
X0144369Y0041175D01*
X0143075Y0039881D01*
X0142375Y0038190D01*
X0142375Y0036360D01*
X0143075Y0034669D01*
X0144369Y0033375D01*
X0146060Y0032675D01*
X0146740Y0032675D01*
X0146740Y0032572D01*
X0145705Y0031537D01*
X0136526Y0031537D01*
X0131222Y0036840D01*
X0131222Y0037133D01*
X0128527Y0039828D01*
X0124717Y0039828D01*
X0122022Y0037133D01*
X0122022Y0033833D01*
X0121027Y0034828D01*
X0120735Y0034828D01*
X0120490Y0035072D01*
X0120490Y0035501D01*
X0120656Y0035667D01*
X0121360Y0036371D01*
X0121740Y0037290D01*
X0121740Y0064534D01*
X0121360Y0065453D01*
X0120602Y0066210D01*
X0121165Y0066210D01*
X0123860Y0068905D01*
X0123860Y0072716D01*
X0121165Y0075410D01*
X0117354Y0075410D01*
X0114660Y0072716D01*
X0114660Y0068905D01*
X0115490Y0068075D01*
X0115490Y0064790D01*
X0115490Y0065693D02*
X0111379Y0065693D01*
X0113376Y0063696D02*
X0116045Y0063696D01*
X0116740Y0062698D02*
X0113876Y0062698D01*
X0113876Y0061699D02*
X0116740Y0061699D01*
X0116740Y0060701D02*
X0113876Y0060701D01*
X0113876Y0059702D02*
X0116740Y0059702D01*
X0116740Y0058703D02*
X0113194Y0058703D01*
X0112990Y0057705D02*
X0116740Y0057705D01*
X0116740Y0056706D02*
X0112990Y0056706D01*
X0112990Y0055708D02*
X0116740Y0055708D01*
X0116740Y0054709D02*
X0112957Y0054709D01*
X0112450Y0053711D02*
X0116740Y0053711D01*
X0116740Y0052712D02*
X0111451Y0052712D01*
X0110453Y0051714D02*
X0116740Y0051714D01*
X0116740Y0050715D02*
X0109454Y0050715D01*
X0108456Y0049717D02*
X0116740Y0049717D01*
X0116740Y0048718D02*
X0107457Y0048718D01*
X0107280Y0047720D02*
X0116740Y0047720D01*
X0116740Y0046721D02*
X0107280Y0046721D01*
X0107280Y0045723D02*
X0116740Y0045723D01*
X0116740Y0044724D02*
X0107280Y0044724D01*
X0107280Y0043726D02*
X0116740Y0043726D01*
X0116740Y0042727D02*
X0107280Y0042727D01*
X0107280Y0041729D02*
X0116740Y0041729D01*
X0116740Y0040730D02*
X0107280Y0040730D01*
X0106470Y0039732D02*
X0116740Y0039732D01*
X0116651Y0038733D02*
X0094240Y0038733D01*
X0094240Y0037735D02*
X0115780Y0037735D01*
X0115490Y0036736D02*
X0094240Y0036736D01*
X0094115Y0035738D02*
X0115490Y0035738D01*
X0115490Y0034739D02*
X0093478Y0034739D01*
X0092480Y0033741D02*
X0115490Y0033741D01*
X0115131Y0032742D02*
X0091481Y0032742D01*
X0090483Y0031744D02*
X0114522Y0031744D01*
X0114522Y0030745D02*
X0089484Y0030745D01*
X0088485Y0029747D02*
X0114522Y0029747D01*
X0114522Y0028748D02*
X0087487Y0028748D01*
X0086488Y0027750D02*
X0115095Y0027750D01*
X0116093Y0026751D02*
X0085490Y0026751D01*
X0084491Y0025753D02*
X0117092Y0025753D01*
X0119122Y0030228D02*
X0119240Y0030287D01*
X0119240Y0032787D01*
X0117990Y0034037D01*
X0117990Y0036537D01*
X0119240Y0037787D01*
X0119240Y0064037D01*
X0117990Y0065287D01*
X0117990Y0067787D01*
X0120490Y0070287D01*
X0119260Y0070810D01*
X0114660Y0070686D02*
X0102884Y0070686D01*
X0103191Y0070992D02*
X0103191Y0073202D01*
X0107610Y0077621D01*
X0107990Y0078540D01*
X0107990Y0087034D01*
X0107610Y0087953D01*
X0106906Y0088656D01*
X0102885Y0092678D01*
X0103228Y0093021D01*
X0103228Y0100263D01*
X0103371Y0100121D01*
X0104074Y0099417D01*
X0104993Y0099037D01*
X0112237Y0099037D01*
X0113156Y0099417D01*
X0119949Y0106210D01*
X0121165Y0106210D01*
X0123860Y0108905D01*
X0123860Y0112716D01*
X0121165Y0115410D01*
X0117354Y0115410D01*
X0114660Y0112716D01*
X0114660Y0108905D01*
X0115116Y0108449D01*
X0110705Y0104037D01*
X0106526Y0104037D01*
X0105327Y0105236D01*
X0111506Y0105236D01*
X0112677Y0106407D01*
X0112677Y0112788D01*
X0111931Y0113535D01*
X0112677Y0114281D01*
X0112677Y0120663D01*
X0111931Y0121409D01*
X0112677Y0122155D01*
X0112677Y0128537D01*
X0111931Y0129283D01*
X0112677Y0130029D01*
X0112677Y0136411D01*
X0111931Y0137157D01*
X0112677Y0137903D01*
X0112677Y0144285D01*
X0111931Y0145031D01*
X0112677Y0145777D01*
X0112677Y0152159D01*
X0111506Y0153330D01*
X0101975Y0153330D01*
X0100803Y0152159D01*
X0100803Y0145777D01*
X0101550Y0145031D01*
X0100803Y0144285D01*
X0100803Y0137903D01*
X0101550Y0137157D01*
X0100803Y0136411D01*
X0100803Y0130029D01*
X0101550Y0129283D01*
X0100803Y0128537D01*
X0100803Y0122155D01*
X0101550Y0121409D01*
X0100803Y0120663D01*
X0100803Y0114281D01*
X0101550Y0113535D01*
X0100803Y0112788D01*
X0100803Y0109759D01*
X0084276Y0126287D01*
X0085036Y0126287D01*
X0086506Y0126896D01*
X0087631Y0128021D01*
X0088240Y0129491D01*
X0088240Y0130751D01*
X0092610Y0135121D01*
X0092990Y0136040D01*
X0092990Y0155629D01*
X0094183Y0155629D01*
X0095288Y0156735D01*
X0095304Y0156708D01*
X0095583Y0156429D01*
X0095925Y0156232D01*
X0096306Y0156129D01*
X0098366Y0156129D01*
X0098366Y0161066D01*
X0099366Y0161066D01*
X0099366Y0156129D01*
X0101426Y0156129D01*
X0101807Y0156232D01*
X0102149Y0156429D01*
X0102429Y0156708D01*
X0102626Y0157050D01*
X0102728Y0157432D01*
X0102728Y0161066D01*
X0099366Y0161066D01*
X0099366Y0162066D01*
X0102728Y0162066D01*
X0102728Y0165701D01*
X0102626Y0166082D01*
X0102429Y0166424D01*
X0102149Y0166704D01*
X0101807Y0166901D01*
X0101426Y0167003D01*
X0099366Y0167003D01*
X0099366Y0162066D01*
X0098366Y0162066D01*
X0098366Y0167003D01*
X0096306Y0167003D01*
X0095925Y0166901D01*
X0095583Y0166704D01*
X0095304Y0166424D01*
X0095288Y0166398D01*
X0094183Y0167503D01*
X0087801Y0167503D01*
X0087055Y0166757D01*
X0086309Y0167503D01*
X0079927Y0167503D01*
X0079181Y0166757D01*
X0078435Y0167503D01*
X0077990Y0167503D01*
X0077990Y0167787D01*
X0124455Y0167787D01*
X0126493Y0165749D01*
X0126413Y0165555D01*
X0126413Y0163566D01*
X0127174Y0161729D01*
X0128580Y0160322D01*
X0130418Y0159561D01*
X0138407Y0159561D01*
X0140245Y0160322D01*
X0141651Y0161729D01*
X0142413Y0163566D01*
X0142413Y0165555D01*
X0141651Y0167393D01*
X0140245Y0168800D01*
X0138407Y0169561D01*
X0130418Y0169561D01*
X0129947Y0169366D01*
X0127610Y0171703D01*
X0126906Y0172406D01*
X0125987Y0172787D01*
X0076243Y0172787D01*
X0075324Y0172406D01*
X0074621Y0171703D01*
X0073371Y0170453D01*
X0072990Y0169534D01*
X0072990Y0167503D01*
X0072053Y0167503D01*
X0071307Y0166757D01*
X0070561Y0167503D01*
X0064179Y0167503D01*
X0063433Y0166757D01*
X0062687Y0167503D01*
X0056305Y0167503D01*
X0055559Y0166757D01*
X0054813Y0167503D01*
X0048431Y0167503D01*
X0047685Y0166757D01*
X0046939Y0167503D01*
X0040557Y0167503D01*
X0039386Y0166332D01*
X0039386Y0163287D01*
X0011533Y0163287D01*
X0011240Y0162994D01*
X0011240Y0097580D01*
X0011533Y0097287D01*
X0023955Y0097287D01*
X0020705Y0094037D01*
X0018743Y0094037D01*
X0017824Y0093656D01*
X0017025Y0092857D01*
X0016441Y0093442D01*
X0012630Y0093442D01*
X0009935Y0090747D01*
X0009935Y0086937D01*
X0012630Y0084242D01*
X0016441Y0084242D01*
X0019135Y0086937D01*
X0019135Y0087897D01*
X0020276Y0089037D01*
X0022237Y0089037D01*
X0023156Y0089417D01*
X0023860Y0090121D01*
X0027776Y0094037D01*
X0030705Y0094037D01*
X0032824Y0091917D01*
X0033743Y0091537D01*
X0037237Y0091537D01*
X0038156Y0091917D01*
X0038860Y0092621D01*
X0039386Y0093147D01*
X0039386Y0093021D01*
X0040557Y0091850D01*
X0041306Y0091850D01*
X0040093Y0090637D01*
X0040093Y0086826D01*
X0042788Y0084132D01*
X0046598Y0084132D01*
X0048141Y0085675D01*
X0048273Y0085356D01*
X0046955Y0084037D01*
X0040276Y0084037D01*
X0033939Y0090374D01*
X0033939Y0090779D01*
X0031244Y0093473D01*
X0027433Y0093473D01*
X0024739Y0090779D01*
X0024739Y0086968D01*
X0027433Y0084273D01*
X0031244Y0084273D01*
X0032106Y0085135D01*
X0037824Y0079417D01*
X0038743Y0079037D01*
X0048487Y0079037D01*
X0049406Y0079417D01*
X0050110Y0080121D01*
X0053860Y0083871D01*
X0054240Y0084790D01*
X0054240Y0085784D01*
X0053957Y0086468D01*
X0055211Y0087722D01*
X0055211Y0086629D01*
X0057906Y0083935D01*
X0061716Y0083935D01*
X0064411Y0086629D01*
X0064411Y0090440D01*
X0062844Y0092007D01*
X0063433Y0092596D01*
X0064179Y0091850D01*
X0070561Y0091850D01*
X0071307Y0092596D01*
X0072053Y0091850D01*
X0078435Y0091850D01*
X0079181Y0092596D01*
X0079927Y0091850D01*
X0086309Y0091850D01*
X0087055Y0092596D01*
X0087801Y0091850D01*
X0094183Y0091850D01*
X0094929Y0092596D01*
X0095676Y0091850D01*
X0096922Y0091850D01*
X0097121Y0091371D01*
X0102990Y0085501D01*
X0102990Y0080072D01*
X0100415Y0077497D01*
X0096685Y0077497D01*
X0093991Y0074802D01*
X0093991Y0070992D01*
X0096685Y0068297D01*
X0100496Y0068297D01*
X0103191Y0070992D01*
X0103191Y0071684D02*
X0114660Y0071684D01*
X0114660Y0072683D02*
X0103191Y0072683D01*
X0103670Y0073681D02*
X0115625Y0073681D01*
X0116624Y0074680D02*
X0104669Y0074680D01*
X0105667Y0075678D02*
X0164563Y0075678D01*
X0164563Y0074680D02*
X0121896Y0074680D01*
X0122895Y0073681D02*
X0164563Y0073681D01*
X0164563Y0072683D02*
X0123860Y0072683D01*
X0123860Y0071684D02*
X0164563Y0071684D01*
X0164563Y0070686D02*
X0123860Y0070686D01*
X0123860Y0069687D02*
X0164563Y0069687D01*
X0164563Y0068689D02*
X0123643Y0068689D01*
X0122645Y0067690D02*
X0164563Y0067690D01*
X0164563Y0066692D02*
X0121646Y0066692D01*
X0121119Y0065693D02*
X0147172Y0065693D01*
X0147370Y0065891D02*
X0144676Y0063196D01*
X0144676Y0059385D01*
X0147370Y0056691D01*
X0147990Y0056691D01*
X0147990Y0051875D01*
X0146060Y0051875D01*
X0144369Y0051175D01*
X0143075Y0049881D01*
X0142375Y0048190D01*
X0142375Y0046360D01*
X0143075Y0044669D01*
X0144369Y0043375D01*
X0146060Y0042675D01*
X0153090Y0042675D01*
X0154780Y0043375D01*
X0156074Y0044669D01*
X0156775Y0046360D01*
X0156775Y0048190D01*
X0156074Y0049881D01*
X0154780Y0051175D01*
X0153090Y0051875D01*
X0152990Y0051875D01*
X0152990Y0058284D01*
X0152927Y0058437D01*
X0153876Y0059385D01*
X0153876Y0063196D01*
X0151181Y0065891D01*
X0147370Y0065891D01*
X0146174Y0064695D02*
X0121674Y0064695D01*
X0121740Y0063696D02*
X0145175Y0063696D01*
X0144676Y0062698D02*
X0121740Y0062698D01*
X0121740Y0061699D02*
X0144676Y0061699D01*
X0144676Y0060701D02*
X0121740Y0060701D01*
X0121740Y0059702D02*
X0144676Y0059702D01*
X0145358Y0058703D02*
X0121740Y0058703D01*
X0121740Y0057705D02*
X0146356Y0057705D01*
X0147355Y0056706D02*
X0121740Y0056706D01*
X0121740Y0055708D02*
X0147990Y0055708D01*
X0147990Y0054709D02*
X0121740Y0054709D01*
X0121740Y0053711D02*
X0147990Y0053711D01*
X0147990Y0052712D02*
X0121740Y0052712D01*
X0121740Y0051714D02*
X0145671Y0051714D01*
X0143910Y0050715D02*
X0121740Y0050715D01*
X0121740Y0049717D02*
X0143007Y0049717D01*
X0142594Y0048718D02*
X0121740Y0048718D01*
X0121740Y0047720D02*
X0142375Y0047720D01*
X0142375Y0046721D02*
X0121740Y0046721D01*
X0121740Y0045723D02*
X0142639Y0045723D01*
X0143052Y0044724D02*
X0121740Y0044724D01*
X0121740Y0043726D02*
X0144019Y0043726D01*
X0145934Y0042727D02*
X0121740Y0042727D01*
X0121740Y0041729D02*
X0145707Y0041729D01*
X0143925Y0040730D02*
X0121740Y0040730D01*
X0121740Y0039732D02*
X0124621Y0039732D01*
X0123622Y0038733D02*
X0121740Y0038733D01*
X0121740Y0037735D02*
X0122624Y0037735D01*
X0122022Y0036736D02*
X0121511Y0036736D01*
X0122022Y0035738D02*
X0120727Y0035738D01*
X0121116Y0034739D02*
X0122022Y0034739D01*
X0123722Y0030745D02*
X0124599Y0030745D01*
X0123722Y0029747D02*
X0131245Y0029747D01*
X0130246Y0030745D02*
X0128645Y0030745D01*
X0128320Y0029328D02*
X0126922Y0029328D01*
X0126922Y0025528D01*
X0126322Y0025528D01*
X0126322Y0029328D01*
X0124924Y0029328D01*
X0122522Y0026926D01*
X0122522Y0025528D01*
X0126322Y0025528D01*
X0126322Y0024928D01*
X0122522Y0024928D01*
X0122522Y0023530D01*
X0124924Y0021128D01*
X0126322Y0021128D01*
X0126322Y0024928D01*
X0126922Y0024928D01*
X0126922Y0025528D01*
X0130722Y0025528D01*
X0130722Y0026926D01*
X0128320Y0029328D01*
X0128900Y0028748D02*
X0132243Y0028748D01*
X0133242Y0027750D02*
X0129898Y0027750D01*
X0130722Y0026751D02*
X0134476Y0026751D01*
X0135490Y0029037D02*
X0146740Y0029037D01*
X0149240Y0031537D01*
X0149240Y0036537D01*
X0149575Y0037275D01*
X0153252Y0032742D02*
X0164563Y0032742D01*
X0164563Y0031744D02*
X0151740Y0031744D01*
X0151618Y0030745D02*
X0164563Y0030745D01*
X0164563Y0029747D02*
X0150985Y0029747D01*
X0150656Y0029417D02*
X0150656Y0029417D01*
X0149987Y0028748D02*
X0164563Y0028748D01*
X0164563Y0027750D02*
X0148988Y0027750D01*
X0148860Y0027621D02*
X0148860Y0027621D01*
X0147755Y0026751D02*
X0164563Y0026751D01*
X0164563Y0025753D02*
X0130722Y0025753D01*
X0130722Y0024928D02*
X0126922Y0024928D01*
X0126922Y0021128D01*
X0128320Y0021128D01*
X0130722Y0023530D01*
X0130722Y0024928D01*
X0130722Y0024754D02*
X0164563Y0024754D01*
X0164563Y0023756D02*
X0130722Y0023756D01*
X0129950Y0022757D02*
X0164563Y0022757D01*
X0164563Y0021759D02*
X0128951Y0021759D01*
X0126922Y0021759D02*
X0126322Y0021759D01*
X0126322Y0022757D02*
X0126922Y0022757D01*
X0126922Y0023756D02*
X0126322Y0023756D01*
X0126322Y0024754D02*
X0126922Y0024754D01*
X0126922Y0025753D02*
X0126322Y0025753D01*
X0126322Y0026751D02*
X0126922Y0026751D01*
X0126922Y0027750D02*
X0126322Y0027750D01*
X0126322Y0028748D02*
X0126922Y0028748D01*
X0124344Y0028748D02*
X0123722Y0028748D01*
X0123346Y0027750D02*
X0123149Y0027750D01*
X0122522Y0026751D02*
X0122151Y0026751D01*
X0122522Y0025753D02*
X0121152Y0025753D01*
X0122522Y0024754D02*
X0083493Y0024754D01*
X0082494Y0023756D02*
X0122522Y0023756D01*
X0123294Y0022757D02*
X0096709Y0022757D01*
X0096534Y0022814D02*
X0097208Y0022595D01*
X0097839Y0022273D01*
X0098412Y0021857D01*
X0098913Y0021356D01*
X0099329Y0020783D01*
X0099651Y0020152D01*
X0099870Y0019478D01*
X0099980Y0018779D01*
X0099980Y0015925D01*
X0095980Y0015925D01*
X0094980Y0015925D01*
X0094980Y0022902D01*
X0094427Y0022814D01*
X0093753Y0022595D01*
X0093122Y0022273D01*
X0092549Y0021857D01*
X0092048Y0021356D01*
X0091632Y0020783D01*
X0091310Y0020152D01*
X0091091Y0019478D01*
X0090980Y0018779D01*
X0090980Y0015925D01*
X0094980Y0015925D01*
X0094980Y0014925D01*
X0090980Y0014925D01*
X0090980Y0012070D01*
X0091091Y0011371D01*
X0091310Y0010697D01*
X0091632Y0010066D01*
X0092048Y0009493D01*
X0092549Y0008992D01*
X0093122Y0008576D01*
X0093753Y0008254D01*
X0094427Y0008035D01*
X0094980Y0007948D01*
X0094980Y0014925D01*
X0095980Y0014925D01*
X0095980Y0015925D01*
X0095980Y0022902D01*
X0096534Y0022814D01*
X0095980Y0022757D02*
X0094980Y0022757D01*
X0094252Y0022757D02*
X0088087Y0022757D01*
X0088313Y0022663D02*
X0086475Y0023425D01*
X0084486Y0023425D01*
X0082648Y0022663D01*
X0081242Y0021257D01*
X0080480Y0019419D01*
X0080480Y0011430D01*
X0081242Y0009592D01*
X0082648Y0008186D01*
X0084486Y0007425D01*
X0086475Y0007425D01*
X0088313Y0008186D01*
X0089719Y0009592D01*
X0090480Y0011430D01*
X0090480Y0019419D01*
X0089719Y0021257D01*
X0088313Y0022663D01*
X0089217Y0021759D02*
X0092450Y0021759D01*
X0091620Y0020760D02*
X0089925Y0020760D01*
X0090339Y0019762D02*
X0091183Y0019762D01*
X0090980Y0018763D02*
X0090480Y0018763D01*
X0090480Y0017765D02*
X0090980Y0017765D01*
X0090980Y0016766D02*
X0090480Y0016766D01*
X0090480Y0015767D02*
X0094980Y0015767D01*
X0094980Y0014769D02*
X0095980Y0014769D01*
X0095980Y0014925D02*
X0095980Y0007948D01*
X0096534Y0008035D01*
X0097208Y0008254D01*
X0097839Y0008576D01*
X0098412Y0008992D01*
X0098913Y0009493D01*
X0099329Y0010066D01*
X0099651Y0010697D01*
X0099870Y0011371D01*
X0099980Y0012070D01*
X0099980Y0014925D01*
X0095980Y0014925D01*
X0095980Y0015767D02*
X0164563Y0015767D01*
X0164563Y0014769D02*
X0099980Y0014769D01*
X0099980Y0013770D02*
X0164563Y0013770D01*
X0164563Y0012772D02*
X0099980Y0012772D01*
X0099933Y0011773D02*
X0164563Y0011773D01*
X0164563Y0010775D02*
X0099676Y0010775D01*
X0099119Y0009776D02*
X0164563Y0009776D01*
X0164563Y0008778D02*
X0098117Y0008778D01*
X0095980Y0008778D02*
X0094980Y0008778D01*
X0094980Y0009776D02*
X0095980Y0009776D01*
X0095980Y0010775D02*
X0094980Y0010775D01*
X0094980Y0011773D02*
X0095980Y0011773D01*
X0095980Y0012772D02*
X0094980Y0012772D01*
X0094980Y0013770D02*
X0095980Y0013770D01*
X0095980Y0016766D02*
X0094980Y0016766D01*
X0094980Y0017765D02*
X0095980Y0017765D01*
X0095980Y0018763D02*
X0094980Y0018763D01*
X0094980Y0019762D02*
X0095980Y0019762D01*
X0095980Y0020760D02*
X0094980Y0020760D01*
X0094980Y0021759D02*
X0095980Y0021759D01*
X0098510Y0021759D02*
X0124293Y0021759D01*
X0134322Y0033741D02*
X0144004Y0033741D01*
X0143046Y0034739D02*
X0133323Y0034739D01*
X0132325Y0035738D02*
X0142633Y0035738D01*
X0142375Y0036736D02*
X0131326Y0036736D01*
X0130620Y0037735D02*
X0142375Y0037735D01*
X0142600Y0038733D02*
X0129622Y0038733D01*
X0128623Y0039732D02*
X0143013Y0039732D01*
X0145898Y0032742D02*
X0135320Y0032742D01*
X0136319Y0031744D02*
X0145911Y0031744D01*
X0155146Y0033741D02*
X0164563Y0033741D01*
X0164563Y0034739D02*
X0156103Y0034739D01*
X0156517Y0035738D02*
X0164563Y0035738D01*
X0164563Y0036736D02*
X0156775Y0036736D01*
X0156775Y0037735D02*
X0164563Y0037735D01*
X0164563Y0038733D02*
X0156550Y0038733D01*
X0156136Y0039732D02*
X0164563Y0039732D01*
X0164563Y0040730D02*
X0155225Y0040730D01*
X0153443Y0041729D02*
X0164563Y0041729D01*
X0164563Y0042727D02*
X0153216Y0042727D01*
X0155131Y0043726D02*
X0164563Y0043726D01*
X0164563Y0044724D02*
X0156097Y0044724D01*
X0156511Y0045723D02*
X0164563Y0045723D01*
X0164563Y0046721D02*
X0156775Y0046721D01*
X0156775Y0047720D02*
X0164563Y0047720D01*
X0164563Y0048718D02*
X0156556Y0048718D01*
X0156142Y0049717D02*
X0164563Y0049717D01*
X0164563Y0050715D02*
X0155240Y0050715D01*
X0153479Y0051714D02*
X0164563Y0051714D01*
X0164563Y0052712D02*
X0152990Y0052712D01*
X0152990Y0053711D02*
X0164563Y0053711D01*
X0164563Y0054709D02*
X0152990Y0054709D01*
X0152990Y0055708D02*
X0164563Y0055708D01*
X0164563Y0056706D02*
X0152990Y0056706D01*
X0152990Y0057705D02*
X0164563Y0057705D01*
X0164563Y0058703D02*
X0153194Y0058703D01*
X0153876Y0059702D02*
X0164563Y0059702D01*
X0164563Y0060701D02*
X0153876Y0060701D01*
X0153876Y0061699D02*
X0164563Y0061699D01*
X0164563Y0062698D02*
X0153876Y0062698D01*
X0153376Y0063696D02*
X0164563Y0063696D01*
X0164563Y0064695D02*
X0152377Y0064695D01*
X0151379Y0065693D02*
X0164563Y0065693D01*
X0164563Y0076677D02*
X0106666Y0076677D01*
X0107632Y0077675D02*
X0164563Y0077675D01*
X0164563Y0078674D02*
X0107990Y0078674D01*
X0107990Y0079672D02*
X0164563Y0079672D01*
X0164563Y0080671D02*
X0107990Y0080671D01*
X0107990Y0081669D02*
X0164563Y0081669D01*
X0164563Y0082668D02*
X0107990Y0082668D01*
X0107990Y0083666D02*
X0164563Y0083666D01*
X0164563Y0084665D02*
X0107990Y0084665D01*
X0107990Y0085663D02*
X0164563Y0085663D01*
X0164563Y0086662D02*
X0107990Y0086662D01*
X0107731Y0087660D02*
X0164563Y0087660D01*
X0164563Y0088659D02*
X0106904Y0088659D01*
X0105905Y0089657D02*
X0164563Y0089657D01*
X0164563Y0090656D02*
X0104907Y0090656D01*
X0103908Y0091654D02*
X0164563Y0091654D01*
X0164563Y0092653D02*
X0102910Y0092653D01*
X0103228Y0093651D02*
X0164563Y0093651D01*
X0164563Y0094650D02*
X0103228Y0094650D01*
X0103228Y0095648D02*
X0164563Y0095648D01*
X0164563Y0096647D02*
X0103228Y0096647D01*
X0103228Y0097645D02*
X0128457Y0097645D01*
X0128580Y0097522D02*
X0130418Y0096761D01*
X0138407Y0096761D01*
X0140245Y0097522D01*
X0141651Y0098929D01*
X0142413Y0100766D01*
X0142413Y0102755D01*
X0141651Y0104593D01*
X0140245Y0106000D01*
X0138407Y0106761D01*
X0130418Y0106761D01*
X0128580Y0106000D01*
X0127174Y0104593D01*
X0126413Y0102755D01*
X0126413Y0100766D01*
X0127174Y0098929D01*
X0128580Y0097522D01*
X0127458Y0098644D02*
X0103228Y0098644D01*
X0103228Y0099642D02*
X0103849Y0099642D01*
X0105490Y0101537D02*
X0111740Y0101537D01*
X0120490Y0110287D01*
X0119260Y0110810D01*
X0122585Y0107631D02*
X0164563Y0107631D01*
X0164563Y0108629D02*
X0123584Y0108629D01*
X0123860Y0109628D02*
X0164563Y0109628D01*
X0164563Y0110626D02*
X0123860Y0110626D01*
X0123860Y0111625D02*
X0164563Y0111625D01*
X0164563Y0112623D02*
X0123860Y0112623D01*
X0122954Y0113622D02*
X0164563Y0113622D01*
X0164563Y0114620D02*
X0121956Y0114620D01*
X0116564Y0114620D02*
X0112677Y0114620D01*
X0112677Y0115619D02*
X0129238Y0115619D01*
X0129054Y0115712D02*
X0129685Y0115391D01*
X0130359Y0115172D01*
X0131058Y0115061D01*
X0133913Y0115061D01*
X0133913Y0119061D01*
X0134913Y0119061D01*
X0134913Y0120061D01*
X0141889Y0120061D01*
X0141802Y0120615D01*
X0141583Y0121288D01*
X0141261Y0121919D01*
X0140845Y0122492D01*
X0140344Y0122993D01*
X0139771Y0123410D01*
X0139140Y0123731D01*
X0138466Y0123950D01*
X0137767Y0124061D01*
X0134913Y0124061D01*
X0134913Y0120061D01*
X0133913Y0120061D01*
X0133913Y0124061D01*
X0131058Y0124061D01*
X0130359Y0123950D01*
X0129685Y0123731D01*
X0129054Y0123410D01*
X0128481Y0122993D01*
X0127980Y0122492D01*
X0127564Y0121919D01*
X0127242Y0121288D01*
X0127023Y0120615D01*
X0126936Y0120061D01*
X0133913Y0120061D01*
X0133913Y0119061D01*
X0126936Y0119061D01*
X0127023Y0118507D01*
X0127242Y0117833D01*
X0127564Y0117202D01*
X0127980Y0116629D01*
X0128481Y0116128D01*
X0129054Y0115712D01*
X0127992Y0116617D02*
X0112677Y0116617D01*
X0112677Y0117616D02*
X0127353Y0117616D01*
X0127006Y0118614D02*
X0112677Y0118614D01*
X0112677Y0119613D02*
X0133913Y0119613D01*
X0133913Y0120611D02*
X0134913Y0120611D01*
X0134913Y0119613D02*
X0159513Y0119613D01*
X0159513Y0119061D02*
X0152536Y0119061D01*
X0152623Y0118507D01*
X0152842Y0117833D01*
X0153164Y0117202D01*
X0153580Y0116629D01*
X0154081Y0116128D01*
X0154654Y0115712D01*
X0155285Y0115391D01*
X0155959Y0115172D01*
X0156658Y0115061D01*
X0159513Y0115061D01*
X0159513Y0119061D01*
X0159513Y0118614D02*
X0160513Y0118614D01*
X0160513Y0117616D02*
X0159513Y0117616D01*
X0159513Y0116617D02*
X0160513Y0116617D01*
X0160513Y0115619D02*
X0159513Y0115619D01*
X0154838Y0115619D02*
X0139588Y0115619D01*
X0139771Y0115712D02*
X0140344Y0116128D01*
X0140845Y0116629D01*
X0141261Y0117202D01*
X0141583Y0117833D01*
X0141802Y0118507D01*
X0141889Y0119061D01*
X0134913Y0119061D01*
X0134913Y0115061D01*
X0137767Y0115061D01*
X0138466Y0115172D01*
X0139140Y0115391D01*
X0139771Y0115712D01*
X0140833Y0116617D02*
X0153592Y0116617D01*
X0152953Y0117616D02*
X0141472Y0117616D01*
X0141819Y0118614D02*
X0152606Y0118614D01*
X0152623Y0120611D02*
X0141802Y0120611D01*
X0141419Y0121610D02*
X0153006Y0121610D01*
X0153696Y0122608D02*
X0140729Y0122608D01*
X0139384Y0123607D02*
X0155041Y0123607D01*
X0159513Y0123607D02*
X0160513Y0123607D01*
X0160513Y0122608D02*
X0159513Y0122608D01*
X0159513Y0121610D02*
X0160513Y0121610D01*
X0160513Y0120611D02*
X0159513Y0120611D01*
X0164563Y0124605D02*
X0112677Y0124605D01*
X0112677Y0123607D02*
X0129441Y0123607D01*
X0128096Y0122608D02*
X0112677Y0122608D01*
X0112132Y0121610D02*
X0127406Y0121610D01*
X0127023Y0120611D02*
X0112677Y0120611D01*
X0112677Y0125604D02*
X0164563Y0125604D01*
X0164563Y0126602D02*
X0112677Y0126602D01*
X0112677Y0127601D02*
X0164563Y0127601D01*
X0164563Y0128599D02*
X0112614Y0128599D01*
X0112246Y0129598D02*
X0164563Y0129598D01*
X0164563Y0130596D02*
X0112677Y0130596D01*
X0112677Y0131595D02*
X0164563Y0131595D01*
X0164563Y0132593D02*
X0112677Y0132593D01*
X0112677Y0133592D02*
X0164563Y0133592D01*
X0164563Y0134590D02*
X0112677Y0134590D01*
X0112677Y0135589D02*
X0164563Y0135589D01*
X0164563Y0136587D02*
X0112500Y0136587D01*
X0112360Y0137586D02*
X0164563Y0137586D01*
X0164563Y0138584D02*
X0112677Y0138584D01*
X0112677Y0139583D02*
X0164563Y0139583D01*
X0164563Y0140581D02*
X0112677Y0140581D01*
X0112677Y0141580D02*
X0164563Y0141580D01*
X0160513Y0142578D02*
X0159513Y0142578D01*
X0159513Y0142261D02*
X0159513Y0146261D01*
X0152536Y0146261D01*
X0152623Y0145707D01*
X0152842Y0145033D01*
X0153164Y0144402D01*
X0153580Y0143829D01*
X0154081Y0143328D01*
X0154654Y0142912D01*
X0155285Y0142591D01*
X0155959Y0142372D01*
X0156658Y0142261D01*
X0159513Y0142261D01*
X0159513Y0143577D02*
X0160513Y0143577D01*
X0160513Y0144575D02*
X0159513Y0144575D01*
X0159513Y0145574D02*
X0160513Y0145574D01*
X0159513Y0146572D02*
X0134913Y0146572D01*
X0134913Y0146261D02*
X0134913Y0147261D01*
X0141889Y0147261D01*
X0141802Y0147815D01*
X0141583Y0148488D01*
X0141261Y0149119D01*
X0140845Y0149692D01*
X0140344Y0150193D01*
X0139771Y0150610D01*
X0139140Y0150931D01*
X0138466Y0151150D01*
X0137767Y0151261D01*
X0134913Y0151261D01*
X0134913Y0147261D01*
X0133913Y0147261D01*
X0133913Y0151261D01*
X0131058Y0151261D01*
X0130359Y0151150D01*
X0129685Y0150931D01*
X0129054Y0150610D01*
X0128481Y0150193D01*
X0127980Y0149692D01*
X0127564Y0149119D01*
X0127242Y0148488D01*
X0127023Y0147815D01*
X0126936Y0147261D01*
X0133913Y0147261D01*
X0133913Y0146261D01*
X0134913Y0146261D01*
X0141889Y0146261D01*
X0141802Y0145707D01*
X0141583Y0145033D01*
X0141261Y0144402D01*
X0140845Y0143829D01*
X0140344Y0143328D01*
X0139771Y0142912D01*
X0139140Y0142591D01*
X0138466Y0142372D01*
X0137767Y0142261D01*
X0134913Y0142261D01*
X0134913Y0146261D01*
X0134913Y0145574D02*
X0133913Y0145574D01*
X0133913Y0146261D02*
X0133913Y0142261D01*
X0131058Y0142261D01*
X0130359Y0142372D01*
X0129685Y0142591D01*
X0129054Y0142912D01*
X0128481Y0143328D01*
X0127980Y0143829D01*
X0127564Y0144402D01*
X0127242Y0145033D01*
X0127023Y0145707D01*
X0126936Y0146261D01*
X0133913Y0146261D01*
X0133913Y0146572D02*
X0112677Y0146572D01*
X0112677Y0147571D02*
X0126985Y0147571D01*
X0127284Y0148570D02*
X0112677Y0148570D01*
X0112677Y0149568D02*
X0127890Y0149568D01*
X0128995Y0150567D02*
X0112677Y0150567D01*
X0112677Y0151565D02*
X0164563Y0151565D01*
X0164563Y0152564D02*
X0112272Y0152564D01*
X0112474Y0145574D02*
X0127067Y0145574D01*
X0127476Y0144575D02*
X0112386Y0144575D01*
X0112677Y0143577D02*
X0128233Y0143577D01*
X0129722Y0142578D02*
X0112677Y0142578D01*
X0101094Y0144575D02*
X0092990Y0144575D01*
X0092990Y0143577D02*
X0100803Y0143577D01*
X0100803Y0142578D02*
X0092990Y0142578D01*
X0092990Y0141580D02*
X0100803Y0141580D01*
X0100803Y0140581D02*
X0092990Y0140581D01*
X0092990Y0139583D02*
X0100803Y0139583D01*
X0100803Y0138584D02*
X0092990Y0138584D01*
X0092990Y0137586D02*
X0101121Y0137586D01*
X0100980Y0136587D02*
X0092990Y0136587D01*
X0092803Y0135589D02*
X0100803Y0135589D01*
X0100803Y0134590D02*
X0092079Y0134590D01*
X0091081Y0133592D02*
X0100803Y0133592D01*
X0100803Y0132593D02*
X0090082Y0132593D01*
X0089084Y0131595D02*
X0100803Y0131595D01*
X0100803Y0130596D02*
X0088240Y0130596D01*
X0088240Y0129598D02*
X0101235Y0129598D01*
X0100866Y0128599D02*
X0087871Y0128599D01*
X0087211Y0127601D02*
X0100803Y0127601D01*
X0100803Y0126602D02*
X0085797Y0126602D01*
X0084959Y0125604D02*
X0100803Y0125604D01*
X0100803Y0124605D02*
X0085957Y0124605D01*
X0086956Y0123607D02*
X0100803Y0123607D01*
X0100803Y0122608D02*
X0087954Y0122608D01*
X0088953Y0121610D02*
X0101349Y0121610D01*
X0100803Y0120611D02*
X0089951Y0120611D01*
X0090950Y0119613D02*
X0100803Y0119613D01*
X0100803Y0118614D02*
X0091948Y0118614D01*
X0092947Y0117616D02*
X0100803Y0117616D01*
X0100803Y0116617D02*
X0093945Y0116617D01*
X0094944Y0115619D02*
X0100803Y0115619D01*
X0100803Y0114620D02*
X0095942Y0114620D01*
X0096941Y0113622D02*
X0101463Y0113622D01*
X0100803Y0112623D02*
X0097939Y0112623D01*
X0098938Y0111625D02*
X0100803Y0111625D01*
X0100803Y0110626D02*
X0099936Y0110626D01*
X0105928Y0104635D02*
X0111303Y0104635D01*
X0111903Y0105634D02*
X0112301Y0105634D01*
X0112677Y0106632D02*
X0113300Y0106632D01*
X0112677Y0107631D02*
X0114298Y0107631D01*
X0114936Y0108629D02*
X0112677Y0108629D01*
X0112677Y0109628D02*
X0114660Y0109628D01*
X0114660Y0110626D02*
X0112677Y0110626D01*
X0112677Y0111625D02*
X0114660Y0111625D01*
X0114660Y0112623D02*
X0112677Y0112623D01*
X0112018Y0113622D02*
X0115566Y0113622D01*
X0121587Y0106632D02*
X0130107Y0106632D01*
X0128214Y0105634D02*
X0119372Y0105634D01*
X0118374Y0104635D02*
X0127216Y0104635D01*
X0126778Y0103636D02*
X0117375Y0103636D01*
X0116377Y0102638D02*
X0126413Y0102638D01*
X0126413Y0101639D02*
X0115378Y0101639D01*
X0114380Y0100641D02*
X0126465Y0100641D01*
X0126878Y0099642D02*
X0113381Y0099642D01*
X0105490Y0101537D02*
X0067990Y0139037D01*
X0067990Y0161537D01*
X0067370Y0161566D01*
X0072990Y0167541D02*
X0006240Y0167541D01*
X0006240Y0166543D02*
X0039597Y0166543D01*
X0039386Y0165544D02*
X0006240Y0165544D01*
X0006240Y0164546D02*
X0039386Y0164546D01*
X0039386Y0163547D02*
X0006240Y0163547D01*
X0006240Y0162549D02*
X0011240Y0162549D01*
X0011240Y0161550D02*
X0006240Y0161550D01*
X0006240Y0160552D02*
X0011240Y0160552D01*
X0011240Y0159553D02*
X0006240Y0159553D01*
X0006240Y0158555D02*
X0011240Y0158555D01*
X0011240Y0157556D02*
X0006240Y0157556D01*
X0006240Y0156558D02*
X0011240Y0156558D01*
X0011240Y0155559D02*
X0006240Y0155559D01*
X0006240Y0154561D02*
X0011240Y0154561D01*
X0011240Y0153562D02*
X0006240Y0153562D01*
X0006240Y0152564D02*
X0011240Y0152564D01*
X0011240Y0151565D02*
X0006240Y0151565D01*
X0006240Y0150567D02*
X0011240Y0150567D01*
X0011240Y0149568D02*
X0006240Y0149568D01*
X0006240Y0148570D02*
X0011240Y0148570D01*
X0011240Y0147571D02*
X0006240Y0147571D01*
X0006240Y0146572D02*
X0011240Y0146572D01*
X0011240Y0145574D02*
X0006240Y0145574D01*
X0006240Y0144575D02*
X0011240Y0144575D01*
X0011240Y0143577D02*
X0006240Y0143577D01*
X0006240Y0142578D02*
X0011240Y0142578D01*
X0011240Y0141580D02*
X0006240Y0141580D01*
X0006240Y0140581D02*
X0011240Y0140581D01*
X0011240Y0139583D02*
X0006240Y0139583D01*
X0006240Y0138584D02*
X0011240Y0138584D01*
X0011240Y0137586D02*
X0006240Y0137586D01*
X0006240Y0136587D02*
X0011240Y0136587D01*
X0011240Y0135589D02*
X0006240Y0135589D01*
X0006240Y0134590D02*
X0011240Y0134590D01*
X0011240Y0133592D02*
X0006240Y0133592D01*
X0006240Y0132593D02*
X0011240Y0132593D01*
X0011240Y0131595D02*
X0006240Y0131595D01*
X0006240Y0130596D02*
X0011240Y0130596D01*
X0011240Y0129598D02*
X0006240Y0129598D01*
X0006240Y0128599D02*
X0011240Y0128599D01*
X0011240Y0127601D02*
X0006240Y0127601D01*
X0006240Y0126602D02*
X0011240Y0126602D01*
X0011240Y0125604D02*
X0006240Y0125604D01*
X0006240Y0124605D02*
X0011240Y0124605D01*
X0011240Y0123607D02*
X0006240Y0123607D01*
X0006240Y0122608D02*
X0011240Y0122608D01*
X0011240Y0121610D02*
X0006240Y0121610D01*
X0006240Y0120611D02*
X0011240Y0120611D01*
X0011240Y0119613D02*
X0006240Y0119613D01*
X0006240Y0118614D02*
X0011240Y0118614D01*
X0011240Y0117616D02*
X0006240Y0117616D01*
X0006240Y0116617D02*
X0011240Y0116617D01*
X0011240Y0115619D02*
X0006240Y0115619D01*
X0006240Y0114620D02*
X0011240Y0114620D01*
X0011240Y0113622D02*
X0006240Y0113622D01*
X0006240Y0112623D02*
X0011240Y0112623D01*
X0011240Y0111625D02*
X0006240Y0111625D01*
X0006240Y0110626D02*
X0011240Y0110626D01*
X0011240Y0109628D02*
X0006240Y0109628D01*
X0006240Y0108629D02*
X0011240Y0108629D01*
X0011240Y0107631D02*
X0006240Y0107631D01*
X0006240Y0106632D02*
X0011240Y0106632D01*
X0011240Y0105634D02*
X0006240Y0105634D01*
X0006240Y0104635D02*
X0011240Y0104635D01*
X0011240Y0103636D02*
X0006240Y0103636D01*
X0006240Y0102638D02*
X0011240Y0102638D01*
X0011240Y0101639D02*
X0006240Y0101639D01*
X0006240Y0100641D02*
X0011240Y0100641D01*
X0011240Y0099642D02*
X0006240Y0099642D01*
X0006240Y0098644D02*
X0011240Y0098644D01*
X0011240Y0097645D02*
X0006240Y0097645D01*
X0006240Y0096647D02*
X0023315Y0096647D01*
X0022316Y0095648D02*
X0006240Y0095648D01*
X0006240Y0094650D02*
X0021318Y0094650D01*
X0021740Y0091537D02*
X0019240Y0091537D01*
X0015490Y0087787D01*
X0014535Y0088842D01*
X0011209Y0085663D02*
X0006240Y0085663D01*
X0006240Y0084665D02*
X0012207Y0084665D01*
X0010210Y0086662D02*
X0006240Y0086662D01*
X0006240Y0087660D02*
X0009935Y0087660D01*
X0009935Y0088659D02*
X0006240Y0088659D01*
X0006240Y0089657D02*
X0009935Y0089657D01*
X0009935Y0090656D02*
X0006240Y0090656D01*
X0006240Y0091654D02*
X0010842Y0091654D01*
X0011841Y0092653D02*
X0006240Y0092653D01*
X0006240Y0093651D02*
X0017819Y0093651D01*
X0021740Y0091537D02*
X0026740Y0096537D01*
X0031740Y0096537D01*
X0034240Y0094037D01*
X0036740Y0094037D01*
X0040490Y0097787D01*
X0043748Y0097787D01*
X0039754Y0092653D02*
X0038892Y0092653D01*
X0037521Y0091654D02*
X0041110Y0091654D01*
X0040112Y0090656D02*
X0033939Y0090656D01*
X0033459Y0091654D02*
X0033063Y0091654D01*
X0032089Y0092653D02*
X0032065Y0092653D01*
X0031090Y0093651D02*
X0027390Y0093651D01*
X0026613Y0092653D02*
X0026392Y0092653D01*
X0025614Y0091654D02*
X0025393Y0091654D01*
X0024739Y0090656D02*
X0024395Y0090656D01*
X0024739Y0089657D02*
X0023396Y0089657D01*
X0024739Y0088659D02*
X0019898Y0088659D01*
X0019135Y0087660D02*
X0024739Y0087660D01*
X0025045Y0086662D02*
X0018861Y0086662D01*
X0017862Y0085663D02*
X0026043Y0085663D01*
X0027042Y0084665D02*
X0016864Y0084665D01*
X0006240Y0083666D02*
X0033575Y0083666D01*
X0034574Y0082668D02*
X0006240Y0082668D01*
X0006240Y0081669D02*
X0035572Y0081669D01*
X0036571Y0080671D02*
X0006240Y0080671D01*
X0006240Y0079672D02*
X0037569Y0079672D01*
X0039240Y0081537D02*
X0030490Y0090287D01*
X0029240Y0089037D01*
X0029339Y0088873D01*
X0031635Y0084665D02*
X0032577Y0084665D01*
X0035654Y0088659D02*
X0040093Y0088659D01*
X0040093Y0089657D02*
X0034655Y0089657D01*
X0036652Y0087660D02*
X0040093Y0087660D01*
X0040257Y0086662D02*
X0037651Y0086662D01*
X0038649Y0085663D02*
X0041256Y0085663D01*
X0042254Y0084665D02*
X0039648Y0084665D01*
X0039240Y0081537D02*
X0047990Y0081537D01*
X0051740Y0085287D01*
X0050490Y0086537D01*
X0059240Y0095287D01*
X0059240Y0097787D01*
X0059496Y0097787D01*
X0063197Y0091654D02*
X0097003Y0091654D01*
X0097836Y0090656D02*
X0064195Y0090656D01*
X0064411Y0089657D02*
X0098834Y0089657D01*
X0099833Y0088659D02*
X0064411Y0088659D01*
X0064411Y0087660D02*
X0100831Y0087660D01*
X0100289Y0086997D02*
X0102691Y0084595D01*
X0102691Y0083197D01*
X0098891Y0083197D01*
X0098891Y0082597D01*
X0102691Y0082597D01*
X0102691Y0081199D01*
X0100289Y0078797D01*
X0098891Y0078797D01*
X0098891Y0082597D01*
X0098291Y0082597D01*
X0098291Y0078797D01*
X0096892Y0078797D01*
X0094491Y0081199D01*
X0094491Y0082597D01*
X0098290Y0082597D01*
X0098290Y0083197D01*
X0094491Y0083197D01*
X0094491Y0084595D01*
X0096892Y0086997D01*
X0098291Y0086997D01*
X0098291Y0083197D01*
X0098891Y0083197D01*
X0098891Y0086997D01*
X0100289Y0086997D01*
X0100624Y0086662D02*
X0101830Y0086662D01*
X0101623Y0085663D02*
X0102828Y0085663D01*
X0102990Y0084665D02*
X0102621Y0084665D01*
X0102691Y0083666D02*
X0102990Y0083666D01*
X0102990Y0082668D02*
X0098891Y0082668D01*
X0098290Y0082668D02*
X0052657Y0082668D01*
X0053655Y0083666D02*
X0094491Y0083666D01*
X0094560Y0084665D02*
X0062446Y0084665D01*
X0063445Y0085663D02*
X0095558Y0085663D01*
X0096557Y0086662D02*
X0064411Y0086662D01*
X0057176Y0084665D02*
X0054188Y0084665D01*
X0054240Y0085663D02*
X0056177Y0085663D01*
X0055211Y0086662D02*
X0054151Y0086662D01*
X0055149Y0087660D02*
X0055211Y0087660D01*
X0051658Y0081669D02*
X0094491Y0081669D01*
X0095019Y0080671D02*
X0050660Y0080671D01*
X0049661Y0079672D02*
X0096017Y0079672D01*
X0098291Y0079672D02*
X0098891Y0079672D01*
X0098891Y0080671D02*
X0098291Y0080671D01*
X0098291Y0081669D02*
X0098891Y0081669D01*
X0098891Y0083666D02*
X0098291Y0083666D01*
X0098291Y0084665D02*
X0098891Y0084665D01*
X0098891Y0085663D02*
X0098291Y0085663D01*
X0098291Y0086662D02*
X0098891Y0086662D01*
X0099240Y0092787D02*
X0105490Y0086537D01*
X0105490Y0079037D01*
X0100490Y0074037D01*
X0100490Y0072787D01*
X0099240Y0072787D01*
X0098591Y0072897D01*
X0101886Y0069687D02*
X0114660Y0069687D01*
X0114876Y0068689D02*
X0100887Y0068689D01*
X0096294Y0068689D02*
X0006240Y0068689D01*
X0006240Y0069687D02*
X0095295Y0069687D01*
X0094297Y0070686D02*
X0006240Y0070686D01*
X0006240Y0071684D02*
X0093991Y0071684D01*
X0093991Y0072683D02*
X0006240Y0072683D01*
X0006240Y0073681D02*
X0093991Y0073681D01*
X0093991Y0074680D02*
X0006240Y0074680D01*
X0006240Y0075678D02*
X0094866Y0075678D01*
X0095865Y0076677D02*
X0006240Y0076677D01*
X0006240Y0077675D02*
X0100593Y0077675D01*
X0101591Y0078674D02*
X0006240Y0078674D01*
X0006240Y0067690D02*
X0115490Y0067690D01*
X0115490Y0066692D02*
X0006240Y0066692D01*
X0006240Y0065693D02*
X0107172Y0065693D01*
X0106174Y0064695D02*
X0006240Y0064695D01*
X0006240Y0063696D02*
X0105175Y0063696D01*
X0104676Y0062698D02*
X0006240Y0062698D01*
X0006240Y0061699D02*
X0104676Y0061699D01*
X0104676Y0060701D02*
X0082250Y0060701D01*
X0082346Y0060535D02*
X0082148Y0060877D01*
X0081869Y0061156D01*
X0081527Y0061354D01*
X0081146Y0061456D01*
X0077048Y0061456D01*
X0077048Y0058056D01*
X0082448Y0058056D01*
X0082448Y0060154D01*
X0082346Y0060535D01*
X0082448Y0059702D02*
X0104676Y0059702D01*
X0105358Y0058703D02*
X0082448Y0058703D01*
X0082448Y0057056D02*
X0082448Y0054959D01*
X0082346Y0054577D01*
X0082148Y0054235D01*
X0081869Y0053956D01*
X0081527Y0053758D01*
X0081146Y0053656D01*
X0077048Y0053656D01*
X0077048Y0057056D01*
X0076048Y0057056D01*
X0076048Y0053656D01*
X0071951Y0053656D01*
X0071569Y0053758D01*
X0071227Y0053956D01*
X0070948Y0054235D01*
X0070750Y0054577D01*
X0070648Y0054959D01*
X0070648Y0057056D01*
X0076048Y0057056D01*
X0076048Y0058056D01*
X0070648Y0058056D01*
X0070648Y0060154D01*
X0070750Y0060535D01*
X0070948Y0060877D01*
X0071227Y0061156D01*
X0071569Y0061354D01*
X0071951Y0061456D01*
X0076048Y0061456D01*
X0076048Y0058056D01*
X0077048Y0058056D01*
X0077048Y0057056D01*
X0082448Y0057056D01*
X0082448Y0056706D02*
X0094953Y0056706D01*
X0094618Y0055708D02*
X0082448Y0055708D01*
X0082381Y0054709D02*
X0094618Y0054709D01*
X0094618Y0053711D02*
X0081350Y0053711D01*
X0081920Y0052712D02*
X0094618Y0052712D01*
X0094618Y0051714D02*
X0082919Y0051714D01*
X0086097Y0050715D02*
X0094618Y0050715D01*
X0094618Y0049717D02*
X0087096Y0049717D01*
X0088094Y0048718D02*
X0094618Y0048718D01*
X0094388Y0047720D02*
X0089093Y0047720D01*
X0090091Y0046721D02*
X0093389Y0046721D01*
X0092391Y0045723D02*
X0091090Y0045723D01*
X0091740Y0041537D02*
X0091740Y0036537D01*
X0075490Y0020287D01*
X0075490Y0016537D01*
X0075480Y0015425D01*
X0070480Y0015767D02*
X0070480Y0015767D01*
X0070480Y0014769D02*
X0070480Y0014769D01*
X0070480Y0013770D02*
X0070480Y0013770D01*
X0070480Y0012772D02*
X0070480Y0012772D01*
X0070480Y0011773D02*
X0070480Y0011773D01*
X0070209Y0010775D02*
X0070752Y0010775D01*
X0071165Y0009776D02*
X0069795Y0009776D01*
X0068905Y0008778D02*
X0072056Y0008778D01*
X0073629Y0007779D02*
X0067331Y0007779D01*
X0063629Y0007779D02*
X0057331Y0007779D01*
X0058905Y0008778D02*
X0062056Y0008778D01*
X0061165Y0009776D02*
X0059795Y0009776D01*
X0060209Y0010775D02*
X0060752Y0010775D01*
X0060480Y0011773D02*
X0060480Y0011773D01*
X0060480Y0012772D02*
X0060480Y0012772D01*
X0060480Y0013770D02*
X0060480Y0013770D01*
X0060480Y0014769D02*
X0060480Y0014769D01*
X0060480Y0015767D02*
X0060480Y0015767D01*
X0060480Y0016766D02*
X0060480Y0016766D01*
X0060480Y0017765D02*
X0060480Y0017765D01*
X0060480Y0018763D02*
X0060480Y0018763D01*
X0060339Y0019762D02*
X0060622Y0019762D01*
X0061036Y0020760D02*
X0059925Y0020760D01*
X0059217Y0021759D02*
X0061743Y0021759D01*
X0062874Y0022757D02*
X0058087Y0022757D01*
X0065490Y0020287D02*
X0065490Y0016537D01*
X0065480Y0015425D01*
X0065490Y0020287D02*
X0071740Y0026537D01*
X0077990Y0026537D01*
X0086740Y0035287D01*
X0086740Y0040287D01*
X0083635Y0037735D02*
X0082948Y0037735D01*
X0082948Y0038733D02*
X0083054Y0038733D01*
X0082948Y0036736D02*
X0084240Y0036736D01*
X0083655Y0035738D02*
X0082558Y0035738D01*
X0075423Y0023756D02*
X0072494Y0023756D01*
X0072874Y0022757D02*
X0071496Y0022757D01*
X0071743Y0021759D02*
X0070497Y0021759D01*
X0071036Y0020760D02*
X0069925Y0020760D01*
X0070339Y0019762D02*
X0070622Y0019762D01*
X0070480Y0018763D02*
X0070480Y0018763D01*
X0070480Y0017765D02*
X0070480Y0017765D01*
X0070480Y0016766D02*
X0070480Y0016766D01*
X0079925Y0020760D02*
X0081036Y0020760D01*
X0080622Y0019762D02*
X0080339Y0019762D01*
X0080480Y0018763D02*
X0080480Y0018763D01*
X0080480Y0017765D02*
X0080480Y0017765D01*
X0080480Y0016766D02*
X0080480Y0016766D01*
X0080480Y0015767D02*
X0080480Y0015767D01*
X0080480Y0014769D02*
X0080480Y0014769D01*
X0080480Y0013770D02*
X0080480Y0013770D01*
X0080480Y0012772D02*
X0080480Y0012772D01*
X0080480Y0011773D02*
X0080480Y0011773D01*
X0080209Y0010775D02*
X0080752Y0010775D01*
X0081165Y0009776D02*
X0079795Y0009776D01*
X0078905Y0008778D02*
X0082056Y0008778D01*
X0083629Y0007779D02*
X0077331Y0007779D01*
X0087331Y0007779D02*
X0164563Y0007779D01*
X0164563Y0016766D02*
X0099980Y0016766D01*
X0099980Y0017765D02*
X0164563Y0017765D01*
X0164563Y0018763D02*
X0099980Y0018763D01*
X0099778Y0019762D02*
X0164563Y0019762D01*
X0164563Y0020760D02*
X0099341Y0020760D01*
X0090980Y0014769D02*
X0090480Y0014769D01*
X0090480Y0013770D02*
X0090980Y0013770D01*
X0090980Y0012772D02*
X0090480Y0012772D01*
X0090480Y0011773D02*
X0091027Y0011773D01*
X0091285Y0010775D02*
X0090209Y0010775D01*
X0089795Y0009776D02*
X0091842Y0009776D01*
X0092844Y0008778D02*
X0088905Y0008778D01*
X0081743Y0021759D02*
X0080497Y0021759D01*
X0081496Y0022757D02*
X0082874Y0022757D01*
X0094240Y0039732D02*
X0095427Y0039732D01*
X0094618Y0040730D02*
X0094469Y0040730D01*
X0107280Y0055708D02*
X0107376Y0055708D01*
X0107355Y0056706D02*
X0106944Y0056706D01*
X0106356Y0057705D02*
X0077048Y0057705D01*
X0077048Y0058703D02*
X0076048Y0058703D01*
X0076048Y0057705D02*
X0006240Y0057705D01*
X0006240Y0058703D02*
X0070648Y0058703D01*
X0070648Y0059702D02*
X0006240Y0059702D01*
X0006240Y0060701D02*
X0070846Y0060701D01*
X0070648Y0056706D02*
X0006240Y0056706D01*
X0006240Y0055708D02*
X0018626Y0055708D01*
X0018371Y0055453D02*
X0018371Y0055453D01*
X0017627Y0054709D02*
X0006240Y0054709D01*
X0006240Y0053711D02*
X0016629Y0053711D01*
X0020490Y0054037D02*
X0015490Y0049037D01*
X0014535Y0048842D01*
X0011149Y0045723D02*
X0006240Y0045723D01*
X0006240Y0046721D02*
X0010151Y0046721D01*
X0009935Y0047720D02*
X0006240Y0047720D01*
X0006240Y0048718D02*
X0009935Y0048718D01*
X0009935Y0049717D02*
X0006240Y0049717D01*
X0006240Y0050715D02*
X0009935Y0050715D01*
X0010902Y0051714D02*
X0006240Y0051714D01*
X0006240Y0052712D02*
X0011901Y0052712D01*
X0012148Y0044724D02*
X0006240Y0044724D01*
X0006240Y0043726D02*
X0032266Y0043726D01*
X0033264Y0042727D02*
X0006240Y0042727D01*
X0006240Y0041729D02*
X0034263Y0041729D01*
X0035261Y0040730D02*
X0006240Y0040730D01*
X0006240Y0039732D02*
X0036260Y0039732D01*
X0038338Y0044724D02*
X0042902Y0044724D01*
X0042995Y0044632D02*
X0040593Y0047033D01*
X0040593Y0048432D01*
X0044393Y0048432D01*
X0044393Y0049032D01*
X0044393Y0052832D01*
X0042995Y0052832D01*
X0040593Y0050430D01*
X0040593Y0049032D01*
X0044393Y0049032D01*
X0044993Y0049032D01*
X0044993Y0052832D01*
X0046391Y0052832D01*
X0048793Y0050430D01*
X0048793Y0049032D01*
X0044993Y0049032D01*
X0044993Y0048432D01*
X0048793Y0048432D01*
X0048793Y0047033D01*
X0046391Y0044632D01*
X0044993Y0044632D01*
X0044993Y0048432D01*
X0044393Y0048432D01*
X0044393Y0044632D01*
X0042995Y0044632D01*
X0044393Y0044724D02*
X0044993Y0044724D01*
X0044993Y0045723D02*
X0044393Y0045723D01*
X0044393Y0046721D02*
X0044993Y0046721D01*
X0044993Y0047720D02*
X0044393Y0047720D01*
X0044393Y0048718D02*
X0034344Y0048718D01*
X0033939Y0049717D02*
X0040593Y0049717D01*
X0040878Y0050715D02*
X0033939Y0050715D01*
X0033004Y0051714D02*
X0041877Y0051714D01*
X0042875Y0052712D02*
X0032005Y0052712D01*
X0026672Y0052712D02*
X0026600Y0052712D01*
X0025602Y0053711D02*
X0071746Y0053711D01*
X0071176Y0052712D02*
X0062139Y0052712D01*
X0063137Y0051714D02*
X0070177Y0051714D01*
X0070148Y0050715D02*
X0064136Y0050715D01*
X0057483Y0052712D02*
X0046510Y0052712D01*
X0047509Y0051714D02*
X0056485Y0051714D01*
X0055486Y0050715D02*
X0048508Y0050715D01*
X0048793Y0049717D02*
X0055211Y0049717D01*
X0055211Y0048718D02*
X0044993Y0048718D01*
X0044993Y0049717D02*
X0044393Y0049717D01*
X0044393Y0050715D02*
X0044993Y0050715D01*
X0044993Y0051714D02*
X0044393Y0051714D01*
X0044393Y0052712D02*
X0044993Y0052712D01*
X0048793Y0047720D02*
X0054388Y0047720D01*
X0053389Y0046721D02*
X0048481Y0046721D01*
X0047482Y0045723D02*
X0052391Y0045723D01*
X0051392Y0044724D02*
X0046484Y0044724D01*
X0041904Y0045723D02*
X0037340Y0045723D01*
X0036341Y0046721D02*
X0040905Y0046721D01*
X0040593Y0047720D02*
X0035343Y0047720D01*
X0024603Y0054709D02*
X0070715Y0054709D01*
X0070648Y0055708D02*
X0023605Y0055708D01*
X0030205Y0032742D02*
X0033160Y0032742D01*
X0032161Y0031744D02*
X0029733Y0031744D01*
X0028864Y0030745D02*
X0031163Y0030745D01*
X0030164Y0029747D02*
X0026638Y0029747D01*
X0027887Y0028748D02*
X0029166Y0028748D01*
X0030350Y0021759D02*
X0041743Y0021759D01*
X0041036Y0020760D02*
X0029590Y0020760D01*
X0028321Y0019762D02*
X0040622Y0019762D01*
X0040480Y0018763D02*
X0006240Y0018763D01*
X0006240Y0017765D02*
X0040480Y0017765D01*
X0040480Y0016766D02*
X0006240Y0016766D01*
X0006240Y0015767D02*
X0040480Y0015767D01*
X0040480Y0014769D02*
X0006240Y0014769D01*
X0006240Y0013770D02*
X0040480Y0013770D01*
X0040480Y0012772D02*
X0006240Y0012772D01*
X0006240Y0011773D02*
X0040480Y0011773D01*
X0040752Y0010775D02*
X0006240Y0010775D01*
X0006240Y0009776D02*
X0041165Y0009776D01*
X0042056Y0008778D02*
X0006240Y0008778D01*
X0006240Y0019762D02*
X0017679Y0019762D01*
X0016410Y0020760D02*
X0006240Y0020760D01*
X0006240Y0021759D02*
X0015650Y0021759D01*
X0015237Y0022757D02*
X0006240Y0022757D01*
X0006240Y0023756D02*
X0015063Y0023756D01*
X0015063Y0024754D02*
X0006240Y0024754D01*
X0006240Y0025753D02*
X0015311Y0025753D01*
X0015725Y0026751D02*
X0006240Y0026751D01*
X0006240Y0027750D02*
X0016590Y0027750D01*
X0018113Y0028748D02*
X0006240Y0028748D01*
X0006240Y0029747D02*
X0019362Y0029747D01*
X0017136Y0030745D02*
X0006240Y0030745D01*
X0006240Y0031744D02*
X0016267Y0031744D01*
X0015795Y0032742D02*
X0006240Y0032742D01*
X0047131Y0084665D02*
X0047583Y0084665D01*
X0048130Y0085663D02*
X0048146Y0085663D01*
X0044240Y0106537D02*
X0044240Y0161537D01*
X0043748Y0161566D01*
X0051622Y0161566D02*
X0051740Y0161537D01*
X0051740Y0141537D01*
X0086740Y0106537D01*
X0098866Y0097787D02*
X0099240Y0097787D01*
X0099240Y0092787D01*
X0102691Y0081669D02*
X0102990Y0081669D01*
X0102990Y0080671D02*
X0102162Y0080671D01*
X0102590Y0079672D02*
X0101164Y0079672D01*
X0077048Y0060701D02*
X0076048Y0060701D01*
X0076048Y0059702D02*
X0077048Y0059702D01*
X0077048Y0056706D02*
X0076048Y0056706D01*
X0076048Y0055708D02*
X0077048Y0055708D01*
X0077048Y0054709D02*
X0076048Y0054709D01*
X0076048Y0053711D02*
X0077048Y0053711D01*
X0126622Y0035228D02*
X0126740Y0035287D01*
X0129240Y0035287D01*
X0135490Y0029037D01*
X0149575Y0047275D02*
X0150490Y0047787D01*
X0150490Y0057787D01*
X0147990Y0060287D01*
X0149240Y0061537D01*
X0149276Y0061291D01*
X0154057Y0097645D02*
X0140368Y0097645D01*
X0141367Y0098644D02*
X0153058Y0098644D01*
X0152478Y0099642D02*
X0141947Y0099642D01*
X0142361Y0100641D02*
X0152065Y0100641D01*
X0152013Y0101639D02*
X0142413Y0101639D01*
X0142413Y0102638D02*
X0152013Y0102638D01*
X0152378Y0103636D02*
X0142048Y0103636D01*
X0141610Y0104635D02*
X0152816Y0104635D01*
X0153814Y0105634D02*
X0140611Y0105634D01*
X0138718Y0106632D02*
X0155707Y0106632D01*
X0164318Y0106632D02*
X0164563Y0106632D01*
X0134913Y0115619D02*
X0133913Y0115619D01*
X0133913Y0116617D02*
X0134913Y0116617D01*
X0134913Y0117616D02*
X0133913Y0117616D01*
X0133913Y0118614D02*
X0134913Y0118614D01*
X0134913Y0121610D02*
X0133913Y0121610D01*
X0133913Y0122608D02*
X0134913Y0122608D01*
X0134913Y0123607D02*
X0133913Y0123607D01*
X0133913Y0142578D02*
X0134913Y0142578D01*
X0134913Y0143577D02*
X0133913Y0143577D01*
X0133913Y0144575D02*
X0134913Y0144575D01*
X0134913Y0147571D02*
X0133913Y0147571D01*
X0133913Y0148570D02*
X0134913Y0148570D01*
X0134913Y0149568D02*
X0133913Y0149568D01*
X0133913Y0150567D02*
X0134913Y0150567D01*
X0139830Y0150567D02*
X0154595Y0150567D01*
X0153490Y0149568D02*
X0140935Y0149568D01*
X0141542Y0148570D02*
X0152884Y0148570D01*
X0152585Y0147571D02*
X0141840Y0147571D01*
X0141759Y0145574D02*
X0152667Y0145574D01*
X0153076Y0144575D02*
X0141350Y0144575D01*
X0140593Y0143577D02*
X0153833Y0143577D01*
X0155322Y0142578D02*
X0139103Y0142578D01*
X0140474Y0160552D02*
X0153951Y0160552D01*
X0152952Y0161550D02*
X0141473Y0161550D01*
X0141991Y0162549D02*
X0152434Y0162549D01*
X0152021Y0163547D02*
X0142405Y0163547D01*
X0142413Y0164546D02*
X0152013Y0164546D01*
X0152013Y0165544D02*
X0142413Y0165544D01*
X0142004Y0166543D02*
X0152422Y0166543D01*
X0152922Y0167541D02*
X0141503Y0167541D01*
X0140505Y0168540D02*
X0153920Y0168540D01*
X0155963Y0169538D02*
X0138462Y0169538D01*
X0134240Y0165287D02*
X0134413Y0164561D01*
X0134240Y0165287D02*
X0130490Y0165287D01*
X0125490Y0170287D01*
X0076740Y0170287D01*
X0075490Y0169037D01*
X0075490Y0162787D01*
X0075244Y0161566D01*
X0077990Y0167541D02*
X0124700Y0167541D01*
X0125699Y0166543D02*
X0102310Y0166543D01*
X0102728Y0165544D02*
X0126413Y0165544D01*
X0126413Y0164546D02*
X0102728Y0164546D01*
X0102728Y0163547D02*
X0126421Y0163547D01*
X0126834Y0162549D02*
X0102728Y0162549D01*
X0102728Y0160552D02*
X0128351Y0160552D01*
X0127352Y0161550D02*
X0099366Y0161550D01*
X0099366Y0160552D02*
X0098366Y0160552D01*
X0098366Y0159553D02*
X0099366Y0159553D01*
X0099366Y0158555D02*
X0098366Y0158555D01*
X0098366Y0157556D02*
X0099366Y0157556D01*
X0099366Y0156558D02*
X0098366Y0156558D01*
X0095454Y0156558D02*
X0095111Y0156558D01*
X0092990Y0155559D02*
X0164563Y0155559D01*
X0164563Y0154561D02*
X0092990Y0154561D01*
X0092990Y0153562D02*
X0164563Y0153562D01*
X0164563Y0156558D02*
X0102278Y0156558D01*
X0102728Y0157556D02*
X0164563Y0157556D01*
X0164563Y0158555D02*
X0102728Y0158555D01*
X0102728Y0159553D02*
X0164563Y0159553D01*
X0160513Y0150567D02*
X0159513Y0150567D01*
X0159513Y0149568D02*
X0160513Y0149568D01*
X0160513Y0148570D02*
X0159513Y0148570D01*
X0159513Y0147571D02*
X0160513Y0147571D01*
X0164062Y0169538D02*
X0164563Y0169538D01*
X0164563Y0170537D02*
X0128776Y0170537D01*
X0127777Y0171535D02*
X0164563Y0171535D01*
X0164563Y0172534D02*
X0126598Y0172534D01*
X0127610Y0171703D02*
X0127610Y0171703D01*
X0129774Y0169538D02*
X0130363Y0169538D01*
X0101208Y0152564D02*
X0092990Y0152564D01*
X0092990Y0151565D02*
X0100803Y0151565D01*
X0100803Y0150567D02*
X0092990Y0150567D01*
X0092990Y0149568D02*
X0100803Y0149568D01*
X0100803Y0148570D02*
X0092990Y0148570D01*
X0092990Y0147571D02*
X0100803Y0147571D01*
X0100803Y0146572D02*
X0092990Y0146572D01*
X0092990Y0145574D02*
X0101006Y0145574D01*
X0090490Y0136537D02*
X0084240Y0130287D01*
X0090490Y0136537D02*
X0090490Y0161537D01*
X0090992Y0161566D01*
X0095143Y0166543D02*
X0095422Y0166543D01*
X0098366Y0166543D02*
X0099366Y0166543D01*
X0099366Y0165544D02*
X0098366Y0165544D01*
X0098366Y0164546D02*
X0099366Y0164546D01*
X0099366Y0163547D02*
X0098366Y0163547D01*
X0098366Y0162549D02*
X0099366Y0162549D01*
X0075632Y0172534D02*
X0006240Y0172534D01*
X0006240Y0171535D02*
X0074453Y0171535D01*
X0073455Y0170537D02*
X0006240Y0170537D01*
X0006240Y0169538D02*
X0072992Y0169538D01*
X0072990Y0168540D02*
X0006240Y0168540D01*
D19*
X0044240Y0106537D03*
X0084240Y0130287D03*
X0086740Y0106537D03*
X0086740Y0040287D03*
M02*
