G75*
%MOIN*%
%OFA0B0*%
%FSLAX25Y25*%
%IPPOS*%
%LPD*%
%AMOC8*
5,1,8,0,0,1.08239X$1,22.5*
%
%ADD10C,0.06000*%
%ADD11C,0.06800*%
%ADD12R,0.05524X0.08674*%
%ADD13R,0.08674X0.05524*%
%ADD14OC8,0.06000*%
%ADD15R,0.09600X0.05600*%
%ADD16R,0.09461X0.14973*%
%ADD17C,0.06737*%
%ADD18C,0.04800*%
D10*
X0146975Y0037275D02*
X0152175Y0037275D01*
X0152175Y0047275D02*
X0146975Y0047275D01*
D11*
X0137413Y0101761D02*
X0131413Y0101761D01*
X0131413Y0119561D02*
X0137413Y0119561D01*
X0157013Y0119561D02*
X0163013Y0119561D01*
X0163013Y0101761D02*
X0157013Y0101761D01*
X0157013Y0146761D02*
X0163013Y0146761D01*
X0163013Y0164561D02*
X0157013Y0164561D01*
X0137413Y0164561D02*
X0131413Y0164561D01*
X0131413Y0146761D02*
X0137413Y0146761D01*
X0095480Y0018425D02*
X0095480Y0012425D01*
X0085480Y0012425D02*
X0085480Y0018425D01*
X0075480Y0018425D02*
X0075480Y0012425D01*
X0065480Y0012425D02*
X0065480Y0018425D01*
X0055480Y0018425D02*
X0055480Y0012425D01*
X0045480Y0012425D02*
X0045480Y0018425D01*
D12*
X0043748Y0097787D03*
X0051622Y0097787D03*
X0059496Y0097787D03*
X0067370Y0097787D03*
X0075244Y0097787D03*
X0083118Y0097787D03*
X0090992Y0097787D03*
X0098866Y0097787D03*
X0098866Y0161566D03*
X0090992Y0161566D03*
X0083118Y0161566D03*
X0075244Y0161566D03*
X0067370Y0161566D03*
X0059496Y0161566D03*
X0051622Y0161566D03*
X0043748Y0161566D03*
D13*
X0106740Y0148968D03*
X0106740Y0141094D03*
X0106740Y0133220D03*
X0106740Y0125346D03*
X0106740Y0117472D03*
X0106740Y0109598D03*
D14*
X0119260Y0110810D03*
X0098591Y0082897D03*
X0098591Y0072897D03*
X0109276Y0061291D03*
X0119260Y0070810D03*
X0149276Y0061291D03*
X0126622Y0035228D03*
X0119122Y0030228D03*
X0126622Y0025228D03*
X0059811Y0048535D03*
X0044693Y0048732D03*
X0029339Y0048873D03*
X0014535Y0048842D03*
X0014535Y0088842D03*
X0029339Y0088873D03*
X0044693Y0088732D03*
X0059811Y0088535D03*
D15*
X0076548Y0057556D03*
X0076548Y0048456D03*
X0076548Y0039356D03*
D16*
X0100949Y0048456D03*
D17*
X0025969Y0024165D02*
X0020031Y0024165D01*
X0020031Y0034165D02*
X0025969Y0034165D01*
D18*
X0086740Y0040287D03*
X0086740Y0106537D03*
X0084240Y0130287D03*
X0044240Y0106537D03*
M02*
